<?xml version="1.0" encoding="UTF-8" standalone="no"?>
<svg
   version="1.1"
   id="svg755"
   sodipodi:docname="duplicate_ab_04.svg"
   width="482.39999"
   height="53.564999"
   inkscape:version="1.2 (1:1.2.1+202207142221+cd75a1ee6d)"
   xmlns:inkscape="http://www.inkscape.org/namespaces/inkscape"
   xmlns:sodipodi="http://sodipodi.sourceforge.net/DTD/sodipodi-0.dtd"
   xmlns="http://www.w3.org/2000/svg"
   xmlns:svg="http://www.w3.org/2000/svg">
  <defs
     id="defs759" />
  <sodipodi:namedview
     id="namedview757"
     pagecolor="#ffffff"
     bordercolor="#666666"
     borderopacity="1.0"
     inkscape:showpageshadow="2"
     inkscape:pageopacity="0.0"
     inkscape:pagecheckerboard="0"
     inkscape:deskcolor="#d1d1d1"
     showgrid="false"
     inkscape:zoom="4.3666667"
     inkscape:cx="-631.60305"
     inkscape:cy="-2032.6718"
     inkscape:window-width="1920"
     inkscape:window-height="1011"
     inkscape:window-x="1920"
     inkscape:window-y="141"
     inkscape:window-maximized="1"
     inkscape:current-layer="svg755" />
  <path
     class="write-stroke-pen"
     fill="none"
     stroke="#000000"
     stroke-width="2.4"
     stroke-linecap="round"
     stroke-linejoin="round"
     __comx="780"
     __comy="2134.6"
     __timestamp="0x18287aa6ee9"
     d="m 1.2,22.365 v 30"
     id="path617" />
  <path
     class="write-stroke-pen"
     fill="none"
     stroke="#000000"
     stroke-width="2.4"
     stroke-linecap="round"
     stroke-linejoin="round"
     __comx="930"
     __comy="2129.6"
     __timestamp="0x18287aa864a"
     d="m 1.2,22.365 h 30 30 30 30 30 60 60 30"
     id="path619" />
  <path
     class="write-stroke-pen"
     fill="none"
     stroke="#000000"
     stroke-width="2.4"
     stroke-linecap="round"
     stroke-linejoin="round"
     __comx="1170"
     __comy="2129.6"
     __timestamp="0x18287aaa037"
     d="m 301.2,22.365 h 30 30 30 30 30 30"
     id="path621" />
  <path
     class="write-stroke-pen"
     fill="none"
     stroke="#000000"
     stroke-width="2.4"
     stroke-linecap="round"
     stroke-linejoin="round"
     __comx="1260"
     __comy="2134.6"
     __timestamp="0x18287aaa453"
     d="m 481.2,22.365 v 30"
     id="path623" />
  <path
     class="write-stroke-pen"
     fill="none"
     stroke="#000000"
     stroke-width="2.4"
     stroke-linecap="round"
     stroke-linejoin="round"
     __comx="1020"
     __comy="2159.6"
     __timestamp="0x18287aaafc4"
     d="m 1.2,52.365 h 30 30 30 30 30 30 30 30 30 30 30 30 30 30 30 30"
     id="path625" />
  <path
     class="write-stroke-pen"
     fill="none"
     stroke="#000000"
     stroke-width="2.4"
     stroke-linecap="round"
     stroke-linejoin="round"
     __comx="1140"
     __comy="2159.6"
     __timestamp="0x18287aac9b9"
     d="m 361.2,52.365 v 0"
     id="path627" />
  <path
     class="write-stroke-pen"
     fill="none"
     stroke="#000000"
     stroke-width="2.4"
     stroke-linecap="round"
     stroke-linejoin="round"
     __comx="810"
     __comy="2145.938"
     __timestamp="0x18287ab6a5a"
     d="m 31.2,22.365 v 30"
     id="path629" />
  <path
     class="write-stroke-pen"
     fill="none"
     stroke="#000000"
     stroke-width="2.4"
     stroke-linecap="round"
     stroke-linejoin="round"
     __comx="840"
     __comy="2145.938"
     __timestamp="0x18287ab6c8d"
     d="m 61.2,22.365 v 30"
     id="path631" />
  <path
     class="write-stroke-pen"
     fill="none"
     stroke="#000000"
     stroke-width="2.4"
     stroke-linecap="round"
     stroke-linejoin="round"
     __comx="870"
     __comy="2145.938"
     __timestamp="0x18287ab6e78"
     d="m 91.2,22.365 v 30"
     id="path633" />
  <path
     class="write-stroke-pen"
     fill="none"
     stroke="#000000"
     stroke-width="2.4"
     stroke-linecap="round"
     stroke-linejoin="round"
     __comx="900"
     __comy="2145.938"
     __timestamp="0x18287ab703b"
     d="m 121.2,22.365 v 30"
     id="path635" />
  <path
     class="write-stroke-pen"
     fill="none"
     stroke="#000000"
     stroke-width="2.4"
     stroke-linecap="round"
     stroke-linejoin="round"
     __comx="930"
     __comy="2145.938"
     __timestamp="0x18287ab7230"
     d="m 151.2,52.365 v 0"
     id="path637" />
  <path
     class="write-stroke-pen"
     fill="none"
     stroke="#000000"
     stroke-width="2.4"
     stroke-linecap="round"
     stroke-linejoin="round"
     __comx="930"
     __comy="2145.938"
     __timestamp="0x18287ab7481"
     d="m 151.2,22.365 v 30"
     id="path639" />
  <path
     class="write-stroke-pen"
     fill="none"
     stroke="#000000"
     stroke-width="2.4"
     stroke-linecap="round"
     stroke-linejoin="round"
     __comx="960"
     __comy="2145.938"
     __timestamp="0x18287ab7625"
     d="m 181.2,22.365 v 30"
     id="path641" />
  <path
     class="write-stroke-pen"
     fill="none"
     stroke="#000000"
     stroke-width="2.4"
     stroke-linecap="round"
     stroke-linejoin="round"
     __comx="990"
     __comy="2145.938"
     __timestamp="0x18287ab788b"
     d="m 211.2,22.365 v 30"
     id="path643" />
  <path
     class="write-stroke-pen"
     fill="none"
     stroke="#000000"
     stroke-width="2.4"
     stroke-linecap="round"
     stroke-linejoin="round"
     __comx="1020"
     __comy="2145.938"
     __timestamp="0x18287ab79f1"
     d="m 241.2,22.365 v 30"
     id="path645" />
  <path
     class="write-stroke-pen"
     fill="none"
     stroke="#000000"
     stroke-width="2.4"
     stroke-linecap="round"
     stroke-linejoin="round"
     __comx="1050"
     __comy="2145.938"
     __timestamp="0x18287ab7b9f"
     d="m 271.2,22.365 v 30"
     id="path647" />
  <path
     class="write-stroke-pen"
     fill="none"
     stroke="#000000"
     stroke-width="2.4"
     stroke-linecap="round"
     stroke-linejoin="round"
     __comx="1080"
     __comy="2145.938"
     __timestamp="0x18287ab7e4c"
     d="m 301.2,22.365 v 30"
     id="path649" />
  <path
     class="write-stroke-pen"
     fill="none"
     stroke="#000000"
     stroke-width="2.4"
     stroke-linecap="round"
     stroke-linejoin="round"
     __comx="1110"
     __comy="2145.938"
     __timestamp="0x18287ab7fc7"
     d="m 331.2,22.365 v 30"
     id="path651" />
  <path
     class="write-stroke-pen"
     fill="none"
     stroke="#000000"
     stroke-width="2.4"
     stroke-linecap="round"
     stroke-linejoin="round"
     __comx="1140"
     __comy="2145.938"
     __timestamp="0x18287ab816b"
     d="m 361.2,22.365 v 30"
     id="path653" />
  <path
     class="write-stroke-pen"
     fill="none"
     stroke="#000000"
     stroke-width="2.4"
     stroke-linecap="round"
     stroke-linejoin="round"
     __comx="1170"
     __comy="2145.938"
     __timestamp="0x18287ab8337"
     d="m 391.2,22.365 v 30"
     id="path655" />
  <path
     class="write-stroke-pen"
     fill="none"
     stroke="#000000"
     stroke-width="2.4"
     stroke-linecap="round"
     stroke-linejoin="round"
     __comx="1200"
     __comy="2145.938"
     __timestamp="0x18287ab85a7"
     d="m 421.2,22.365 v 30"
     id="path657" />
  <path
     class="write-stroke-pen"
     fill="none"
     stroke="#000000"
     stroke-width="2.4"
     stroke-linecap="round"
     stroke-linejoin="round"
     __comx="1230"
     __comy="2145.938"
     __timestamp="0x18287ab872c"
     d="m 451.2,22.365 v 30"
     id="path659" />
  <path
     class="write-flat-pen"
     fill="#ff0000"
     fill-opacity="1"
     stroke-width="2.4"
     __comx="1175.066"
     __comy="2142.953"
     __timestamp="0x18287ad672f"
     d="m 394.982,26.574 0.054,1.138 0.059,0.519 0.155,0.662 0.071,0.64 0.078,0.708 0.05,0.704 -0.028,0.745 v 0.701 l -0.027,0.625 -0.027,0.536 -0.021,0.446 -0.013,0.262 -0.005,0.218 0.027,0.131 1.555,0.827 0.173,-0.218 0.007,-0.53 -0.189,-0.584 0.108,-0.223 -0.409,-0.198 -0.108,0.223 -0.558,0.18 -0.238,-0.09 0.055,-0.132 1.555,0.827 0.034,-0.037 0.046,-0.164 0.041,-0.333 0.036,-0.485 0.03,-0.554 0.03,-0.68 V 31.73 l 0.029,-0.823 -0.067,-0.866 -0.096,-0.757 -0.104,-0.772 -0.197,-0.717 -0.124,-0.458 -0.406,-1.085"
     id="path661" />
  <path
     class="write-flat-pen"
     fill="#ff0000"
     fill-opacity="1"
     stroke-width="2.4"
     __comx="1176.616"
     __comy="2142.953"
     __timestamp="0x18287ad685b"
     d="m 396.185,27.859 0.38,-0.858 0.152,-0.175 0.227,-0.165 0.338,-0.142 0.367,-0.057 0.295,0.039 0.249,0.128 0.222,0.216 0.212,0.336 0.121,0.355 0.05,0.378 -0.008,0.321 -0.059,0.268 -0.075,0.188 -0.147,0.207 -0.197,0.212 -0.174,0.143 -0.306,0.152 -0.32,0.19 -0.201,0.087 -0.229,0.08 -0.151,0.077 -0.148,0.065 -0.13,0.154 -0.756,0.419 0.639,1.436 0.817,-0.281 0.031,0.083 0.11,0.01 0.236,-0.068 0.271,-0.075 0.423,-0.174 0.376,-0.224 0.446,-0.222 0.459,-0.382 0.378,-0.415 0.371,-0.534 0.208,-0.591 0.11,-0.615 -0.01,-0.666 -0.126,-0.717 -0.287,-0.739 -0.49,-0.71 -0.651,-0.564 -0.857,-0.339 -0.865,-0.01 -0.794,0.208 -0.712,0.389 -0.533,0.537 -0.26,0.537 -0.328,1.01"
     id="path663" />
  <path
     class="write-flat-pen"
     fill="#ff0000"
     fill-opacity="1"
     stroke-width="2.4"
     __comx="1180.762"
     __comy="2142.953"
     __timestamp="0x18287ad6945"
     d="m 401.38,29.43 -0.262,1.181 -0.101,0.415 -0.102,0.421 -0.065,0.478 -0.067,0.479 0.003,0.458 0.018,0.355 0.011,0.333 0.071,0.244 0.089,0.072 0.164,0.187 0.086,0.211 -0.228,0.344 0.598,0.395 0.228,-0.344 0.293,-0.103 0.326,-0.232 0.184,-0.317 0.075,-0.375 0.065,-0.335 0.019,-0.429 0.008,-0.32 0.049,-0.353 0.054,-0.414 0.071,-0.418 0.022,-0.456 0.151,-1.169"
     id="path665" />
  <path
     class="write-flat-pen"
     fill="#ff0000"
     fill-opacity="1"
     stroke-width="2.4"
     __comx="1180.937"
     __comy="2142.953"
     __timestamp="0x18287ad69dd"
     d="m 401.365,27.024 0.153,0.931 0.256,0.236 0.331,0.155 0.117,0.318 0.552,-0.203 -0.117,-0.318 0.153,-0.327 0.098,-0.206 -0.098,-0.795"
     id="path667" />
  <path
     class="write-flat-pen"
     fill="#ff0000"
     fill-opacity="1"
     stroke-width="2.4"
     __comx="1186.029"
     __comy="2142.953"
     __timestamp="0x18287ad6ac4"
     d="m 404.708,28.142 0.693,0.939 0.285,0.454 0.337,0.475 0.399,0.513 0.369,0.47 0.356,0.449 0.295,0.423 0.197,0.372 0.132,0.39 0.07,0.318 0.037,0.351 0.03,0.262 0.024,0.127 0.073,0.01 0.371,-0.311 0.321,0.143 -0.652,-0.129 -0.238,1.198 0.652,0.129 0.474,0.173 0.492,-0.464 0.174,-0.329 0.125,-0.364 0.028,-0.512 -0.025,-0.535 -0.104,-0.558 -0.219,-0.654 -0.326,-0.617 -0.403,-0.57 -0.399,-0.492 -0.385,-0.469 -0.417,-0.485 -0.363,-0.417 -0.372,-0.404 -0.79,-0.891"
     id="path669" />
  <path
     class="write-flat-pen"
     fill="#ff0000"
     fill-opacity="1"
     stroke-width="2.4"
     __comx="1185.808"
     __comy="2142.953"
     __timestamp="0x18287ad6b86"
     d="m 408.31,27.876 -0.967,0.672 -0.482,0.381 -0.445,0.514 -0.43,0.547 -0.43,0.608 -0.407,0.642 -0.279,0.645 -0.156,0.576 -0.041,0.605 0.19,0.806 -0.006,0.01 0.011,0.01 0.006,-0.01 0.83,-0.242 0.482,-0.44 0.365,-0.466 0.302,-0.503 0.348,-0.507 0.384,-0.543 0.385,-0.502 0.321,-0.435 0.253,-0.326 0.802,-0.747"
     id="path671" />
  <path
     class="write-flat-pen"
     fill="#ff0000"
     fill-opacity="1"
     stroke-width="2.4"
     __comx="1176.784"
     __comy="2149.837"
     __timestamp="0x18287c5c1aa"
     d="m 398.294,42.736 -0.712,-0.034 -0.139,-0.037 -0.166,-0.038 -0.181,-0.043 -0.163,-0.035 -0.125,-0.061 -0.078,-0.058 -0.092,-0.095 -0.114,-0.148 -0.07,-0.161 -0.053,-0.238 -0.031,-0.235 0.055,-0.206 0.116,-0.255 0.174,-0.235 0.225,-0.205 0.21,-0.137 0.171,-0.073 -0.002,-10e-4 -0.146,-0.046 0.049,0.058 0.144,0.26 0.141,0.516 0.116,0.664 0.034,0.729 -0.067,0.773 -0.176,0.828 -0.256,0.812 -0.37,0.841 -0.378,0.78 -0.372,0.666 -0.324,0.506 -0.25,0.357 -0.161,0.201 -0.035,0.058 h 0.056 l 1.253,0.868 -0.095,0.091 -0.044,0.013 0.214,-0.153 0.274,-0.165 0.258,-0.088 0.333,-0.077 0.298,-0.045 h 0.302 l 0.395,-0.032 0.355,-0.014 0.398,0.001 h 0.343 l 0.323,-0.01 0.221,-0.023 0.122,-0.045 0.079,-0.073 -0.004,-0.062 0.062,-0.053 0.565,0.138 0.244,-1.002 -0.565,-0.138 -0.067,-0.085 -0.122,-0.083 -0.191,-0.073 -0.122,-0.045 -0.221,-0.023 -0.323,-0.01 h -0.344 -0.441 l -0.435,0.029 -0.402,0.051 -0.389,0.04 -0.444,0.123 -0.412,0.134 -0.433,0.165 -0.433,0.261 -0.361,0.248 -0.341,0.311 -0.136,0.231 1.253,0.868 0.154,-0.074 0.177,-0.209 0.194,-0.239 0.303,-0.432 0.372,-0.58 0.418,-0.756 0.412,-0.851 0.42,-0.958 0.301,-0.987 0.196,-1.013 0.073,-0.984 -0.059,-0.944 -0.163,-0.843 -0.234,-0.785 -0.382,-0.628 -0.492,-0.442 -0.601,-0.189 -0.548,0.127 -0.422,0.177 -0.434,0.28 -0.423,0.382 -0.382,0.478 -0.254,0.541 -0.172,0.632 0.065,0.609 0.091,0.471 0.216,0.508 0.315,0.401 0.332,0.316 0.439,0.227 0.452,0.101 0.312,0.01 0.25,-0.01 0.226,-0.038 0.139,-0.037 0.712,-0.034"
     id="path673" />
  <path
     class="write-flat-pen"
     fill="#ff0000"
     fill-opacity="1"
     stroke-width="2.4"
     __comx="1181.73"
     __comy="2154.5"
     __timestamp="0x18287c5c289"
     d="m 402.306,45.984 -0.039,0.922 -0.062,0.351 -0.042,0.424 -0.06,0.342 -0.051,0.389 -0.022,0.271 -0.038,0.279 0.006,0.222 0.04,0.225 0.063,0.109 0.081,0.083 0.061,0.083 -0.141,0.567 1.015,0.252 0.141,-0.567 0.099,-0.071 0.119,-0.106 0.103,-0.156 0.088,-0.238 0.051,-0.172 0.052,-0.307 0.024,-0.298 0.041,-0.361 0.031,-0.449 -0.04,-0.471 -0.017,-0.355 -0.039,-0.97"
     id="path675" />
  <path
     class="write-flat-pen"
     fill="#ff0000"
     fill-opacity="1"
     stroke-width="2.4"
     __comx="1186.849"
     __comy="2148.261"
     __timestamp="0x18287c5c42a"
     d="m 407.318,39.213 -0.795,0.469 -0.362,0.298 -0.362,0.527 -0.204,0.683 -0.189,0.794 -0.111,0.967 -0.029,0.993 0.048,1.013 0.164,0.94 0.333,0.873 0.503,0.681 0.581,0.524 0.62,0.311 0.699,0.174 0.794,-0.121 0.62,-0.43 0.464,-0.589 0.356,-0.639 0.352,-0.753 0.221,-0.816 0.137,-0.854 0.003,-0.882 -0.142,-0.871 -0.286,-0.802 -0.377,-0.696 -0.521,-0.617 -0.652,-0.425 -0.778,-0.215 -0.806,0.03 -0.803,0.289 -0.737,0.47 -0.628,0.689 -0.485,0.802 -0.007,-10e-4 0.006,0.01 0.002,-0.01 0.909,-0.118 0.814,-0.147 0.658,-0.116 0.501,-0.045 0.31,0.032 0.245,0.08 0.18,0.118 0.222,0.261 0.227,0.39 0.178,0.494 0.09,0.551 0.003,0.582 -0.096,0.61 -0.152,0.564 -0.253,0.545 -0.251,0.451 -0.197,0.252 -0.033,0.023 h 0.007 l -0.133,-0.036 -0.211,-0.106 -0.254,-0.228 -0.239,-0.322 -0.178,-0.465 -0.114,-0.649 -0.045,-0.827 0.017,-0.848 0.075,-0.791 0.137,-0.673 0.082,-0.458 0.039,-0.208 0.005,-0.09 0.604,-0.423"
     id="path677" />
  <path
     class="write-flat-pen"
     fill="#000000"
     stroke-width="2.4"
     __comx="964.06"
     __comy="2116.243"
     __timestamp="0x182884cb256"
     d="m 188.891,7.856 -0.208,-0.737 -0.153,-0.358 -0.279,-0.345 -0.29,-0.18 -0.475,-0.15 -0.504,-0.098 -0.665,-0.031 -0.785,0.099 -0.816,0.223 -0.75,0.32 -0.703,0.31 -0.535,0.263 -0.345,0.201 -0.424,0.252 -0.33,0.913 0.397,0.701 0.544,0.55 0.779,0.535 0.817,0.377 0.738,0.47 0.652,0.439 0.467,0.336 0.326,0.356 0.191,0.331 0.061,0.174 0.041,0.21 0.008,0.21 -0.015,0.117 -0.104,0.196 -0.13,0.203 -0.095,0.074 -0.318,0.125 -0.187,0.078 -0.309,0.02 -0.378,0.037 -0.284,-0.026 -0.381,-0.041 -0.202,-0.053 -0.116,-0.045 -0.183,-0.082 -0.111,-0.062 -0.012,1.531 0.082,-0.487 0.537,-0.382 -0.689,-0.97 -0.537,0.382 -0.487,-0.082 -0.012,1.531 0.228,0.187 0.404,0.208 0.301,0.117 0.449,0.116 0.544,0.058 0.49,0.039 0.534,-0.06 0.607,-0.052 0.46,-0.209 0.576,-0.244 0.541,-0.478 0.311,-0.521 0.283,-0.568 0.062,-0.599 -0.025,-0.493 -0.096,-0.476 -0.163,-0.461 -0.38,-0.653 -0.591,-0.646 -0.646,-0.463 -0.694,-0.468 -0.864,-0.55 -0.79,-0.363 -0.508,-0.345 -0.249,-0.249 0.141,0.25 -0.181,0.502 -0.148,0.088 0.284,-0.167 0.445,-0.224 0.66,-0.302 0.625,-0.285 0.573,-0.176 0.512,-0.083 0.406,-0.001 0.321,0.034 0.234,0.03 -0.011,-0.037 h 0.135 l 0.102,-0.03 0.256,0.517"
     id="path679" />
  <path
     class="write-flat-pen"
     fill="#000000"
     stroke-width="2.4"
     __comx="973.765"
     __comy="2116.243"
     __timestamp="0x182884cb551"
     d="m 192.121,1.123 -0.145,1.342 -0.04,0.899 -0.081,1.104 -0.136,1.263 -0.129,1.256 -0.177,1.254 -0.179,1.215 -0.179,1.133 -0.12,1.084 -0.118,0.978 -0.056,0.714 -0.096,0.497 -0.05,0.299 -0.049,0.203 -0.025,0.251 1.841,0.035 -0.052,0.01 0.097,-0.281 0.208,-0.617 0.286,-0.64 0.37,-0.734 0.32,-0.666 0.374,-0.707 0.306,-0.517 0.36,-0.527 0.285,-0.355 0.342,-0.36 0.231,-0.182 0.368,-0.205 0.245,-0.167 0.178,-0.077 0.059,-0.019 -0.284,0.052 -0.273,-0.253 0.001,0.161 -0.05,0.463 -0.18,0.78 -0.186,0.783 -0.241,0.808 -0.203,0.835 -0.075,0.759 -0.061,0.572 -0.011,0.501 0.158,0.514 0.365,0.521 0.451,0.322 0.553,0.249 0.711,0.173 0.695,-0.135 0.595,-0.239 0.497,-0.386 0.402,-0.489 0.084,-0.651 -0.023,-0.433 0.11,-0.155 -0.14,-0.099 -0.11,0.155 -0.437,0.149 -0.429,0.245 -0.291,0.095 -0.312,0.086 -0.322,0.042 h -0.215 l -0.207,-0.069 -0.253,-0.115 -0.055,-0.039 -0.024,-0.034 0.009,0.035 -0.001,-0.137 0.047,-0.509 0.047,-0.654 0.138,-0.684 0.21,-0.829 0.154,-0.854 0.153,-0.913 0.013,-0.813 -0.225,-0.745 -0.552,-0.546 -0.588,0.102 -0.228,0.083 -0.344,0.153 -0.3,0.205 -0.409,0.228 -0.398,0.313 -0.449,0.469 -0.361,0.432 -0.431,0.604 -0.354,0.577 -0.425,0.736 -0.356,0.648 -0.429,0.711 -0.396,0.716 -0.267,0.64 -0.291,0.603 -0.028,0.415 1.841,0.035 0.011,-0.121 0.033,-0.142 0.055,-0.339 0.112,-0.576 0.057,-0.783 0.107,-0.951 0.107,-1.055 0.16,-1.106 0.161,-1.233 0.162,-1.3 0.098,-1.297 0.091,-1.301 0.031,-1.177 -0.034,-0.899 -0.01,-1.313"
     id="path681" />
  <path
     class="write-flat-pen"
     fill="#000000"
     stroke-width="2.4"
     __comx="978.981"
     __comy="2116.243"
     __timestamp="0x182884cb61f"
     d="m 199.49,1.227 -0.044,0.757 -0.016,0.214 -0.001,0.442 0.047,0.561 0.289,0.532 -0.032,0.517 -0.045,0.1 0.055,0.025 0.045,-0.1 0.388,-0.408 0.499,-0.482 0.165,-0.604 0.094,-0.509 -0.016,-0.289 -0.044,-0.757"
     id="path683" />
  <path
     class="write-flat-pen"
     fill="#000000"
     stroke-width="2.4"
     __comx="978.391"
     __comy="2116.243"
     __timestamp="0x182884cb83f"
     d="m 199.231,8.738 -0.195,1.315 -0.088,0.811 -0.069,0.732 -0.11,0.672 -0.114,0.694 -0.111,0.559 -0.065,0.518 -0.045,0.293 -0.034,0.17 -0.046,0.158 -0.003,0.236 0.131,0.185 0.119,0.76 1.143,0.086 0.232,-0.734 0.152,-0.103 0.037,-0.037 0.032,-0.109 0.059,-0.292 0.055,-0.365 0.056,-0.477 0.104,-0.525 0.113,-0.735 0.109,-0.749 0.045,-0.804 0.034,-0.796 0.056,-1.311"
     id="path685" />
  <path
     class="write-flat-pen"
     fill="#000000"
     stroke-width="2.4"
     __comx="984.03"
     __comy="2116.243"
     __timestamp="0x182884cba02"
     d="m 203.29,15.459 0.047,-0.892 0.036,-0.387 0.065,-0.437 0.084,-0.556 0.144,-0.689 0.087,-0.848 0.129,-0.891 0.184,-1.035 0.121,-1.116 0.225,-1.136 0.233,-1.134 0.163,-1.005 0.317,-0.861 0.215,-0.721 0.195,-0.429 0.254,-0.283 0.082,-0.115 0.131,-0.079 0.137,-0.068 0.145,-0.059 0.128,-0.016 h 0.058 l 0.069,0.026 0.148,0.105 0.181,0.159 0.243,0.395 0.26,0.325 0.468,0.339 0.011,0.2 0.221,-0.012 -0.011,-0.2 0.42,-0.558 -0.078,-0.582 -0.158,-0.644 -0.308,-0.529 -0.471,-0.455 -0.685,-0.288 -0.503,0.02 -0.419,0.051 -0.416,0.166 -0.263,0.131 -0.494,0.301 -0.23,0.324 -0.363,0.407 -0.351,0.773 -0.233,0.782 -0.354,0.967 -0.178,1.134 -0.22,1.109 -0.228,1.219 -0.109,1.139 -0.156,1.022 -0.097,0.967 -0.039,0.821 -0.08,0.677 -0.034,0.608 -0.03,0.511 0.036,0.457 0.047,0.892"
     id="path687" />
  <path
     class="write-flat-pen"
     fill="#000000"
     stroke-width="2.4"
     __comx="983.287"
     __comy="2116.243"
     __timestamp="0x182884cbac9"
     d="m 202.059,8.561 0.74,0.679 0.354,0.186 0.479,0.129 0.621,0.036 0.353,-0.036 0.547,-0.017 0.352,-0.093 0.491,-0.191 0.37,-0.368 0.38,-0.467 0.169,-0.038 -0.036,-0.158 -0.169,0.038 -0.546,-0.258 -0.416,-0.188 -0.449,-0.084 -0.277,-0.016 h -0.532 l -0.294,0.033 -0.334,-0.01 -0.21,-0.017 -0.019,0.045 -0.625,-0.406"
     id="path689" />
  <path
     class="write-flat-pen"
     fill="#000000"
     stroke-width="2.4"
     __comx="990.258"
     __comy="2116.243"
     __timestamp="0x182884cbd64"
     d="m 212.305,1.567 -0.355,1.1 -0.192,0.809 -0.41,1.246 -0.42,1.436 -0.402,1.34 -0.474,1.296 -0.299,1.262 -0.299,1.113 -0.125,0.909 -0.123,0.818 -0.007,0.669 0.074,0.63 0.274,0.529 0.363,0.399 0.51,0.357 0.597,0.257 0.627,0.1 0.673,-0.068 0.568,-0.182 0.415,-0.384 0.311,-0.586 -0.17,-0.656 -0.37,-0.449 -0.024,-0.152 -0.107,0.017 0.024,0.152 -0.238,0.386 -0.368,0.014 h -0.198 l -0.052,-0.062 -0.083,-0.02 -0.253,-0.015 -0.148,-0.045 -0.193,-0.094 -0.161,-0.113 -0.029,-0.032 0.02,0.04 -0.016,-0.131 0.003,-0.398 0.1,-0.694 0.102,-0.798 0.265,-1.021 0.269,-1.183 0.432,-1.254 0.392,-1.416 0.377,-1.429 0.389,-1.343 0.143,-1.056 -0.256,-1.247"
     id="path691" />
  <path
     class="write-flat-pen"
     fill="#000000"
     stroke-width="2.4"
     __comx="989.947"
     __comy="2116.243"
     __timestamp="0x182884cbe36"
     d="m 208.911,10.681 0.566,-0.466 0.072,0.02 0.513,-0.095 0.725,-0.16 0.595,-0.145 0.548,-0.109 0.602,-0.131 0.643,-0.256 0.637,-0.433 0.671,-0.307 h 0.071 l -0.003,-0.041 h -0.071 l -0.691,-0.211 -0.723,-0.42 -0.736,-0.056 -0.643,-0.02 -0.695,0.102 -0.643,0.157 -0.698,0.158 -0.56,0.135 -0.534,0.193 -0.82,0.839"
     id="path693" />
  <path
     class="write-flat-pen"
     fill="#000000"
     stroke-width="2.4"
     __comx="1038.962"
     __comy="2110.26"
     __timestamp="0x182884d1e7d"
     d="m 261.114,0 -0.425,0.886 -0.231,0.494 -0.294,0.707 -0.394,0.884 -0.495,0.915 -0.486,0.805 -0.564,0.8 -0.511,0.806 -0.534,0.741 -0.35,0.666 -0.331,0.5 -0.244,0.477 -0.185,0.336 -0.274,0.387 -0.156,0.52 -0.106,0.825 0.809,0.578 0.754,0.158 0.692,0.021 h 0.782 l 0.87,-0.112 0.694,-0.164 0.743,-0.219 0.584,-0.207 0.568,-0.204 0.623,-0.225 0.443,-0.22 0.252,-0.136 0.23,-0.113 0.137,-0.097 -0.015,-0.023 1.088,-0.303 -0.474,-1.892 -1.103,0.246 -0.297,0.048 -0.325,0.182 -0.18,0.082 -0.268,0.14 -0.311,0.152 -0.511,0.184 -0.564,0.203 -0.526,0.187 -0.635,0.188 -0.532,0.127 -0.624,0.081 -0.618,-10e-4 -0.48,-0.013 -0.144,-0.029 0.565,0.403 -0.075,0.583 0.009,-0.033 0.143,-0.206 0.255,-0.465 0.205,-0.404 0.323,-0.496 0.326,-0.634 0.477,-0.679 0.509,-0.823 0.567,-0.834 0.529,-0.923 0.529,-1.037 0.414,-0.994 0.292,-0.79 0.123,-0.551 0.245,-0.925"
     id="path695" />
  <path
     class="write-flat-pen"
     fill="#000000"
     stroke-width="2.4"
     __comx="1041.843"
     __comy="2113.159"
     __timestamp="0x182884d1f91"
     d="m 263.603,3.242 -0.335,1.393 -0.149,0.911 -0.173,1.009 -0.333,1.057 -0.286,0.886 -0.274,0.772 -0.293,0.731 -0.171,0.595 -0.199,0.504 -0.152,0.366 -0.055,0.126 -0.098,0.159 -0.2,0.436 -0.053,0.325 0.075,0.458 0.162,0.253 -0.064,0.662 1.022,0.099 0.064,-0.662 0.197,-0.116 0.228,-0.164 0.081,-0.025 0.17,-0.188 0.186,-0.251 0.142,-0.323 0.166,-0.401 0.24,-0.612 0.168,-0.595 0.265,-0.682 0.287,-0.848 0.275,-0.932 0.345,-1.198 0.171,-1.165 0.095,-0.904 0.15,-1.388"
     id="path697" />
  <path
     class="write-flat-pen"
     fill="#000000"
     stroke-width="2.4"
     __comx="1048.939"
     __comy="2117.453"
     __timestamp="0x182884dc51a"
     d="m 270.559,2.033 0.081,1.28 -0.078,0.692 -0.029,0.864 -0.12,0.966 -0.175,1.073 -0.287,1.196 -0.291,1.28 -0.282,1.252 -0.344,1.228 -0.23,1.079 -0.22,0.892 -0.166,0.649 -0.108,0.479 -0.086,0.317 -0.044,0.111 -0.065,0.119 -0.115,0.267 0.034,0.254 -0.075,0.891 1.393,0.323 0.326,-0.833 0.097,-0.018 h 0.01 l 0.103,-0.165 0.14,-0.35 0.124,-0.461 0.11,-0.492 0.161,-0.63 0.228,-0.93 0.222,-1.053 0.335,-1.221 0.286,-1.301 0.277,-1.276 0.28,-1.263 0.166,-1.185 0.103,-1.1 -0.023,-0.906 0.015,-0.783 -0.198,-1.408"
     id="path699" />
  <path
     class="write-flat-pen"
     fill="#000000"
     stroke-width="2.4"
     __comx="1049.986"
     __comy="2117.453"
     __timestamp="0x182884dc67e"
     d="m 270.006,12.365 0.546,-0.528 0.268,-0.146 0.511,-0.19 0.295,-0.129 0.369,-0.012 h 0.422 l 0.348,0.016 0.187,0.041 0.038,0.057 0.021,0.069 0.005,0.168 -0.047,0.357 -0.17,0.4 -0.236,0.404 -0.265,0.342 -0.326,0.29 -0.213,0.177 -0.246,0.146 -0.367,0.184 -0.33,0.164 -0.51,0.166 -0.418,0.203 -0.463,0.191 -0.416,0.136 -0.399,0.318 -0.232,0.213 -0.239,0.355 -0.041,0.243 -0.279,0.67 0.955,0.588 0.473,-0.551 h 0.105 0.12 l 0.18,-0.073 0.199,-0.128 0.199,-0.06 0.584,-0.241 0.36,-0.175 0.531,-0.179 0.466,-0.249 0.435,-0.249 0.41,-0.284 0.311,-0.298 0.439,-0.433 0.398,-0.582 0.312,-0.62 0.248,-0.75 0.011,-0.82 -0.191,-0.635 -0.363,-0.477 -0.564,-0.355 -0.605,-0.039 -0.421,0.018 -0.465,0.011 -0.654,0.059 -0.476,0.259 -0.551,0.279 -0.403,0.309 -0.607,0.609"
     id="path701" />
  <path
     class="write-flat-pen"
     fill="#000000"
     stroke-width="2.4"
     __comx="1054.344"
     __comy="2117.453"
     __timestamp="0x182884dc7a4"
     d="m 275.897,9.279 -0.071,0.872 -0.108,0.51 -0.081,0.632 -0.055,0.49 -0.232,0.562 -0.218,0.533 -0.217,0.489 -0.22,0.494 -0.203,0.423 -0.179,0.368 -0.08,0.199 -0.086,0.207 -0.062,0.175 -0.033,0.204 -0.325,0.592 0.809,0.604 0.475,-0.48 0.184,-0.087 0.144,-0.099 0.216,-0.186 0.216,-0.265 0.26,-0.436 0.239,-0.484 0.233,-0.525 0.227,-0.517 0.224,-0.563 0.312,-0.801 0.059,-0.739 0.036,-0.639 -0.01,-0.591 -0.071,-0.94"
     id="path703" />
  <path
     class="write-flat-pen"
     fill="#000000"
     stroke-width="2.4"
     __comx="1056.637"
     __comy="2117.453"
     __timestamp="0x182884dc83a"
     d="m 278.441,5.595 0.007,-1.307 h -1.222 l 0.007,1.307"
     id="path705" />
  <path
     class="write-flat-pen"
     fill="#000000"
     stroke-width="2.4"
     __comx="1060.033"
     __comy="2117.453"
     __timestamp="0x182884dc95b"
     d="m 281.894,1.772 -0.2,1.243 -0.116,0.831 -0.192,1.029 -0.232,1.024 -0.295,1.069 -0.232,1.058 -0.287,0.976 -0.178,0.944 -0.163,0.731 -0.16,0.676 -0.147,0.492 -0.144,0.401 -0.157,0.413 -0.058,0.266 -0.053,0.167 -0.013,0.205 0.081,0.41 -0.213,0.368 0.393,0.417 0.38,-0.192 0.597,-0.076 0.234,-0.278 0.212,-0.229 0.17,-0.416 0.169,-0.385 0.177,-0.486 0.177,-0.594 0.176,-0.742 0.171,-0.775 0.164,-0.884 0.276,-0.956 0.223,-1.085 0.271,-1.077 0.22,-1.122 0.148,-1.157 0.007,-0.892 0.034,-1.241"
     id="path707" />
  <path
     class="write-flat-pen"
     fill="#000000"
     stroke-width="2.4"
     __comx="1060.241"
     __comy="2117.453"
     __timestamp="0x182884dca45"
     d="m 279.195,9.939 0.555,-0.375 0.181,0.013 0.467,-0.034 0.655,-0.047 0.724,-0.101 0.606,-0.097 0.444,-0.052 0.478,-0.113 0.192,-0.073 0.073,-0.06 0.263,-0.137 0.144,-0.154 0.365,-0.37 0.254,-0.001 -10e-4,-0.242 -0.254,10e-4 -0.372,-0.367 -0.161,-0.15 -0.318,-0.122 -0.209,-0.038 -0.31,0.021 -0.426,0.076 -0.406,0.048 -0.629,0.104 -0.659,0.099 -0.635,0.065 -0.591,0.097 -0.582,0.2 -0.758,0.669"
     id="path709" />
  <path
     class="write-flat-pen"
     fill="#000000"
     stroke-width="2.4"
     __comx="1064.508"
     __comy="2117.453"
     __timestamp="0x182884dcb81"
     d="m 288.737,6.507 -1.223,-0.189 -0.546,-0.056 -0.702,0.06 -0.578,0.639 -0.185,0.748 -0.025,0.847 0.121,1.065 0.234,0.983 0.212,0.854 0.136,0.74 0.03,0.612 -0.018,0.38 -0.041,0.134 0.07,-0.215 0.093,-0.089 -0.293,0.1 -0.437,0.089 -0.642,0.057 -0.491,0.067 -0.522,0.1 -0.335,0.171 -0.189,0.246 -0.175,0.264 -0.55,0.118 0.173,0.807 0.55,-0.118 0.258,0.171 0.212,0.167 0.285,0.084 h 0.492 l 0.482,-0.029 0.753,-0.064 0.732,-0.155 0.65,-0.277 0.557,-0.403 0.222,-0.586 0.044,-0.521 -0.025,-0.581 -0.089,-0.791 -0.205,-0.883 -0.24,-0.876 -0.215,-0.861 -0.097,-0.834 0.014,-0.545 0.031,-0.156 -0.155,0.163 -0.062,-0.013 0.359,-0.038 1.157,0.093"
     id="path711" />
  <path
     class="write-stroke-pen"
     fill="none"
     stroke="#000000"
     stroke-opacity="0.427"
     stroke-width="2.4"
     stroke-linecap="round"
     stroke-linejoin="round"
     __comx="795"
     __comy="2140.714"
     __timestamp="0x1828d3f2e39"
     d="m 31.2,22.365 -30,30"
     id="path713" />
  <path
     class="write-stroke-pen"
     fill="none"
     stroke="#000000"
     stroke-opacity="0.427"
     stroke-width="2.4"
     stroke-linecap="round"
     stroke-linejoin="round"
     __comx="810"
     __comy="2140.714"
     __timestamp="0x1828d3f2f4f"
     d="m 31.2,22.365 v 30"
     id="path715" />
  <path
     class="write-stroke-pen"
     fill="none"
     stroke="#000000"
     stroke-opacity="0.427"
     stroke-width="2.4"
     stroke-linecap="round"
     stroke-linejoin="round"
     __comx="825"
     __comy="2140.714"
     __timestamp="0x1828d3f31e6"
     d="m 61.2,22.365 -30,30"
     id="path717" />
  <path
     class="write-stroke-pen"
     fill="none"
     stroke="#000000"
     stroke-opacity="0.427"
     stroke-width="2.4"
     stroke-linecap="round"
     stroke-linejoin="round"
     __comx="855"
     __comy="2140.714"
     __timestamp="0x1828d3f3338"
     d="m 91.2,22.365 -30,30"
     id="path719" />
  <path
     class="write-stroke-pen"
     fill="none"
     stroke="#000000"
     stroke-opacity="0.427"
     stroke-width="2.4"
     stroke-linecap="round"
     stroke-linejoin="round"
     __comx="885"
     __comy="2140.714"
     __timestamp="0x1828d3f347f"
     d="m 121.2,22.365 -30,30"
     id="path721" />
  <path
     class="write-stroke-pen"
     fill="none"
     stroke="#000000"
     stroke-opacity="0.427"
     stroke-width="2.4"
     stroke-linecap="round"
     stroke-linejoin="round"
     __comx="900"
     __comy="2140.714"
     __timestamp="0x1828d3f35a7"
     d="m 121.2,22.365 v 0"
     id="path723" />
  <path
     class="write-stroke-pen"
     fill="none"
     stroke="#000000"
     stroke-opacity="0.427"
     stroke-width="2.4"
     stroke-linecap="round"
     stroke-linejoin="round"
     __comx="930"
     __comy="2140.714"
     __timestamp="0x1828d3f36d0"
     d="m 151.2,22.365 v 0"
     id="path725" />
  <path
     class="write-stroke-pen"
     fill="none"
     stroke="#000000"
     stroke-opacity="0.427"
     stroke-width="2.4"
     stroke-linecap="round"
     stroke-linejoin="round"
     __comx="900"
     __comy="2146.25"
     __timestamp="0x1828d3f3eb0"
     d="m 121.2,52.365 v 0"
     id="path727" />
  <path
     class="write-stroke-pen"
     fill="none"
     stroke="#000000"
     stroke-opacity="0.427"
     stroke-width="2.4"
     stroke-linecap="round"
     stroke-linejoin="round"
     __comx="915"
     __comy="2146.25"
     __timestamp="0x1828d3f41cb"
     d="m 121.2,52.365 30,-30"
     id="path729" />
  <path
     class="write-stroke-pen"
     fill="none"
     stroke="#000000"
     stroke-opacity="0.427"
     stroke-width="2.4"
     stroke-linecap="round"
     stroke-linejoin="round"
     __comx="945"
     __comy="2146.25"
     __timestamp="0x1828d3f43b5"
     d="m 181.2,22.365 -30,30"
     id="path731" />
  <path
     class="write-stroke-pen"
     fill="none"
     stroke="#000000"
     stroke-opacity="0.427"
     stroke-width="2.4"
     stroke-linecap="round"
     stroke-linejoin="round"
     __comx="975"
     __comy="2146.25"
     __timestamp="0x1828d3f4580"
     d="m 211.2,22.365 -30,30"
     id="path733" />
  <path
     class="write-stroke-pen"
     fill="none"
     stroke="#000000"
     stroke-opacity="0.427"
     stroke-width="2.4"
     stroke-linecap="round"
     stroke-linejoin="round"
     __comx="1005"
     __comy="2146.25"
     __timestamp="0x1828d3f4723"
     d="m 241.2,22.365 -30,30"
     id="path735" />
  <path
     class="write-stroke-pen"
     fill="none"
     stroke="#000000"
     stroke-opacity="0.427"
     stroke-width="2.4"
     stroke-linecap="round"
     stroke-linejoin="round"
     __comx="1035"
     __comy="2146.25"
     __timestamp="0x1828d3f4922"
     d="m 271.2,22.365 -30,30"
     id="path737" />
  <path
     class="write-stroke-pen"
     fill="none"
     stroke="#000000"
     stroke-opacity="0.427"
     stroke-width="2.4"
     stroke-linecap="round"
     stroke-linejoin="round"
     __comx="1065"
     __comy="2146.25"
     __timestamp="0x1828d3f4ac5"
     d="m 301.2,22.365 -30,30"
     id="path739" />
  <path
     class="write-stroke-pen"
     fill="none"
     stroke="#000000"
     stroke-opacity="0.427"
     stroke-width="2.4"
     stroke-linecap="round"
     stroke-linejoin="round"
     __comx="1095"
     __comy="2146.25"
     __timestamp="0x1828d3f4c9b"
     d="m 331.2,22.365 -30,30"
     id="path741" />
  <path
     class="write-stroke-pen"
     fill="none"
     stroke="#000000"
     stroke-opacity="0.427"
     stroke-width="2.4"
     stroke-linecap="round"
     stroke-linejoin="round"
     __comx="1125"
     __comy="2146.25"
     __timestamp="0x1828d3f4e5d"
     d="m 361.2,22.365 -30,30"
     id="path743" />
  <path
     class="write-stroke-pen"
     fill="none"
     stroke="#000000"
     stroke-opacity="0.427"
     stroke-width="2.4"
     stroke-linecap="round"
     stroke-linejoin="round"
     __comx="1155"
     __comy="2146.25"
     __timestamp="0x1828d3f5000"
     d="m 391.2,22.365 -30,30"
     id="path745" />
  <path
     class="write-stroke-pen"
     fill="none"
     stroke="#000000"
     stroke-opacity="0.427"
     stroke-width="2.4"
     stroke-linecap="round"
     stroke-linejoin="round"
     __comx="1215"
     __comy="2146.25"
     __timestamp="0x1828d3f5297"
     d="m 451.2,22.365 -30,30"
     id="path747" />
  <path
     class="write-stroke-pen"
     fill="none"
     stroke="#000000"
     stroke-opacity="0.427"
     stroke-width="2.4"
     stroke-linecap="round"
     stroke-linejoin="round"
     __comx="1245"
     __comy="2146.25"
     __timestamp="0x1828d3f5463"
     d="m 481.2,22.365 -30,30"
     id="path749" />
  <path
     class="write-flat-pen"
     fill="#000000"
     stroke-width="2.4"
     __comx="1008.482"
     __comy="2111.805"
     __timestamp="0x1828d3f6eee"
     d="m 232.971,1.234 -0.854,1.049 -0.554,0.695 -0.668,0.669 -0.684,0.608 -0.813,0.72 -0.783,0.694 -0.666,0.525 -0.728,0.57 -0.47,0.413 -0.333,0.201 -0.353,0.23 -0.486,0.323 -0.33,0.439 -0.208,0.742 0.386,1.051 0.45,0.604 0.378,0.316 0.608,0.54 0.597,0.41 0.503,0.501 0.741,0.682 0.585,0.535 0.691,0.708 0.773,0.475 0.666,0.429 0.627,0.27 0.228,0.125 v 0 l 0.152,0.189 0.876,0.019 0.355,-0.426 0.664,-0.337 -0.494,-0.974 -0.664,0.337 -0.036,-0.227 0.485,-0.082 -0.052,-0.108 -0.453,-0.178 -0.21,-0.111 -0.564,-0.236 -0.552,-0.347 -0.592,-0.353 -0.569,-0.569 -0.632,-0.561 -0.718,-0.645 -0.604,-0.589 -0.642,-0.434 -0.543,-0.477 -0.23,-0.189 -0.154,-0.205 -0.083,-0.224 -0.051,0.182 -0.075,0.099 0.21,-0.142 0.317,-0.208 0.449,-0.272 0.554,-0.493 0.686,-0.544 0.708,-0.57 0.815,-0.743 0.805,-0.738 0.716,-0.669 0.76,-0.818 0.569,-0.818 0.764,-1.11"
     id="path751" />
  <path
     class="write-flat-pen"
     fill="#000000"
     stroke-width="2.4"
     __comx="1018.993"
     __comy="2113.024"
     __timestamp="0x1828d3f7dfb"
     d="m 243.185,2.632 -1.308,0.986 -0.755,0.634 -0.911,0.792 -0.969,0.78 -0.845,0.672 -0.942,0.616 -0.703,0.469 -0.617,0.465 -0.356,0.246 -0.324,0.327 -0.347,0.325 -0.493,0.915 0.539,0.825 0.678,0.587 0.726,0.415 0.909,0.425 0.642,0.399 0.769,0.262 0.512,0.362 0.45,0.325 0.601,0.337 0.255,0.211 0.392,0.348 0.444,0.282 0.232,0.187 0.47,0.338 0.479,0.188 0.382,0.109 0.599,0.136 0.416,0.05 0.277,-0.045 0.36,-0.085 0.822,0.032 0.2,-1.117 -0.782,-0.255 -0.361,-0.214 -0.194,-0.098 -0.234,-0.113 -0.544,-0.203 -0.3,-0.088 -0.163,-0.063 -0.23,-0.162 -0.283,-0.221 -0.409,-0.251 -0.308,-0.263 -0.424,-0.336 -0.654,-0.355 -0.364,-0.259 -0.749,-0.526 -0.824,-0.279 -0.553,-0.343 -0.943,-0.437 -0.493,-0.28 -0.332,-0.286 0.239,0.366 -0.202,0.376 0.144,-0.136 0.222,-0.225 0.242,-0.168 0.604,-0.462 0.647,-0.441 1.004,-0.674 0.908,-0.749 0.99,-0.831 0.912,-0.849 0.7,-0.669 1.154,-1.14"
     id="path753" />
</svg>
