<?xml version="1.0" encoding="UTF-8" standalone="no"?>
<svg
   version="1.1"
   id="svg198"
   sodipodi:docname="duplicate_ab_01.svg"
   width="543.37"
   height="114.949"
   inkscape:version="1.2 (1:1.2.1+202207142221+cd75a1ee6d)"
   xmlns:inkscape="http://www.inkscape.org/namespaces/inkscape"
   xmlns:sodipodi="http://sodipodi.sourceforge.net/DTD/sodipodi-0.dtd"
   xmlns="http://www.w3.org/2000/svg"
   xmlns:svg="http://www.w3.org/2000/svg">
  <defs
     id="defs202" />
  <sodipodi:namedview
     id="namedview200"
     pagecolor="#ffffff"
     bordercolor="#666666"
     borderopacity="1.0"
     inkscape:showpageshadow="2"
     inkscape:pageopacity="0.0"
     inkscape:pagecheckerboard="0"
     inkscape:deskcolor="#d1d1d1"
     showgrid="false"
     inkscape:zoom="4.3666667"
     inkscape:cx="59.312977"
     inkscape:cy="-1783.9695"
     inkscape:window-width="1920"
     inkscape:window-height="1011"
     inkscape:window-x="1920"
     inkscape:window-y="141"
     inkscape:window-maximized="1"
     inkscape:current-layer="svg198" />
  <path
     class="write-chisel-pen"
     fill="#000000"
     fill-opacity="0.427"
     stroke-width="30"
     __comx="374.765"
     __comy="1934.412"
     __timestamp="0x1828830b8a4"
     d="m 60.508,90.74 h 7.5 v -30 l -0.036,-0.261 h -7.5 v 30 l 0.036,0.261 m 7.464,-30.261 h -7.5 v 30 l 445.427,0.294 h 7.5 v -30 L 67.972,60.479"
     id="path2" />
  <path
     class="write-stroke-pen"
     fill="none"
     stroke="#000000"
     stroke-width="2.4"
     stroke-linecap="round"
     stroke-linejoin="round"
     __comx="150"
     __comy="1864.6"
     __timestamp="0x18287aa6ee9"
     d="m 62.17,1.2 v 30"
     id="path4" />
  <path
     class="write-stroke-pen"
     fill="none"
     stroke="#000000"
     stroke-width="2.4"
     stroke-linecap="round"
     stroke-linejoin="round"
     __comx="300"
     __comy="1859.6"
     __timestamp="0x18287aa864a"
     d="m 62.17,1.2 h 30 30 30 30 30 60 60 30"
     id="path6" />
  <path
     class="write-stroke-pen"
     fill="none"
     stroke="#000000"
     stroke-width="2.4"
     stroke-linecap="round"
     stroke-linejoin="round"
     __comx="540"
     __comy="1859.6"
     __timestamp="0x18287aaa037"
     d="m 362.17,1.2 h 30 30 30 30 30 30"
     id="path8" />
  <path
     class="write-stroke-pen"
     fill="none"
     stroke="#000000"
     stroke-width="2.4"
     stroke-linecap="round"
     stroke-linejoin="round"
     __comx="630"
     __comy="1864.6"
     __timestamp="0x18287aaa453"
     d="m 542.17,1.2 v 30"
     id="path10" />
  <path
     class="write-stroke-pen"
     fill="none"
     stroke="#000000"
     stroke-width="2.4"
     stroke-linecap="round"
     stroke-linejoin="round"
     __comx="390"
     __comy="1889.6"
     __timestamp="0x18287aaafc4"
     d="m 62.17,31.2 h 30 30 30 30 30 30 30 30 30 30 30 30 30 30 30 30"
     id="path12" />
  <path
     class="write-stroke-pen"
     fill="none"
     stroke="#000000"
     stroke-width="2.4"
     stroke-linecap="round"
     stroke-linejoin="round"
     __comx="510"
     __comy="1889.6"
     __timestamp="0x18287aac9b9"
     d="m 422.17,31.2 v 0"
     id="path14" />
  <path
     class="write-stroke-pen"
     fill="none"
     stroke="#000000"
     stroke-width="2.4"
     stroke-linecap="round"
     stroke-linejoin="round"
     __comx="180"
     __comy="1875.938"
     __timestamp="0x18287ab6a5a"
     d="m 92.17,1.2 v 30"
     id="path16" />
  <path
     class="write-stroke-pen"
     fill="none"
     stroke="#000000"
     stroke-width="2.4"
     stroke-linecap="round"
     stroke-linejoin="round"
     __comx="210"
     __comy="1875.938"
     __timestamp="0x18287ab6c8d"
     d="m 122.17,1.2 v 30"
     id="path18" />
  <path
     class="write-stroke-pen"
     fill="none"
     stroke="#000000"
     stroke-width="2.4"
     stroke-linecap="round"
     stroke-linejoin="round"
     __comx="240"
     __comy="1875.938"
     __timestamp="0x18287ab6e78"
     d="m 152.17,1.2 v 30"
     id="path20" />
  <path
     class="write-stroke-pen"
     fill="none"
     stroke="#000000"
     stroke-width="2.4"
     stroke-linecap="round"
     stroke-linejoin="round"
     __comx="270"
     __comy="1875.938"
     __timestamp="0x18287ab703b"
     d="m 182.17,1.2 v 30"
     id="path22" />
  <path
     class="write-stroke-pen"
     fill="none"
     stroke="#000000"
     stroke-width="2.4"
     stroke-linecap="round"
     stroke-linejoin="round"
     __comx="300"
     __comy="1875.938"
     __timestamp="0x18287ab7230"
     d="m 212.17,31.2 v 0"
     id="path24" />
  <path
     class="write-stroke-pen"
     fill="none"
     stroke="#000000"
     stroke-width="2.4"
     stroke-linecap="round"
     stroke-linejoin="round"
     __comx="300"
     __comy="1875.938"
     __timestamp="0x18287ab7481"
     d="m 212.17,1.2 v 30"
     id="path26" />
  <path
     class="write-stroke-pen"
     fill="none"
     stroke="#000000"
     stroke-width="2.4"
     stroke-linecap="round"
     stroke-linejoin="round"
     __comx="330"
     __comy="1875.938"
     __timestamp="0x18287ab7625"
     d="m 242.17,1.2 v 30"
     id="path28" />
  <path
     class="write-stroke-pen"
     fill="none"
     stroke="#000000"
     stroke-width="2.4"
     stroke-linecap="round"
     stroke-linejoin="round"
     __comx="360"
     __comy="1875.938"
     __timestamp="0x18287ab788b"
     d="m 272.17,1.2 v 30"
     id="path30" />
  <path
     class="write-stroke-pen"
     fill="none"
     stroke="#000000"
     stroke-width="2.4"
     stroke-linecap="round"
     stroke-linejoin="round"
     __comx="390"
     __comy="1875.938"
     __timestamp="0x18287ab79f1"
     d="m 302.17,1.2 v 30"
     id="path32" />
  <path
     class="write-stroke-pen"
     fill="none"
     stroke="#000000"
     stroke-width="2.4"
     stroke-linecap="round"
     stroke-linejoin="round"
     __comx="420"
     __comy="1875.938"
     __timestamp="0x18287ab7b9f"
     d="m 332.17,1.2 v 30"
     id="path34" />
  <path
     class="write-stroke-pen"
     fill="none"
     stroke="#000000"
     stroke-width="2.4"
     stroke-linecap="round"
     stroke-linejoin="round"
     __comx="450"
     __comy="1875.938"
     __timestamp="0x18287ab7e4c"
     d="m 362.17,1.2 v 30"
     id="path36" />
  <path
     class="write-stroke-pen"
     fill="none"
     stroke="#000000"
     stroke-width="2.4"
     stroke-linecap="round"
     stroke-linejoin="round"
     __comx="480"
     __comy="1875.938"
     __timestamp="0x18287ab7fc7"
     d="m 392.17,1.2 v 30"
     id="path38" />
  <path
     class="write-stroke-pen"
     fill="none"
     stroke="#000000"
     stroke-width="2.4"
     stroke-linecap="round"
     stroke-linejoin="round"
     __comx="510"
     __comy="1875.938"
     __timestamp="0x18287ab816b"
     d="m 422.17,1.2 v 30"
     id="path40" />
  <path
     class="write-stroke-pen"
     fill="none"
     stroke="#000000"
     stroke-width="2.4"
     stroke-linecap="round"
     stroke-linejoin="round"
     __comx="540"
     __comy="1875.938"
     __timestamp="0x18287ab8337"
     d="m 452.17,1.2 v 30"
     id="path42" />
  <path
     class="write-stroke-pen"
     fill="none"
     stroke="#000000"
     stroke-width="2.4"
     stroke-linecap="round"
     stroke-linejoin="round"
     __comx="570"
     __comy="1875.938"
     __timestamp="0x18287ab85a7"
     d="m 482.17,1.2 v 30"
     id="path44" />
  <path
     class="write-stroke-pen"
     fill="none"
     stroke="#000000"
     stroke-width="2.4"
     stroke-linecap="round"
     stroke-linejoin="round"
     __comx="600"
     __comy="1875.938"
     __timestamp="0x18287ab872c"
     d="m 512.17,1.2 v 30"
     id="path46" />
  <path
     class="write-flat-pen"
     fill="#000000"
     fill-opacity="0.427"
     stroke-width="2.4"
     __comx="155.497"
     __comy="1872.953"
     __timestamp="0x18287ad46f6"
     d="m 67.185,6.951 0.689,-0.376 -1.117,-0.25 -0.191,0.064 -0.031,0.028 0.019,0.445 0.052,0.471 0.052,0.515 0.051,0.545 0.027,0.599 0.027,0.678 0.029,0.706 0.028,0.658 v 0.684 l 0.027,0.543 -0.027,0.493 0.002,0.328 -0.012,0.171 -0.002,0.081 h 0.012 l 1.968,0.051 -0.053,0.046 -0.221,-0.143 -0.323,-0.293 -0.043,-0.474 -0.875,0.079 0.043,0.474 -0.27,0.296 -0.212,0.293 -0.026,0.167 1.968,0.051 0.047,-0.121 0.048,-0.253 0.038,-0.322 0.003,-0.378 0.03,-0.547 -0.03,-0.6 v -0.676 l -0.03,-0.7 L 68.853,9.578 68.821,8.894 68.789,8.235 68.723,7.624 68.658,7.083 68.595,6.653 68.554,6.277 68.492,5.8 68.107,5.533 66.99,5.283 66.392,5.791"
     id="path48" />
  <path
     class="write-flat-pen"
     fill="#000000"
     fill-opacity="0.427"
     stroke-width="2.4"
     __comx="156.895"
     __comy="1872.953"
     __timestamp="0x18287ad48c8"
     d="m 67.335,6.606 0.474,-0.582 0.131,-0.046 0.133,-0.031 0.251,-0.095 0.225,-0.05 0.315,-0.03 0.375,-0.011 0.296,-0.001 0.114,0.05 0.097,0.079 0.04,0.07 0.065,0.168 0.027,0.218 0.017,0.343 -0.023,0.248 -0.077,0.246 -0.07,0.16 L 69.598,7.473 69.341,7.715 69.143,7.886 68.929,8.007 68.658,8.151 68.463,8.255 68.24,8.32 67.959,8.43 67.881,8.463 67.806,8.482 67.773,8.51 v 0.112 l 0.776,1.033 -0.025,-0.038 0.176,-0.836 -1.619,-0.34 -0.176,0.836 -0.038,0.025 0.776,1.033 0.222,0.129 0.174,-0.01 H 68.28 L 68.653,10.331 68.89,10.24 69.235,10.139 69.62,9.93 69.92,9.764 70.336,9.515 70.715,9.164 71.04,8.827 71.423,8.376 71.639,7.806 71.787,7.268 71.818,6.684 71.773,6.129 71.676,5.572 71.377,4.951 70.949,4.462 70.343,4.132 69.709,3.986 69.128,4.038 68.69,4.082 68.183,4.166 67.71,4.334 67.3,4.572 66.977,4.826 66.753,5.173 66.312,5.875"
     id="path50" />
  <path
     class="write-flat-pen"
     fill="#000000"
     fill-opacity="0.427"
     stroke-width="2.4"
     __comx="161.275"
     __comy="1872.953"
     __timestamp="0x18287ad4a05"
     d="m 72.648,7.824 0.029,0.934 -0.034,0.322 0.032,0.429 0.038,0.415 0.038,0.441 0.018,0.411 -0.002,0.435 -0.024,0.376 -0.051,0.399 -0.043,0.301 -0.057,0.276 -0.04,0.204 -0.024,0.124 0.019,0.088 0.04,0.057 1.263,-0.157 -0.044,0.001 -0.579,-0.565 -1.095,1.121 0.579,0.565 0.001,0.044 1.263,-0.157 0.129,-0.088 0.124,-0.147 0.128,-0.214 0.128,-0.357 0.112,-0.399 0.07,-0.415 0.063,-0.49 0.032,-0.505 -0.004,-0.562 -0.041,-0.53 -0.08,-0.509 -0.079,-0.429 -0.087,-0.39 -0.098,-0.29 -0.206,-0.93"
     id="path52" />
  <path
     class="write-flat-pen"
     fill="#000000"
     fill-opacity="0.427"
     stroke-width="2.4"
     __comx="161.28"
     __comy="1872.953"
     __timestamp="0x18287ad4ab1"
     d="m 72.461,6.092 0.735,0.512 0.25,-0.013 0.379,0.341 L 74.439,6.25 74.06,5.909 74.047,5.659 73.46,4.982"
     id="path54" />
  <path
     class="write-flat-pen"
     fill="#000000"
     fill-opacity="0.427"
     stroke-width="2.4"
     __comx="165.795"
     __comy="1872.953"
     __timestamp="0x18287ad4bb6"
     d="m 75.146,6.822 0.345,1.056 0.248,0.437 0.276,0.463 0.378,0.472 0.454,0.461 0.445,0.447 0.409,0.428 0.432,0.468 0.333,0.346 0.239,0.33 0.266,0.299 0.086,0.073 0.081,0.033 0.058,-0.029 0.025,-0.321 0.362,-0.276 0.07,0.186 -0.486,0.098 0.175,0.869 0.486,-0.098 0.454,0.108 0.494,-0.437 0.009,-0.448 -0.004,-0.251 -0.099,-0.364 -0.183,-0.31 -0.25,-0.324 L 79.97,10.147 79.553,9.714 79.113,9.241 78.652,8.781 78.166,8.337 77.744,7.955 77.423,7.637 77.103,7.297 76.886,7.116 76.54,6.306"
     id="path56" />
  <path
     class="write-flat-pen"
     fill="#000000"
     fill-opacity="0.427"
     stroke-width="2.4"
     __comx="165.679"
     __comy="1872.953"
     __timestamp="0x18287ad4cb0"
     d="m 79.61,6.004 -0.808,0.712 -0.392,0.315 -0.373,0.43 -0.395,0.452 -0.483,0.579 -0.433,0.643 -0.454,0.63 -0.437,0.603 -0.364,0.524 -0.264,0.45 -0.213,0.424 -0.013,0.412 0.101,0.341 0.159,0.247 -0.027,0.584 1.057,0.05 0.027,-0.584 0.175,-0.093 0.215,-0.117 0.112,-0.083 0.12,-0.125 0.254,-0.376 0.329,-0.464 0.433,-0.598 0.476,-0.679 0.381,-0.613 0.392,-0.523 0.364,-0.495 0.279,-0.417 0.214,-0.337 0.675,-0.816"
     id="path58" />
  <path
     class="write-flat-pen"
     fill="#000000"
     fill-opacity="0.427"
     stroke-width="2.4"
     __comx="576.896"
     __comy="1872.953"
     __timestamp="0x18287ad5685"
     d="m 488.237,5.763 -0.057,0.945 -0.082,0.446 -0.051,0.606 0.005,0.719 0.041,0.758 0.016,0.766 0.021,0.812 0.025,0.714 v 0.635 l -0.029,0.571 0.004,0.424 -0.007,0.297 0.021,0.136 0.035,0.141 0.12,-0.622 1.466,0.058 -0.094,0.623 -0.017,-0.714 -1.333,0.033 0.017,0.714 -0.089,0.842 1.472,0.058 0.131,-0.75 0.08,-0.085 0.07,-0.236 0.048,-0.419 0.005,-0.449 0.029,-0.572 v -0.722 l -0.033,-0.748 -0.037,-0.809 -0.042,-0.803 -0.075,-0.761 -0.053,-0.647 -0.051,-0.568 -0.082,-0.446 -0.057,-0.945"
     id="path60" />
  <path
     class="write-flat-pen"
     fill="#000000"
     fill-opacity="0.427"
     stroke-width="2.4"
     __comx="578.388"
     __comy="1872.953"
     __timestamp="0x18287ad57c1"
     d="m 488.748,7.047 0.603,-0.615 0.256,-0.151 0.257,-0.098 0.265,-0.055 h 0.189 l 0.206,0.082 0.23,0.131 0.199,0.195 0.187,0.259 0.137,0.235 0.049,0.165 0.029,0.2 -0.004,0.042 0.025,-0.097 -0.049,0.069 -0.21,0.178 -0.396,0.331 -0.393,0.303 -0.437,0.342 -0.425,0.342 -0.297,0.295 -0.241,0.285 -0.149,0.318 -0.068,0.295 0.071,0.272 -0.121,0.652 1.166,0.217 0.121,-0.652 0.115,0.036 0.035,0.129 0.131,-0.02 0.208,-0.12 0.27,-0.214 0.385,-0.283 0.438,-0.341 0.419,-0.324 0.431,-0.361 0.43,-0.365 0.353,-0.541 0.167,-0.558 -0.066,-0.522 -0.091,-0.414 -0.185,-0.496 -0.327,-0.491 -0.396,-0.467 -0.566,-0.43 -0.583,-0.23 -0.669,-0.167 -0.683,0.11 -0.546,0.212 -0.501,0.333 -0.35,0.407 -0.581,0.729"
     id="path62" />
  <path
     class="write-flat-pen"
     fill="#000000"
     fill-opacity="0.427"
     stroke-width="2.4"
     __comx="583.22"
     __comy="1872.953"
     __timestamp="0x18287ad58fe"
     d="m 494.802,9.431 -0.339,1.188 -0.071,0.518 -0.044,0.544 -0.009,0.553 -0.031,0.464 -0.028,0.461 -0.024,0.374 -0.013,0.312 v 0.25 l 0.049,0.193 0.078,0.035 0.094,0.054 -0.131,0.789 1.421,0.236 0.131,-0.789 0.128,-0.147 0.08,-0.147 0.056,-0.086 0.052,-0.188 0.044,-0.355 0.032,-0.396 0.029,-0.477 0.026,-0.524 -0.008,-0.551 0.016,-0.464 0.002,-0.359 0.195,-1.077"
     id="path64" />
  <path
     class="write-flat-pen"
     fill="#000000"
     fill-opacity="0.427"
     stroke-width="2.4"
     __comx="583.043"
     __comy="1872.953"
     __timestamp="0x18287ad59ac"
     d="m 494.154,6.905 0.723,0.801 0.359,0.059 0.353,0.037 0.184,0.282 0.501,-0.326 -0.184,-0.282 0.052,-0.424 -0.064,-0.389 -0.581,-0.83"
     id="path66" />
  <path
     class="write-flat-pen"
     fill="#000000"
     fill-opacity="0.427"
     stroke-width="2.4"
     __comx="587.973"
     __comy="1872.953"
     __timestamp="0x18287ad5aa2"
     d="m 497.122,9.547 0.63,0.94 0.284,0.401 0.32,0.431 0.403,0.465 0.445,0.491 0.512,0.524 0.561,0.539 0.475,0.379 0.307,0.318 0.208,0.237 0.111,0.13 0.07,0.036 0.08,0.028 0.12,0.068 0.266,0.678 1.25,-0.346 -0.121,-0.718 0.068,-0.119 0.019,-0.192 -0.101,-0.349 -0.227,-0.371 -0.303,-0.375 -0.444,-0.46 -0.509,-0.403 -0.485,-0.455 -0.478,-0.472 -0.429,-0.452 -0.415,-0.429 -0.388,-0.365 -0.314,-0.258 -0.634,-0.82"
     id="path68" />
  <path
     class="write-flat-pen"
     fill="#000000"
     fill-opacity="0.427"
     stroke-width="2.4"
     __comx="588.156"
     __comy="1872.953"
     __timestamp="0x18287ad5b77"
     d="m 502.551,7.894 -0.931,0.373 -0.387,0.176 -0.415,0.339 -0.405,0.492 -0.374,0.524 -0.402,0.593 -0.452,0.61 -0.427,0.595 -0.449,0.548 -0.364,0.555 -0.357,0.577 -0.079,0.758 -0.108,0.687 -0.008,0.01 0.008,0.01 0.006,-0.01 0.647,-0.254 0.674,-0.18 0.571,-0.364 0.506,-0.488 0.538,-0.549 0.502,-0.66 0.478,-0.646 0.415,-0.615 0.328,-0.475 0.257,-0.363 0.145,-0.201 0.057,-0.14 0.737,-0.44"
     id="path70" />
  <path
     class="write-flat-pen"
     fill="#0000ff"
     fill-opacity="1"
     stroke-width="2.4"
     __comx="545.066"
     __comy="1872.953"
     __timestamp="0x18287ad672f"
     d="m 455.952,5.409 0.054,1.138 0.059,0.519 0.155,0.662 0.071,0.64 0.078,0.708 0.05,0.704 -0.028,0.745 v 0.701 l -0.027,0.625 -0.027,0.536 -0.021,0.446 -0.013,0.262 -0.005,0.218 0.027,0.131 1.555,0.827 0.173,-0.218 0.007,-0.53 -0.189,-0.584 0.108,-0.223 -0.409,-0.198 -0.108,0.223 -0.558,0.18 -0.238,-0.09 0.055,-0.132 1.555,0.827 0.034,-0.037 0.046,-0.164 0.041,-0.333 0.036,-0.485 0.03,-0.554 0.03,-0.68 v -0.708 l 0.029,-0.823 -0.067,-0.866 -0.096,-0.757 -0.104,-0.772 -0.197,-0.717 -0.124,-0.458 -0.406,-1.085"
     id="path72" />
  <path
     class="write-flat-pen"
     fill="#0000ff"
     fill-opacity="1"
     stroke-width="2.4"
     __comx="546.616"
     __comy="1872.953"
     __timestamp="0x18287ad685b"
     d="m 457.155,6.694 0.38,-0.858 0.152,-0.175 0.227,-0.165 0.338,-0.142 0.367,-0.057 0.295,0.039 0.249,0.128 0.222,0.216 0.212,0.336 0.121,0.355 0.05,0.378 -0.008,0.321 -0.059,0.268 -0.075,0.188 -0.147,0.207 -0.197,0.212 -0.174,0.143 -0.306,0.152 -0.32,0.19 -0.201,0.087 -0.229,0.08 -0.151,0.077 -0.148,0.065 -0.13,0.154 -0.756,0.419 0.639,1.436 0.817,-0.281 0.031,0.083 0.11,0.01 0.236,-0.068 0.271,-0.075 0.423,-0.174 0.376,-0.224 0.446,-0.222 0.459,-0.382 0.378,-0.415 0.371,-0.534 0.208,-0.591 0.11,-0.615 -0.01,-0.666 -0.126,-0.717 -0.287,-0.739 -0.49,-0.71 -0.651,-0.564 -0.857,-0.339 -0.865,-0.01 -0.794,0.208 -0.712,0.389 -0.533,0.537 -0.26,0.537 -0.328,1.01"
     id="path74" />
  <path
     class="write-flat-pen"
     fill="#0000ff"
     fill-opacity="1"
     stroke-width="2.4"
     __comx="550.762"
     __comy="1872.953"
     __timestamp="0x18287ad6945"
     d="m 462.35,8.265 -0.262,1.181 -0.101,0.415 -0.102,0.421 -0.065,0.478 -0.067,0.479 0.003,0.458 0.018,0.355 0.011,0.333 0.071,0.244 0.089,0.072 0.164,0.187 0.086,0.211 -0.228,0.344 0.598,0.395 0.228,-0.344 0.293,-0.103 0.326,-0.232 0.184,-0.317 0.075,-0.375 0.065,-0.335 0.019,-0.429 0.008,-0.32 0.049,-0.353 0.054,-0.414 0.071,-0.418 0.022,-0.456 0.151,-1.169"
     id="path76" />
  <path
     class="write-flat-pen"
     fill="#0000ff"
     fill-opacity="1"
     stroke-width="2.4"
     __comx="550.937"
     __comy="1872.953"
     __timestamp="0x18287ad69dd"
     d="m 462.335,5.859 0.153,0.931 0.256,0.236 0.331,0.155 0.117,0.318 0.552,-0.203 -0.117,-0.318 0.153,-0.327 0.098,-0.206 -0.098,-0.795"
     id="path78" />
  <path
     class="write-flat-pen"
     fill="#0000ff"
     fill-opacity="1"
     stroke-width="2.4"
     __comx="556.029"
     __comy="1872.953"
     __timestamp="0x18287ad6ac4"
     d="m 465.678,6.977 0.693,0.939 0.285,0.454 0.337,0.475 0.399,0.513 0.369,0.47 0.356,0.449 0.295,0.423 0.197,0.372 0.132,0.39 0.07,0.318 0.037,0.351 0.03,0.262 0.024,0.127 0.073,0.01 0.371,-0.311 0.321,0.143 -0.652,-0.129 -0.238,1.198 0.652,0.129 0.474,0.173 0.492,-0.464 0.174,-0.329 0.125,-0.364 0.028,-0.512 -0.025,-0.535 -0.104,-0.558 -0.219,-0.654 -0.326,-0.617 -0.403,-0.57 -0.399,-0.492 -0.385,-0.469 -0.417,-0.485 -0.363,-0.417 -0.372,-0.404 -0.79,-0.891"
     id="path80" />
  <path
     class="write-flat-pen"
     fill="#0000ff"
     fill-opacity="1"
     stroke-width="2.4"
     __comx="555.808"
     __comy="1872.953"
     __timestamp="0x18287ad6b86"
     d="m 469.28,6.711 -0.967,0.672 -0.482,0.381 -0.445,0.514 -0.43,0.547 -0.43,0.608 -0.407,0.642 -0.279,0.645 -0.156,0.576 -0.041,0.605 0.19,0.806 -0.006,0.01 0.011,0.01 0.006,-0.01 0.83,-0.242 0.482,-0.44 0.365,-0.466 0.302,-0.503 0.348,-0.507 0.384,-0.543 0.385,-0.502 0.321,-0.435 0.253,-0.326 0.802,-0.747"
     id="path82" />
  <path
     class="write-flat-pen"
     fill="#000000"
     fill-opacity="0.427"
     stroke-width="2.4"
     __comx="519.069"
     __comy="1881.124"
     __timestamp="0x18287ad7b6f"
     d="m 430.157,22.185 -0.079,0.796 -0.05,0.076 -0.021,0.092 -0.008,0.147 0.078,0.46 0.542,0.472 0.429,0.103 0.283,-0.014 0.407,-0.064 0.345,-0.298 0.183,-0.246 0.098,-0.216 0.074,-0.204 0.044,-0.25 -0.026,-0.353 -0.148,-0.37 -0.291,-0.306 -0.237,-0.136 0.415,0.305 -0.388,1.119 -0.442,-0.092 0.71,-0.02 -0.037,-1.319 -0.71,0.02 -0.651,-0.086 -0.408,1.18 0.637,0.42 -0.03,-0.01 -0.098,-0.102 -0.08,-0.201 -0.01,-0.139 0.02,-0.11 0.004,-0.01 0.014,-0.029 0.049,-0.064 0.184,-0.158 0.181,-0.028 h 0.065 l 0.241,0.058 0.251,0.219 0.05,0.306 -0.008,0.01 -0.021,-0.092 -0.05,-0.076 -0.079,-0.796"
     id="path84" />
  <path
     class="write-flat-pen"
     fill="#000000"
     fill-opacity="0.427"
     stroke-width="2.4"
     __comx="524.051"
     __comy="1880.434"
     __timestamp="0x18287ad7d20"
     d="m 436.138,21.327 -0.674,0.564 -0.132,0.108 -0.099,0.114 -0.128,0.168 -0.222,0.668 0.533,0.639 0.447,0.159 h 0.441 l 0.489,-0.159 0.27,-0.229 0.137,-0.144 0.217,-0.24 0.142,-0.381 -0.001,-0.322 -0.074,-0.399 -0.384,-0.452 -0.279,-0.162 -0.282,-0.095 -0.427,-0.05 -0.439,0.171 -0.295,0.23 -0.28,0.516 0.09,0.522 0.315,0.358 0.444,0.032 0.281,0.202 0.346,-0.483 -0.281,-0.202 0.067,-0.238 0.198,0.085 0.102,0.29 -0.056,0.22 -0.114,0.11 -0.184,0.082 -0.205,-0.02 -0.067,-0.02 -0.151,-0.087 -0.144,-0.172 -0.045,-0.249 10e-4,-0.179 0.098,-0.261 0.041,-0.037 -0.041,0.048 0.085,-0.07 0.117,-0.037 0.159,10e-4 0.327,0.117 0.426,0.511 -0.179,0.536 -0.022,0.017 0.027,-0.079 -0.028,-0.018 0.502,-0.631"
     id="path86" />
  <path
     class="write-flat-pen"
     fill="#000000"
     fill-opacity="0.427"
     stroke-width="2.4"
     __comx="528.944"
     __comy="1881.11"
     __timestamp="0x18287ad7e5d"
     d="m 439.468,22.955 0.518,0.759 0.259,0.255 0.401,0.169 0.285,0.06 0.285,0.05 0.239,-0.017 0.302,-0.036 0.363,-0.159 0.339,-0.282 0.302,-0.587 -0.065,-0.558 -0.093,-0.297 -0.158,-0.299 -0.192,-0.223 -0.169,-0.135 -0.236,-0.154 -0.241,0.01 0.287,1.544 0.01,-0.078 0.675,-0.524 -1.015,-1.309 -0.675,0.524 -0.078,-0.01 0.287,1.544 -0.089,0.056 -0.074,-0.043 -0.022,-0.018 -0.05,-0.061 -0.006,-0.03 -0.006,-0.051 -0.015,-0.194 0.131,-0.232 0.144,-0.107 0.118,-0.042 0.01,0.01 h 0.029 -0.052 l -0.118,-0.012 -0.007,0.018 0.062,0.093 -0.479,-0.552"
     id="path88" />
  <path
     class="write-flat-pen"
     fill="#000000"
     fill-opacity="0.427"
     stroke-width="2.4"
     __comx="605.437"
     __comy="1874.901"
     __timestamp="0x18287ad8a0e"
     d="m 516.843,5.917 0.05,1.19 0.008,0.57 0.04,0.651 0.009,0.737 0.012,0.766 -0.011,0.746 -0.033,0.662 -0.083,0.569 -0.081,0.521 -0.107,0.431 -0.094,0.419 -0.054,0.312 -0.038,0.163 -0.19,0.885 1.328,0.634 0.591,-0.752 -0.038,-0.471 0.279,-0.493 -0.915,-0.517 -0.279,0.493 -0.298,-0.01 0.355,-0.538 1.256,0.597 -0.138,0.66 0.063,-0.217 0.061,-0.353 0.078,-0.351 0.122,-0.5 0.093,-0.625 0.09,-0.681 0.024,-0.8 -0.011,-0.822 -0.046,-0.803 -0.05,-0.784 -0.076,-0.664 -0.054,-0.567 -0.164,-1.211"
     id="path90" />
  <path
     class="write-flat-pen"
     fill="#000000"
     fill-opacity="0.427"
     stroke-width="2.4"
     __comx="607.208"
     __comy="1874.901"
     __timestamp="0x18287ad8b62"
     d="m 518.239,6.394 0.684,-0.537 0.265,-0.086 0.303,-0.085 0.241,-0.032 0.233,0.035 0.146,0.076 0.069,0.095 0.023,0.069 0.025,0.165 0.003,0.248 -0.057,0.238 -0.115,0.332 -0.126,0.243 -0.228,0.252 -0.236,0.243 -0.235,0.157 -0.263,0.158 -0.266,0.111 -0.292,0.089 -0.305,0.092 -0.222,0.057 -0.263,0.09 -0.289,0.149 -0.688,0.686 0.641,0.664 0.383,0.587 1.106,-0.721 -0.383,-0.587 0.451,0.373 -0.562,0.578 -0.084,0.069 h 0.121 l 0.272,-0.046 0.391,-0.117 0.394,-0.121 0.487,-0.207 0.43,-0.261 0.452,-0.313 0.401,-0.435 0.407,-0.486 0.277,-0.595 0.174,-0.565 0.109,-0.596 -0.062,-0.648 -0.165,-0.619 -0.388,-0.544 -0.574,-0.415 -0.667,-0.177 -0.642,-0.01 -0.568,0.13 -0.522,0.242 -0.395,0.308 -0.739,0.636"
     id="path92" />
  <path
     class="write-flat-pen"
     fill="#000000"
     fill-opacity="0.427"
     stroke-width="2.4"
     __comx="610.34"
     __comy="1874.901"
     __timestamp="0x18287ad8c8e"
     d="m 522.187,9.382 -0.203,1.011 -0.121,0.401 -0.083,0.453 -0.095,0.434 -0.066,0.436 -0.063,0.416 -0.029,0.348 -0.045,0.253 -0.033,0.196 -0.047,0.188 -0.055,0.215 -0.021,0.203 -0.027,0.287 0.053,0.247 0.092,0.159 0.099,0.158 -0.094,0.415 0.686,0.155 0.094,-0.415 0.156,-0.097 0.149,-0.087 0.126,-0.043 0.145,-0.074 0.144,-0.141 0.166,-0.244 0.176,-0.394 0.08,-0.371 0.064,-0.362 0.031,-0.377 0.053,-0.363 0.051,-0.395 0.077,-0.452 0.036,-0.504 -10e-4,-0.423 0.041,-1.053"
     id="path94" />
  <path
     class="write-flat-pen"
     fill="#000000"
     fill-opacity="0.427"
     stroke-width="2.4"
     __comx="611.635"
     __comy="1874.901"
     __timestamp="0x18287ad8d45"
     d="m 523.097,6.438 0.004,0.957 0.29,0.31 0.384,0.285 0.016,0.094 0.127,-0.022 -0.016,-0.094 0.271,-0.364 0.244,-0.232 0.095,-0.864"
     id="path96" />
  <path
     class="write-flat-pen"
     fill="#000000"
     fill-opacity="0.427"
     stroke-width="2.4"
     __comx="616.197"
     __comy="1874.901"
     __timestamp="0x18287ad8e3f"
     d="m 525.939,8.397 0.531,1.037 0.23,0.482 0.277,0.546 0.264,0.56 0.317,0.641 0.325,0.617 0.322,0.583 0.3,0.543 0.243,0.39 0.122,0.248 0.07,0.192 0.068,0.143 0.066,0.04 0.093,-0.424 0.402,-0.162 -0.654,0.35 0.656,1.226 0.654,-0.35 0.485,-0.206 0.078,-0.665 0.007,-0.245 -0.042,-0.246 -0.101,-0.355 -0.223,-0.47 -0.273,-0.438 -0.279,-0.499 -0.317,-0.566 -0.314,-0.584 -0.324,-0.616 -0.318,-0.591 -0.367,-0.561 -0.307,-0.433 -0.628,-0.973"
     id="path98" />
  <path
     class="write-flat-pen"
     fill="#000000"
     fill-opacity="0.427"
     stroke-width="2.4"
     __comx="616.367"
     __comy="1874.901"
     __timestamp="0x18287ad8f18"
     d="m 530.717,8.518 -0.971,0.319 -0.486,0.273 -0.407,0.423 -0.417,0.479 -0.428,0.554 -0.426,0.557 -0.476,0.588 -0.408,0.576 -0.399,0.518 -0.265,0.562 -0.143,0.476 -0.069,0.543 0.232,0.754 -0.26,0.604 -0.009,0.01 0.008,0.01 0.002,-0.01 0.439,-0.5 0.757,-0.245 0.398,-0.348 0.318,-0.354 0.256,-0.373 0.352,-0.419 0.405,-0.573 0.454,-0.563 0.446,-0.595 0.389,-0.548 0.348,-0.474 0.208,-0.329 0.034,-0.147 0.691,-0.367"
     id="path100" />
  <path
     class="write-flat-pen"
     fill="#000000"
     fill-opacity="0.427"
     stroke-width="2.4"
     __comx="163.214"
     __comy="1883.318"
     __timestamp="0x18287c5aee0"
     d="m 74.639,23.648 0.047,0.943 0.007,0.362 -0.027,0.379 -0.024,0.374 -0.005,0.327 -0.019,0.302 -0.024,0.242 -0.013,0.244 -0.033,0.293 0.043,0.239 0.102,0.305 0.077,0.199 -0.07,0.201 0.323,0.112 0.07,-0.201 0.168,-0.062 0.324,-0.108 0.224,-0.255 0.152,-0.292 0.166,-0.337 0.067,-0.424 0.026,-0.409 -0.005,-0.378 -0.025,-0.418 -0.076,-0.466 -0.086,-0.368 -0.096,-0.906"
     id="path102" />
  <path
     class="write-flat-pen"
     fill="#000000"
     fill-opacity="0.427"
     stroke-width="2.4"
     __comx="167.868"
     __comy="1878.223"
     __timestamp="0x18287c5b0a2"
     d="m 78.759,18.839 -0.714,0.408 -0.273,0.245 -0.283,0.357 -0.232,0.512 -0.156,0.627 -0.111,0.732 -0.056,0.799 -0.028,0.869 0.104,0.915 0.184,0.874 0.305,0.821 0.418,0.698 0.541,0.543 0.596,0.358 0.653,0.194 0.722,-0.041 0.644,-0.26 0.539,-0.392 0.457,-0.546 0.378,-0.622 0.278,-0.738 0.218,-0.789 0.139,-0.799 0.088,-0.866 -0.044,-0.892 -0.149,-0.858 -0.25,-0.836 -0.291,-0.769 -0.311,-0.694 -0.378,-0.576 -0.474,-0.519 -0.618,-0.325 -0.718,-0.071 -0.72,0.184 -0.65,0.48 -0.312,0.812 -0.2,0.724 h -0.007 l 0.008,0.01 v -0.01 l 0.637,-0.321 0.666,-0.109 0.379,-0.064 0.214,0.021 0.119,0.061 0.07,0.05 0.173,0.189 0.224,0.342 0.246,0.518 0.266,0.653 0.215,0.67 0.129,0.648 0.049,0.655 -0.051,0.682 -0.093,0.665 -0.155,0.634 -0.188,0.518 -0.228,0.383 -0.245,0.293 -0.207,0.15 -0.194,0.071 h -0.161 l -0.178,-0.058 -0.236,-0.143 -0.247,-0.25 -0.231,-0.388 -0.206,-0.558 -0.142,-0.674 -0.082,-0.716 0.019,-0.721 0.037,-0.708 0.076,-0.61 0.081,-0.47 0.063,-0.304 0.028,-0.167 -0.008,-0.041 0.534,-0.333"
     id="path104" />
  <path
     class="write-flat-pen"
     fill="#000000"
     fill-opacity="0.427"
     stroke-width="2.4"
     __comx="576.103"
     __comy="1881.019"
     __timestamp="0x18287c5b799"
     d="m 486.296,24.763 0.766,-0.462 0.331,-0.206 0.392,-0.346 0.393,-0.485 0.384,-0.495 0.415,-0.568 0.399,-0.605 0.337,-0.603 0.245,-0.561 0.127,-0.433 0.11,-0.341 0.033,-0.213 0.009,-0.028 0.012,-0.016 -1.613,-0.265 -0.023,0.144 -0.017,0.379 -0.016,0.576 -0.015,0.713 -0.01,0.795 -0.008,0.833 0.095,0.76 0.071,0.678 0.122,0.619 0.079,0.437 0.023,0.431 0.075,0.427 0.046,0.363 0.071,0.378 0.121,0.253 0.114,0.166 0.173,0.268 0.271,0.145 0.192,0.018 0.368,0.358 0.643,-0.66 -0.368,-0.358 0.018,-0.152 0.124,-0.03 0.089,-0.01 0.023,-0.194 -0.009,-0.189 -0.02,-0.239 -0.047,-0.386 -0.063,-0.364 -0.024,-0.442 -0.106,-0.564 -0.11,-0.551 -0.069,-0.618 -0.091,-0.662 -0.008,-0.715 -0.01,-0.795 -0.015,-0.713 -0.016,-0.574 -0.016,-0.347 -0.013,-0.115 -1.613,-0.265 -0.019,0.09 -0.027,0.149 -0.014,0.128 -0.07,0.228 -0.104,0.353 -0.172,0.397 -0.266,0.484 -0.345,0.524 -0.376,0.521 -0.361,0.468 -0.312,0.4 -0.231,0.253 -0.169,0.19 -0.674,0.488"
     id="path106" />
  <path
     class="write-flat-pen"
     fill="#000000"
     fill-opacity="0.427"
     stroke-width="2.4"
     __comx="582.02"
     __comy="1884.697"
     __timestamp="0x18287c5b893"
     d="m 493.358,25.202 0.065,0.867 -0.042,0.237 -0.023,0.29 -0.008,0.316 -0.002,0.314 v 0.282 l -0.013,0.289 0.033,0.233 0.052,0.178 0.086,0.226 0.113,0.119 0.073,0.074 -0.001,0.517 0.914,0.001 10e-4,-0.517 0.073,-0.072 0.114,-0.108 0.092,-0.146 0.091,-0.178 0.036,-0.258 0.031,-0.292 v -0.346 l -0.002,-0.314 -0.008,-0.317 -0.023,-0.303 -0.051,-0.334 -0.168,-0.941"
     id="path108" />
  <path
     class="write-flat-pen"
     fill="#000000"
     fill-opacity="0.427"
     stroke-width="2.4"
     __comx="587.811"
     __comy="1879.615"
     __timestamp="0x18287c5ba98"
     d="m 499.267,20.056 -1.068,-0.208 -0.573,0.368 -0.323,0.515 -0.197,0.642 -0.185,0.77 -0.134,0.936 -0.053,0.961 -10e-4,0.974 0.106,0.965 0.252,0.881 0.357,0.749 0.51,0.642 0.612,0.391 0.622,0.219 0.703,0.064 0.693,-0.164 0.614,-0.306 0.578,-0.491 0.471,-0.606 0.403,-0.697 0.276,-0.817 0.184,-0.78 0.113,-0.872 -0.025,-0.88 -0.128,-0.85 -0.215,-0.875 -0.355,-0.795 -0.406,-0.69 -0.517,-0.647 -0.723,-0.425 -0.782,-0.196 -0.831,0.117 -0.763,0.4 -0.679,0.626 -0.329,0.967 -0.326,0.695 -0.007,0.001 0.008,0.01 v -0.01 l 0.603,-0.434 0.88,-0.163 0.624,-0.211 0.449,-0.102 0.24,-0.01 0.191,0.056 0.203,0.119 0.225,0.272 0.29,0.481 0.248,0.543 0.157,0.631 0.104,0.656 0.021,0.625 -0.073,0.634 -0.141,0.6 -0.19,0.564 -0.249,0.433 -0.275,0.357 -0.264,0.221 -0.225,0.11 -0.192,0.041 -0.179,-0.023 -0.211,-0.075 -0.172,-0.11 -0.185,-0.235 -0.199,-0.421 -0.166,-0.583 -0.08,-0.708 -0.001,-0.824 0.04,-0.837 0.099,-0.78 0.141,-0.657 0.096,-0.427 -0.003,-0.089 -0.292,0.136 0.437,-0.022"
     id="path110" />
  <path
     class="write-flat-pen"
     fill="#0000ff"
     fill-opacity="1"
     stroke-width="2.4"
     __comx="546.784"
     __comy="1879.837"
     __timestamp="0x18287c5c1aa"
     d="m 459.264,21.571 -0.712,-0.034 -0.139,-0.037 -0.166,-0.038 -0.181,-0.043 -0.163,-0.035 -0.125,-0.061 -0.078,-0.058 -0.092,-0.095 -0.114,-0.148 -0.07,-0.161 -0.053,-0.238 -0.031,-0.235 0.055,-0.206 0.116,-0.255 0.174,-0.235 0.225,-0.205 0.21,-0.137 0.171,-0.073 -0.002,-0.001 -0.146,-0.046 0.049,0.058 0.144,0.26 0.141,0.516 0.116,0.664 0.034,0.729 -0.067,0.773 -0.176,0.828 -0.256,0.812 -0.37,0.841 -0.378,0.78 -0.372,0.666 -0.324,0.506 -0.25,0.357 -0.161,0.201 -0.035,0.058 h 0.056 l 1.253,0.868 -0.095,0.091 -0.044,0.013 0.214,-0.153 0.274,-0.165 0.258,-0.088 0.333,-0.077 0.298,-0.045 h 0.302 l 0.395,-0.032 0.355,-0.014 0.398,0.001 h 0.343 l 0.323,-0.01 0.221,-0.023 0.122,-0.045 0.079,-0.073 -0.004,-0.062 0.062,-0.053 0.565,0.138 0.244,-1.002 -0.565,-0.138 -0.067,-0.085 -0.122,-0.083 -0.191,-0.073 -0.122,-0.045 -0.221,-0.023 -0.323,-0.01 h -0.344 -0.441 l -0.435,0.029 -0.402,0.051 -0.389,0.04 -0.444,0.123 -0.412,0.134 -0.433,0.165 -0.433,0.261 -0.361,0.248 -0.341,0.311 -0.136,0.231 1.253,0.868 0.154,-0.074 0.177,-0.209 0.194,-0.239 0.303,-0.432 0.372,-0.58 0.418,-0.756 0.412,-0.851 0.42,-0.958 0.301,-0.987 0.196,-1.013 0.073,-0.984 -0.059,-0.944 -0.163,-0.843 -0.234,-0.785 -0.382,-0.628 -0.492,-0.442 -0.601,-0.189 -0.548,0.127 -0.422,0.177 -0.434,0.28 -0.423,0.382 -0.382,0.478 -0.254,0.541 -0.172,0.632 0.065,0.609 0.091,0.471 0.216,0.508 0.315,0.401 0.332,0.316 0.439,0.227 0.452,0.101 0.312,0.01 0.25,-0.01 0.226,-0.038 0.139,-0.037 0.712,-0.034"
     id="path112" />
  <path
     class="write-flat-pen"
     fill="#0000ff"
     fill-opacity="1"
     stroke-width="2.4"
     __comx="551.73"
     __comy="1884.5"
     __timestamp="0x18287c5c289"
     d="m 463.276,24.819 -0.039,0.922 -0.062,0.351 -0.042,0.424 -0.06,0.342 -0.051,0.389 -0.022,0.271 -0.038,0.279 0.006,0.222 0.04,0.225 0.063,0.109 0.081,0.083 0.061,0.083 -0.141,0.567 1.015,0.252 0.141,-0.567 0.099,-0.071 0.119,-0.106 0.103,-0.156 0.088,-0.238 0.051,-0.172 0.052,-0.307 0.024,-0.298 0.041,-0.361 0.031,-0.449 -0.04,-0.471 -0.017,-0.355 -0.039,-0.97"
     id="path114" />
  <path
     class="write-flat-pen"
     fill="#0000ff"
     fill-opacity="1"
     stroke-width="2.4"
     __comx="556.849"
     __comy="1878.261"
     __timestamp="0x18287c5c42a"
     d="m 468.288,18.048 -0.795,0.469 -0.362,0.298 -0.362,0.527 -0.204,0.683 -0.189,0.794 -0.111,0.967 -0.029,0.993 0.048,1.013 0.164,0.94 0.333,0.873 0.503,0.681 0.581,0.524 0.62,0.311 0.699,0.174 0.794,-0.121 0.62,-0.43 0.464,-0.589 0.356,-0.639 0.352,-0.753 0.221,-0.816 0.137,-0.854 0.003,-0.882 -0.142,-0.871 -0.286,-0.802 -0.377,-0.696 -0.521,-0.617 -0.652,-0.425 -0.778,-0.215 -0.806,0.03 -0.803,0.289 -0.737,0.47 -0.628,0.689 -0.485,0.802 -0.007,-10e-4 0.006,0.01 0.002,-0.01 0.909,-0.118 0.814,-0.147 0.658,-0.116 0.501,-0.045 0.31,0.032 0.245,0.08 0.18,0.118 0.222,0.261 0.227,0.39 0.178,0.494 0.09,0.551 0.003,0.582 -0.096,0.61 -0.152,0.564 -0.253,0.545 -0.251,0.451 -0.197,0.252 -0.033,0.023 h 0.007 l -0.133,-0.036 -0.211,-0.106 -0.254,-0.228 -0.239,-0.322 -0.178,-0.465 -0.114,-0.649 -0.045,-0.827 0.017,-0.848 0.075,-0.791 0.137,-0.673 0.082,-0.458 0.039,-0.208 0.005,-0.09 0.604,-0.423"
     id="path116" />
  <path
     class="write-flat-pen"
     fill="#000000"
     fill-opacity="0.427"
     stroke-width="2.4"
     __comx="613.219"
     __comy="1884.158"
     __timestamp="0x18287c5d28d"
     d="m 524.586,26.062 0.035,1.201 -0.029,0.593 -0.042,0.639 -0.042,0.669 v 0.625 l -0.02,0.566 0.005,0.561 0.065,0.452 0.087,0.35 0.121,0.302 0.152,0.179 -0.048,0.4 0.732,0.088 0.048,-0.4 0.193,-0.163 0.166,-0.314 0.132,-0.393 0.065,-0.463 0.051,-0.525 0.026,-0.604 v -0.629 l 0.005,-0.67 -0.042,-0.701 -0.076,-0.63 -0.087,-1.208"
     id="path118" />
  <path
     class="write-flat-pen"
     fill="#000000"
     fill-opacity="0.427"
     stroke-width="2.4"
     __comx="617.681"
     __comy="1884.158"
     __timestamp="0x18287c5d44f"
     d="m 528.1,20.683 -0.396,1.002 -0.193,0.607 -0.1,0.781 -0.065,0.963 0.043,0.988 0.101,0.964 0.212,0.848 0.287,0.722 0.379,0.57 0.475,0.459 0.629,0.261 0.7,-0.018 0.604,-0.268 0.483,-0.442 0.435,-0.584 0.289,-0.674 0.22,-0.72 0.149,-0.825 0.005,-0.838 -0.066,-0.837 -0.212,-0.838 -0.297,-0.803 -0.428,-0.723 -0.437,-0.601 -0.502,-0.491 -0.625,-0.338 -0.721,-0.032 -0.614,0.306 -0.311,0.572 0.063,0.591 -0.008,0.014 0.013,0.01 0.008,-0.014 0.485,-0.116 0.346,0.032 0.129,0.063 0.062,0.097 0.16,0.121 0.238,0.26 0.306,0.444 0.315,0.532 0.214,0.577 0.159,0.626 0.073,0.627 0.005,0.626 -0.084,0.598 -0.152,0.536 -0.178,0.414 -0.223,0.299 -0.18,0.144 -0.05,0.015 0.007,-0.028 -0.011,-0.032 -0.123,-0.123 -0.175,-0.263 -0.177,-0.447 -0.16,-0.616 -0.085,-0.792 -0.049,-0.852 0.028,-0.837 0.041,-0.646 0.048,-0.462 0.246,-0.976"
     id="path120" />
  <path
     class="write-stroke-pen"
     fill="none"
     stroke="#000000"
     stroke-width="2.4"
     stroke-linecap="round"
     stroke-linejoin="round"
     __comx="150"
     __comy="1924.6"
     __timestamp="0x18287aa6ee9"
     d="m 62.17,61.2 v 30"
     id="path122" />
  <path
     class="write-stroke-pen"
     fill="none"
     stroke="#000000"
     stroke-width="2.4"
     stroke-linecap="round"
     stroke-linejoin="round"
     __comx="300"
     __comy="1919.6"
     __timestamp="0x18287aa864a"
     d="m 62.17,61.2 h 30 30 30 30 30 60 60 30"
     id="path124" />
  <path
     class="write-stroke-pen"
     fill="none"
     stroke="#000000"
     stroke-width="2.4"
     stroke-linecap="round"
     stroke-linejoin="round"
     __comx="540"
     __comy="1919.6"
     __timestamp="0x18287aaa037"
     d="m 362.17,61.2 h 30 30 30 30 30 30"
     id="path126" />
  <path
     class="write-stroke-pen"
     fill="none"
     stroke="#000000"
     stroke-width="2.4"
     stroke-linecap="round"
     stroke-linejoin="round"
     __comx="630"
     __comy="1924.6"
     __timestamp="0x18287aaa453"
     d="m 542.17,61.2 v 30"
     id="path128" />
  <path
     class="write-stroke-pen"
     fill="none"
     stroke="#000000"
     stroke-width="2.4"
     stroke-linecap="round"
     stroke-linejoin="round"
     __comx="390"
     __comy="1949.6"
     __timestamp="0x18287aaafc4"
     d="m 62.17,91.2 h 30 30 30 30 30 30 30 30 30 30 30 30 30 30 30 30"
     id="path130" />
  <path
     class="write-stroke-pen"
     fill="none"
     stroke="#000000"
     stroke-width="2.4"
     stroke-linecap="round"
     stroke-linejoin="round"
     __comx="510"
     __comy="1949.6"
     __timestamp="0x18287aac9b9"
     d="m 422.17,91.2 v 0"
     id="path132" />
  <path
     class="write-stroke-pen"
     fill="none"
     stroke="#000000"
     stroke-width="2.4"
     stroke-linecap="round"
     stroke-linejoin="round"
     __comx="180"
     __comy="1935.938"
     __timestamp="0x18287ab6a5a"
     d="m 92.17,61.2 v 30"
     id="path134" />
  <path
     class="write-stroke-pen"
     fill="none"
     stroke="#000000"
     stroke-width="2.4"
     stroke-linecap="round"
     stroke-linejoin="round"
     __comx="210"
     __comy="1935.938"
     __timestamp="0x18287ab6c8d"
     d="m 122.17,61.2 v 30"
     id="path136" />
  <path
     class="write-stroke-pen"
     fill="none"
     stroke="#000000"
     stroke-width="2.4"
     stroke-linecap="round"
     stroke-linejoin="round"
     __comx="240"
     __comy="1935.938"
     __timestamp="0x18287ab6e78"
     d="m 152.17,61.2 v 30"
     id="path138" />
  <path
     class="write-stroke-pen"
     fill="none"
     stroke="#000000"
     stroke-width="2.4"
     stroke-linecap="round"
     stroke-linejoin="round"
     __comx="270"
     __comy="1935.938"
     __timestamp="0x18287ab703b"
     d="m 182.17,61.2 v 30"
     id="path140" />
  <path
     class="write-stroke-pen"
     fill="none"
     stroke="#000000"
     stroke-width="2.4"
     stroke-linecap="round"
     stroke-linejoin="round"
     __comx="300"
     __comy="1935.938"
     __timestamp="0x18287ab7230"
     d="m 212.17,91.2 v 0"
     id="path142" />
  <path
     class="write-stroke-pen"
     fill="none"
     stroke="#000000"
     stroke-width="2.4"
     stroke-linecap="round"
     stroke-linejoin="round"
     __comx="300"
     __comy="1935.938"
     __timestamp="0x18287ab7481"
     d="m 212.17,61.2 v 30"
     id="path144" />
  <path
     class="write-stroke-pen"
     fill="none"
     stroke="#000000"
     stroke-width="2.4"
     stroke-linecap="round"
     stroke-linejoin="round"
     __comx="330"
     __comy="1935.938"
     __timestamp="0x18287ab7625"
     d="m 242.17,61.2 v 30"
     id="path146" />
  <path
     class="write-stroke-pen"
     fill="none"
     stroke="#000000"
     stroke-width="2.4"
     stroke-linecap="round"
     stroke-linejoin="round"
     __comx="360"
     __comy="1935.938"
     __timestamp="0x18287ab788b"
     d="m 272.17,61.2 v 30"
     id="path148" />
  <path
     class="write-stroke-pen"
     fill="none"
     stroke="#000000"
     stroke-width="2.4"
     stroke-linecap="round"
     stroke-linejoin="round"
     __comx="390"
     __comy="1935.938"
     __timestamp="0x18287ab79f1"
     d="m 302.17,61.2 v 30"
     id="path150" />
  <path
     class="write-stroke-pen"
     fill="none"
     stroke="#000000"
     stroke-width="2.4"
     stroke-linecap="round"
     stroke-linejoin="round"
     __comx="420"
     __comy="1935.938"
     __timestamp="0x18287ab7b9f"
     d="m 332.17,61.2 v 30"
     id="path152" />
  <path
     class="write-stroke-pen"
     fill="none"
     stroke="#000000"
     stroke-width="2.4"
     stroke-linecap="round"
     stroke-linejoin="round"
     __comx="450"
     __comy="1935.938"
     __timestamp="0x18287ab7e4c"
     d="m 362.17,61.2 v 30"
     id="path154" />
  <path
     class="write-stroke-pen"
     fill="none"
     stroke="#000000"
     stroke-width="2.4"
     stroke-linecap="round"
     stroke-linejoin="round"
     __comx="480"
     __comy="1935.938"
     __timestamp="0x18287ab7fc7"
     d="m 392.17,61.2 v 30"
     id="path156" />
  <path
     class="write-stroke-pen"
     fill="none"
     stroke="#000000"
     stroke-width="2.4"
     stroke-linecap="round"
     stroke-linejoin="round"
     __comx="510"
     __comy="1935.938"
     __timestamp="0x18287ab816b"
     d="m 422.17,61.2 v 30"
     id="path158" />
  <path
     class="write-stroke-pen"
     fill="none"
     stroke="#000000"
     stroke-width="2.4"
     stroke-linecap="round"
     stroke-linejoin="round"
     __comx="540"
     __comy="1935.938"
     __timestamp="0x18287ab8337"
     d="m 452.17,61.2 v 30"
     id="path160" />
  <path
     class="write-stroke-pen"
     fill="none"
     stroke="#000000"
     stroke-width="2.4"
     stroke-linecap="round"
     stroke-linejoin="round"
     __comx="570"
     __comy="1935.938"
     __timestamp="0x18287ab85a7"
     d="m 482.17,61.2 v 30"
     id="path162" />
  <path
     class="write-stroke-pen"
     fill="none"
     stroke="#000000"
     stroke-width="2.4"
     stroke-linecap="round"
     stroke-linejoin="round"
     __comx="600"
     __comy="1935.938"
     __timestamp="0x18287ab872c"
     d="m 512.17,61.2 v 30"
     id="path164" />
  <path
     class="write-flat-pen"
     fill="#000000"
     stroke-width="2.4"
     __comx="96.036"
     __comy="1941.874"
     __timestamp="0x1828830d041"
     d="M 1.62,79.808 1.493,79.109 1.538,79.168 H 1.562 L 1.637,79.036 1.809,78.81 2.084,78.562 2.317,78.398 2.45,78.329 2.547,78.296 2.52,78.306 2.375,78.287 2.349,78.274 l 0.162,0.208 0.115,0.388 0.151,0.666 0.119,0.768 0.089,0.844 0.064,0.864 0.067,0.867 0.031,0.711 -10e-4,0.695 -0.002,0.582 -0.034,0.477 -0.002,0.313 -0.025,0.183 -0.006,0.11 1.14,0.942 0.352,-0.103 0.378,-0.647 0.209,-0.543 0.275,-0.648 0.318,-0.674 0.278,-0.735 0.31,-0.675 L 6.673,82.113 6.907,81.445 7.244,80.789 7.521,80.22 7.752,79.829 8.097,79.454 8.332,79.19 8.616,78.978 8.82,78.839 8.944,78.783 9.076,78.737 H 9.002 l -0.163,-0.042 -0.069,-0.05 0.066,0.192 0.111,0.471 0.087,0.625 0.058,0.776 0.028,0.798 0.03,0.85 0.031,0.832 -0.004,0.786 0.032,0.694 -0.037,0.629 -0.003,0.504 -0.029,0.363 -0.057,0.263 -0.032,0.17 -0.03,0.141 1.393,-0.466 0.173,0.197 -0.026,0.017 0.082,-0.524 0.088,-0.742 0.148,-0.749 0.199,-0.831 0.161,-0.845 0.298,-0.77 0.281,-0.77 0.303,-0.671 0.31,-0.56 0.288,-0.519 0.238,-0.434 0.191,-0.296 0.305,-0.285 0.255,-0.257 0.239,-0.171 0.135,-0.072 0.061,-0.013 -0.123,0.01 -0.054,-0.01 0.084,0.177 0.15,0.463 0.167,0.697 0.078,0.869 0.118,0.949 0.017,0.917 -0.017,0.916 0.026,0.863 -0.042,0.81 -0.038,0.795 -0.07,0.765 -0.104,0.647 -0.101,0.601 -0.138,0.498 -0.072,0.353 -0.054,0.224 -0.072,0.233 0.017,0.212 1.391,-0.602 0.336,0.255 -0.205,0.301 -0.363,-0.467 0.052,-0.23 -0.394,-0.089 -0.052,0.23 -0.564,0.424 -0.196,0.724 0.345,0.262 1.391,-0.602 0.043,-0.01 0.051,-0.125 0.083,-0.339 0.067,-0.324 0.146,-0.532 0.116,-0.703 0.112,-0.717 0.074,-0.869 0.034,-0.837 0.03,-0.888 -0.047,-0.901 -0.018,-0.912 -0.057,-1.044 -0.172,-1.014 -0.142,-0.965 -0.278,-0.891 -0.315,-0.677 -0.422,-0.546 -0.535,-0.279 -0.451,-0.014 -0.424,0.134 -0.335,0.181 -0.403,0.292 -0.314,0.317 -0.414,0.381 -0.309,0.479 -0.264,0.47 -0.289,0.519 -0.338,0.608 -0.349,0.765 -0.299,0.797 -0.354,0.863 -0.203,0.922 -0.236,0.805 -0.214,0.823 -0.133,0.779 -0.126,0.687 0.03,0.852 0.293,0.302 1.393,-0.466 0.034,-0.159 0.033,-0.171 0.074,-0.357 0.039,-0.538 L 10.866,85.349 10.9,84.677 10.86,83.938 10.855,83.159 10.813,82.292 10.77,81.441 10.725,80.605 10.636,79.738 10.499,78.975 10.292,78.294 10,77.745 9.571,77.357 9.121,77.243 8.803,77.269 8.441,77.365 8.093,77.509 7.74,77.748 l -0.434,0.321 -0.328,0.368 -0.449,0.48 -0.343,0.58 -0.3,0.598 -0.389,0.72 -0.273,0.7 -0.319,0.685 -0.342,0.697 -0.305,0.706 -0.336,0.635 -0.319,0.691 -0.182,0.395 0.03,-0.123 0.322,-0.096 1.14,0.942 L 4.915,86.01 4.946,85.782 4.947,85.412 4.982,84.931 4.98,84.282 4.978,83.542 4.936,82.757 4.858,81.86 4.776,80.96 4.646,80.037 4.473,79.166 4.254,78.377 3.977,77.639 3.498,77.094 3.06,76.747 2.467,76.657 2.105,76.738 1.8,76.843 1.463,77.025 1.064,77.312 0.608,77.742 0.264,78.219 0.066,78.663 0,79.087 0.07,79.38 0.353,80.159"
     id="path166" />
  <path
     class="write-flat-pen"
     fill="#000000"
     stroke-width="2.4"
     __comx="110.299"
     __comy="1941.874"
     __timestamp="0x1828830d275"
     d="m 23.57,78.353 -0.077,1.045 -0.12,0.547 -0.189,0.767 -0.174,0.799 -0.254,0.766 -0.295,0.765 -0.247,0.719 -0.308,0.669 -0.313,0.651 -0.323,0.583 -0.353,0.487 -0.323,0.397 -0.294,0.243 -0.24,0.169 -0.088,0.047 0.015,-0.001 0.274,-0.018 0.287,0.201 h -0.026 l -0.09,-0.308 -0.111,-0.602 -0.078,-0.657 -0.079,-0.71 -0.009,-0.746 -0.005,-0.716 -10e-4,-0.591 0.03,-0.528 0.062,-0.428 0.043,-0.212 0.093,-0.18 0.076,-0.107 0.008,-0.01 h 0.012 l -0.032,0.01 0.05,0.018 0.196,0.131 0.304,0.359 0.414,0.63 0.477,0.822 0.484,0.897 0.461,0.904 0.418,0.824 0.321,0.746 0.329,0.659 0.23,0.506 0.191,0.513 0.151,0.278 0.044,0.16 0.024,0.104 0.04,0.198 0.025,0.084 h 0.01 l 0.029,0.064 1.674,-0.405 -0.174,-0.068 -0.31,-0.708 -1.36,0.596 0.31,0.708 -0.068,0.174 1.674,-0.405 0.018,-0.119 -0.01,-0.168 -0.034,-0.154 -0.037,-0.188 -0.041,-0.171 -0.111,-0.395 -0.189,-0.346 -0.169,-0.453 -0.273,-0.593 -0.322,-0.643 -0.331,-0.752 -0.452,-0.874 -0.483,-0.926 -0.533,-0.934 -0.543,-0.882 -0.541,-0.752 -0.595,-0.627 -0.736,-0.38 -0.643,-0.067 -0.439,0.102 -0.478,0.247 -0.26,0.309 -0.179,0.255 -0.247,0.48 -0.093,0.475 -0.078,0.536 -0.041,0.644 -0.001,0.64 -0.005,0.717 -0.008,0.825 0.067,0.798 0.07,0.719 0.119,0.738 0.171,0.641 0.35,0.586 0.55,0.357 0.452,-0.037 0.328,-0.081 0.382,-0.204 0.389,-0.274 0.486,-0.402 0.471,-0.58 0.441,-0.621 0.402,-0.724 0.34,-0.719 0.344,-0.769 0.261,-0.782 0.285,-0.802 0.254,-0.934 0.117,-0.904 0.104,-0.823 0.023,-0.677 -0.026,-1.114"
     id="path168" />
  <path
     class="write-flat-pen"
     fill="#000000"
     stroke-width="2.4"
     __comx="117.778"
     __comy="1941.874"
     __timestamp="0x1828830d44b"
     d="m 32.241,79.755 -0.828,-0.17 -0.388,-0.127 -0.481,-0.07 -0.494,-0.043 -0.618,0.103 -0.607,0.252 -0.518,0.353 -0.427,0.459 -0.351,0.604 -0.141,0.762 0.142,0.814 0.324,0.808 0.534,0.771 0.661,0.675 0.664,0.567 0.699,0.537 0.594,0.479 0.513,0.441 0.309,0.364 0.187,0.287 0.054,0.168 -0.006,0.061 -0.043,0.086 -0.168,0.254 -0.285,0.254 -0.418,0.221 -0.538,0.152 -0.629,0.107 -0.536,10e-4 -0.586,-0.074 -0.507,-0.142 -0.336,-0.143 -0.238,-0.194 -0.146,-0.089 -0.059,0.024 -0.083,-0.095 -0.019,-0.268 0.021,-0.512 0.132,-0.669 0.016,-0.019 -0.014,-0.012 -0.016,0.019 -0.673,0.262 -0.562,0.373 -0.294,0.461 -0.189,0.617 0.182,0.722 0.346,0.474 0.483,0.506 0.746,0.372 0.796,0.246 0.87,0.12 0.837,-10e-4 0.9,-0.157 0.841,-0.244 0.818,-0.441 0.661,-0.613 0.413,-0.692 0.217,-0.707 -0.094,-0.71 -0.238,-0.59 -0.388,-0.547 -0.482,-0.538 -0.647,-0.538 -0.638,-0.499 -0.682,-0.511 -0.569,-0.479 -0.502,-0.506 -0.337,-0.479 -0.182,-0.449 -0.059,-0.318 0.025,-0.149 0.097,-0.174 0.16,-0.182 0.208,-0.156 0.276,-0.132 0.268,-0.08 0.307,-0.041 0.343,-0.051 0.302,0.01 0.854,0.117"
     id="path170" />
  <path
     class="write-flat-pen"
     fill="#000000"
     stroke-width="2.4"
     __comx="122.139"
     __comy="1941.874"
     __timestamp="0x1828830d587"
     d="m 32.012,73.788 0.402,1.306 0.226,0.963 0.361,1.243 0.337,1.295 0.356,1.319 0.35,1.19 0.238,1.042 0.139,0.981 0.137,0.869 0.035,0.754 0.08,0.744 0.092,0.637 0.056,0.498 0.075,0.447 0.095,0.308 0.115,0.171 0.112,0.112 0.092,0.469 h 0.754 l 0.092,-0.469 0.112,-0.112 0.115,-0.171 0.095,-0.308 0.075,-0.448 0.054,-0.595 L 36.555,85.301 36.491,84.612 36.453,83.804 36.3,82.845 36.149,81.801 35.879,80.622 35.503,79.394 35.132,78.099 34.743,76.78 34.304,75.536 33.94,74.58 33.378,73.284"
     id="path172" />
  <path
     class="write-flat-pen"
     fill="#000000"
     stroke-width="2.4"
     __comx="126.57"
     __comy="1941.874"
     __timestamp="0x1828830d739"
     d="m 36.528,83.74 0.702,-0.869 0.478,-0.53 0.566,-0.543 0.678,-0.56 0.692,-0.63 0.621,-0.579 0.684,-0.518 0.671,-0.473 0.547,-0.364 0.364,-0.208 0.198,-0.116 -1.153,-1.013 0.01,-0.089 -0.263,0.213 -0.664,0.553 -0.904,0.732 -1.045,0.794 -1.096,0.806 -1.033,0.778 -0.847,0.643 -0.679,0.524 -0.494,0.657 -0.138,0.83 0.436,0.736 0.659,0.585 0.84,0.492 0.952,0.362 0.916,0.335 0.875,0.314 0.742,0.196 0.508,0.203 0.46,0.192 0.251,0.101 0.138,0.079 0.03,0.014 -0.028,-0.039 0.011,-0.112 0.06,-0.109 0.118,-0.039 0.217,0.152 0.035,0.553 0.928,-0.059 -0.035,-0.553 0.19,-0.261 0.072,-0.282 -0.048,-0.342 -0.166,-0.338 -0.246,-0.207 -0.147,-0.09 -0.269,-0.153 -0.365,-0.146 -0.467,-0.193 -0.64,-0.247 -0.778,-0.196 -0.793,-0.273 -0.9,-0.318 -0.796,-0.295 -0.552,-0.306 -0.307,-0.253 0.062,0.119 -0.052,0.304 0.069,-0.097 0.473,-0.383 0.821,-0.662 1,-0.79 1.082,-0.828 1.062,-0.841 0.917,-0.776 0.672,-0.583 0.535,-0.489 0.09,-0.274 -1.153,-1.013 -0.184,0.112 -0.401,0.233 -0.606,0.415 -0.706,0.505 -0.768,0.594 -0.686,0.662 -0.617,0.678 -0.63,0.618 -0.6,0.64 -0.493,0.615 -0.696,0.903"
     id="path174" />
  <path
     class="write-flat-pen"
     fill="#000000"
     stroke-width="2.4"
     __comx="98.095"
     __comy="1962.015"
     __timestamp="0x1828830f689"
     d="m 9.971,93.164 -0.733,0.867 -0.392,0.443 -0.427,0.699 -0.38,0.811 -0.381,1.057 -0.214,1.257 -0.126,1.362 0.03,1.49 0.23,1.475 0.343,1.413 0.42,1.309 0.462,1.146 0.489,0.979 0.457,0.925 0.515,0.805 0.496,0.689 0.412,0.538 0.364,0.428 0.352,0.257 0.313,0.059 0.298,0.409 0.715,-0.522 -0.298,-0.409 0.056,-0.292 -0.061,-0.365 -0.209,-0.537 -0.382,-0.632 -0.446,-0.681 -0.427,-0.696 -0.414,-0.839 -0.454,-0.915 -0.409,-1.009 -0.378,-1.174 -0.311,-1.267 -0.205,-1.27 -0.042,-1.256 0.092,-1.188 0.151,-1.032 0.275,-0.844 0.278,-0.7 0.25,-0.569 0.219,-0.375 0.673,-0.876"
     id="path176" />
  <path
     class="write-flat-pen"
     fill="#000000"
     stroke-width="2.4"
     __comx="105.344"
     __comy="1962.015"
     __timestamp="0x1828830f988"
     d="m 16.602,98 -0.929,0.435 -0.537,0.308 -0.479,0.489 -0.508,0.584 -0.392,0.872 -0.218,0.978 -0.126,1.075 -10e-4,1.252 0.158,1.224 0.325,1.244 0.54,1.16 0.678,0.953 0.827,0.775 0.922,0.543 0.866,0.289 0.779,0.152 0.761,-0.047 0.766,-0.261 0.596,-0.623 0.378,-0.762 0.289,-0.9 0.199,-1.036 0.122,-1.169 -0.038,-1.289 -0.233,-1.35 -0.428,-1.406 -0.579,-1.288 -0.619,-1.121 -0.695,-0.962 -0.787,-0.709 -0.836,-0.46 -0.93,-0.203 -0.903,0.04 -0.864,0.27 -0.651,0.447 -0.151,0.816 -0.03,0.025 0.026,0.032 0.03,-0.025 0.716,0.11 0.503,-0.069 0.59,-0.053 0.548,0.044 0.521,0.128 0.464,0.256 0.516,0.465 0.539,0.736 0.542,0.97 0.51,1.13 0.37,1.209 0.202,1.134 0.034,1.065 -0.097,0.99 -0.166,0.864 -0.227,0.681 -0.221,0.423 -0.147,0.147 -0.171,0.053 -0.315,0.011 -0.442,-0.109 -0.58,-0.233 -0.6,-0.372 -0.551,-0.532 -0.482,-0.68 -0.404,-0.866 -0.256,-0.979 -0.132,-0.998 v -1.038 l 0.093,-0.889 0.149,-0.728 0.2,-0.507 0.299,-0.404 0.275,-0.369 0.242,-0.234 0.803,-0.48"
     id="path178" />
  <path
     class="write-flat-pen"
     fill="#000000"
     stroke-width="2.4"
     __comx="111.935"
     __comy="1962.015"
     __timestamp="0x1828830fab4"
     d="m 20.36,100.528 0.81,1.029 0.438,0.592 0.512,0.703 0.602,0.721 0.578,0.673 0.67,0.709 0.622,0.627 0.575,0.582 0.445,0.462 0.328,0.367 0.173,0.193 0.13,0.125 0.088,0.055 0.094,0.03 0.086,0.02 0.18,0.619 1.063,-0.136 0.019,-0.644 0.065,-0.143 0.012,-0.266 -0.056,-0.296 -0.155,-0.369 -0.238,-0.358 -0.389,-0.47 -0.491,-0.511 -0.585,-0.593 -0.611,-0.613 -0.639,-0.666 -0.583,-0.632 -0.634,-0.654 -0.583,-0.61 -0.52,-0.536 -0.892,-0.961"
     id="path180" />
  <path
     class="write-flat-pen"
     fill="#000000"
     stroke-width="2.4"
     __comx="112.314"
     __comy="1962.015"
     __timestamp="0x1828830fb9d"
     d="m 26.241,100.183 -0.72,1.259 -0.471,0.711 -0.49,0.747 -0.497,0.749 -0.485,0.683 -0.497,0.639 -0.461,0.625 -0.388,0.544 -0.35,0.488 -0.296,0.45 -0.133,0.446 0.053,0.301 -0.236,0.403 0.69,0.403 0.236,-0.403 0.253,-0.041 0.285,-0.108 0.414,-0.255 0.518,-0.489 0.48,-0.562 0.482,-0.614 0.518,-0.666 0.53,-0.754 0.52,-0.82 0.455,-0.824 0.409,-0.81 0.639,-1.345"
     id="path182" />
  <path
     class="write-flat-pen"
     fill="#000000"
     stroke-width="2.4"
     __comx="118.979"
     __comy="1962.015"
     __timestamp="0x1828830fece"
     d="m 30.264,97.935 -0.757,0.532 -0.344,0.359 -0.292,0.635 -0.206,0.847 -0.173,1.024 -0.047,1.182 -0.007,1.209 0.118,1.129 0.25,0.994 0.4,0.89 0.499,0.657 0.439,0.434 0.418,0.418 0.521,0.272 0.525,0.148 0.712,-0.114 0.485,-0.417 0.399,-0.59 0.283,-0.692 0.167,-0.716 0.163,-0.806 0.043,-0.875 0.002,-0.967 -0.205,-0.979 -0.275,-0.935 -0.405,-0.956 -0.518,-0.862 -0.513,-0.746 -0.553,-0.645 -0.601,-0.465 -0.523,-0.246 -0.468,-0.114 -0.372,0.048 -0.322,0.106 -0.169,0.212 -0.441,0.262 0.434,0.732 0.441,-0.262 -0.003,0.114 -0.079,0.118 0.095,0.126 0.153,0.142 0.249,0.202 0.331,0.313 0.386,0.462 0.429,0.624 0.425,0.707 0.321,0.744 0.233,0.765 0.157,0.721 0.002,0.736 -0.032,0.697 -0.13,0.642 -0.132,0.534 -0.173,0.369 -0.17,0.225 0.091,-0.086 0.212,-0.037 0.06,0.012 -0.098,-0.056 -0.222,-0.221 -0.348,-0.343 -0.29,-0.381 -0.25,-0.544 -0.184,-0.702 -0.1,-0.895 -0.007,-1.079 0.027,-1.043 0.119,-0.881 0.101,-0.696 0.057,-0.331 -0.015,-0.086 0.537,-0.493"
     id="path184" />
  <path
     class="write-flat-pen"
     fill="#000000"
     stroke-width="2.4"
     __comx="125.984"
     __comy="1962.015"
     __timestamp="0x182883100a1"
     d="m 34.268,98.112 0.712,-0.699 0.298,-0.199 0.41,-0.088 0.633,-0.085 0.516,0.028 0.548,0.159 0.57,0.304 0.487,0.425 0.332,0.446 0.203,0.497 0.076,0.376 -0.063,0.333 -0.13,0.424 -0.174,0.298 -0.294,0.32 -0.249,0.237 -0.157,0.134 -0.098,1.427 0.353,0.298 0.694,-0.013 h 0.387 l 0.449,0.072 0.365,0.139 0.351,0.254 0.301,0.362 0.203,0.428 0.1,0.463 -0.021,0.413 -0.106,0.398 -0.207,0.348 -0.337,0.362 -0.399,0.311 -0.485,0.258 -0.512,0.206 -0.539,0.119 -0.533,0.109 -0.495,0.093 -0.152,0.072 0.289,0.223 -0.009,0.397 -0.287,-0.161 0.05,-0.405 -0.696,-0.086 -0.05,0.405 -0.362,0.443 0.125,0.704 0.679,0.369 0.614,0.01 0.587,-0.039 0.619,-0.086 0.764,-0.145 0.795,-0.319 0.748,-0.398 0.687,-0.541 0.605,-0.689 0.441,-0.831 0.179,-0.911 -0.026,-0.888 -0.267,-0.908 -0.454,-0.81 -0.65,-0.683 -0.75,-0.463 -0.725,-0.247 -0.747,-0.118 h -0.515 l 0.063,-0.022 0.229,0.174 -0.098,1.427 0.234,-0.165 0.382,-0.335 0.5,-0.536 0.397,-0.679 0.23,-0.755 0.145,-0.834 -0.215,-0.924 -0.38,-0.872 -0.611,-0.791 -0.821,-0.684 -0.959,-0.479 -0.982,-0.23 -0.932,0.031 -0.911,0.251 -0.689,0.323 -0.53,0.429 -0.774,0.778"
     id="path186" />
  <path
     class="write-flat-pen"
     fill="#000000"
     stroke-width="2.4"
     __comx="135.489"
     __comy="1962.015"
     __timestamp="0x182883101dd"
     d="m 42.656,93.214 1.353,-0.124 0.667,0.101 0.818,0.431 1.034,0.821 1.097,1.281 1.074,1.658 0.908,1.84 0.645,1.933 0.394,1.8 0.029,1.699 -0.228,1.605 -0.487,1.403 -0.663,1.346 -0.779,1.194 -0.897,1.048 -1.023,0.938 -1.069,0.849 -1.082,0.866 -1.099,0.947 h -0.007 l 0.003,0.01 0.004,-0.01 1.515,0.098 1.532,-0.376 1.4,-0.785 1.301,-1.023 1.136,-1.239 0.964,-1.421 0.789,-1.595 0.602,-1.734 0.281,-1.989 -0.044,-2.092 -0.477,-2.122 -0.735,-2.184 -1.052,-2.081 -1.25,-1.871 -1.372,-1.529 -1.436,-1.01 -1.367,-0.549 -1.176,-0.025 -1.51,0.233"
     id="path188" />
  <path
     class="write-flat-pen"
     fill="#000000"
     fill-opacity="0.427"
     stroke-width="2.4"
     __comx="606.984"
     __comy="1880.733"
     __timestamp="0x182884a4028"
     d="m 518.874,20.828 -1.204,0.301 -0.344,0.83 -0.167,0.813 -0.129,0.964 -0.117,0.972 -0.13,0.987 0.133,0.909 0.248,0.78 0.638,0.648 0.675,0.343 0.837,0.199 0.924,-0.215 0.804,-0.591 0.643,-0.841 0.362,-1 0.272,-1.027 0.008,-1.132 -0.204,-1.073 -0.468,-1.005 -0.845,-0.713 -1.169,-0.387 -1.122,0.174 -1.152,0.801 -0.871,1.277 -0.505,1.749 h -0.008 l 0.008,0.01 10e-4,-0.01 1.43,-1.014 0.965,-0.773 0.718,-0.315 h 0.333 l 0.423,0.158 0.254,0.217 0.192,0.414 0.126,0.659 -0.006,0.708 -0.189,0.713 -0.235,0.641 -0.305,0.385 -0.273,0.193 -0.104,0.021 -0.177,-0.042 -0.192,-0.098 -0.096,-0.097 -0.062,-0.193 -0.074,-0.491 0.095,-0.735 0.111,-0.977 0.108,-0.916 0.089,-0.683 -0.113,0.013 0.331,-0.253"
     id="path190" />
  <path
     class="write-flat-pen"
     fill="#000000"
     fill-opacity="0.427"
     stroke-width="2.4"
     __comx="142.901"
     __comy="1863.252"
     __timestamp="0x182884a8ce3"
     d="m 55.066,4.45 v 0.01 h 0.01 V 4.45"
     id="path192" />
  <path
     class="write-flat-pen"
     fill="#000000"
     fill-opacity="0.427"
     stroke-width="2.4"
     __comx="155.364"
     __comy="1879.069"
     __timestamp="0x182884a923a"
     d="m 66.858,22.19 0.783,-0.759 0.257,-0.472 0.301,-0.586 0.312,-0.617 0.195,-0.605 0.171,-0.514 0.123,-0.429 0.064,-0.303 0.061,-0.277 0.04,-0.39 -0.187,-0.381 -1.268,-0.148 -0.309,0.35 -0.205,0.711 -0.087,0.787 -0.126,0.809 -0.016,0.879 -0.01,0.82 -0.009,0.792 0.046,0.711 -0.001,0.714 0.05,0.715 v 0.717 l 0.053,0.702 0.06,0.558 0.108,0.429 0.043,0.214 0.012,0.134 0.036,0.155 0.013,0.094 1.567,0.354 0.08,-0.166 -0.203,-0.491 0.111,-0.627 -1.073,-0.19 -0.111,0.627 -0.303,0.072 0.058,-0.131 1.567,0.354 -0.02,-0.188 -0.03,-0.13 -0.01,-0.11 -0.07,-0.347 -0.089,-0.354 -0.046,-0.417 -0.052,-0.614 -0.006,-0.712 -0.057,-0.715 -0.008,-0.714 -0.061,-0.707 -0.009,-0.729 -0.01,-0.814 -0.005,-0.764 0.099,-0.739 0.057,-0.692 0.064,-0.265 0.075,-0.112 -1.268,-0.148 -0.004,-0.013 0.013,-0.131 -0.043,0.2 -0.053,0.256 -0.098,0.345 -0.163,0.491 -0.159,0.5 -0.257,0.512 -0.296,0.599 -0.136,0.331 -0.515,0.742"
     id="path194" />
  <path
     class="write-flat-pen"
     fill="#000000"
     fill-opacity="0.427"
     stroke-width="2.4"
     __comx="159.79"
     __comy="1878.367"
     __timestamp="0x182884a98b3"
     d="m 74.234,19.533 0.057,-0.59 0.013,-0.374 -0.302,-0.532 -0.564,-0.291 -0.246,-0.082 -0.281,-0.078 -0.43,-0.037 -0.208,-0.01 -0.415,0.043 -0.295,0.091 -0.197,0.06 -0.331,0.151 -0.197,0.072 -0.446,0.295 -0.175,0.462 -0.075,0.276 -0.063,0.224 -0.083,0.469 -0.057,0.27 -0.019,0.265 -0.039,0.263 -0.032,0.14 -0.235,0.787 1.033,0.325 0.456,-0.205 0.28,-0.148 0.153,-0.075 0.138,-0.045 0.07,-0.018 -0.1,-0.034 0.049,0.049 0.155,0.219 0.111,0.389 0.1,0.455 0.054,0.525 0.037,0.488 -0.054,0.365 -0.073,0.5 -0.058,0.337 -0.09,0.318 -0.116,0.278 -0.096,0.13 -0.043,0.063 0.154,-0.116 -0.06,0.01 h 0.017 l -0.148,-0.051 -0.235,-0.109 -0.14,-0.093 -0.175,-0.157 -0.12,-0.055 -0.147,0.036 -0.154,-0.041 -0.135,-0.515 -0.703,0.184 0.135,0.515 -0.084,0.227 -0.008,0.294 0.08,0.213 0.182,0.313 0.338,0.362 0.491,0.287 0.46,0.185 0.434,0.035 0.62,-0.121 0.399,-0.291 0.18,-0.306 0.168,-0.25 0.203,-0.553 0.115,-0.5 0.047,-0.445 0.039,-0.534 0.029,-0.52 -0.078,-0.636 -0.078,-0.61 -0.137,-0.568 -0.192,-0.649 -0.356,-0.504 -0.364,-0.366 -0.58,-0.194 -0.506,0.112 -0.285,0.087 -0.265,0.122 -0.271,0.136 0.069,-0.032 0.81,0.254 -0.15,0.504 0.054,-0.24 0.055,-0.37 0.015,-0.224 0.041,-0.199 0.074,-0.424 0.044,-0.16 0.059,-0.211 -0.011,0.032 -0.071,0.05 0.097,-0.036 0.296,-0.137 0.113,-0.036 0.163,-0.054 0.176,-0.02 0.082,10e-4 0.283,0.016 0.145,0.028 0.139,0.029 0.192,0.042 0.049,-0.044 h 0.077 l 0.057,0.506"
     id="path196" />
</svg>
