<?xml version="1.0" encoding="UTF-8" standalone="no"?>
<svg
   version="1.1"
   id="svg1517"
   sodipodi:docname="msize_05.svg"
   width="501.59399"
   height="166.136"
   inkscape:version="1.2 (1:1.2.1+202207142221+cd75a1ee6d)"
   xmlns:inkscape="http://www.inkscape.org/namespaces/inkscape"
   xmlns:sodipodi="http://sodipodi.sourceforge.net/DTD/sodipodi-0.dtd"
   xmlns="http://www.w3.org/2000/svg"
   xmlns:svg="http://www.w3.org/2000/svg">
  <defs
     id="defs1521" />
  <sodipodi:namedview
     id="namedview1519"
     pagecolor="#ffffff"
     bordercolor="#666666"
     borderopacity="1.0"
     inkscape:showpageshadow="2"
     inkscape:pageopacity="0.0"
     inkscape:pagecheckerboard="0"
     inkscape:deskcolor="#d1d1d1"
     showgrid="false"
     inkscape:zoom="4.3666667"
     inkscape:cx="-467.8626"
     inkscape:cy="-990.22901"
     inkscape:window-width="1920"
     inkscape:window-height="1011"
     inkscape:window-x="0"
     inkscape:window-y="0"
     inkscape:window-maximized="1"
     inkscape:current-layer="svg1517" />
  <path
     class="write-chisel-pen"
     fill="#0000ff"
     fill-opacity="0.584"
     stroke-width="30"
     __comx="825"
     __comy="1071.667"
     __timestamp="0x182828c3fa8"
     d="m 108.524,0 h -7.5 v 30 h 30 7.5 V 0 h -30 m 30,0 h -7.5 v 30 h 30 7.5 V 0 h -30 m 30,0 h -7.5 v 30 h 30 7.5 V 0 h -30 m 30,0 h -7.5 v 30 h 30 7.5 V 0 h -30 m 30,0 h -7.5 v 30 h 30 7.5 V 0 h -30 m 30,0 h -7.5 v 30 h 30 7.5 V 0 h -30 m 30,0 h -7.5 v 30 h 30 7.5 V 0 h -30 m 30,30 V 0 h -7.5 v 30 30 h 7.5 V 30 m 0,30 V 30 h -7.5 v 30 30 h 7.5 V 60"
     id="path1327" />
  <path
     class="write-chisel-pen"
     fill="#0000ff"
     fill-opacity="0.584"
     stroke-width="30"
     __comx="825"
     __comy="1148.75"
     __timestamp="0x182828c2bcc"
     d="M 108.524,90 V 60 h -7.5 v 30 30 h 7.5 V 90 m 0,0 h -7.5 v 30 h 30 7.5 V 90 h -30 m 30,0 h -7.5 v 30 h 30 7.5 V 90 h -30 m 30,0 h -7.5 v 30 h 30 7.5 V 90 h -30 m 30,0 h -7.5 v 30 h 30 7.5 V 90 h -30 m 30,0 h -7.5 v 30 h 30 7.5 V 90 h -30 m 30,0 h -7.5 v 30 h 30 7.5 V 90 h -30 m 30,0 h -7.5 v 30 h 30 7.5 V 90 h -30"
     id="path1329" />
  <path
     class="write-chisel-pen"
     fill="#0000ff"
     fill-opacity="0.584"
     stroke-width="30"
     __comx="720"
     __comy="1085"
     __timestamp="0x182828c1ce3"
     d="M 108.524,30 V 0 h -7.5 v 30 30 h 7.5 V 30"
     id="path1331" />
  <path
     class="write-stroke-pen"
     fill="none"
     stroke="#000000"
     stroke-width="2.4"
     stroke-linecap="round"
     stroke-linejoin="round"
     __comx="720"
     __comy="1114.6"
     __timestamp="0x1827dc189a1"
     stroke-opacity="0.427"
     d="M 104.774,45 V 75"
     id="path1333" />
  <path
     class="write-stroke-pen"
     fill="none"
     stroke="#000000"
     stroke-width="2.4"
     stroke-linecap="round"
     stroke-linejoin="round"
     __comx="1080"
     __comy="1114.6"
     __timestamp="0x1828287e128"
     stroke-opacity="0.427"
     d="M 464.774,45 V 75"
     id="path1335" />
  <path
     class="write-stroke-pen"
     fill="none"
     stroke="#000000"
     stroke-width="2.4"
     stroke-linecap="round"
     stroke-linejoin="round"
     __comx="930"
     __comy="1114.6"
     __timestamp="0x1828287fd34"
     stroke-opacity="0.427"
     d="M 314.774,45 V 75"
     id="path1337" />
  <path
     class="write-flat-pen"
     fill="#000000"
     fill-opacity="0.427"
     stroke-width="2.4"
     __comx="959.269"
     __comy="1096.292"
     __timestamp="0x1828288114e"
     d="m 343.058,21.843 0.372,0.314 -0.125,-0.035 -0.005,0.688 0.059,0.966 -0.003,1.064 -0.003,1.221 -0.002,1.213 v 1.307 l 0.068,1.277 0.001,1.085 -0.068,1.114 -0.067,0.965 -0.128,0.827 -0.13,0.71 -0.133,0.558 -0.075,0.507 -0.042,0.241 -0.053,0.274 -0.014,0.255 0.082,0.211 1.672,-0.06 -0.074,-0.064 -0.425,-0.317 -0.081,-0.518 -0.8,0.126 0.081,0.518 -0.31,0.415 -0.056,0.064 1.672,-0.06 0.105,-0.145 0.026,-0.08 0.063,-0.193 0.074,-0.324 0.078,-0.473 0.128,-0.532 0.144,-0.789 0.145,-0.935 0.073,-1.056 0.07,-1.183 -0.002,-1.196 -0.071,-1.276 v -1.254 l -0.002,-1.213 -0.004,-1.224 -0.01,-1.133 -0.083,-1.007 -0.08,-0.923 -0.382,-0.784 -1.088,-0.388"
     id="path1339" />
  <path
     class="write-flat-pen"
     fill="#000000"
     fill-opacity="0.427"
     stroke-width="2.4"
     __comx="962.604"
     __comy="1096.292"
     __timestamp="0x182828813d6"
     d="m 343.186,21.519 -0.223,1.016 0.089,0.653 0.126,0.918 0.129,1.021 0.136,1.239 0.208,1.282 0.136,1.169 0.071,1.086 0.144,0.999 0.141,0.718 0.162,0.605 0.236,0.42 0.19,0.282 0.524,0.459 1.064,-0.138 0.63,-0.612 0.609,-0.773 0.507,-1.052 0.305,-1.097 0.282,-1.058 0.219,-1.19 0.211,-1.172 0.146,-1.19 0.071,-1.096 0.072,-0.897 0.004,-0.776 0.002,-0.469 10e-4,-0.277 0.005,-0.159 h -1.468 l -0.035,0.209 0.103,0.644 0.062,0.892 0.126,1.249 0.121,1.454 0.051,1.514 0.063,1.492 0.14,1.387 0.207,1.286 0.142,1.095 0.207,0.956 0.146,0.968 0.201,0.801 0.069,0.623 0.068,0.561 0.073,0.528 0.073,0.329 0.091,0.273 0.34,0.965 0.868,-0.381 0.758,-0.218 -0.389,-1.352 -0.758,0.218 0.625,-0.311 0.231,0.613 -0.024,-0.194 -0.039,-0.238 -0.061,-0.462 -0.066,-0.54 -0.084,-0.734 -0.209,-0.835 -0.143,-0.941 -0.208,-0.938 -0.14,-1.048 -0.215,-1.262 -0.141,-1.283 -0.079,-1.44 -0.093,-1.554 -0.166,-1.508 -0.162,-1.24 -0.106,-0.956 -0.144,-0.567 -0.035,-0.054 h -1.468 l 0.005,0.159 10e-4,0.276 0.001,0.465 -0.004,0.719 -0.066,0.852 -0.074,1.063 -0.141,1.105 -0.215,1.126 -0.216,1.124 -0.286,0.985 -0.283,0.954 -0.394,0.763 -0.455,0.544 -0.18,0.155 0.188,-0.042 0.184,0.156 -0.036,-0.056 -0.103,-0.183 -0.093,-0.351 -0.125,-0.623 -0.13,-0.893 -0.072,-1.064 -0.149,-1.248 -0.216,-1.281 -0.153,-1.217 -0.162,-1.053 -0.181,-0.958 -0.137,-0.455 -0.054,-0.827"
     id="path1341" />
  <path
     class="write-flat-pen"
     fill="#000000"
     fill-opacity="0.427"
     stroke-width="2.4"
     __comx="969.845"
     __comy="1096.292"
     __timestamp="0x18282881536"
     d="m 353.583,31.488 -0.583,0.947 -0.242,0.634 -0.12,0.813 -0.08,0.753 -0.012,0.713 0.071,0.626 0.147,0.418 0.195,0.405 0.436,0.425 0.453,0.203 0.433,0.085 0.543,-0.119 0.497,-0.369 0.458,-0.663 0.331,-0.632 0.343,-0.684 0.122,-0.672 0.082,-0.473 0.033,-0.558 -0.063,-0.496 -0.279,-0.591 -0.442,-0.424 -0.668,-0.28 -0.663,-0.012 -0.532,0.061 -0.467,0.122 -0.198,0.221 -0.553,0.097 0.13,0.746 0.553,-0.097 0.163,0.158 0.355,0.126 0.462,0.081 0.334,0.084 0.154,0.086 0.024,0.02 0.051,0.087 0.02,0.097 v 0.317 l -0.053,0.368 -0.072,0.439 -0.23,0.467 -0.278,0.533 -0.256,0.37 -0.02,0.014 0.104,-0.023 0.067,0.012 -0.033,-0.018 -0.039,-0.039 -0.037,-0.078 -0.06,-0.168 -0.04,-0.349 0.004,-0.541 0.068,-0.658 0.077,-0.651 0.095,-0.392 0.413,-0.888"
     id="path1343" />
  <path
     class="write-flat-pen"
     fill="#000000"
     fill-opacity="0.427"
     stroke-width="2.4"
     __comx="975.779"
     __comy="1096.292"
     __timestamp="0x1828288178e"
     d="m 362.116,19.53 0.031,1.624 0.041,1.248 0.056,1.589 -0.013,1.707 -0.01,1.788 -0.01,1.787 -0.001,1.437 -0.072,1.401 -10e-4,1.124 -0.065,0.902 -0.067,0.787 -0.055,0.411 -0.041,0.21 -0.034,0.126 1.313,-0.528 0.194,0.175 -0.021,0.098 -0.128,-0.535 -0.168,-0.709 -0.104,-0.727 -0.226,-0.751 -0.159,-0.6 -0.324,-0.706 -0.437,-0.593 -0.494,-0.347 -0.504,-0.313 -0.579,-0.191 -0.577,-0.163 -0.641,-0.05 -0.749,0.303 -0.494,0.497 -0.415,0.682 -0.376,0.812 -0.202,0.806 -0.104,0.856 -0.02,0.661 -0.015,0.802 0.222,0.611 0.286,0.669 0.741,0.608 0.764,0.287 0.562,0.225 0.805,0.123 0.583,0.019 0.556,-0.051 0.771,-0.084 0.706,-0.383 0.644,-0.411 0.365,-0.45 0.357,-0.434 0.239,-0.406 0.153,-0.423 0.046,-0.329 -0.044,-0.402 -0.288,-0.492 0.075,-0.351 -0.37,-0.079 -0.075,0.351 -0.457,0.299 -0.218,0.232 -0.121,0.127 -0.156,0.167 -0.178,0.172 -0.35,0.342 -0.22,0.234 -0.356,0.214 -0.327,0.175 -0.39,0.044 -0.43,0.045 -0.358,-0.004 -0.492,-0.061 -0.39,-0.138 -0.506,-0.17 -0.188,-0.132 -0.12,-0.217 -0.112,-0.249 -0.013,-0.469 -0.01,-0.574 0.058,-0.687 0.108,-0.582 0.23,-0.625 0.234,-0.481 0.133,-0.177 0.151,-0.085 h 0.169 l 0.412,0.104 0.393,0.124 0.331,0.205 0.281,0.198 0.222,0.302 0.211,0.466 0.118,0.502 0.173,0.667 0.053,0.677 0.117,0.749 0.053,0.63 0.156,0.681 0.335,0.255 1.313,-0.528 0.062,-0.202 0.069,-0.346 0.068,-0.511 0.071,-0.841 0.07,-0.978 v -1.144 l 0.068,-1.402 -10e-4,-1.482 -0.01,-1.787 -0.01,-1.788 -0.014,-1.746 -0.088,-1.638 -0.106,-1.258 -0.167,-1.618"
     id="path1345" />
  <path
     class="write-flat-pen"
     fill="#000000"
     fill-opacity="0.427"
     stroke-width="2.4"
     __comx="983.526"
     __comy="1096.292"
     __timestamp="0x1828288192f"
     d="m 364.766,30.767 -0.231,1.316 -0.113,0.959 -0.085,0.826 -0.081,0.935 -0.011,0.947 0.337,0.854 0.344,0.576 0.527,0.534 0.815,0.305 0.485,-0.023 0.731,-0.15 0.849,-0.498 0.657,-0.708 0.614,-0.922 0.34,-0.947 0.23,-0.811 0.151,-0.72 0.137,-0.678 0.125,-0.468 0.061,-0.261 0.042,-0.135 -1.592,0.121 v 0.049 l 10e-4,0.224 -0.065,0.7 -0.012,0.739 v 0.78 0.759 l 0.247,0.781 0.318,0.615 0.254,0.4 0.292,0.306 0.198,0.234 0.501,0.28 0.546,0.05 0.554,-0.4 0.128,-0.504 0.299,-0.241 -0.269,-0.332 -0.299,0.241 -0.356,-0.112 -0.065,-0.218 0.191,-0.051 -10e-4,-0.06 -0.067,-0.089 -0.214,-0.225 -0.114,-0.182 -0.211,-0.408 -0.116,-0.365 V 34.312 33.54 32.871 l 0.05,-0.757 -0.049,-0.693 -0.19,-0.35 -1.592,0.121 -0.059,0.193 -0.069,0.293 -0.132,0.493 -0.147,0.724 -0.137,0.657 -0.197,0.697 -0.25,0.694 -0.424,0.631 -0.393,0.421 -0.386,0.226 -0.321,0.066 h 0.01 l -0.127,-0.049 -0.116,-0.117 -0.167,-0.277 -0.166,-0.412 v -0.55 l 0.062,-0.868 0.056,-0.824 0.047,-0.93 0.106,-1.296"
     id="path1347" />
  <path
     class="write-flat-pen"
     fill="#000000"
     fill-opacity="0.427"
     stroke-width="2.4"
     __comx="990.726"
     __comy="1096.292"
     __timestamp="0x18282881a6c"
     d="m 374.519,19.407 -0.214,1.581 -0.139,1.331 -0.107,1.681 -0.094,1.873 -0.015,1.933 -0.012,1.915 -0.01,1.742 0.066,1.58 0.148,1.366 0.298,1.159 0.289,0.978 0.201,0.609 0.12,0.372 0.055,0.188 0.048,0.302 0.605,0.817 0.956,-0.304 0.313,-0.679 -0.042,-0.486 0.088,-0.229 -0.18,-0.069 -0.088,0.229 -0.296,0.176 -0.297,-0.192 0.458,-0.259 0.328,0.363 0.012,-0.013 -0.086,-0.377 -0.141,-0.443 -0.195,-0.588 -0.27,-0.916 -0.258,-0.991 -0.132,-1.166 -0.074,-1.473 -0.01,-1.698 -0.012,-1.915 -0.014,-1.898 0.048,-1.836 0.037,-1.668 0.01,-1.312 0.025,-1.58"
     id="path1349" />
  <path
     class="write-flat-pen"
     fill="#000000"
     fill-opacity="0.427"
     stroke-width="2.4"
     __comx="995.562"
     __comy="1096.292"
     __timestamp="0x18282881bda"
     d="m 376.724,36.491 0.988,-0.062 0.598,-0.108 0.576,-0.28 0.683,-0.418 0.5,-0.637 0.462,-0.686 0.491,-0.742 0.265,-0.811 0.238,-0.779 0.099,-0.74 0.014,-0.746 -0.074,-0.588 -0.169,-0.421 -0.417,-0.638 -0.872,-0.192 -0.93,0.454 -0.68,0.852 -0.554,1.064 -0.348,1.238 -0.167,1.143 -0.174,1.214 0.146,1.128 0.242,1.007 0.459,0.796 0.574,0.567 0.677,0.396 0.656,0.206 0.847,0.125 0.838,-0.22 0.573,-0.249 0.733,-0.56 0.492,-0.487 0.326,-0.605 0.308,-0.604 -0.12,-0.884 0.095,-0.174 -0.172,-0.094 -0.095,0.174 -0.734,0.243 -0.526,0.303 -0.424,0.394 -0.337,0.238 -0.504,0.331 -0.241,0.086 -0.317,0.075 -0.297,-0.043 -0.297,-0.091 -0.272,-0.153 -0.21,-0.199 -0.19,-0.319 -0.166,-0.628 -0.114,-0.764 0.11,-0.956 0.125,-1.021 0.244,-0.951 0.351,-0.762 0.294,-0.407 0.01,-0.01 -0.417,-0.095 -0.06,-0.107 0.02,0.044 0.031,0.239 -0.01,0.523 -0.066,0.501 -0.191,0.622 -0.194,0.567 -0.363,0.538 -0.43,0.623 -0.275,0.341 -0.357,0.223 -0.326,0.18 -0.285,0.112 -0.871,0.155"
     id="path1351" />
  <path
     class="write-flat-pen"
     fill="#000000"
     fill-opacity="0.427"
     stroke-width="2.4"
     __comx="1014.429"
     __comy="1088.586"
     __timestamp="0x18282882a82"
     d="m 390.043,22.149 0.624,-0.314 -0.045,0.058 0.542,0.034 0.974,0.015 1.181,0.007 1.386,-0.06 1.35,-0.06 1.276,-0.061 1.206,-0.061 1.027,-0.061 0.797,-0.002 0.521,0.001 h 0.392 -0.264 l -0.5,-0.497 0.012,-0.298 -0.239,0.539 -0.515,0.879 -0.813,1.039 -1.071,1.345 -1.206,1.528 -1.346,1.652 -1.353,1.665 -1.217,1.544 -1.077,1.42 -0.795,1.106 -0.485,0.746 -0.365,0.529 -0.18,0.365 -0.452,1.076 1.356,0.753 0.979,0.141 1.185,0.016 1.397,0.005 1.517,-0.061 1.632,-0.059 1.794,-0.061 1.775,-0.125 1.633,-0.062 1.562,-0.125 1.43,-0.064 1.182,-0.131 0.801,-0.129 0.647,-0.141 -0.194,0.074 -0.718,-0.578 0.201,-0.463 0.344,0.504 -0.143,0.314 0.403,0.184 0.143,-0.314 0.777,-0.445 0.145,-0.962 -0.923,-0.705 -0.675,0.261 -0.419,0.092 -0.687,0.111 -1.056,0.119 -1.397,0.064 -1.555,0.129 -1.623,0.066 -1.771,0.13 -1.758,0.067 -1.638,0.069 -1.474,0.065 -1.34,0.004 -1.032,-0.008 -0.444,-0.06 0.686,0.381 -0.323,0.769 0.082,-0.165 0.293,-0.424 0.474,-0.729 0.749,-1.042 1.047,-1.384 1.192,-1.517 1.341,-1.654 1.35,-1.67 1.21,-1.541 1.07,-1.353 0.903,-1.164 0.645,-1.116 0.425,-0.997 0.058,-1.011 -0.785,-0.784 h -0.607 -0.392 l -0.524,0.001 -0.859,0.002 -1.079,0.065 -1.196,0.066 -1.27,0.066 -1.346,0.067 -1.337,0.065 -1.136,0.008 -0.993,0.019 -0.63,0.056 -0.44,0.095 -0.921,0.641"
     id="path1353" />
  <path
     class="write-stroke-pen"
     fill="none"
     stroke="#000000"
     stroke-opacity="0.427"
     stroke-width="2.4"
     stroke-linecap="round"
     stroke-linejoin="round"
     __comx="1095"
     __comy="1109.6"
     __timestamp="0x18282886e7c"
     d="m 464.774,45 h 30"
     id="path1355" />
  <path
     class="write-stroke-pen"
     fill="none"
     stroke="#000000"
     stroke-opacity="0.427"
     stroke-width="2.4"
     stroke-linecap="round"
     stroke-linejoin="round"
     __comx="1095"
     __comy="1139.6"
     __timestamp="0x1828288703d"
     d="m 464.774,75 h 30"
     id="path1357" />
  <path
     class="write-flat-pen"
     fill="#000000"
     fill-opacity="0.427"
     stroke-width="2.4"
     __comx="1094.517"
     __comy="1124.969"
     __timestamp="0x182828886b4"
     d="m 480.262,60.1 -0.874,-0.039 -0.186,-0.046 -0.411,-0.05 -1.023,0.298 0.092,1.1 0.38,0.512 0.372,0.229 0.355,0.13 0.583,0.193 0.706,-0.397 0.327,-0.423 0.113,-0.468 0.076,-0.285 0.044,-0.335 -0.06,-0.526 -0.334,-0.32 -0.597,-0.703 -1.194,0.833 0.454,0.803 -0.079,0.045 -0.018,-0.149 v 0.005 l -0.049,0.194 -0.024,0.114 0.133,-0.169 0.304,-0.167 0.194,0.066 -0.164,-0.056 0.068,0.045 0.117,0.165 0.064,0.804 -0.58,0.161 0.153,-0.05 0.186,-0.046 0.874,-0.039"
     id="path1359" />
  <path
     class="write-flat-pen"
     fill="#000000"
     fill-opacity="0.427"
     stroke-width="2.4"
     __comx="1104.285"
     __comy="1124.491"
     __timestamp="0x18282888815"
     d="m 488.13,59.48 -0.233,1.278 0.573,0.569 0.639,0.203 0.715,-0.263 0.403,-0.446 0.241,-0.906 -0.567,-0.851 -0.611,-0.203 -0.499,-0.047 -0.936,0.286 -0.203,1.118 0.731,0.331 0.23,0.287 0.379,-0.303 -0.23,-0.287 0.276,-0.236 0.026,0.538 -0.197,0.138 0.012,0.013 -0.181,-0.059 -0.251,-0.381 0.093,-0.335 0.193,-0.208 0.277,-0.089 0.341,0.12 0.352,0.366 0.01,-0.408"
     id="path1361" />
  <path
     class="write-flat-pen"
     fill="#000000"
     fill-opacity="0.427"
     stroke-width="2.4"
     __comx="1114.194"
     __comy="1125.236"
     __timestamp="0x18282888919"
     d="m 497.511,59.894 -0.67,0.716 -0.497,0.58 0.498,1.118 0.978,0.237 0.874,-0.027 0.759,-0.188 0.732,-0.208 0.418,-0.199 0.991,-0.547 -0.63,-1.381 -0.916,-0.286 -0.852,0.115 -0.907,0.498 -0.372,0.738 -0.188,0.081 0.084,0.194 0.188,-0.081 0.719,0.267 0.747,0.02 0.296,0.078 -0.222,-0.05 -0.462,-1.015 0.625,-0.343 -0.221,0.114 -0.547,0.17 -0.537,0.156 -0.434,0.04 0.107,0.051 0.281,0.667 -0.234,0.244 0.577,-0.754"
     id="path1363" />
  <path
     class="write-flat-pen"
     fill="#000000"
     stroke-width="2.4"
     __comx="753.501"
     __comy="1092.459"
     __timestamp="0x1828288b8e2"
     fill-opacity="1"
     d="m 137.227,19.203 -0.062,1.61 -0.028,1.227 0.054,1.576 0.061,1.533 0.065,1.509 -0.002,1.402 0.069,1.338 0.001,1.008 -0.064,0.969 -0.059,0.71 -0.038,0.437 -0.032,0.174 0.284,-0.453 0.894,0.286 -0.413,0.176 -0.149,-0.404 -0.599,0.221 0.149,0.404 -0.103,1.016 1.249,0.329 0.478,-0.797 0.191,-0.531 0.092,-0.646 0.075,-0.762 0.072,-1.062 -0.001,-1.129 -0.071,-1.337 -0.003,-1.396 -0.077,-1.555 -0.081,-1.531 -0.087,-1.53 -0.028,-1.183 -0.062,-1.61"
     id="path1365" />
  <path
     class="write-flat-pen"
     fill="#000000"
     stroke-width="2.4"
     __comx="756.911"
     __comy="1092.459"
     __timestamp="0x1828288baa4"
     fill-opacity="1"
     d="m 137.002,18.005 0.437,1.318 0.325,0.939 0.334,1.086 0.407,1.268 0.335,1.299 0.277,1.265 0.288,1.172 0.3,1.018 0.292,0.67 0.237,0.503 0.547,0.743 1.194,-0.183 0.661,-0.589 0.552,-0.898 0.492,-1.124 0.234,-1.112 0.22,-1.148 0.076,-1.203 0.071,-1.105 0.003,-1.08 0.067,-0.873 0.01,-0.703 0.01,-0.402 0.008,-0.213 h -1.605 l -0.053,0.283 0.105,0.752 0.129,1.03 0.13,1.302 0.207,1.457 0.278,1.343 0.21,1.35 0.284,1.224 0.204,1.038 0.136,0.902 0.078,0.659 0.101,0.512 0.129,0.382 0.345,0.239 0.408,0.509 0.826,-0.346 -0.077,-0.648 0.137,-0.255 0.018,-0.178 -0.026,-0.437 -0.061,-0.676 -0.147,-0.987 -0.219,-1.112 -0.278,-1.19 -0.217,-1.329 -0.287,-1.334 -0.219,-1.365 -0.161,-1.291 -0.172,-1.088 -0.149,-0.622 -0.053,-0.127 h -1.605 l 0.008,0.212 0.009,0.398 0.002,0.645 -0.067,0.876 -0.002,1.089 -0.07,1.055 -0.076,1.101 -0.209,1.032 -0.209,0.926 -0.403,0.833 -0.405,0.542 -0.104,0.05 0.397,-0.088 0.205,0.269 -0.151,-0.321 -0.234,-0.54 -0.256,-0.867 -0.274,-1.111 -0.29,-1.28 -0.377,-1.385 -0.452,-1.31 -0.393,-1.118 -0.422,-0.947 -0.558,-1.263"
     id="path1367" />
  <path
     class="write-flat-pen"
     fill="#000000"
     stroke-width="2.4"
     __comx="765.604"
     __comy="1092.459"
     __timestamp="0x1828288bbe1"
     fill-opacity="1"
     d="m 148.636,26.473 -0.552,1.381 -0.282,0.994 -0.185,1.057 0.152,1.047 0.352,0.924 0.571,0.654 0.717,0.447 0.664,0.279 0.876,0.061 0.673,-0.224 0.576,-0.352 0.529,-0.672 0.267,-0.857 0.113,-0.676 0.033,-0.759 -0.067,-0.764 -0.323,-0.762 -0.354,-0.661 -0.585,-0.575 -0.649,-0.342 -0.402,-0.115 -0.421,-0.046 -0.346,0.117 -0.58,0.006 -0.2,0.723 0.494,0.303 0.174,0.261 0.263,0.21 0.229,0.143 0.302,0.212 0.21,0.224 0.189,0.351 0.188,0.423 0.048,0.367 0.005,0.534 -0.053,0.444 -0.116,0.428 -0.128,0.174 -0.139,0.091 -0.157,0.057 -0.248,-0.016 -0.275,-0.115 -0.384,-0.239 -0.203,-0.232 -0.18,-0.464 -0.094,-0.597 0.108,-0.729 0.181,-0.862 0.433,-1.335"
     id="path1369" />
  <path
     class="write-flat-pen"
     fill="#000000"
     stroke-width="2.4"
     __comx="775.887"
     __comy="1092.459"
     __timestamp="0x1828288bcdb"
     fill-opacity="1"
     d="m 159.115,17.741 0.206,1.623 0.116,1.167 0.127,1.427 0.203,1.532 0.137,1.575 0.138,1.511 0.069,1.38 0.071,1.341 0.075,1.147 -0.041,0.977 0.036,0.864 0.017,0.545 0.035,0.373 0.071,0.136 0.129,0.216 -0.282,0.561 0.78,0.393 0.282,-0.561 0.319,-0.163 0.173,-0.3 0.157,-0.445 0.14,-0.659 0.041,-0.894 0.092,-1.035 -0.065,-1.264 -0.071,-1.334 -0.073,-1.418 -0.145,-1.548 -0.148,-1.619 -0.222,-1.542 -0.162,-1.412 -0.185,-1.216 -0.331,-1.637"
     id="path1371" />
  <path
     class="write-flat-pen"
     fill="#000000"
     stroke-width="2.4"
     __comx="779.238"
     __comy="1092.459"
     __timestamp="0x1828288bf43"
     fill-opacity="1"
     d="m 159.996,26.321 -1.097,-0.045 -0.557,0.291 -0.569,0.528 -0.48,0.678 -0.413,0.828 -0.384,0.754 -0.247,0.753 -0.232,0.693 -0.104,0.613 -0.026,0.791 0.276,0.594 0.312,0.443 0.686,0.518 0.718,0.175 0.727,0.099 0.642,-0.05 0.769,-0.152 0.576,-0.298 0.584,-0.364 0.682,-0.523 0.399,-0.405 0.354,-0.234 0.321,-0.268 0.248,-0.217 0.2,-0.223 -0.182,0.227 -0.96,-0.138 -0.123,-0.243 0.147,0.503 0.319,0.761 0.338,0.631 0.477,0.563 0.603,0.416 0.595,0.224 0.752,0.136 0.857,-0.144 0.675,-0.416 0.759,-0.652 0.549,-0.782 0.366,-0.704 0.546,-0.79 0.26,-0.857 0.241,-0.61 0.292,-0.544 0.086,-0.336 -0.283,0.53 -1.083,-0.156 -0.097,-0.186 0.245,0.53 0.225,0.87 0.294,0.874 0.279,0.759 0.233,0.676 0.316,0.572 0.226,0.354 0.154,0.169 0.22,0.055 0.478,0.575 0.952,-0.429 -0.115,-0.739 0.074,-0.268 -0.096,-0.282 -0.166,-0.361 -0.208,-0.429 -0.182,-0.557 -0.279,-0.759 -0.264,-0.783 -0.262,-0.992 -0.337,-0.668 -0.348,-0.748 -1.321,-0.191 -0.47,0.879 -0.085,0.335 -0.232,0.434 -0.311,0.786 -0.196,0.643 -0.443,0.64 -0.363,0.695 -0.337,0.475 -0.462,0.392 -0.22,0.135 -0.146,0.022 -0.243,-0.045 -0.204,-0.078 -0.193,-0.134 -0.176,-0.208 -0.198,-0.369 -0.25,-0.585 -0.167,-0.514 -0.372,-0.805 -1.15,-0.167 -0.469,0.583 -0.091,0.102 -0.144,0.126 -0.221,0.185 -0.43,0.283 -0.447,0.449 -0.506,0.385 -0.444,0.273 -0.272,0.14 -0.396,0.078 -0.328,0.026 -0.429,-0.058 -0.243,-0.058 -0.138,-0.102 -0.044,-0.061 -0.015,-0.03 0.005,-0.213 0.056,-0.344 0.185,-0.564 0.195,-0.626 0.318,-0.641 0.344,-0.744 0.287,-0.491 0.244,-0.366 -0.068,-0.039 L 160,27.74"
     id="path1373" />
  <path
     class="write-flat-pen"
     fill="#000000"
     stroke-width="2.4"
     __comx="789.11"
     __comy="1092.459"
     __timestamp="0x1828288c04e"
     fill-opacity="1"
     d="m 172.168,17.345 0.391,1.533 0.184,1.135 0.191,1.476 0.26,1.679 0.059,1.81 0.138,1.788 0.068,1.705 0.07,1.506 0.001,1.309 0.004,1.137 0.014,0.94 0.033,0.668 0.051,0.474 0.086,0.513 0.654,0.614 0.665,-0.39 0.409,-0.043 -0.06,-0.567 -0.409,0.043 0.033,-0.323 0.403,0.196 0.086,-0.042 0.051,-0.474 0.033,-0.668 0.014,-0.94 0.004,-1.137 -0.001,-1.356 -0.072,-1.548 -0.075,-1.739 -0.145,-1.785 -0.085,-1.895 -0.309,-1.781 -0.243,-1.495 -0.277,-1.26 -0.544,-1.587"
     id="path1375" />
  <path
     class="write-flat-pen"
     fill="#000000"
     stroke-width="2.4"
     __comx="795.79"
     __comy="1092.459"
     __timestamp="0x1828288c1ac"
     fill-opacity="1"
     d="m 177.002,33.535 1.19,-0.633 0.656,-0.413 0.676,-0.514 0.605,-0.666 0.419,-0.582 0.346,-0.66 0.357,-0.849 0.105,-0.583 0.089,-0.567 0.024,-0.567 -0.079,-0.591 -0.348,-0.543 -0.692,-0.506 -1.121,0.147 -0.839,0.54 -0.694,0.816 -0.634,1.086 -0.358,1.196 -0.163,1.018 -0.159,1.1 -0.011,1.078 0.345,0.866 0.412,0.773 0.876,0.591 0.826,0.259 0.59,0.222 0.964,0.048 0.766,-0.073 0.735,-0.301 0.875,-0.42 0.632,-0.606 0.728,-0.698 0.407,-0.665 0.37,-0.948 0.086,-0.063 -0.053,-0.072 -0.086,0.063 -1.061,0.099 -0.697,0.317 -0.869,0.49 -0.527,0.379 -0.595,0.231 -0.427,0.154 -0.327,0.026 -0.494,-0.025 -0.343,-0.129 -0.595,-0.183 -0.199,-0.129 -0.118,-0.216 -0.158,-0.382 v -0.536 l 0.127,-0.954 0.128,-0.877 0.231,-0.847 0.407,-0.734 0.379,-0.463 0.222,-0.147 -0.083,0.005 -0.219,-0.166 -0.068,-0.121 0.006,-10e-4 -0.004,0.294 -0.057,0.437 -0.058,0.353 -0.241,0.584 -0.246,0.475 -0.279,0.393 -0.418,0.47 -0.483,0.38 -0.542,0.379 -1.091,0.709"
     id="path1377" />
  <path
     class="write-flat-pen"
     fill="#000000"
     stroke-width="2.4"
     __comx="817.194"
     __comy="1084.752"
     __timestamp="0x1828288ca80"
     fill-opacity="1"
     d="m 205.736,15.769 -0.544,1.296 -0.423,1.04 -0.593,1.493 -0.852,1.737 -0.992,2.008 -1.131,2.011 -1.141,2.039 -1.005,1.801 -0.796,1.561 -0.568,1.215 -0.44,0.925 -0.223,0.668 -0.126,0.435 -0.051,0.235 0.021,0.266 -0.207,1.057 1.699,0.481 0.378,-1.009 0.155,-0.207 0.073,-0.19 0.136,-0.38 0.185,-0.526 0.389,-0.817 0.556,-1.188 0.76,-1.494 0.979,-1.77 1.128,-2.046 1.138,-2.074 0.996,-2.081 0.853,-1.849 0.561,-1.628 0.322,-1.126 0.3,-1.4"
     id="path1379" />
  <path
     class="write-flat-pen"
     fill="#000000"
     stroke-width="2.4"
     __comx="812.843"
     __comy="1082.256"
     __timestamp="0x1828288d00f"
     fill-opacity="1"
     d="m 194.013,14.802 -0.097,1.228 0.166,0.789 0.372,1.071 0.592,1.065 0.738,1.229 0.862,1.124 0.777,1.089 0.705,0.891 0.51,0.688 0.325,0.574 0.218,0.348 0.111,0.272 0.06,0.144 0.072,0.261 0.104,0.217 0.145,0.385 0.446,0.504 -0.011,0.345 0.387,0.012 0.011,-0.345 0.475,-0.418 0.238,-0.406 0.088,-0.393 0.013,-0.497 -0.091,-0.426 -0.202,-0.566 -0.304,-0.486 -0.365,-0.645 -0.606,-0.814 -0.697,-0.878 -0.782,-1.077 -0.838,-1.051 -0.695,-1.096 -0.545,-0.887 -0.362,-0.83 -0.197,-0.442 -0.097,-0.979"
     id="path1381" />
  <path
     class="write-flat-pen"
     fill="#000000"
     stroke-width="2.4"
     __comx="633.768"
     __comy="1129.542"
     __timestamp="0x1828288df8e"
     fill-opacity="1"
     d="m 17.64,62.341 -0.311,1.464 -0.052,0.906 0.05,0.999 0.131,0.94 0.135,0.893 0.134,0.931 0.065,0.744 0.005,0.669 -0.058,0.697 -0.048,0.376 -0.072,0.291 -0.065,0.185 -0.014,0.208 1.727,0.142 -0.299,-0.105 -0.525,-0.557 0.013,-0.168 -0.147,-0.012 -0.013,0.168 -0.622,0.663 -0.179,0.417 1.727,0.142 0.121,-0.119 0.148,-0.277 0.17,-0.577 0.076,-0.563 0.07,-0.835 -0.006,-0.842 -0.08,-0.884 -0.153,-0.998 -0.148,-0.895 -0.143,-0.853 -0.08,-0.829 -0.019,-0.689 0.146,-1.359"
     id="path1383" />
  <path
     class="write-flat-pen"
     fill="#000000"
     stroke-width="2.4"
     __comx="633.904"
     __comy="1122.275"
     __timestamp="0x1828288e03a"
     fill-opacity="1"
     d="m 18.708,58.241 0.216,-0.277 -0.22,-0.322 0.406,-0.104 0.331,0.211 0.251,-0.394 -0.331,-0.211 -0.11,-0.433 -0.534,-0.492 -1.051,0.861"
     id="path1385" />
  <path
     class="write-flat-pen"
     fill="#000000"
     stroke-width="2.4"
     __comx="642.488"
     __comy="1122.666"
     __timestamp="0x1828288e24a"
     fill-opacity="1"
     d="m 29.8,53.457 -0.683,1.384 -0.243,1.184 -0.254,1.551 -0.094,1.715 -0.081,1.811 -0.005,1.808 0.218,1.672 0.215,1.362 0.208,1.065 0.135,0.904 0.067,0.587 0.073,0.539 0.069,0.291 0.068,0.199 1.845,0.151 0.149,-0.382 0.026,-0.576 -0.079,-0.785 -0.271,-0.737 -0.505,-0.727 -0.597,-0.768 -0.927,-0.706 -0.872,-0.503 -1.054,-0.444 -1.294,-0.3 -1.221,-0.079 -1.055,0.145 -1.053,0.476 -0.743,0.698 -0.406,0.859 -0.353,0.828 -0.136,0.962 0.146,0.871 0.283,0.784 0.821,0.86 1.047,0.488 1.166,0.254 1.408,0.161 1.379,-0.207 1.256,-0.28 1.177,-0.488 1.002,-0.491 0.92,-0.633 0.732,-0.567 0.482,-0.498 0.447,-0.544 0.359,-0.64 -0.115,-0.828 0.121,-0.198 -0.208,-0.126 -0.121,0.198 -0.711,0.153 -0.488,0.231 -0.541,0.343 -0.472,0.345 -0.661,0.432 -0.788,0.505 -0.823,0.39 -0.953,0.394 -1.007,0.225 -1.034,0.161 -1.036,-0.107 -0.851,-0.165 -0.505,-0.21 -0.283,-0.262 -0.095,-0.21 -0.082,-0.389 0.042,-0.416 0.22,-0.574 0.216,-0.518 0.242,-0.259 0.517,-0.255 0.604,-0.088 0.89,0.058 0.999,0.232 0.803,0.343 0.67,0.394 0.64,0.496 0.408,0.542 0.326,0.497 0.096,0.294 0.024,0.401 -0.017,0.047 -0.045,0.01 1.845,0.151 -0.035,-0.136 -0.03,-0.132 -0.057,-0.425 -0.068,-0.601 -0.148,-0.984 -0.21,-1.074 -0.207,-1.301 -0.204,-1.514 -0.004,-1.636 0.061,-1.768 0.051,-1.615 0.182,-1.445 0.111,-0.965 0.456,-1.243"
     id="path1387" />
  <path
     class="write-stroke-pen"
     fill="none"
     stroke="#000000"
     stroke-width="2.4"
     stroke-linecap="round"
     stroke-linejoin="round"
     __comx="750"
     __comy="1125"
     __timestamp="0x1828288f259"
     stroke-opacity="1"
     d="M 134.774,45 V 75"
     id="path1389" />
  <path
     class="write-stroke-pen"
     fill="none"
     stroke="#000000"
     stroke-width="2.4"
     stroke-linecap="round"
     stroke-linejoin="round"
     __comx="780"
     __comy="1125"
     __timestamp="0x1828288f4a0"
     stroke-opacity="1"
     d="M 164.774,45 V 75"
     id="path1391" />
  <path
     class="write-stroke-pen"
     fill="none"
     stroke="#000000"
     stroke-width="2.4"
     stroke-linecap="round"
     stroke-linejoin="round"
     __comx="810"
     __comy="1125"
     __timestamp="0x1828288f6c8"
     stroke-opacity="1"
     d="M 194.774,45 V 75"
     id="path1393" />
  <path
     class="write-stroke-pen"
     fill="none"
     stroke="#000000"
     stroke-width="2.4"
     stroke-linecap="round"
     stroke-linejoin="round"
     __comx="840"
     __comy="1125"
     __timestamp="0x1828288f8bc"
     stroke-opacity="1"
     d="M 224.774,45 V 75"
     id="path1395" />
  <path
     class="write-stroke-pen"
     fill="none"
     stroke="#000000"
     stroke-width="2.4"
     stroke-linecap="round"
     stroke-linejoin="round"
     __comx="870"
     __comy="1125"
     __timestamp="0x1828288fabb"
     stroke-opacity="1"
     d="M 254.774,45 V 75"
     id="path1397" />
  <path
     class="write-stroke-pen"
     fill="none"
     stroke="#000000"
     stroke-width="2.4"
     stroke-linecap="round"
     stroke-linejoin="round"
     __comx="900"
     __comy="1125"
     __timestamp="0x1828288fca6"
     stroke-opacity="1"
     d="M 284.774,45 V 75"
     id="path1399" />
  <path
     class="write-stroke-pen"
     fill="none"
     stroke="#000000"
     stroke-width="2.4"
     stroke-linecap="round"
     stroke-linejoin="round"
     __comx="825"
     __comy="1109.6"
     __timestamp="0x18282892777"
     stroke-opacity="1"
     d="m 314.774,45 h -30 -30 -30 -30 -30 -30 -30"
     id="path1401" />
  <path
     class="write-stroke-pen"
     fill="none"
     stroke="#000000"
     stroke-width="2.4"
     stroke-linecap="round"
     stroke-linejoin="round"
     __comx="825"
     __comy="1139.6"
     __timestamp="0x18282892fb0"
     stroke-opacity="1"
     d="m 104.774,75 h 30 30 30 30 30 30 30"
     id="path1403" />
  <path
     class="write-stroke-pen"
     fill="none"
     stroke="#000000"
     stroke-opacity="0.427"
     stroke-width="2.4"
     stroke-linecap="round"
     stroke-linejoin="round"
     __comx="1005"
     __comy="1109.6"
     __timestamp="0x182828944a4"
     d="m 314.774,45 h 30 30 30 30 30"
     id="path1405" />
  <path
     class="write-stroke-pen"
     fill="none"
     stroke="#000000"
     stroke-opacity="0.427"
     stroke-width="2.4"
     stroke-linecap="round"
     stroke-linejoin="round"
     __comx="1005"
     __comy="1139.6"
     __timestamp="0x18282895558"
     d="m 314.774,75 h 30 30 30 30 30"
     id="path1407" />
  <path
     class="write-stroke-pen"
     fill="none"
     stroke="#000000"
     stroke-opacity="0.427"
     stroke-width="2.4"
     stroke-linecap="round"
     stroke-linejoin="round"
     __comx="1050"
     __comy="1114.6"
     __timestamp="0x182828957b2"
     d="M 434.774,45 V 75"
     id="path1409" />
  <path
     class="write-stroke-pen"
     fill="none"
     stroke="#000000"
     stroke-opacity="0.427"
     stroke-width="2.4"
     stroke-linecap="round"
     stroke-linejoin="round"
     __comx="1020"
     __comy="1114.6"
     __timestamp="0x18282895a2c"
     d="M 404.774,45 V 75"
     id="path1411" />
  <path
     class="write-stroke-pen"
     fill="none"
     stroke="#000000"
     stroke-opacity="0.427"
     stroke-width="2.4"
     stroke-linecap="round"
     stroke-linejoin="round"
     __comx="990"
     __comy="1114.6"
     __timestamp="0x18282895c87"
     d="M 374.774,45 V 75"
     id="path1413" />
  <path
     class="write-stroke-pen"
     fill="none"
     stroke="#000000"
     stroke-opacity="0.427"
     stroke-width="2.4"
     stroke-linecap="round"
     stroke-linejoin="round"
     __comx="960"
     __comy="1114.6"
     __timestamp="0x18282895eaa"
     d="M 344.774,45 V 75"
     id="path1415" />
  <path
     class="write-stroke-pen"
     fill="none"
     stroke="#000000"
     stroke-opacity="0.427"
     stroke-width="2.4"
     stroke-linecap="round"
     stroke-linejoin="round"
     __comx="705"
     __comy="1121.25"
     __timestamp="0x18282897c89"
     d="m 74.774,45 h 30"
     id="path1417" />
  <path
     class="write-stroke-pen"
     fill="none"
     stroke="#000000"
     stroke-opacity="0.427"
     stroke-width="2.4"
     stroke-linecap="round"
     stroke-linejoin="round"
     __comx="705"
     __comy="1121.25"
     __timestamp="0x18282897f9c"
     d="m 74.774,45 v 30 h 30"
     id="path1419" />
  <path
     class="write-stroke-pen"
     fill="none"
     stroke="#000000"
     stroke-opacity="0.427"
     stroke-width="2.4"
     stroke-linecap="round"
     stroke-linejoin="round"
     __comx="675"
     __comy="1121.25"
     __timestamp="0x18282898267"
     d="m 44.774,45 h 30"
     id="path1421" />
  <path
     class="write-stroke-pen"
     fill="none"
     stroke="#000000"
     stroke-opacity="0.427"
     stroke-width="2.4"
     stroke-linecap="round"
     stroke-linejoin="round"
     __comx="675"
     __comy="1121.25"
     __timestamp="0x182828984a3"
     d="m 44.774,75 h 30"
     id="path1423" />
  <path
     class="write-flat-pen"
     fill="#000000"
     fill-opacity="0.427"
     stroke-width="2.4"
     __comx="666.487"
     __comy="1124.949"
     __timestamp="0x1828289918c"
     d="m 50.349,59.559 -0.252,0.85 -0.054,0.362 0.052,0.512 0.318,0.473 0.259,0.358 0.855,0.322 0.722,-0.631 0.232,-0.475 10e-4,-0.395 10e-4,-0.336 -0.16,-0.595 -0.455,-0.532 -0.702,-0.018 -0.478,0.172 -0.386,0.432 -0.129,0.589 0.18,0.337 0.211,0.27 -0.02,0.344 0.294,0.017 0.02,-0.344 0.24,-0.212 0.243,-0.109 0.146,-0.126 -0.015,0.058 -0.084,0.039 -0.201,-0.005 -0.174,-0.209 0.028,0.087 v 0.138 l -10e-4,0.058 0.044,-0.096 0.162,-0.156 0.39,0.139 0.012,0.014 -0.109,-0.15 -0.007,0.016 -0.009,-0.089 0.176,-0.75"
     id="path1425" />
  <path
     class="write-flat-pen"
     fill="#000000"
     fill-opacity="0.427"
     stroke-width="2.4"
     __comx="672.969"
     __comy="1125.169"
     __timestamp="0x18282899a46"
     d="m 56.147,60.65 0.679,0.656 0.299,0.167 0.34,0.085 0.617,-0.006 0.544,-0.292 0.276,-0.251 0.174,-0.244 0.184,-0.327 0.079,-0.769 -0.972,-0.669 -0.694,0.207 -0.408,0.224 -0.547,0.437 -0.231,0.373 -0.151,0.222 -0.186,0.454 0.028,0.829 0.623,0.494 0.403,0.129 0.492,0.063 0.714,-0.131 0.271,-0.409 0.277,-0.353 0.212,-0.11 -0.072,-0.139 -0.212,0.11 -0.438,0.017 -0.284,-0.151 -0.334,-0.096 -0.2,-0.11 -0.065,-0.061 0.136,0.069 0.037,0.191 0.015,-0.009 0.088,-0.123 0.106,-0.171 0.224,-0.182 0.141,-0.083 -0.18,0.047 -0.361,-0.276 0.057,-0.409 0.015,0.013 -0.019,0.058 -0.02,0.033 -0.099,0.073 -0.125,0.023 -0.027,0.005 -0.031,0.002 -0.631,-0.474"
     id="path1427" />
  <path
     class="write-flat-pen"
     fill="#000000"
     fill-opacity="0.427"
     stroke-width="2.4"
     __comx="679.442"
     __comy="1124.551"
     __timestamp="0x18282899bd6"
     d="m 64.765,59.502 -0.784,-0.204 -0.629,-0.15 -0.499,0.031 -0.56,0.312 -0.316,0.3 -0.238,0.438 -0.153,0.709 0.402,0.597 0.633,0.37 0.842,0.095 0.844,-0.055 0.626,-0.207 0.689,-0.295 0.478,-0.313 0.395,-0.396 0.35,-0.811 -0.388,-0.759 -0.639,-0.333 -0.875,0.083 -0.758,0.328 -0.604,0.794 -0.123,0.051 0.043,0.103 0.123,-0.051 0.87,0.182 0.558,0.111 0.304,0.108 -0.221,-0.1 -0.231,-0.452 0.11,-0.252 -0.029,0.032 -0.196,0.129 -0.477,0.207 -0.344,0.114 -0.467,0.033 -0.326,-0.035 0.023,0.017 0.229,0.342 -0.055,0.243 -0.009,0.003 -0.022,0.01 0.073,-0.076 0.006,-0.037 0.405,-0.102 0.712,0.079"
     id="path1429" />
  <path
     class="write-flat-pen"
     fill="#ff0000"
     stroke-width="2.4"
     __comx="825.602"
     __comy="1124.203"
     __timestamp="0x1828289e1eb"
     fill-opacity="1"
     d="m 203.815,60.507 1.024,-0.147 0.609,-0.01 0.786,0.018 0.939,-0.045 1.152,0.008 1.135,-0.054 1.211,0.006 1.158,-0.058 1.065,-0.059 0.915,-0.06 0.861,-0.063 0.548,-0.059 0.516,-0.064 0.348,-0.067 0.334,-0.119 0.128,-0.215 0.698,-0.438 -0.369,-1.137 -0.822,0.056 -0.255,-0.09 -0.224,0.079 -0.141,0.028 -0.436,0.055 -0.5,0.055 -0.823,0.063 -0.9,0.065 -1.051,0.068 -1.102,0.066 -1.21,0.009 -1.136,0.071 -1.16,0.015 -0.948,0.077 -0.832,0.042 -0.754,0.154 -1.065,0.287"
     id="path1431" />
  <path
     class="write-flat-pen"
     fill="#ff0000"
     stroke-width="2.4"
     __comx="857.516"
     __comy="1124.746"
     __timestamp="0x1828289e5c6"
     fill-opacity="1"
     d="m 234.874,60.817 1.142,-0.094 0.706,0.027 0.946,-0.045 1.125,0.008 1.21,0.01 1.356,0.008 1.348,0.004 1.421,0.005 1.344,10e-4 1.122,10e-4 h 0.822 0.605 0.301 0.015 l 0.382,0.039 0.45,-0.411 0.826,-0.276 -0.444,-1.328 -0.826,0.276 -0.019,-0.254 -0.048,-0.099 h -0.336 -0.301 -0.605 -0.822 l -1.122,10e-4 -1.344,0.001 -1.421,0.005 -1.348,0.004 -1.356,0.008 -1.213,0.011 -1.189,0.016 -0.97,0.081 -0.805,0.071 -1.238,0.335"
     id="path1433" />
  <path
     class="write-flat-pen"
     fill="#000000"
     stroke-width="2.4"
     __comx="733.311"
     __comy="1125.434"
     __timestamp="0x1828289f2cb"
     fill-opacity="1"
     d="m 113.69,54.875 0.636,0.991 0.505,0.495 0.682,0.7 0.745,0.57 0.658,0.765 0.675,0.739 0.559,0.752 0.633,0.706 0.397,0.529 0.471,0.573 0.303,0.288 0.28,0.373 0.867,0.53 0.641,-0.749 0.739,-0.457 -0.778,-1.257 -0.739,0.457 0.131,-0.434 0.562,0.344 -0.148,-0.196 -0.338,-0.319 -0.36,-0.435 -0.424,-0.565 -0.635,-0.702 -0.572,-0.759 -0.736,-0.788 -0.79,-0.897 -0.821,-0.603 -0.67,-0.628 -0.476,-0.33 -0.666,-0.71"
     id="path1435" />
  <path
     class="write-flat-pen"
     fill="#000000"
     stroke-width="2.4"
     __comx="736.412"
     __comy="1125.434"
     __timestamp="0x1828289f426"
     fill-opacity="1"
     d="m 124.314,53.222 -0.4,1.413 -0.367,0.911 -0.58,1.244 -0.712,1.424 -0.849,1.502 -0.856,1.529 -0.765,1.37 -0.778,1.207 -0.643,1.148 -0.635,1.015 -0.406,0.727 -0.426,0.647 -0.206,0.413 -0.169,0.271 -0.139,0.247 1.84,1.034 -0.136,-0.462 0.374,-0.685 -1.255,-0.685 -0.374,0.685 -0.462,0.136 1.84,1.034 0.127,-0.213 0.204,-0.326 0.194,-0.389 0.399,-0.606 0.418,-0.75 0.633,-1.017 0.63,-1.139 0.775,-1.21 0.792,-1.432 0.846,-1.535 0.854,-1.567 0.713,-1.527 0.571,-1.362 0.355,-1.108 0.281,-1.554"
     id="path1437" />
  <path
     class="write-flat-pen"
     fill="#000000"
     stroke-width="2.4"
     __comx="762.556"
     __comy="1125.434"
     __timestamp="0x1828289f6da"
     fill-opacity="1"
     d="m 143.031,55.011 0.525,1.097 0.438,0.62 0.644,0.693 0.615,0.756 0.721,0.863 0.664,0.729 0.546,0.795 0.591,0.739 0.509,0.593 0.448,0.475 0.401,0.37 0.149,0.167 0.265,0.307 0.695,0.533 1.025,-0.48 0.361,-0.81 -0.136,-0.963 0.078,-0.157 -0.149,-0.074 -0.078,0.157 -0.781,0.335 -0.31,-0.021 0.421,-0.291 0.344,0.253 -0.145,-0.174 -0.233,-0.262 -0.423,-0.39 -0.364,-0.387 -0.456,-0.528 -0.525,-0.651 -0.593,-0.851 -0.747,-0.799 -0.708,-0.811 -0.684,-0.789 -0.668,-0.645 -0.39,-0.404 -0.721,-0.849"
     id="path1439" />
  <path
     class="write-flat-pen"
     fill="#000000"
     stroke-width="2.4"
     __comx="766.946"
     __comy="1125.434"
     __timestamp="0x1828289f805"
     fill-opacity="1"
     d="m 155.238,54.133 -0.318,1.257 -0.25,0.783 -0.435,1.052 -0.518,1.273 -0.559,1.339 -0.767,1.353 -0.757,1.404 -0.954,1.28 -0.923,1.272 -0.862,1.159 -0.668,1 -0.447,0.8 -0.273,0.546 -0.162,0.302 -0.154,0.262 -0.589,0.926 1.386,1.088 0.649,-0.942 0.566,-0.461 -0.778,-0.954 -0.566,0.461 0.154,-0.538 1.28,0.998 -0.352,0.586 0.233,-0.349 0.218,-0.395 0.268,-0.536 0.382,-0.683 0.592,-0.888 0.834,-1.131 0.918,-1.277 1.03,-1.403 0.805,-1.534 0.793,-1.461 0.579,-1.48 0.484,-1.304 0.425,-1.189 0.186,-0.983 0.146,-1.348"
     id="path1441" />
  <path
     class="write-flat-pen"
     fill="#000000"
     stroke-width="2.4"
     __comx="791.462"
     __comy="1125.434"
     __timestamp="0x1828289fa8f"
     fill-opacity="1"
     d="m 171.731,57.139 1.148,-0.002 0.317,0.132 0.658,0.383 0.731,0.565 0.713,0.776 0.716,0.779 0.524,0.77 0.582,0.795 0.58,0.723 0.402,0.484 0.35,0.438 0.201,0.231 0.105,0.182 0.518,0.442 0.873,0.062 0.54,-0.685 -0.041,-0.685 0.224,-0.318 -0.398,-0.28 -0.224,0.318 -0.533,0.014 -0.002,-0.286 0.522,-0.006 0.195,0.135 -0.05,-0.1 -0.319,-0.367 -0.335,-0.42 -0.405,-0.487 -0.544,-0.675 -0.543,-0.729 -0.605,-0.864 -0.844,-0.881 -0.866,-0.882 -1.013,-0.72 -1.01,-0.509 -0.859,-0.175 -1.44,0.205"
     id="path1443" />
  <path
     class="write-flat-pen"
     fill="#000000"
     stroke-width="2.4"
     __comx="796.622"
     __comy="1125.434"
     __timestamp="0x1828289fbab"
     fill-opacity="1"
     d="m 184.507,53.467 -0.661,1.542 -0.343,1.02 -0.584,1.311 -0.584,1.458 -0.624,1.407 -0.779,1.449 -0.628,1.301 -0.698,1.127 -0.493,0.948 -0.472,0.791 -0.398,0.657 -0.305,0.449 -0.258,0.364 -0.184,0.288 -0.163,0.237 -0.135,0.232 -0.037,0.228 0.082,0.194 -0.019,0.311 -0.554,0.405 0.568,0.777 0.554,-0.405 0.368,0.028 0.424,-0.122 0.274,-0.263 0.126,-0.111 0.224,-0.258 0.22,-0.304 0.268,-0.355 0.361,-0.524 0.434,-0.716 0.506,-0.852 0.485,-0.934 0.712,-1.163 0.645,-1.37 0.781,-1.49 0.652,-1.531 0.554,-1.485 0.561,-1.42 0.257,-1.093 0.477,-1.531"
     id="path1445" />
  <path
     class="write-flat-pen"
     fill="#000000"
     stroke-width="2.4"
     __comx="882.361"
     __comy="1124.988"
     __timestamp="0x1828289ff8f"
     fill-opacity="1"
     d="m 263.484,56.544 0.811,0.541 0.363,0.33 0.582,0.546 0.62,0.696 0.682,0.693 0.533,0.665 0.508,0.594 0.476,0.498 0.418,0.515 0.296,0.193 0.047,0.059 0.425,0.491 0.981,-0.053 0.431,-0.669 -0.03,-0.784 0.156,-0.214 -0.221,-0.161 -0.156,0.214 -0.666,0.089 -0.078,-0.241 0.625,-0.082 0.166,0.149 -0.266,-0.341 -0.311,-0.203 -0.27,-0.331 -0.498,-0.516 -0.458,-0.527 -0.595,-0.717 -0.741,-0.722 -0.684,-0.718 -0.758,-0.635 -0.628,-0.396 -1.074,-0.376"
     id="path1447" />
  <path
     class="write-flat-pen"
     fill="#000000"
     stroke-width="2.4"
     __comx="887.519"
     __comy="1124.988"
     __timestamp="0x182828a009d"
     fill-opacity="1"
     d="m 275.051,53.753 -0.637,1.267 -0.483,0.84 -0.618,1.24 -0.658,1.332 -0.723,1.463 -0.7,1.428 -0.763,1.3 -0.715,1.215 -0.56,1.005 -0.499,0.834 -0.276,0.551 -0.195,0.359 -0.137,0.3 -0.091,0.234 1.145,1.479 0.058,-0.093 0.978,-0.229 -0.433,-1.85 -0.978,0.229 -0.093,-0.058 1.145,1.479 0.162,-0.247 0.137,-0.281 0.184,-0.336 0.258,-0.515 0.474,-0.796 0.562,-1.014 0.697,-1.202 0.794,-1.378 0.718,-1.508 0.7,-1.481 0.624,-1.361 0.549,-1.248 0.4,-0.91 0.512,-1.378"
     id="path1449" />
  <path
     class="write-flat-pen"
     fill="#000000"
     stroke-width="2.4"
     __comx="912.553"
     __comy="1124.988"
     __timestamp="0x182828a035a"
     fill-opacity="1"
     d="m 293.08,54.017 0.089,1.177 0.384,0.679 0.525,0.726 0.719,0.869 0.632,0.832 0.722,0.858 0.698,0.822 0.561,0.695 0.612,0.693 0.515,0.473 0.33,0.298 0.265,0.238 0.238,0.201 0.407,0.414 0.944,-0.14 0.276,-0.533 0.578,-0.483 -0.766,-0.917 -0.578,0.483 -0.08,-0.236 0.58,-0.157 0.131,0.098 -0.317,-0.299 -0.263,-0.237 -0.322,-0.292 -0.428,-0.392 -0.51,-0.576 -0.552,-0.679 -0.72,-0.837 -0.698,-0.81 -0.644,-0.821 -0.739,-0.848 -0.503,-0.614 -0.23,-0.213 -0.215,-0.732"
     id="path1451" />
  <path
     class="write-flat-pen"
     fill="#000000"
     stroke-width="2.4"
     __comx="916.805"
     __comy="1124.988"
     __timestamp="0x182828a0475"
     fill-opacity="1"
     d="m 306.033,53.436 -1.006,1.201 -0.601,0.953 -0.793,1.248 -1.006,1.397 -1.006,1.588 -1.112,1.547 -1.139,1.465 -1,1.41 -0.855,1.153 -0.642,0.961 -0.554,0.811 -0.326,0.474 -0.178,0.275 -0.089,0.164 0.408,1.568 0.754,0.227 0.467,-0.866 0.55,-0.551 -0.93,-0.928 -0.55,0.551 0.069,-0.468 0.542,0.126 0.408,1.568 0.144,-0.163 0.195,-0.281 0.324,-0.465 0.565,-0.827 0.618,-0.927 0.837,-1.131 0.984,-1.394 1.129,-1.469 1.158,-1.647 0.983,-1.607 0.985,-1.423 0.798,-1.36 0.472,-0.923 0.799,-1.208"
     id="path1453" />
  <path
     class="write-flat-pen"
     fill="#000000"
     fill-opacity="0.427"
     stroke-width="2.4"
     __comx="944.648"
     __comy="1120.93"
     __timestamp="0x182828a0f97"
     d="m 324.212,55.505 0.903,-0.098 0.498,0.043 0.973,0.014 1.308,-0.055 1.352,0.004 1.3,-0.061 1.176,-0.06 1.058,-0.001 0.987,-0.06 0.918,-0.002 0.898,-0.063 0.498,-0.054 0.338,-0.007 0.165,-10e-4 -0.406,-2.056 -0.307,0.114 -0.786,0.413 -1.128,0.672 -1.516,0.909 -1.67,1.045 -1.728,1.23 -1.669,1.176 -1.443,1.233 -1.3,1.04 -0.92,0.895 -0.569,0.698 -0.436,0.464 -0.096,0.15 -0.742,0.648 0.806,1.262 0.898,0.121 0.811,0.019 0.921,0.005 0.969,-0.06 1.034,-0.064 1.049,-0.13 1.142,-0.189 1.109,-0.125 1.071,-0.127 0.939,-0.129 0.68,-0.12 0.451,-0.061 0.286,-0.048 0.164,-0.015 0.537,-0.178 0.512,-0.478 0.327,-0.852 0.223,-0.101 -0.112,-0.247 -0.223,0.101 -0.864,-0.313 -0.436,-0.037 -0.197,-0.073 -0.193,0.01 -0.356,0.06 -0.46,0.062 -0.683,0.121 -0.878,0.121 -1.045,0.126 -1.159,0.133 -1.154,0.194 -0.939,0.12 -0.968,0.065 -0.897,0.061 -0.83,0.002 -0.672,-0.01 0.215,0.031 0.732,1.146 -0.422,0.369 0.154,-0.241 0.351,-0.373 0.538,-0.661 0.756,-0.736 1.246,-0.997 1.392,-1.19 1.592,-1.12 1.679,-1.197 1.598,-1 1.495,-0.898 1.077,-0.643 0.635,-0.338 0.196,-0.087 -0.406,-2.056 -0.178,0.002 -0.444,0.01 -0.55,0.06 -0.786,0.056 -0.909,0.003 -0.985,0.062 -1.048,0.002 -1.226,0.067 -1.245,0.065 -1.351,0.006 -1.31,0.071 -0.952,0.02 -0.742,0.079 -1.049,0.41"
     id="path1455" />
  <path
     class="write-flat-pen"
     fill="#000000"
     fill-opacity="0.427"
     stroke-width="2.4"
     __comx="1005.63"
     __comy="1121.133"
     __timestamp="0x182828a1426"
     d="m 384.449,55.088 0.963,-0.23 0.484,0.026 0.943,0.013 1.307,0.007 1.202,0.009 1.281,0.006 1.125,0.004 0.98,0.003 0.834,0.002 h 0.515 l 0.188,0.033 -0.201,-0.014 -0.463,-0.495 -0.047,-0.454 -0.136,0.274 -0.568,0.762 -0.897,1.057 -1.11,1.186 -1.172,1.18 -1.254,1.128 -1.253,1.126 -1.261,1.007 -1.063,0.891 -0.718,0.586 -0.543,0.37 -0.329,0.284 -0.204,0.139 -0.225,0.23 0.04,1.607 0.322,0.295 0.928,0.177 0.963,0.021 1.131,0.066 1.174,-0.06 1.284,-0.001 1.306,-0.064 1.232,-0.065 1.21,-0.127 1.075,-0.066 0.853,-0.125 0.602,-0.062 0.435,-0.062 0.274,-0.054 0.407,-0.082 0.414,-0.153 0.221,-0.089 0.406,-0.219 0.473,-0.54 0.222,-0.982 0.179,-0.12 -0.132,-0.197 -0.179,0.12 -0.981,-0.177 -0.505,0.09 -0.179,0.009 -0.154,0.024 -0.312,0.068 -0.3,0.05 -0.227,0.045 -0.333,0.047 -0.607,0.063 -0.806,0.118 -1.03,0.063 -1.201,0.126 -1.17,0.062 -1.248,0.062 -1.288,0.002 -1.108,0.059 -1.049,-0.06 -0.816,-0.017 -0.118,-0.023 0.147,0.134 0.04,1.607 0.073,-0.073 0.129,-0.088 0.33,-0.285 0.518,-0.354 0.802,-0.658 1.052,-0.885 1.289,-1.034 1.3,-1.171 1.299,-1.17 1.24,-1.248 1.169,-1.252 0.977,-1.157 0.74,-1.006 0.463,-1.018 -0.084,-0.868 -0.632,-0.68 -0.556,-0.039 -0.264,-0.043 h -0.696 l -0.834,0.002 -0.98,0.003 -1.125,0.004 -1.281,0.006 -1.202,0.009 -1.311,0.008 -0.985,0.021 -0.783,0.078 -1.171,0.446"
     id="path1457" />
  <path
     class="write-flat-pen"
     fill="#000000"
     fill-opacity="0.427"
     stroke-width="2.4"
     __comx="1034.674"
     __comy="1120.043"
     __timestamp="0x182828a1788"
     d="m 415.405,52.292 -0.978,-0.224 -0.549,1.73 0.293,0.267 0.709,0.253 1.078,0.292 1.226,0.284 1.352,0.142 1.377,0.134 1.216,0.067 1.042,0.064 0.857,0.067 0.644,0.005 0.386,0.002 -0.825,0.002 -0.098,-0.964 -0.225,0.42 -0.62,0.998 -0.879,1.278 -1.08,1.216 -1.113,1.188 -1.173,1.179 -1.222,1.097 -1.354,1.035 -1.327,0.879 -0.935,0.658 -0.693,0.367 -0.421,0.148 -0.136,0.043 -0.652,1.592 0.318,0.593 1.256,0.103 1.262,-0.057 1.434,-0.064 1.588,-0.065 1.563,-0.133 1.478,-0.265 1.26,-0.251 1.168,-0.186 0.814,-0.113 0.738,-0.007 0.543,-0.055 0.179,-0.005 0.198,-0.003 0.169,0.021 0.269,0.06 0.471,0.066 0.704,-0.243 0.646,-0.697 0.23,-0.02 -0.021,-0.249 -0.23,0.02 -0.704,-0.582 -0.369,-0.223 -0.069,-0.085 -0.284,-0.147 -0.557,-0.154 -0.493,0.003 -0.281,0.008 -0.522,0.052 -0.78,0.007 -0.98,0.136 -1.233,0.197 -1.28,0.256 -1.355,0.243 -1.411,0.12 -1.543,0.063 -1.439,0.066 -1.119,0.052 0.102,0.006 0.258,0.481 -0.652,1.592 0.171,-0.054 0.613,-0.215 0.967,-0.513 1.023,-0.726 1.361,-0.904 1.483,-1.137 1.331,-1.201 1.239,-1.248 1.154,-1.236 1.19,-1.342 0.985,-1.436 0.689,-1.118 0.544,-1.067 -0.157,-1.651 -1.165,0.002 -0.38,10e-4 -0.565,-0.003 -0.8,-0.056 -1.064,-0.062 -1.179,-0.061 -1.325,-0.123 -1.216,-0.122 -1.069,-0.236 -0.995,-0.251 -0.519,-0.137 -0.245,-0.003 -0.549,1.73 1.001,0.075"
     id="path1459" />
  <path
     class="write-flat-pen"
     fill="#000000"
     fill-opacity="0.427"
     stroke-width="2.4"
     __comx="976.851"
     __comy="1126.005"
     __timestamp="0x182828a27be"
     d="m 354.694,62.372 0.764,-0.358 0.16,0.028 0.674,0.004 0.909,-0.051 0.935,0.062 1.071,0.072 1.12,0.067 1.289,0.13 1.301,0.067 1.228,0.065 1.194,0.002 0.905,-0.06 0.86,-0.003 0.68,-0.069 0.418,-0.126 0.367,-0.112 0.365,-0.33 0.165,-0.278 0.132,-0.57 -0.061,-0.564 0.275,-0.375 -0.484,-0.355 -0.275,0.375 -0.514,0.053 -0.491,0.116 -0.142,0.045 0.03,-0.073 0.012,-0.005 -0.22,0.065 -0.369,0.037 -0.822,0.003 -0.899,0.06 -1.065,-10e-4 -1.174,-0.062 -1.252,-0.063 -1.284,-0.124 -1.162,-0.061 -1.071,-0.057 -1.07,-0.053 -1.006,0.076 -0.83,0.058 -0.603,0.199 -0.945,0.628"
     id="path1461" />
  <path
     class="write-flat-pen"
     fill="#000000"
     fill-opacity="0.427"
     stroke-width="2.4"
     __comx="1063.711"
     __comy="1125.676"
     __timestamp="0x182828a2b00"
     d="m 442.78,62.652 0.876,-0.539 0.358,-0.022 0.902,-0.054 1.148,-0.054 1.063,-0.058 0.991,-0.06 0.951,-0.065 0.964,-0.129 0.851,-0.127 0.906,-0.137 0.732,-0.195 0.521,-0.128 0.54,-0.14 0.287,-0.087 0.396,-0.148 0.287,-0.293 0.702,-0.388 -0.406,-1.154 -0.79,0.138 -0.27,-0.097 -0.286,-0.023 -0.34,0.033 -0.585,0.114 -0.559,0.12 -0.655,0.166 -0.794,0.118 -0.835,0.125 -0.881,0.119 -0.877,0.061 -0.981,0.066 -1.055,0.069 -1.167,0.078 -1.024,0.1 -0.902,0.206 -1.131,0.975"
     id="path1463" />
  <path
     class="write-flat-pen"
     fill="#000000"
     fill-opacity="0.427"
     stroke-width="2.4"
     __comx="702.896"
     __comy="1121.274"
     __timestamp="0x182828a4b71"
     d="m 84.596,55.626 -0.074,-1.21 -0.348,-0.367 -1.356,1.075 0.037,0.39 0.353,0.418 0.534,0.519 0.72,0.661 0.538,0.549 0.785,0.778 0.686,0.742 0.627,0.691 0.637,0.702 0.611,0.673 0.483,0.616 0.571,0.649 0.334,0.417 0.39,0.432 0.411,0.385 1.094,0.838 0.811,-0.814 0.08,-0.426 -0.235,-0.559 0.178,-0.644 -0.983,-0.272 -0.178,0.644 -0.435,0.164 -0.047,-0.193 0.707,-0.721 0.42,0.32 -0.266,-0.251 -0.287,-0.318 -0.326,-0.406 -0.564,-0.64 -0.494,-0.629 -0.665,-0.731 -0.639,-0.701 -0.637,-0.698 -0.73,-0.783 -0.818,-0.798 -0.579,-0.574 -0.766,-0.679 -0.502,-0.438 -0.081,-0.037 -0.093,0.06 -1.356,1.075 -0.121,-0.211 0.143,0.481"
     id="path1465" />
  <path
     class="write-flat-pen"
     fill="#000000"
     fill-opacity="0.427"
     stroke-width="2.4"
     __comx="702.804"
     __comy="1121.088"
     __timestamp="0x182828a4d48"
     d="m 93.019,53.247 -1.119,0.403 -0.599,0.605 -0.659,0.883 -0.718,0.989 -0.846,0.987 -0.945,1.149 -0.919,1.127 -0.956,1.093 -1.057,1.008 -0.969,1.068 -0.702,0.881 -0.663,0.732 -0.373,0.587 -0.191,0.264 -0.201,0.206 -0.607,1.01 0.766,0.582 1.407,-0.094 0.102,-0.605 -0.233,-0.868 0.087,-0.203 -0.214,-0.091 -0.087,0.203 -0.707,0.241 -0.448,0.036 1.407,-0.094 0.653,0.481 -0.429,0.715 0.139,-0.142 0.321,-0.444 0.31,-0.488 0.586,-0.648 0.701,-0.883 0.871,-0.967 1.066,-1.034 1.031,-1.208 0.925,-1.171 0.907,-1.158 0.859,-1.066 0.725,-1.088 0.555,-0.861 0.207,-0.372 0.665,-0.515"
     id="path1467" />
  <path
     class="write-flat-pen"
     fill="#000000"
     stroke-width="2.4"
     __comx="616.497"
     __comy="1162.526"
     __timestamp="0x182828a8faa"
     fill-opacity="1"
     d="m 0.833,95.135 -0.237,1.311 -0.215,0.992 -0.039,0.89 -0.018,0.977 -0.006,0.887 -0.002,0.821 -0.002,0.756 v 0.617 0.41 l -0.039,0.255 -0.009,0.274 1.809,-0.223 -0.259,-0.134 -0.238,-0.75 -1.374,0.435 0.238,0.75 -0.134,0.259 1.809,-0.223 0.019,-0.182 0.051,-0.311 v -0.559 -0.617 L 2.185,101.014 2.183,100.193 2.177,99.306 2.161,98.338 2.139,97.583 2.219,96.681 2.337,95.336"
     id="path1469" />
  <path
     class="write-flat-pen"
     fill="#000000"
     stroke-width="2.4"
     __comx="616.055"
     __comy="1162.526"
     __timestamp="0x182828a9066"
     fill-opacity="1"
     d="M 0.387,88.245 0,89.253 l 0.372,0.646 0.379,0.439 0.65,0.345 0.096,0.179 L 1.656,90.777 1.56,90.598 1.656,89.904 1.603,89.336 1.557,89.123 1.62,88.609"
     id="path1471" />
  <path
     class="write-flat-pen"
     fill="#000000"
     stroke-width="2.4"
     __comx="623.957"
     __comy="1162.526"
     __timestamp="0x182828a92b3"
     fill-opacity="1"
     d="m 5.457,97.088 0.692,-0.616 0.238,-0.148 0.361,-0.293 0.371,-0.232 0.169,-0.094 0.148,-0.079 -0.419,0.19 -0.283,-0.258 0.048,0.32 0.075,0.942 0.066,1.033 -0.066,1.054 -0.002,1.151 -0.066,0.976 -0.069,0.861 -0.061,0.561 -0.062,0.361 -0.015,0.283 -0.031,0.179 1.81,0.048 -0.026,-0.007 0.112,-0.446 0.187,-0.751 0.316,-0.877 0.407,-1.024 0.408,-0.959 0.394,-0.99 0.446,-0.777 0.4,-0.667 0.277,-0.404 0.338,-0.326 0.132,-0.121 -0.303,0.218 -0.496,-0.294 -0.012,0.103 0.119,0.721 0.061,0.852 0.06,1.136 -0.008,1.257 -0.008,1.208 -0.003,1.144 -0.001,1.01 v 0.879 0.748 0.616 0.335 l 0.009,0.293 1.833,0.189 -0.215,-0.328 0.147,-0.703 -1.27,-0.265 -0.147,0.703 -0.328,0.215 1.833,0.189 0.009,-0.293 v -0.335 -0.616 -0.748 -0.879 l -10e-4,-1.01 -0.003,-1.144 -0.008,-1.21 -0.012,-1.314 -0.088,-1.214 -0.102,-0.973 -0.215,-0.906 -0.269,-0.679 -0.888,-0.573 -0.662,0.475 -0.215,0.197 -0.463,0.448 -0.39,0.568 -0.432,0.707 -0.525,0.865 -0.462,1.06 -0.437,0.948 -0.453,1.047 -0.396,0.957 -0.249,0.811 -0.247,0.788 0.027,0.386 1.81,0.048 0.059,-0.299 0.016,-0.298 0.052,-0.31 0.07,-0.643 0.07,-0.898 0.07,-1.046 0.002,-1.157 0.067,-1.117 -0.08,-1.166 -0.096,-1.06 -0.198,-0.916 -0.945,-0.962 -0.799,0.355 -0.243,0.159 -0.183,0.124 -0.472,0.32 -0.391,0.357 -0.262,0.237 -0.667,0.806"
     id="path1473" />
  <path
     class="write-flat-pen"
     fill="#000000"
     stroke-width="2.4"
     __comx="632.512"
     __comy="1162.526"
     __timestamp="0x182828a950e"
     fill-opacity="1"
     d="m 17.767,86.177 0.217,1.271 0.09,1.071 0.166,1.219 0.109,1.467 0.194,1.617 0.197,1.578 0.128,1.557 0.063,1.578 0.063,1.42 -0.07,1.313 -0.002,1.198 -0.066,0.971 -0.068,0.861 -0.062,0.561 -0.047,0.278 -0.045,0.194 1.251,-0.62 0.47,0.23 -0.039,0.291 -0.032,-0.554 -0.017,-0.87 -0.013,-0.859 -0.086,-0.974 L 20.15,99.991 20,98.98 19.855,98.013 19.696,97.076 19.293,96.299 18.964,95.825 18.49,95.412 l -0.65,-0.29 -0.561,-0.001 -0.725,0.134 -0.841,0.478 -0.657,0.686 -0.538,0.764 -0.366,0.959 -0.261,0.857 -0.111,1.02 -0.016,0.938 0.135,0.843 0.162,0.923 0.457,0.819 0.647,0.636 0.614,0.353 0.583,0.244 0.57,0.164 0.424,0.088 0.565,0.025 0.673,-0.086 0.526,-0.336 0.503,-0.402 0.366,-0.624 0.056,-0.864 0.119,-0.141 -0.133,-0.112 -0.119,0.141 -0.827,0.181 -0.419,0.233 -0.371,0.109 -0.227,0.066 -0.183,-0.005 -0.289,-0.022 -0.221,-0.046 -0.402,-0.115 -0.381,-0.157 -0.316,-0.175 -0.301,-0.284 -0.19,-0.32 -0.12,-0.607 -0.123,-0.675 -0.006,-0.706 0.059,-0.788 0.168,-0.653 0.246,-0.712 0.334,-0.502 0.393,-0.443 0.392,-0.244 0.321,-0.074 0.099,-0.013 0.153,0.039 0.162,0.12 0.168,0.23 0.253,0.482 0.118,0.693 0.138,0.947 0.12,0.907 -0.011,0.932 0.049,0.973 -0.013,0.807 -0.015,0.878 -0.021,0.602 -0.007,0.84 0.508,0.246 1.251,-0.62 0.061,-0.252 0.067,-0.392 0.069,-0.642 0.071,-0.898 0.07,-1.042 v -1.212 l 0.068,-1.357 -0.078,-1.507 -0.08,-1.613 -0.156,-1.633 -0.228,-1.613 -0.231,-1.583 -0.181,-1.492 -0.263,-1.242 -0.222,-1.075 -0.324,-1.294"
     id="path1475" />
  <path
     class="write-flat-pen"
     fill="#000000"
     stroke-width="2.4"
     __comx="639.777"
     __comy="1162.526"
     __timestamp="0x182828a968d"
     fill-opacity="1"
     d="m 21.037,101.341 -0.022,0.917 0.093,0.615 0.708,0.387 0.729,0.107 1.029,-0.349 0.962,-0.528 0.873,-0.837 0.584,-0.879 0.399,-0.839 0.336,-0.886 0.104,-0.827 0.011,-0.72 -0.075,-0.73 -0.266,-0.665 -0.492,-0.617 -0.672,-0.42 -0.588,-0.221 -0.857,-0.066 -0.836,0.246 -0.704,0.611 -0.616,0.904 -0.38,1.132 -0.258,1.203 -0.096,1.312 -0.018,1.358 0.308,1.327 0.477,1.253 0.66,0.995 0.748,0.773 0.658,0.463 0.628,0.338 0.472,0.122 0.687,0.106 0.523,-0.061 0.727,-0.327 0.642,-0.414 0.411,-0.786 0.188,-0.927 -0.358,-0.87 0.035,-0.157 -0.149,-0.033 -0.035,0.157 -0.67,0.517 -0.443,0.513 -0.257,0.178 -0.212,0.063 -0.37,0.123 0.024,-0.01 -0.331,-0.055 -0.141,-0.037 -0.309,-0.166 -0.412,-0.283 -0.499,-0.497 -0.448,-0.649 -0.365,-0.917 -0.245,-0.968 -0.015,-1.067 0.057,-1.128 0.182,-0.985 0.237,-0.812 0.315,-0.522 0.223,-0.212 0.161,-0.051 0.303,0.012 0.202,0.063 0.277,0.164 0.155,0.19 0.087,0.212 0.041,0.395 -0.007,0.529 -0.066,0.537 -0.238,0.634 -0.316,0.669 -0.415,0.625 -0.581,0.559 -0.646,0.361 -0.533,0.203 -0.088,0.015 0.183,0.132 0.026,0.276 -0.022,-0.775"
     id="path1477" />
  <path
     class="write-flat-pen"
     fill="#000000"
     stroke-width="2.4"
     __comx="646.342"
     __comy="1162.526"
     __timestamp="0x182828a9776"
     fill-opacity="1"
     d="m 28.497,94.959 0.598,1.004 0.287,0.558 0.334,0.82 0.423,0.921 0.424,0.911 0.44,0.868 0.413,0.69 0.266,0.529 0.165,0.297 0.054,0.116 0.364,0.924 1.345,-0.227 -0.055,-0.897 0.18,-0.681 -1.132,-0.299 -0.18,0.681 -0.199,-0.352 1.293,-0.219 0.217,0.452 -0.099,-0.306 -0.216,-0.401 -0.284,-0.564 -0.417,-0.694 -0.403,-0.782 -0.427,-0.878 -0.435,-0.889 -0.432,-0.898 -0.475,-0.649 -0.767,-0.938"
     id="path1479" />
  <path
     class="write-flat-pen"
     fill="#000000"
     stroke-width="2.4"
     __comx="647.192"
     __comy="1162.526"
     __timestamp="0x182828a983e"
     fill-opacity="1"
     d="m 34.431,93.383 -0.964,0.861 -0.79,0.691 -0.748,1.023 -0.839,1.196 -0.681,1.269 -0.575,1.159 -0.489,1.006 -0.412,0.811 -0.261,0.555 -0.192,0.468 -0.109,0.414 0.039,0.128 0.115,0.244 -0.142,0.653 0.76,0.433 0.489,-0.455 0.334,-0.14 0.157,-0.183 0.174,-0.301 0.208,-0.368 0.271,-0.52 0.42,-0.815 0.495,-1.019 0.556,-1.13 0.598,-1.153 0.737,-1.126 0.577,-0.923 0.573,-0.679 0.83,-1.013"
     id="path1481" />
  <path
     class="write-flat-pen"
     fill="#000000"
     stroke-width="2.4"
     __comx="728.876"
     __comy="1157.095"
     __timestamp="0x182828aaad0"
     fill-opacity="1"
     d="m 112.89,94.543 0.618,-1.008 0.317,-0.546 0.324,-0.633 0.237,-0.594 0.229,-0.538 0.161,-0.565 0.19,-0.422 0.186,-0.597 0.076,-0.385 0.072,-0.161 -0.147,0.377 -1.134,-0.032 -0.108,-0.378 v 0.701 l -0.01,1.182 -0.008,1.285 -0.005,1.277 -0.005,1.209 -0.003,1.075 -0.003,1.015 -0.003,0.808 -10e-4,0.828 -0.001,0.609 v 0.484 0.505 0.282 l 0.004,0.161 0.015,0.174 0.019,1.106 h 1.785 l 0.019,-1.106 0.015,-0.174 0.004,-0.161 v -0.282 -0.505 -0.484 l -0.001,-0.609 -0.001,-0.828 -0.003,-0.808 -0.003,-1.015 -0.003,-1.075 -0.005,-1.209 -0.005,-1.277 -0.008,-1.287 -0.014,-1.208 -0.046,-0.893 -0.262,-1.055 -1.36,-0.039 -0.277,0.706 -0.129,0.31 -0.087,0.473 -0.127,0.42 -0.191,0.45 -0.153,0.586 -0.184,0.464 -0.204,0.541 -0.265,0.537 -0.277,0.515 -0.559,1.029"
     id="path1483" />
  <path
     class="write-flat-pen"
     fill="#000000"
     stroke-width="2.4"
     __comx="737.589"
     __comy="1155.964"
     __timestamp="0x182828aae3f"
     fill-opacity="1"
     d="m 125.66,89.186 -0.674,-0.384 -0.261,-0.139 -0.369,-0.092 -0.358,-0.049 -0.62,0.017 -0.481,0.047 -0.574,0.119 -0.608,0.166 -0.493,0.415 -0.438,0.28 -0.413,0.407 -0.266,0.407 -0.173,0.222 -0.169,0.224 -0.079,0.146 -0.197,0.235 -0.196,0.401 -0.072,0.299 -0.033,0.245 -0.017,0.221 -0.012,0.284 -0.005,0.193 -0.005,0.429 -0.002,0.171 -0.002,0.255 -0.001,0.492 0.589,0.691 0.617,0.248 0.748,0.063 0.69,0.01 0.646,0.002 0.6,0.001 0.371,0.11 0.279,0.14 0.188,0.221 0.237,0.469 0.194,0.428 0.066,0.645 -0.004,0.733 -0.063,0.633 -0.155,0.567 -0.327,0.554 -0.316,0.423 -0.476,0.389 -0.427,0.374 -0.26,0.142 -0.563,0.138 -0.395,0.143 -0.398,0.024 -0.261,0.008 -0.223,-0.033 -0.141,-0.036 -0.182,-0.104 -0.242,-0.129 -0.233,-0.112 -0.349,-0.284 0.024,-0.385 -0.464,-0.029 -0.024,0.385 -0.394,0.445 0.009,0.729 0.37,0.62 0.443,0.459 0.571,0.283 0.631,0.156 0.535,-0.002 0.73,-0.044 0.566,-0.207 0.718,-0.181 0.674,-0.382 0.556,-0.503 0.628,-0.532 0.505,-0.709 0.492,-0.872 0.246,-0.975 0.065,-0.883 -0.02,-0.928 -0.148,-1.057 -0.381,-0.72 -0.388,-0.669 -0.576,-0.605 -0.707,-0.33 -0.738,-0.214 -0.843,0.001 h -0.635 l -0.622,-0.007 -0.439,-0.034 10e-4,0.004 0.082,0.103 -0.001,0.133 -0.002,-0.253 -0.001,-0.167 v -0.418 -0.173 l 0.004,-0.244 0.007,-0.147 0.01,-0.11 0.006,-0.034 0.027,-0.059 0.172,-0.208 0.098,-0.181 0.089,-0.118 0.206,-0.267 0.206,-0.318 0.168,-0.169 0.384,-0.253 0.3,-0.264 0.226,-0.07 0.456,-0.116 0.362,-0.063 0.474,-0.066 0.201,-0.016 0.177,-0.012 0.102,-0.004 0.674,0.255"
     id="path1485" />
  <path
     class="write-flat-pen"
     fill="#000000"
     stroke-width="2.4"
     __comx="939.297"
     __comy="1156.634"
     __timestamp="0x182828ac184"
     fill-opacity="0.427"
     d="m 324.14,91.168 -0.367,0.353 0.014,-0.091 -0.256,0.029 -0.42,0.109 -0.377,0.12 -0.315,0.106 -0.175,0.038 -0.154,-0.01 -0.016,-0.001 0.08,0.038 -0.025,-0.026 -0.062,-0.088 -0.124,-0.327 -0.02,-0.206 -0.011,-0.47 0.071,-0.329 0.118,-0.282 0.175,-0.252 0.289,-0.185 0.389,-0.212 0.342,-0.107 0.377,-0.064 0.343,-0.015 0.093,-0.002 -0.025,-0.016 0.216,0.257 0.189,0.576 0.204,1.008 0.067,1.23 -0.133,1.42 -0.344,1.539 -0.34,1.451 -0.52,1.222 -0.618,1.112 -0.464,0.893 -0.526,0.718 -0.415,0.617 -0.174,0.238 -0.156,0.129 0.414,-0.332 0.654,0.699 0.017,0.236 0.024,-0.258 0.056,-0.205 0.04,-0.057 0.138,-0.142 0.069,-0.03 0.143,-0.041 0.233,-0.012 0.077,0.031 0.478,0.236 0.365,0.178 0.486,0.305 0.591,0.344 0.343,0.191 0.449,0.214 0.326,0.15 0.407,0.108 0.468,0.115 0.574,-0.423 0.152,-0.469 0.437,-0.258 -0.344,-0.581 -0.437,0.258 -0.409,-0.137 -0.084,-0.143 0.09,0.007 -0.283,-0.074 -0.186,-0.084 -0.397,-0.184 -0.29,-0.155 -0.566,-0.314 -0.562,-0.328 -0.466,-0.196 -0.619,-0.256 -0.474,-0.109 -0.657,0.07 -0.388,0.123 -0.411,0.188 -0.405,0.405 -0.267,0.34 -0.187,0.544 -0.151,0.648 0.085,0.584 0.804,0.848 0.81,-0.677 0.313,-0.254 0.329,-0.451 0.413,-0.618 0.584,-0.799 0.515,-0.993 0.65,-1.176 0.608,-1.452 0.368,-1.609 0.363,-1.658 0.146,-1.659 -0.088,-1.483 -0.254,-1.231 -0.33,-0.982 -0.625,-0.749 -0.651,-0.369 -0.579,0.005 -0.473,0.016 -0.599,0.095 -0.617,0.185 -0.594,0.311 -0.642,0.394 -0.5,0.693 -0.259,0.611 -0.154,0.693 0.013,0.746 0.046,0.506 0.279,0.753 0.257,0.379 0.348,0.375 0.571,0.27 0.367,0.009 0.383,0.02 0.519,-0.125 0.398,-0.147 0.342,-0.13 0.323,-0.127 0.109,-0.057 0.464,-0.156 0.621,-0.893"
     id="path1487" />
  <path
     class="write-flat-pen"
     fill="#000000"
     stroke-width="2.4"
     __comx="948.438"
     __comy="1157.047"
     __timestamp="0x182828ac508"
     fill-opacity="0.427"
     d="m 333.757,92.027 -0.932,0.343 -0.231,0.1 -0.138,0.008 -0.235,0.031 -0.244,0.005 -0.439,0.039 -0.33,-0.007 -0.26,-0.048 -0.17,-0.042 0.008,-0.003 -0.087,-0.087 -0.126,-0.19 -0.131,-0.403 -0.069,-0.442 -0.014,-0.612 0.038,-0.397 0.187,-0.346 0.187,-0.219 0.351,-0.251 0.318,-0.173 0.271,-0.055 0.272,-0.012 0.208,0.061 0.107,0.082 0.176,0.543 0.262,1.13 0.063,1.285 -0.072,1.448 -0.204,1.439 -0.324,1.274 -0.517,1.163 -0.61,1.097 -0.535,0.903 -0.453,0.643 -0.383,0.52 -0.196,0.227 -0.148,0.147 0.972,1.549 0.293,-0.177 0.477,-0.197 0.58,-0.258 0.414,-0.164 0.509,-0.126 0.163,-0.031 0.098,0.016 0.032,0.038 0.126,0.132 0.403,0.478 0.277,0.35 0.219,0.419 0.251,0.32 0.129,0.246 0.596,0.467 0.668,0.082 0.611,-0.245 0.548,-0.425 0.411,-0.446 0.359,-0.677 0.232,-0.694 0.139,-0.109 -0.092,-0.117 -0.139,0.109 -0.748,0.075 -0.689,0.235 -0.458,0.187 -0.397,0.186 0.007,-0.024 0.315,0.037 0.137,0.107 -0.023,-0.042 -0.256,-0.318 -0.227,-0.423 -0.426,-0.52 -0.54,-0.586 -0.511,-0.414 -0.719,-0.219 -0.589,0.066 -0.308,0.079 -0.629,0.162 -0.546,0.215 -0.575,0.249 -0.433,0.152 -0.324,0.046 0.972,1.549 0.208,-0.2 0.295,-0.342 0.439,-0.595 0.506,-0.722 0.585,-0.99 0.66,-1.195 0.611,-1.387 0.381,-1.528 0.219,-1.625 0.067,-1.625 -0.089,-1.54 -0.335,-1.367 -0.39,-1.132 -0.801,-0.615 -0.81,-0.24 -0.708,0.028 -0.676,0.135 -0.652,0.355 -0.616,0.44 -0.455,0.528 -0.453,0.836 -0.082,0.865 0.017,0.836 0.11,0.703 0.256,0.781 0.386,0.563 0.39,0.358 0.459,0.255 0.532,0.07 0.429,0.03 0.534,-0.038 0.476,-0.08 0.308,-0.042 0.316,-0.088 0.37,-0.095 0.337,-0.235 0.806,-0.396"
     id="path1489" />
  <path
     class="write-stroke-pen"
     fill="none"
     stroke="#000000"
     stroke-width="2.4"
     stroke-linecap="round"
     stroke-linejoin="round"
     __comx="930"
     __comy="1114.6"
     __timestamp="0x182829f55b8"
     d="M 314.774,45 V 75"
     id="path1491" />
  <path
     class="write-stroke-pen"
     fill="none"
     stroke="#000000"
     stroke-width="2.4"
     stroke-linecap="round"
     stroke-linejoin="round"
     __comx="720"
     __comy="1114.6"
     __timestamp="0x182829f59db"
     d="M 104.774,45 V 75"
     id="path1493" />
  <path
     class="write-flat-pen"
     fill="#0000ff"
     stroke-width="2.4"
     __comx="907.209"
     __comy="1219.794"
     __timestamp="0x18282a253cb"
     d="m 290.332,140.025 -0.115,1.251 -0.041,0.789 -0.077,1.098 -0.018,1.432 -0.121,1.606 -0.121,1.883 -0.178,2.045 -0.119,2.041 -0.175,1.988 -0.12,1.864 -0.062,1.716 -0.002,1.548 -10e-4,1.402 0.061,1.234 0.249,1.076 0.275,0.996 0.486,0.71 0.393,0.533 0.418,0.398 0.442,0.235 0.496,0.262 0.808,0.004 0.74,-0.342 0.608,-0.663 0.304,-0.684 0.241,-0.693 0.073,-0.713 0.01,-0.612 -0.1,-0.696 -0.479,-0.584 0.001,-0.14 -0.141,-10e-4 -0.001,0.14 -0.49,0.523 -0.228,0.539 -0.214,0.497 -0.179,0.512 -0.228,0.44 -0.196,0.322 -0.157,0.126 0.02,-0.023 0.146,-0.006 -0.048,-0.032 -0.192,-0.107 -0.082,-0.081 -0.264,-0.359 -0.269,-0.394 -0.171,-0.618 -0.197,-0.852 -0.051,-0.997 -0.001,-1.35 -0.002,-1.513 0.052,-1.652 0.107,-1.811 0.165,-1.995 0.108,-2.044 0.162,-2.041 0.106,-1.898 0.105,-1.667 -0.017,-1.451 0.035,-1.099 -0.041,-0.837 -0.115,-1.251"
     id="path1495" />
  <path
     class="write-flat-pen"
     fill="#0000ff"
     stroke-width="2.4"
     __comx="905.008"
     __comy="1219.794"
     __timestamp="0x18282a254f7"
     d="m 287.907,155.623 0.932,-0.165 0.212,0.021 0.502,-0.036 0.357,-0.04 0.264,-0.008 0.34,-0.045 0.247,-0.046 0.208,-0.039 0.286,-0.126 0.163,-0.161 0.702,-0.305 -0.268,-1.146 -0.765,0.039 -0.159,-0.086 -0.163,-0.054 -0.218,-0.013 -0.316,0.048 -0.216,0.029 -0.254,0.009 -0.42,0.055 -0.432,0.058 -0.387,0.051 -1.079,0.454"
     id="path1497" />
  <path
     class="write-flat-pen"
     fill="#0000ff"
     stroke-width="2.4"
     __comx="914.739"
     __comy="1219.794"
     __timestamp="0x18282a25770"
     d="m 295.265,147.403 -0.216,1.002 -0.117,0.661 -0.147,0.899 -0.14,1.158 -0.132,1.398 -0.128,1.555 -0.067,1.601 -0.065,1.619 0.056,1.523 0.24,1.472 0.301,1.252 0.379,1.085 0.531,0.963 0.616,0.747 0.747,0.613 0.917,0.361 0.943,0.139 1.025,-0.058 0.939,-0.316 0.966,-0.529 0.705,-0.81 0.71,-0.93 0.534,-1.139 0.305,-1.151 0.363,-1.308 0.124,-1.366 0.118,-1.475 0.002,-1.484 -0.056,-1.535 -0.175,-1.562 -0.297,-1.418 -0.407,-1.284 -0.374,-1.086 -0.607,-0.928 -0.638,-0.702 -0.678,-0.618 -0.851,-0.461 -0.724,-0.245 -0.733,-0.185 -0.91,-0.068 -0.799,0.208 -0.741,0.314 -0.709,0.588 -0.259,0.87 0.016,0.693 -0.054,0.095 0.078,0.044 0.054,-0.095 0.579,-0.296 0.565,-0.228 0.44,-0.105 0.513,-0.085 0.441,-0.065 0.459,0.053 0.507,0.128 0.494,0.168 0.499,0.27 0.441,0.397 0.48,0.517 0.399,0.596 0.3,0.835 0.385,1.164 0.269,1.232 0.165,1.4 0.057,1.428 10e-4,1.375 -0.11,1.391 -0.107,1.187 -0.32,1.154 -0.269,0.995 -0.383,0.802 -0.555,0.718 -0.448,0.504 -0.525,0.281 -0.537,0.174 -0.573,0.027 -0.531,-0.086 -0.429,-0.173 -0.366,-0.305 -0.382,-0.465 -0.365,-0.663 -0.294,-0.84 -0.264,-1.088 -0.212,-1.284 -0.057,-1.332 0.049,-1.547 0.047,-1.566 0.099,-1.513 0.097,-1.375 0.092,-1.122 0.085,-0.907 0.015,-0.662 0.068,-0.989"
     id="path1499" />
  <path
     class="write-flat-pen"
     fill="#0000ff"
     stroke-width="2.4"
     __comx="914.157"
     __comy="1219.794"
     __timestamp="0x18282a258ce"
     d="m 301.735,149.15 -0.335,0.83 -0.203,0.236 -0.419,0.552 -0.455,0.627 -0.705,0.83 -0.721,1.063 -0.821,1.204 -0.82,1.419 -0.802,1.444 -0.767,1.437 -0.529,1.351 -0.364,1.133 -0.231,0.778 0.069,0.829 0.302,0.335 0.068,0.545 0.875,-0.11 -0.068,-0.545 0.238,-0.176 0.302,-0.354 0.315,-0.602 0.428,-1.104 0.491,-1.196 0.708,-1.319 0.786,-1.416 0.771,-1.342 0.773,-1.153 0.652,-0.989 0.676,-0.838 0.472,-0.728 0.416,-0.667 0.226,-0.544 0.238,-1.055"
     id="path1501" />
  <path
     class="write-flat-pen"
     fill="#0000ff"
     stroke-width="2.4"
     __comx="938.531"
     __comy="1209.46"
     __timestamp="0x18282a27715"
     d="m 322.177,139.587 -0.285,1.496 -0.181,1.17 -0.167,1.448 -0.144,1.63 -0.192,1.894 -0.13,1.954 -0.126,1.937 -0.127,1.814 -0.007,1.56 -0.004,1.375 0.117,1.13 0.12,0.877 0.209,0.776 0.334,0.577 0.302,0.484 0.377,0.318 0.522,0.277 0.513,0.138 0.465,-0.023 0.6,-0.077 0.505,-0.326 0.452,-0.463 0.295,-0.586 0.121,-0.517 0.052,-0.564 -0.272,-0.536 0.085,-0.288 -0.389,-0.115 -0.085,0.288 -0.505,0.256 -0.305,0.367 -0.239,0.282 -0.214,0.222 -0.175,0.136 0.018,-0.021 -0.099,0.006 h -0.087 l -0.008,-0.004 -0.146,-0.08 0.013,0.011 -0.124,-0.195 -0.19,-0.325 -0.111,-0.408 -0.101,-0.723 -0.106,-0.997 -0.004,-1.273 -0.007,-1.499 0.1,-1.759 0.101,-1.943 0.097,-1.927 0.149,-1.887 0.083,-1.643 0.062,-1.429 0.055,-1.131 0.154,-1.482"
     id="path1503" />
  <path
     class="write-flat-pen"
     fill="#0000ff"
     stroke-width="2.4"
     __comx="937.08"
     __comy="1214.543"
     __timestamp="0x18282a27818"
     d="m 320.209,151.465 0.822,-0.606 0.348,-0.204 0.542,-0.294 0.599,-0.296 0.429,-0.198 0.338,-0.198 0.267,-0.158 0.297,-0.255 0.236,-0.361 0.138,-0.302 0.301,-0.124 -0.142,-0.347 -0.301,0.124 -0.282,-0.129 -0.43,-0.142 -0.388,0.035 -0.367,0.057 -0.436,0.193 -0.426,0.19 -0.663,0.33 -0.64,0.363 -0.456,0.34 -0.809,0.759"
     id="path1505" />
  <path
     class="write-flat-pen"
     fill="#0000ff"
     stroke-width="2.4"
     __comx="948.237"
     __comy="1212.452"
     __timestamp="0x18282a2829f"
     d="m 329.919,148.344 1.045,-0.533 0.567,-0.526 0.683,-0.781 0.51,-1.01 0.462,-0.878 0.432,-0.937 0.247,-0.815 0.184,-0.655 0.068,-0.47 0.056,-0.301 0.021,-0.162 -1.679,-0.245 -0.093,0.201 -0.081,0.69 -0.177,1.152 -0.184,1.543 -0.065,1.828 -0.062,1.839 -0.065,1.852 -0.009,1.784 -0.061,1.49 -0.115,1.37 -0.057,1.099 -0.107,0.916 -0.105,0.711 -0.089,0.446 -0.132,0.375 -0.098,0.269 0.022,-0.058 0.16,-0.167 0.235,-0.089 0.014,0.009 -0.282,-0.021 -0.172,-0.024 -0.092,-0.03 -0.076,-0.036 -0.206,-0.123 -0.075,-0.045 -0.058,-0.055 -0.087,1.433 -0.045,0.057 0.187,-0.002 0.701,0.001 0.745,-0.044 0.769,0.003 0.73,0.003 0.673,0.001 h 0.551 0.433 0.249 l 0.22,-0.001 0.229,-0.092 1.007,-0.223 -0.273,-1.713 -1.026,0.101 -0.092,-0.041 -0.065,-0.001 h -0.249 -0.433 -0.551 l -0.674,0.001 -0.733,0.003 -0.832,0.009 -0.748,0.053 -0.709,0.011 -0.795,0.071 -0.373,0.297 -0.087,1.433 0.205,0.192 0.245,0.148 0.277,0.168 0.255,0.124 0.356,0.122 0.383,0.062 0.44,0.051 0.452,0.002 0.5,-0.196 0.398,-0.425 0.112,-0.303 0.104,-0.284 0.18,-0.517 0.124,-0.626 0.115,-0.788 0.116,-1.008 0.056,-1.132 0.112,-1.383 0.052,-1.569 -0.009,-1.79 0.049,-1.824 0.051,-1.838 0.049,-1.751 0.16,-1.438 0.169,-1.172 0.045,-0.634 -0.024,-0.116 -1.679,-0.245 0.003,0.08 -0.04,0.249 -0.053,0.389 -0.147,0.532 -0.206,0.69 -0.363,0.795 -0.443,0.854 -0.42,0.84 -0.493,0.579 -0.363,0.378 -0.797,0.598"
     id="path1507" />
  <path
     class="write-flat-pen"
     fill="#0000ff"
     stroke-width="2.4"
     __comx="914.53"
     __comy="1193.951"
     __timestamp="0x18282a4e6aa"
     d="m 299.881,137.382 -0.101,-0.835 0.034,-0.429 0.022,-0.749 0.01,-0.773 0.008,-0.933 0.01,-0.919 0.01,-0.974 0.007,-0.916 0.004,-0.919 0.002,-0.777 0.052,-0.669 0.05,-0.594 0.092,-0.397 0.069,-0.4 0.009,-0.151 0.012,-0.074 0.207,-0.959 -1.606,-0.356 -0.217,0.957 -0.05,0.202 -0.011,0.191 -0.045,0.263 -0.107,0.466 -0.061,0.719 -0.054,0.739 0.002,0.84 0.004,0.919 0.007,0.916 0.01,0.974 0.01,0.919 0.009,0.934 0.011,0.776 0.028,0.775 0.068,0.541 0.191,0.913"
     id="path1509" />
  <path
     class="write-flat-pen"
     fill="#0000ff"
     stroke-width="2.4"
     __comx="914.17"
     __comy="1193.951"
     __timestamp="0x18282a4e899"
     d="m 298.936,124.057 -0.434,0.571 -0.214,0.147 -0.295,0.311 -0.336,0.366 -0.315,0.392 -0.318,0.355 -0.427,0.427 -0.316,0.424 -0.303,0.381 -0.174,0.286 -0.119,0.156 -0.103,0.139 1.061,1.402 0.186,-0.087 0.444,-0.398 0.531,-0.548 0.504,-0.678 0.476,-0.65 0.381,-0.627 0.249,-0.545 0.226,-0.504 0.157,-0.33 0.118,-0.249 0.068,-0.138 -1.228,0.441 -0.351,-0.151 -0.055,-0.222 0.061,0.565 0.263,0.736 0.242,0.516 0.293,0.546 0.399,0.403 0.223,0.245 0.242,0.231 0.163,0.15 0.322,0.251 0.54,0.13 0.512,-0.221 0.225,-0.493 0.476,-0.29 -0.442,-0.725 -0.476,0.29 -0.294,-0.177 0.171,-0.168 0.265,0.031 -0.006,-0.046 -0.147,-0.135 -0.18,-0.171 -0.206,-0.225 -0.238,-0.236 -0.144,-0.257 -0.189,-0.385 -0.17,-0.448 -0.059,-0.372 -0.125,-0.688 -0.479,-0.221 -1.228,0.441 -0.035,0.116 -0.089,0.21 -0.157,0.334 -0.228,0.513 -0.203,0.442 -0.292,0.471 -0.434,0.576 -0.437,0.563 -0.418,0.395 -0.176,0.133 0.094,-0.051 1.061,1.402 0.101,-0.133 0.175,-0.232 0.163,-0.277 0.248,-0.323 0.252,-0.363 0.368,-0.409 0.363,-0.481 0.274,-0.437 0.254,-0.378 0.192,-0.307 0.188,-0.277 0.392,-0.768"
     id="path1511" />
  <path
     class="write-flat-pen"
     fill="#0000ff"
     stroke-width="2.4"
     __comx="944.197"
     __comy="1193.951"
     __timestamp="0x18282a4eb87"
     d="m 330.253,138.784 -0.034,-1.177 -0.032,-0.553 -0.045,-0.657 -0.103,-0.754 -0.108,-0.816 -0.111,-0.913 -0.111,-1.05 -0.056,-1.048 -0.055,-1.048 -0.001,-1.02 -0.055,-0.967 -10e-4,-0.778 -10e-4,-0.703 v -0.54 l -0.001,-0.38 -0.005,-0.403 -0.004,-0.346 -0.004,-0.175 -0.008,-0.191 -0.028,-0.139 h -1.747 l 0.019,0.019 v 0.87 h 1.71 v -0.87 l 0.019,-0.019 h -1.747 l -0.028,0.139 -0.008,0.191 -0.004,0.175 -0.004,0.346 -0.005,0.403 -10e-4,0.38 v 0.54 l -0.001,0.704 0.001,0.831 0.056,0.967 10e-4,1.016 0.058,1.097 0.059,1.097 0.119,1.114 0.119,0.943 0.124,0.841 0.122,0.71 0.074,0.609 0.077,0.519 0.103,1.136"
     id="path1513" />
  <path
     class="write-flat-pen"
     fill="#0000ff"
     stroke-width="2.4"
     __comx="944.146"
     __comy="1193.951"
     __timestamp="0x18282a4ed7f"
     d="m 329.52,124.997 -1.072,-0.192 -0.424,0.105 -0.377,0.102 -0.497,0.289 -0.436,0.301 -0.338,0.325 -0.327,0.296 -0.204,0.182 -0.22,0.197 -0.224,0.203 1.609,0.763 -0.019,0.024 0.141,-0.198 0.379,-0.563 0.273,-0.482 0.422,-0.557 0.165,-0.366 0.118,-0.149 0.183,-0.223 -0.221,0.352 -0.682,-0.15 0.045,0.066 0.406,0.385 0.572,0.528 0.463,0.326 0.436,0.341 0.441,0.341 0.245,0.143 0.188,0.147 0.215,0.105 0.182,0.014 0.948,0.435 0.846,-1.537 -0.875,-0.568 -0.152,-0.17 -0.065,-0.032 -0.129,-0.102 -0.252,-0.146 -0.333,-0.257 -0.48,-0.371 -0.407,-0.277 -0.491,-0.428 -0.437,-0.371 -0.426,-0.346 -1.109,-0.262 -0.459,0.721 -0.127,0.155 -0.27,0.345 -0.171,0.381 -0.369,0.488 -0.299,0.528 -0.318,0.472 -0.46,0.623 -0.044,0.542 1.609,0.763 0.226,-0.202 0.221,-0.2 0.208,-0.191 0.359,-0.334 0.249,-0.263 0.258,-0.206 0.257,-0.2 0.185,-0.107 0.044,-0.082 0.707,-0.047"
     id="path1515" />
</svg>
