<?xml version="1.0" encoding="UTF-8" standalone="no"?>
<svg
   version="1.1"
   id="svg551"
   sodipodi:docname="duplicate_ab_03.svg"
   width="482.39999"
   height="118.888"
   inkscape:version="1.2 (1:1.2.1+202207142221+cd75a1ee6d)"
   xmlns:inkscape="http://www.inkscape.org/namespaces/inkscape"
   xmlns:sodipodi="http://sodipodi.sourceforge.net/DTD/sodipodi-0.dtd"
   xmlns="http://www.w3.org/2000/svg"
   xmlns:svg="http://www.w3.org/2000/svg">
  <defs
     id="defs555" />
  <sodipodi:namedview
     id="namedview553"
     pagecolor="#ffffff"
     bordercolor="#666666"
     borderopacity="1.0"
     inkscape:showpageshadow="2"
     inkscape:pageopacity="0.0"
     inkscape:pagecheckerboard="0"
     inkscape:deskcolor="#d1d1d1"
     showgrid="false"
     inkscape:zoom="4.3666667"
     inkscape:cx="-631.60305"
     inkscape:cy="-1847.4046"
     inkscape:window-width="1920"
     inkscape:window-height="1011"
     inkscape:window-x="1920"
     inkscape:window-y="141"
     inkscape:window-maximized="1"
     inkscape:current-layer="svg551" />
  <path
     class="write-stroke-pen"
     fill="none"
     stroke="#000000"
     stroke-width="2.4"
     stroke-linecap="round"
     stroke-linejoin="round"
     __comx="780"
     __comy="2014.6"
     __timestamp="0x18287aa6ee9"
     d="m 1.2,87.688 v 30"
     id="path437" />
  <path
     class="write-stroke-pen"
     fill="none"
     stroke="#000000"
     stroke-width="2.4"
     stroke-linecap="round"
     stroke-linejoin="round"
     __comx="930"
     __comy="2009.6"
     __timestamp="0x18287aa864a"
     d="m 1.2,87.688 h 30 30 30 30 30 60 60 30"
     id="path439" />
  <path
     class="write-stroke-pen"
     fill="none"
     stroke="#000000"
     stroke-width="2.4"
     stroke-linecap="round"
     stroke-linejoin="round"
     __comx="1170"
     __comy="2009.6"
     __timestamp="0x18287aaa037"
     d="m 301.2,87.688 h 30 30 30 30 30 30"
     id="path441" />
  <path
     class="write-stroke-pen"
     fill="none"
     stroke="#000000"
     stroke-width="2.4"
     stroke-linecap="round"
     stroke-linejoin="round"
     __comx="1260"
     __comy="2014.6"
     __timestamp="0x18287aaa453"
     d="m 481.2,87.688 v 30"
     id="path443" />
  <path
     class="write-stroke-pen"
     fill="none"
     stroke="#000000"
     stroke-width="2.4"
     stroke-linecap="round"
     stroke-linejoin="round"
     __comx="1020"
     __comy="2039.6"
     __timestamp="0x18287aaafc4"
     d="m 1.2,117.688 h 30 30 30 30 30 30 30 30 30 30 30 30 30 30 30 30"
     id="path445" />
  <path
     class="write-stroke-pen"
     fill="none"
     stroke="#000000"
     stroke-width="2.4"
     stroke-linecap="round"
     stroke-linejoin="round"
     __comx="1140"
     __comy="2039.6"
     __timestamp="0x18287aac9b9"
     d="m 361.2,117.688 v 0"
     id="path447" />
  <path
     class="write-stroke-pen"
     fill="none"
     stroke="#000000"
     stroke-width="2.4"
     stroke-linecap="round"
     stroke-linejoin="round"
     __comx="810"
     __comy="2025.938"
     __timestamp="0x18287ab6a5a"
     d="m 31.2,87.688 v 30"
     id="path449" />
  <path
     class="write-stroke-pen"
     fill="none"
     stroke="#000000"
     stroke-width="2.4"
     stroke-linecap="round"
     stroke-linejoin="round"
     __comx="840"
     __comy="2025.938"
     __timestamp="0x18287ab6c8d"
     d="m 61.2,87.688 v 30"
     id="path451" />
  <path
     class="write-stroke-pen"
     fill="none"
     stroke="#000000"
     stroke-width="2.4"
     stroke-linecap="round"
     stroke-linejoin="round"
     __comx="870"
     __comy="2025.938"
     __timestamp="0x18287ab6e78"
     d="m 91.2,87.688 v 30"
     id="path453" />
  <path
     class="write-stroke-pen"
     fill="none"
     stroke="#000000"
     stroke-width="2.4"
     stroke-linecap="round"
     stroke-linejoin="round"
     __comx="900"
     __comy="2025.938"
     __timestamp="0x18287ab703b"
     d="m 121.2,87.688 v 30"
     id="path455" />
  <path
     class="write-stroke-pen"
     fill="none"
     stroke="#000000"
     stroke-width="2.4"
     stroke-linecap="round"
     stroke-linejoin="round"
     __comx="930"
     __comy="2025.938"
     __timestamp="0x18287ab7230"
     d="m 151.2,117.688 v 0"
     id="path457" />
  <path
     class="write-stroke-pen"
     fill="none"
     stroke="#000000"
     stroke-width="2.4"
     stroke-linecap="round"
     stroke-linejoin="round"
     __comx="930"
     __comy="2025.938"
     __timestamp="0x18287ab7481"
     d="m 151.2,87.688 v 30"
     id="path459" />
  <path
     class="write-stroke-pen"
     fill="none"
     stroke="#000000"
     stroke-width="2.4"
     stroke-linecap="round"
     stroke-linejoin="round"
     __comx="960"
     __comy="2025.938"
     __timestamp="0x18287ab7625"
     d="m 181.2,87.688 v 30"
     id="path461" />
  <path
     class="write-stroke-pen"
     fill="none"
     stroke="#000000"
     stroke-width="2.4"
     stroke-linecap="round"
     stroke-linejoin="round"
     __comx="990"
     __comy="2025.938"
     __timestamp="0x18287ab788b"
     d="m 211.2,87.688 v 30"
     id="path463" />
  <path
     class="write-stroke-pen"
     fill="none"
     stroke="#000000"
     stroke-width="2.4"
     stroke-linecap="round"
     stroke-linejoin="round"
     __comx="1020"
     __comy="2025.938"
     __timestamp="0x18287ab79f1"
     d="m 241.2,87.688 v 30"
     id="path465" />
  <path
     class="write-stroke-pen"
     fill="none"
     stroke="#000000"
     stroke-width="2.4"
     stroke-linecap="round"
     stroke-linejoin="round"
     __comx="1050"
     __comy="2025.938"
     __timestamp="0x18287ab7b9f"
     d="m 271.2,87.688 v 30"
     id="path467" />
  <path
     class="write-stroke-pen"
     fill="none"
     stroke="#000000"
     stroke-width="2.4"
     stroke-linecap="round"
     stroke-linejoin="round"
     __comx="1080"
     __comy="2025.938"
     __timestamp="0x18287ab7e4c"
     d="m 301.2,87.688 v 30"
     id="path469" />
  <path
     class="write-stroke-pen"
     fill="none"
     stroke="#000000"
     stroke-width="2.4"
     stroke-linecap="round"
     stroke-linejoin="round"
     __comx="1110"
     __comy="2025.938"
     __timestamp="0x18287ab7fc7"
     d="m 331.2,87.688 v 30"
     id="path471" />
  <path
     class="write-stroke-pen"
     fill="none"
     stroke="#000000"
     stroke-width="2.4"
     stroke-linecap="round"
     stroke-linejoin="round"
     __comx="1140"
     __comy="2025.938"
     __timestamp="0x18287ab816b"
     d="m 361.2,87.688 v 30"
     id="path473" />
  <path
     class="write-stroke-pen"
     fill="none"
     stroke="#000000"
     stroke-width="2.4"
     stroke-linecap="round"
     stroke-linejoin="round"
     __comx="1170"
     __comy="2025.938"
     __timestamp="0x18287ab8337"
     d="m 391.2,87.688 v 30"
     id="path475" />
  <path
     class="write-stroke-pen"
     fill="none"
     stroke="#000000"
     stroke-width="2.4"
     stroke-linecap="round"
     stroke-linejoin="round"
     __comx="1200"
     __comy="2025.938"
     __timestamp="0x18287ab85a7"
     d="m 421.2,87.688 v 30"
     id="path477" />
  <path
     class="write-stroke-pen"
     fill="none"
     stroke="#000000"
     stroke-width="2.4"
     stroke-linecap="round"
     stroke-linejoin="round"
     __comx="1230"
     __comy="2025.938"
     __timestamp="0x18287ab872c"
     d="m 451.2,87.688 v 30"
     id="path479" />
  <path
     class="write-flat-pen"
     fill="#ff0000"
     fill-opacity="1"
     stroke-width="2.4"
     __comx="1235.066"
     __comy="2022.953"
     __timestamp="0x18287ad672f"
     d="m 454.982,91.897 0.054,1.138 0.059,0.519 0.155,0.662 0.071,0.64 0.078,0.708 0.05,0.704 -0.028,0.745 v 0.701 l -0.027,0.625 -0.027,0.536 -0.021,0.446 -0.013,0.262 -0.005,0.218 0.027,0.131 1.555,0.827 0.173,-0.218 0.007,-0.53 -0.189,-0.584 0.108,-0.223 -0.409,-0.198 -0.108,0.223 -0.558,0.18 -0.238,-0.09 0.055,-0.132 1.555,0.827 0.034,-0.037 0.046,-0.164 0.041,-0.333 0.036,-0.485 0.03,-0.554 0.03,-0.68 v -0.708 l 0.029,-0.823 -0.067,-0.866 -0.096,-0.757 -0.104,-0.772 -0.197,-0.717 -0.124,-0.458 -0.406,-1.085"
     id="path481" />
  <path
     class="write-flat-pen"
     fill="#ff0000"
     fill-opacity="1"
     stroke-width="2.4"
     __comx="1236.616"
     __comy="2022.953"
     __timestamp="0x18287ad685b"
     d="m 456.185,93.182 0.38,-0.858 0.152,-0.175 0.227,-0.165 0.338,-0.142 0.367,-0.057 0.295,0.039 0.249,0.128 0.222,0.216 0.212,0.336 0.121,0.355 0.05,0.378 -0.008,0.321 -0.059,0.268 -0.075,0.188 -0.147,0.207 -0.197,0.212 -0.174,0.143 -0.306,0.152 -0.32,0.19 -0.201,0.087 -0.229,0.08 -0.151,0.077 -0.148,0.065 -0.13,0.154 -0.756,0.419 0.639,1.436 0.817,-0.281 0.031,0.083 0.11,0.01 0.236,-0.068 0.271,-0.075 0.423,-0.174 0.376,-0.224 0.446,-0.222 0.459,-0.382 0.378,-0.415 0.371,-0.534 0.208,-0.591 0.11,-0.615 -0.01,-0.666 -0.126,-0.717 -0.287,-0.739 -0.49,-0.71 -0.651,-0.564 -0.857,-0.339 -0.865,-0.01 -0.794,0.208 -0.712,0.389 -0.533,0.537 -0.26,0.537 -0.328,1.01"
     id="path483" />
  <path
     class="write-flat-pen"
     fill="#ff0000"
     fill-opacity="1"
     stroke-width="2.4"
     __comx="1240.762"
     __comy="2022.953"
     __timestamp="0x18287ad6945"
     d="m 461.38,94.753 -0.262,1.181 -0.101,0.415 -0.102,0.421 -0.065,0.478 -0.067,0.479 0.003,0.458 0.018,0.355 0.011,0.333 0.071,0.244 0.089,0.072 0.164,0.187 0.086,0.211 -0.228,0.344 0.598,0.395 0.228,-0.344 0.293,-0.103 0.326,-0.232 0.184,-0.317 0.075,-0.375 0.065,-0.335 0.019,-0.429 0.008,-0.32 0.049,-0.353 0.054,-0.414 0.071,-0.418 0.022,-0.456 0.151,-1.169"
     id="path485" />
  <path
     class="write-flat-pen"
     fill="#ff0000"
     fill-opacity="1"
     stroke-width="2.4"
     __comx="1240.937"
     __comy="2022.953"
     __timestamp="0x18287ad69dd"
     d="m 461.365,92.347 0.153,0.931 0.256,0.236 0.331,0.155 0.117,0.318 0.552,-0.203 -0.117,-0.318 0.153,-0.327 0.098,-0.206 -0.098,-0.795"
     id="path487" />
  <path
     class="write-flat-pen"
     fill="#ff0000"
     fill-opacity="1"
     stroke-width="2.4"
     __comx="1246.029"
     __comy="2022.953"
     __timestamp="0x18287ad6ac4"
     d="m 464.708,93.465 0.693,0.939 0.285,0.454 0.337,0.475 0.399,0.513 0.369,0.47 0.356,0.449 0.295,0.423 0.197,0.372 0.132,0.39 0.07,0.318 0.037,0.351 0.03,0.262 0.024,0.127 0.073,0.01 0.371,-0.311 0.321,0.143 -0.652,-0.129 -0.238,1.198 0.652,0.129 0.474,0.173 0.492,-0.464 0.174,-0.329 0.125,-0.364 0.028,-0.512 -0.025,-0.535 -0.104,-0.558 -0.219,-0.654 -0.326,-0.617 -0.403,-0.57 -0.399,-0.492 -0.385,-0.469 -0.417,-0.485 -0.363,-0.417 -0.372,-0.404 -0.79,-0.891"
     id="path489" />
  <path
     class="write-flat-pen"
     fill="#ff0000"
     fill-opacity="1"
     stroke-width="2.4"
     __comx="1245.808"
     __comy="2022.953"
     __timestamp="0x18287ad6b86"
     d="m 468.31,93.199 -0.967,0.672 -0.482,0.381 -0.445,0.514 -0.43,0.547 -0.43,0.608 -0.407,0.642 -0.279,0.645 -0.156,0.576 -0.041,0.605 0.19,0.806 -0.006,0.01 0.011,0.01 0.006,-0.01 0.83,-0.242 0.482,-0.44 0.365,-0.466 0.302,-0.503 0.348,-0.507 0.384,-0.543 0.385,-0.502 0.321,-0.435 0.253,-0.326 0.802,-0.747"
     id="path491" />
  <path
     class="write-flat-pen"
     fill="#ff0000"
     fill-opacity="1"
     stroke-width="2.4"
     __comx="1236.784"
     __comy="2029.837"
     __timestamp="0x18287c5c1aa"
     d="m 458.294,108.059 -0.712,-0.034 -0.139,-0.037 -0.166,-0.038 -0.181,-0.043 -0.163,-0.035 -0.125,-0.061 -0.078,-0.058 -0.092,-0.095 -0.114,-0.148 -0.07,-0.161 -0.053,-0.238 -0.031,-0.235 0.055,-0.206 0.116,-0.255 0.174,-0.235 0.225,-0.205 0.21,-0.137 0.171,-0.073 -0.002,-0.001 -0.146,-0.046 0.049,0.058 0.144,0.26 0.141,0.516 0.116,0.664 0.034,0.729 -0.067,0.773 -0.176,0.828 -0.256,0.812 -0.37,0.841 -0.378,0.78 -0.372,0.666 -0.324,0.506 -0.25,0.357 -0.161,0.201 -0.035,0.058 h 0.056 l 1.253,0.868 -0.095,0.091 -0.044,0.013 0.214,-0.153 0.274,-0.165 0.258,-0.088 0.333,-0.077 0.298,-0.045 h 0.302 l 0.395,-0.032 0.355,-0.014 0.398,10e-4 h 0.343 l 0.323,-0.01 0.221,-0.023 0.122,-0.045 0.079,-0.073 -0.004,-0.062 0.062,-0.053 0.565,0.138 0.244,-1.002 -0.565,-0.138 -0.067,-0.085 -0.122,-0.083 -0.191,-0.073 -0.122,-0.045 -0.221,-0.023 -0.323,-0.01 h -0.344 -0.441 l -0.435,0.029 -0.402,0.051 -0.389,0.04 -0.444,0.123 -0.412,0.134 -0.433,0.165 -0.433,0.261 -0.361,0.248 -0.341,0.311 -0.136,0.231 1.253,0.868 0.154,-0.074 0.177,-0.209 0.194,-0.239 0.303,-0.432 0.372,-0.58 0.418,-0.756 0.412,-0.851 0.42,-0.958 0.301,-0.987 0.196,-1.013 0.073,-0.984 -0.059,-0.944 -0.163,-0.843 -0.234,-0.785 -0.382,-0.628 -0.492,-0.442 -0.601,-0.189 -0.548,0.127 -0.422,0.177 -0.434,0.28 -0.423,0.382 -0.382,0.478 -0.254,0.541 -0.172,0.632 0.065,0.609 0.091,0.471 0.216,0.508 0.315,0.401 0.332,0.316 0.439,0.227 0.452,0.101 0.312,0.01 0.25,-0.01 0.226,-0.038 0.139,-0.037 0.712,-0.034"
     id="path493" />
  <path
     class="write-flat-pen"
     fill="#ff0000"
     fill-opacity="1"
     stroke-width="2.4"
     __comx="1241.73"
     __comy="2034.5"
     __timestamp="0x18287c5c289"
     d="m 462.306,111.307 -0.039,0.922 -0.062,0.351 -0.042,0.424 -0.06,0.342 -0.051,0.389 -0.022,0.271 -0.038,0.279 0.006,0.222 0.04,0.225 0.063,0.109 0.081,0.083 0.061,0.083 -0.141,0.567 1.015,0.252 0.141,-0.567 0.099,-0.071 0.119,-0.106 0.103,-0.156 0.088,-0.238 0.051,-0.172 0.052,-0.307 0.024,-0.298 0.041,-0.361 0.031,-0.449 -0.04,-0.471 -0.017,-0.355 -0.039,-0.97"
     id="path495" />
  <path
     class="write-flat-pen"
     fill="#ff0000"
     fill-opacity="1"
     stroke-width="2.4"
     __comx="1246.849"
     __comy="2028.261"
     __timestamp="0x18287c5c42a"
     d="m 467.318,104.536 -0.795,0.469 -0.362,0.298 -0.362,0.527 -0.204,0.683 -0.189,0.794 -0.111,0.967 -0.029,0.993 0.048,1.013 0.164,0.94 0.333,0.873 0.503,0.681 0.581,0.524 0.62,0.311 0.699,0.174 0.794,-0.121 0.62,-0.43 0.464,-0.589 0.356,-0.639 0.352,-0.753 0.221,-0.816 0.137,-0.854 0.003,-0.882 -0.142,-0.871 -0.286,-0.802 -0.377,-0.696 -0.521,-0.617 -0.652,-0.425 -0.778,-0.215 -0.806,0.03 -0.803,0.289 -0.737,0.47 -0.628,0.689 -0.485,0.802 -0.007,-10e-4 0.006,0.01 0.002,-0.01 0.909,-0.118 0.814,-0.147 0.658,-0.116 0.501,-0.045 0.31,0.032 0.245,0.08 0.18,0.118 0.222,0.261 0.227,0.39 0.178,0.494 0.09,0.551 0.003,0.582 -0.096,0.61 -0.152,0.564 -0.253,0.545 -0.251,0.451 -0.197,0.252 -0.033,0.023 h 0.007 l -0.133,-0.036 -0.211,-0.106 -0.254,-0.228 -0.239,-0.322 -0.178,-0.465 -0.114,-0.649 -0.045,-0.827 0.017,-0.848 0.075,-0.791 0.137,-0.673 0.082,-0.458 0.039,-0.208 0.005,-0.09 0.604,-0.423"
     id="path497" />
  <path
     class="write-flat-pen"
     fill="#ff0000"
     fill-opacity="1"
     stroke-width="2.4"
     __comx="1235.066"
     __comy="1932.953"
     __timestamp="0x18287ad672f"
     d="m 454.982,1.897 0.054,1.138 0.059,0.519 0.155,0.662 0.071,0.64 0.078,0.708 0.05,0.704 -0.028,0.745 v 0.701 l -0.027,0.625 -0.027,0.536 -0.021,0.446 -0.013,0.262 -0.005,0.218 0.027,0.131 1.555,0.827 0.173,-0.218 0.007,-0.53 -0.189,-0.584 0.108,-0.223 -0.409,-0.198 -0.108,0.223 -0.558,0.18 -0.238,-0.09 0.055,-0.132 1.555,0.827 0.034,-0.037 0.046,-0.164 0.041,-0.333 0.036,-0.485 0.03,-0.554 0.03,-0.68 V 7.053 L 457.552,6.23 457.485,5.364 457.389,4.607 457.285,3.835 457.088,3.118 456.964,2.66 456.558,1.575"
     id="path499" />
  <path
     class="write-flat-pen"
     fill="#ff0000"
     fill-opacity="1"
     stroke-width="2.4"
     __comx="1236.616"
     __comy="1932.953"
     __timestamp="0x18287ad685b"
     d="m 456.185,3.182 0.38,-0.858 0.152,-0.175 0.227,-0.165 0.338,-0.142 0.367,-0.057 0.295,0.039 0.249,0.128 0.222,0.216 0.212,0.336 0.121,0.355 0.05,0.378 -0.008,0.321 -0.059,0.268 -0.075,0.188 -0.147,0.207 -0.197,0.212 -0.174,0.143 -0.306,0.152 -0.32,0.19 -0.201,0.087 -0.229,0.08 -0.151,0.077 -0.148,0.065 -0.13,0.154 -0.756,0.419 0.639,1.436 0.817,-0.281 0.031,0.083 0.11,0.01 0.236,-0.068 0.271,-0.075 0.423,-0.174 0.376,-0.224 0.446,-0.222 0.459,-0.382 0.378,-0.415 0.371,-0.534 0.208,-0.591 0.11,-0.615 -0.01,-0.666 -0.126,-0.717 -0.287,-0.739 -0.49,-0.71 -0.651,-0.564 -0.857,-0.339 -0.865,-0.01 -0.794,0.208 -0.712,0.389 -0.533,0.537 -0.26,0.537 -0.328,1.01"
     id="path501" />
  <path
     class="write-flat-pen"
     fill="#ff0000"
     fill-opacity="1"
     stroke-width="2.4"
     __comx="1240.762"
     __comy="1932.953"
     __timestamp="0x18287ad6945"
     d="m 461.38,4.753 -0.262,1.181 -0.101,0.415 -0.102,0.421 -0.065,0.478 -0.067,0.479 0.003,0.458 0.018,0.355 0.011,0.333 0.071,0.244 0.089,0.072 0.164,0.187 0.086,0.211 -0.228,0.344 0.598,0.395 0.228,-0.344 0.293,-0.103 0.326,-0.232 0.184,-0.317 0.075,-0.375 0.065,-0.335 0.019,-0.429 0.008,-0.32 0.049,-0.353 0.054,-0.414 0.071,-0.418 0.022,-0.456 0.151,-1.169"
     id="path503" />
  <path
     class="write-flat-pen"
     fill="#ff0000"
     fill-opacity="1"
     stroke-width="2.4"
     __comx="1240.937"
     __comy="1932.953"
     __timestamp="0x18287ad69dd"
     d="m 461.365,2.347 0.153,0.931 0.256,0.236 0.331,0.155 0.117,0.318 0.552,-0.203 -0.117,-0.318 0.153,-0.327 0.098,-0.206 -0.098,-0.795"
     id="path505" />
  <path
     class="write-flat-pen"
     fill="#ff0000"
     fill-opacity="1"
     stroke-width="2.4"
     __comx="1246.029"
     __comy="1932.953"
     __timestamp="0x18287ad6ac4"
     d="m 464.708,3.465 0.693,0.939 0.285,0.454 0.337,0.475 0.399,0.513 0.369,0.47 0.356,0.449 0.295,0.423 0.197,0.372 0.132,0.39 0.07,0.318 0.037,0.351 0.03,0.262 0.024,0.127 0.073,0.01 0.371,-0.311 0.321,0.143 -0.652,-0.129 -0.238,1.198 0.652,0.129 0.474,0.173 0.492,-0.464 0.174,-0.329 0.125,-0.364 0.028,-0.512 -0.025,-0.535 -0.104,-0.558 -0.219,-0.654 -0.326,-0.617 -0.403,-0.57 -0.399,-0.492 -0.385,-0.469 -0.417,-0.485 -0.363,-0.417 -0.372,-0.404 -0.79,-0.891"
     id="path507" />
  <path
     class="write-flat-pen"
     fill="#ff0000"
     fill-opacity="1"
     stroke-width="2.4"
     __comx="1245.808"
     __comy="1932.953"
     __timestamp="0x18287ad6b86"
     d="m 468.31,3.199 -0.967,0.672 -0.482,0.381 -0.445,0.514 -0.43,0.547 -0.43,0.608 -0.407,0.642 -0.279,0.645 -0.156,0.576 -0.041,0.605 0.19,0.806 -0.006,0.01 0.011,0.01 0.006,-0.01 0.83,-0.242 0.482,-0.44 0.365,-0.466 0.302,-0.503 0.348,-0.507 0.384,-0.543 0.385,-0.502 0.321,-0.435 0.253,-0.326 0.802,-0.747"
     id="path509" />
  <path
     class="write-flat-pen"
     fill="#ff0000"
     fill-opacity="1"
     stroke-width="2.4"
     __comx="1236.784"
     __comy="1939.837"
     __timestamp="0x18287c5c1aa"
     d="m 458.294,18.059 -0.712,-0.034 -0.139,-0.037 -0.166,-0.038 -0.181,-0.043 -0.163,-0.035 -0.125,-0.061 -0.078,-0.058 -0.092,-0.095 -0.114,-0.148 -0.07,-0.161 -0.053,-0.238 -0.031,-0.235 0.055,-0.206 0.116,-0.255 0.174,-0.235 0.225,-0.205 0.21,-0.137 0.171,-0.073 -0.002,-0.001 -0.146,-0.046 0.049,0.058 0.144,0.26 0.141,0.516 0.116,0.664 0.034,0.729 -0.067,0.773 -0.176,0.828 -0.256,0.812 -0.37,0.841 -0.378,0.78 -0.372,0.666 -0.324,0.506 -0.25,0.357 -0.161,0.201 -0.035,0.058 h 0.056 l 1.253,0.868 -0.095,0.091 -0.044,0.013 0.214,-0.153 0.274,-0.165 0.258,-0.088 0.333,-0.077 0.298,-0.045 h 0.302 l 0.395,-0.032 0.355,-0.014 0.398,0.001 h 0.343 l 0.323,-0.01 0.221,-0.023 0.122,-0.045 0.079,-0.073 -0.004,-0.062 0.062,-0.053 0.565,0.138 0.244,-1.002 -0.565,-0.138 -0.067,-0.085 -0.122,-0.083 -0.191,-0.073 -0.122,-0.045 -0.221,-0.023 -0.323,-0.01 h -0.344 -0.441 l -0.435,0.029 -0.402,0.051 -0.389,0.04 -0.444,0.123 -0.412,0.134 -0.433,0.165 -0.433,0.261 -0.361,0.248 -0.341,0.311 -0.136,0.231 1.253,0.868 0.154,-0.074 0.177,-0.209 0.194,-0.239 0.303,-0.432 0.372,-0.58 0.418,-0.756 0.412,-0.851 0.42,-0.958 0.301,-0.987 0.196,-1.013 0.073,-0.984 -0.059,-0.944 -0.163,-0.843 -0.234,-0.785 -0.382,-0.628 -0.492,-0.442 -0.601,-0.189 -0.548,0.127 -0.422,0.177 -0.434,0.28 -0.423,0.382 -0.382,0.478 -0.254,0.541 -0.172,0.632 0.065,0.609 0.091,0.471 0.216,0.508 0.315,0.401 0.332,0.316 0.439,0.227 0.452,0.101 0.312,0.01 0.25,-0.01 0.226,-0.038 0.139,-0.037 0.712,-0.034"
     id="path511" />
  <path
     class="write-flat-pen"
     fill="#ff0000"
     fill-opacity="1"
     stroke-width="2.4"
     __comx="1241.73"
     __comy="1944.5"
     __timestamp="0x18287c5c289"
     d="m 462.306,21.307 -0.039,0.922 -0.062,0.351 -0.042,0.424 -0.06,0.342 -0.051,0.389 -0.022,0.271 -0.038,0.279 0.006,0.222 0.04,0.225 0.063,0.109 0.081,0.083 0.061,0.083 -0.141,0.567 1.015,0.252 0.141,-0.567 0.099,-0.071 0.119,-0.106 0.103,-0.156 0.088,-0.238 0.051,-0.172 0.052,-0.307 0.024,-0.298 0.041,-0.361 0.031,-0.449 -0.04,-0.471 -0.017,-0.355 -0.039,-0.97"
     id="path513" />
  <path
     class="write-flat-pen"
     fill="#ff0000"
     fill-opacity="1"
     stroke-width="2.4"
     __comx="1246.849"
     __comy="1938.261"
     __timestamp="0x18287c5c42a"
     d="m 467.318,14.536 -0.795,0.469 -0.362,0.298 -0.362,0.527 -0.204,0.683 -0.189,0.794 -0.111,0.967 -0.029,0.993 0.048,1.013 0.164,0.94 0.333,0.873 0.503,0.681 0.581,0.524 0.62,0.311 0.699,0.174 0.794,-0.121 0.62,-0.43 0.464,-0.589 0.356,-0.639 0.352,-0.753 0.221,-0.816 0.137,-0.854 0.003,-0.882 -0.142,-0.871 -0.286,-0.802 -0.377,-0.696 -0.521,-0.617 -0.652,-0.425 -0.778,-0.215 -0.806,0.03 -0.803,0.289 -0.737,0.47 -0.628,0.689 -0.485,0.802 -0.007,-0.001 0.006,0.01 0.002,-0.01 0.909,-0.118 0.814,-0.147 0.658,-0.116 0.501,-0.045 0.31,0.032 0.245,0.08 0.18,0.118 0.222,0.261 0.227,0.39 0.178,0.494 0.09,0.551 0.003,0.582 -0.096,0.61 -0.152,0.564 -0.253,0.545 -0.251,0.451 -0.197,0.252 -0.033,0.023 h 0.007 l -0.133,-0.036 -0.211,-0.106 -0.254,-0.228 -0.239,-0.322 -0.178,-0.465 -0.114,-0.649 -0.045,-0.827 0.017,-0.848 0.075,-0.791 0.137,-0.673 0.082,-0.458 0.039,-0.208 0.005,-0.09 0.604,-0.423"
     id="path515" />
  <path
     class="write-flat-pen"
     fill="#000000"
     stroke-width="2.4"
     __comx="1255.254"
     __comy="1963.305"
     __timestamp="0x1828d3e8524"
     d="m 471.584,32.895 1.271,1.296 0.861,1.021 0.853,1.162 0.846,1.309 0.76,1.463 0.764,1.699 0.595,1.768 0.525,1.897 0.52,1.801 0.341,1.706 0.346,1.895 0.248,1.747 -0.001,1.93 -0.01,2.035 -0.175,1.973 -0.429,1.971 -0.593,1.896 -0.862,1.927 -0.861,1.772 -0.966,1.575 -0.795,1.504 -0.794,1.27 -0.533,1.032 -0.518,0.936 -0.403,0.726 -0.32,0.45 -0.308,0.594 -0.163,0.306 -0.107,0.254 -0.119,0.322 -0.074,0.735 0.733,0.66 0.575,-0.237 0.709,-0.043 -0.064,-1.072 -0.709,0.043 0.171,-0.213 0.528,0.401 0.016,0.299 0.059,-0.116 0.073,-0.148 0.14,-0.251 0.253,-0.487 0.304,-0.428 0.458,-0.825 0.533,-0.963 0.508,-0.987 0.786,-1.265 0.796,-1.515 0.977,-1.609 0.909,-1.892 0.91,-2.066 0.646,-2.093 0.455,-2.18 0.178,-2.176 -0.01,-2.118 -0.01,-2.067 -0.284,-1.917 -0.365,-1.945 -0.369,-1.795 -0.542,-1.864 -0.541,-1.935 -0.65,-1.902 -0.841,-1.825 -0.845,-1.575 -0.939,-1.414 -0.939,-1.245 -0.979,-1.106 -1.392,-1.281"
     id="path517" />
  <path
     class="write-flat-pen"
     fill="#000000"
     stroke-width="2.4"
     __comx="1252.352"
     __comy="1994.443"
     __timestamp="0x1828d3e8754"
     d="m 468.892,70.792 -0.485,0.861 -0.104,0.38 -0.065,0.643 -0.091,0.641 -0.023,0.541 -0.062,0.498 -0.114,0.318 -0.096,0.401 -0.117,0.226 -0.234,0.98 1.182,0.869 1.099,0.2 1.221,0.023 1.532,-0.082 1.266,-0.166 1.309,-0.177 1.224,-0.345 0.76,-0.244 0.806,-0.268 0.384,-0.163 0.124,-0.082 -0.065,-0.061 0.221,-0.265 0.673,0.266 0.366,-0.925 -0.673,-0.266 -0.388,-0.505 -0.536,0.01 -0.313,0.058 -0.385,0.105 -0.779,0.207 -0.743,0.204 -1.072,0.275 -1.172,0.142 -1.19,0.143 -1.384,0.07 -0.986,-0.017 -0.478,-0.079 0.284,0.222 -0.138,0.578 0.117,-0.233 0.121,-0.538 0.146,-0.428 0.087,-0.809 v -0.542 l 0.056,-0.648 -0.038,-0.67 -0.063,-0.073 0.162,-0.717"
     id="path519" />
  <path
     class="write-stroke-pen"
     fill="none"
     stroke="#000000"
     stroke-opacity="0.427"
     stroke-width="2.4"
     stroke-linecap="round"
     stroke-linejoin="round"
     __comx="795"
     __comy="2025"
     __timestamp="0x1828d3f1383"
     d="m 31.2,87.688 -30,30"
     id="path521" />
  <path
     class="write-stroke-pen"
     fill="none"
     stroke="#000000"
     stroke-opacity="0.427"
     stroke-width="2.4"
     stroke-linecap="round"
     stroke-linejoin="round"
     __comx="825"
     __comy="2025"
     __timestamp="0x1828d3f154f"
     d="m 61.2,87.688 -30,30"
     id="path523" />
  <path
     class="write-stroke-pen"
     fill="none"
     stroke="#000000"
     stroke-opacity="0.427"
     stroke-width="2.4"
     stroke-linecap="round"
     stroke-linejoin="round"
     __comx="855"
     __comy="2025"
     __timestamp="0x1828d3f1743"
     d="m 91.2,87.688 -30,30"
     id="path525" />
  <path
     class="write-stroke-pen"
     fill="none"
     stroke="#000000"
     stroke-opacity="0.427"
     stroke-width="2.4"
     stroke-linecap="round"
     stroke-linejoin="round"
     __comx="885"
     __comy="2025"
     __timestamp="0x1828d3f18e6"
     d="m 121.2,87.688 -30,30"
     id="path527" />
  <path
     class="write-stroke-pen"
     fill="none"
     stroke="#000000"
     stroke-opacity="0.427"
     stroke-width="2.4"
     stroke-linecap="round"
     stroke-linejoin="round"
     __comx="915"
     __comy="2025"
     __timestamp="0x1828d3f1a7f"
     d="m 151.2,87.688 -30,30"
     id="path529" />
  <path
     class="write-stroke-pen"
     fill="none"
     stroke="#000000"
     stroke-opacity="0.427"
     stroke-width="2.4"
     stroke-linecap="round"
     stroke-linejoin="round"
     __comx="945"
     __comy="2025"
     __timestamp="0x1828d3f1c04"
     d="m 181.2,87.688 -30,30"
     id="path531" />
  <path
     class="write-stroke-pen"
     fill="none"
     stroke="#000000"
     stroke-opacity="0.427"
     stroke-width="2.4"
     stroke-linecap="round"
     stroke-linejoin="round"
     __comx="975"
     __comy="2025"
     __timestamp="0x1828d3f1d6a"
     d="m 211.2,87.688 -30,30"
     id="path533" />
  <path
     class="write-stroke-pen"
     fill="none"
     stroke="#000000"
     stroke-opacity="0.427"
     stroke-width="2.4"
     stroke-linecap="round"
     stroke-linejoin="round"
     __comx="1005"
     __comy="2025"
     __timestamp="0x1828d3f1ed0"
     d="m 241.2,87.688 -30,30"
     id="path535" />
  <path
     class="write-stroke-pen"
     fill="none"
     stroke="#000000"
     stroke-opacity="0.427"
     stroke-width="2.4"
     stroke-linecap="round"
     stroke-linejoin="round"
     __comx="1035"
     __comy="2025"
     __timestamp="0x1828d3f206a"
     d="m 271.2,87.688 -30,30"
     id="path537" />
  <path
     class="write-stroke-pen"
     fill="none"
     stroke="#000000"
     stroke-opacity="0.427"
     stroke-width="2.4"
     stroke-linecap="round"
     stroke-linejoin="round"
     __comx="1065"
     __comy="2025"
     __timestamp="0x1828d3f21f9"
     d="m 301.2,87.688 -30,30"
     id="path539" />
  <path
     class="write-stroke-pen"
     fill="none"
     stroke="#000000"
     stroke-opacity="0.427"
     stroke-width="2.4"
     stroke-linecap="round"
     stroke-linejoin="round"
     __comx="1095"
     __comy="2025"
     __timestamp="0x1828d3f23a7"
     d="m 331.2,87.688 -30,30"
     id="path541" />
  <path
     class="write-stroke-pen"
     fill="none"
     stroke="#000000"
     stroke-opacity="0.427"
     stroke-width="2.4"
     stroke-linecap="round"
     stroke-linejoin="round"
     __comx="1125"
     __comy="2025"
     __timestamp="0x1828d3f2554"
     d="m 361.2,87.688 -30,30"
     id="path543" />
  <path
     class="write-stroke-pen"
     fill="none"
     stroke="#000000"
     stroke-opacity="0.427"
     stroke-width="2.4"
     stroke-linecap="round"
     stroke-linejoin="round"
     __comx="1155"
     __comy="2025"
     __timestamp="0x1828d3f26ed"
     d="m 391.2,87.688 -30,30"
     id="path545" />
  <path
     class="write-stroke-pen"
     fill="none"
     stroke="#000000"
     stroke-opacity="0.427"
     stroke-width="2.4"
     stroke-linecap="round"
     stroke-linejoin="round"
     __comx="1185"
     __comy="2025"
     __timestamp="0x1828d3f28d7"
     d="m 421.2,87.688 -30,30"
     id="path547" />
  <path
     class="write-stroke-pen"
     fill="none"
     stroke="#000000"
     stroke-opacity="0.427"
     stroke-width="2.4"
     stroke-linecap="round"
     stroke-linejoin="round"
     __comx="1215"
     __comy="2025"
     __timestamp="0x1828d3f2a7b"
     d="m 451.2,87.688 -30,30"
     id="path549" />
</svg>
