<?xml version="1.0" encoding="UTF-8" standalone="no"?>
<svg
   version="1.1"
   id="svg284"
   sodipodi:docname="duplicate_ab_02.svg"
   width="603.37"
   height="233.565"
   inkscape:version="1.2 (1:1.2.1+202207142221+cd75a1ee6d)"
   xmlns:inkscape="http://www.inkscape.org/namespaces/inkscape"
   xmlns:sodipodi="http://sodipodi.sourceforge.net/DTD/sodipodi-0.dtd"
   xmlns="http://www.w3.org/2000/svg"
   xmlns:svg="http://www.w3.org/2000/svg">
  <defs
     id="defs288" />
  <sodipodi:namedview
     id="namedview286"
     pagecolor="#ffffff"
     bordercolor="#666666"
     borderopacity="1.0"
     inkscape:showpageshadow="2"
     inkscape:pageopacity="0.0"
     inkscape:pagecheckerboard="0"
     inkscape:deskcolor="#d1d1d1"
     showgrid="false"
     inkscape:zoom="4.3666667"
     inkscape:cx="59.312977"
     inkscape:cy="-1942.6718"
     inkscape:window-width="1920"
     inkscape:window-height="1011"
     inkscape:window-x="0"
     inkscape:window-y="0"
     inkscape:window-maximized="1"
     inkscape:current-layer="svg284" />
  <path
     class="write-stroke-pen"
     fill="none"
     stroke="#000000"
     stroke-width="2.4"
     stroke-linecap="round"
     stroke-linejoin="round"
     __comx="150"
     __comy="2044.6"
     __timestamp="0x18287aa6ee9"
     d="m 62.17,22.365 v 30"
     id="path2" />
  <path
     class="write-stroke-pen"
     fill="none"
     stroke="#000000"
     stroke-width="2.4"
     stroke-linecap="round"
     stroke-linejoin="round"
     __comx="300"
     __comy="2039.6"
     __timestamp="0x18287aa864a"
     d="m 62.17,22.365 h 30 30 30 30 30 60 60 30"
     id="path4" />
  <path
     class="write-stroke-pen"
     fill="none"
     stroke="#000000"
     stroke-width="2.4"
     stroke-linecap="round"
     stroke-linejoin="round"
     __comx="540"
     __comy="2039.6"
     __timestamp="0x18287aaa037"
     d="m 362.17,22.365 h 30 30 30 30 30 30"
     id="path6" />
  <path
     class="write-stroke-pen"
     fill="none"
     stroke="#000000"
     stroke-width="2.4"
     stroke-linecap="round"
     stroke-linejoin="round"
     __comx="630"
     __comy="2044.6"
     __timestamp="0x18287aaa453"
     d="m 542.17,22.365 v 30"
     id="path8" />
  <path
     class="write-stroke-pen"
     fill="none"
     stroke="#000000"
     stroke-width="2.4"
     stroke-linecap="round"
     stroke-linejoin="round"
     __comx="390"
     __comy="2069.6"
     __timestamp="0x18287aaafc4"
     d="m 62.17,52.365 h 30 30 30 30 30 30 30 30 30 30 30 30 30 30 30 30"
     id="path10" />
  <path
     class="write-stroke-pen"
     fill="none"
     stroke="#000000"
     stroke-width="2.4"
     stroke-linecap="round"
     stroke-linejoin="round"
     __comx="510"
     __comy="2069.6"
     __timestamp="0x18287aac9b9"
     d="m 422.17,52.365 v 0"
     id="path12" />
  <path
     class="write-stroke-pen"
     fill="none"
     stroke="#000000"
     stroke-width="2.4"
     stroke-linecap="round"
     stroke-linejoin="round"
     __comx="180"
     __comy="2055.938"
     __timestamp="0x18287ab6a5a"
     d="m 92.17,22.365 v 30"
     id="path14" />
  <path
     class="write-stroke-pen"
     fill="none"
     stroke="#000000"
     stroke-width="2.4"
     stroke-linecap="round"
     stroke-linejoin="round"
     __comx="210"
     __comy="2055.938"
     __timestamp="0x18287ab6c8d"
     d="m 122.17,22.365 v 30"
     id="path16" />
  <path
     class="write-stroke-pen"
     fill="none"
     stroke="#000000"
     stroke-width="2.4"
     stroke-linecap="round"
     stroke-linejoin="round"
     __comx="240"
     __comy="2055.938"
     __timestamp="0x18287ab6e78"
     d="m 152.17,22.365 v 30"
     id="path18" />
  <path
     class="write-stroke-pen"
     fill="none"
     stroke="#000000"
     stroke-width="2.4"
     stroke-linecap="round"
     stroke-linejoin="round"
     __comx="270"
     __comy="2055.938"
     __timestamp="0x18287ab703b"
     d="m 182.17,22.365 v 30"
     id="path20" />
  <path
     class="write-stroke-pen"
     fill="none"
     stroke="#000000"
     stroke-width="2.4"
     stroke-linecap="round"
     stroke-linejoin="round"
     __comx="300"
     __comy="2055.938"
     __timestamp="0x18287ab7230"
     d="m 212.17,52.365 v 0"
     id="path22" />
  <path
     class="write-stroke-pen"
     fill="none"
     stroke="#000000"
     stroke-width="2.4"
     stroke-linecap="round"
     stroke-linejoin="round"
     __comx="300"
     __comy="2055.938"
     __timestamp="0x18287ab7481"
     d="m 212.17,22.365 v 30"
     id="path24" />
  <path
     class="write-stroke-pen"
     fill="none"
     stroke="#000000"
     stroke-width="2.4"
     stroke-linecap="round"
     stroke-linejoin="round"
     __comx="330"
     __comy="2055.938"
     __timestamp="0x18287ab7625"
     d="m 242.17,22.365 v 30"
     id="path26" />
  <path
     class="write-stroke-pen"
     fill="none"
     stroke="#000000"
     stroke-width="2.4"
     stroke-linecap="round"
     stroke-linejoin="round"
     __comx="360"
     __comy="2055.938"
     __timestamp="0x18287ab788b"
     d="m 272.17,22.365 v 30"
     id="path28" />
  <path
     class="write-stroke-pen"
     fill="none"
     stroke="#000000"
     stroke-width="2.4"
     stroke-linecap="round"
     stroke-linejoin="round"
     __comx="390"
     __comy="2055.938"
     __timestamp="0x18287ab79f1"
     d="m 302.17,22.365 v 30"
     id="path30" />
  <path
     class="write-stroke-pen"
     fill="none"
     stroke="#000000"
     stroke-width="2.4"
     stroke-linecap="round"
     stroke-linejoin="round"
     __comx="420"
     __comy="2055.938"
     __timestamp="0x18287ab7b9f"
     d="m 332.17,22.365 v 30"
     id="path32" />
  <path
     class="write-stroke-pen"
     fill="none"
     stroke="#000000"
     stroke-width="2.4"
     stroke-linecap="round"
     stroke-linejoin="round"
     __comx="450"
     __comy="2055.938"
     __timestamp="0x18287ab7e4c"
     d="m 362.17,22.365 v 30"
     id="path34" />
  <path
     class="write-stroke-pen"
     fill="none"
     stroke="#000000"
     stroke-width="2.4"
     stroke-linecap="round"
     stroke-linejoin="round"
     __comx="480"
     __comy="2055.938"
     __timestamp="0x18287ab7fc7"
     d="m 392.17,22.365 v 30"
     id="path36" />
  <path
     class="write-stroke-pen"
     fill="none"
     stroke="#000000"
     stroke-width="2.4"
     stroke-linecap="round"
     stroke-linejoin="round"
     __comx="510"
     __comy="2055.938"
     __timestamp="0x18287ab816b"
     d="m 422.17,22.365 v 30"
     id="path38" />
  <path
     class="write-stroke-pen"
     fill="none"
     stroke="#000000"
     stroke-width="2.4"
     stroke-linecap="round"
     stroke-linejoin="round"
     __comx="540"
     __comy="2055.938"
     __timestamp="0x18287ab8337"
     d="m 452.17,22.365 v 30"
     id="path40" />
  <path
     class="write-stroke-pen"
     fill="none"
     stroke="#000000"
     stroke-width="2.4"
     stroke-linecap="round"
     stroke-linejoin="round"
     __comx="570"
     __comy="2055.938"
     __timestamp="0x18287ab85a7"
     d="m 482.17,22.365 v 30"
     id="path42" />
  <path
     class="write-stroke-pen"
     fill="none"
     stroke="#000000"
     stroke-width="2.4"
     stroke-linecap="round"
     stroke-linejoin="round"
     __comx="600"
     __comy="2055.938"
     __timestamp="0x18287ab872c"
     d="m 512.17,22.365 v 30"
     id="path44" />
  <path
     class="write-flat-pen"
     fill="#000000"
     fill-opacity="0.427"
     stroke-width="2.4"
     __comx="215.497"
     __comy="2052.953"
     __timestamp="0x18287ad46f6"
     d="m 127.185,28.116 0.689,-0.376 -1.117,-0.25 -0.191,0.064 -0.031,0.028 0.019,0.445 0.052,0.471 0.052,0.515 0.051,0.545 0.027,0.599 0.027,0.678 0.029,0.706 0.028,0.658 v 0.684 l 0.027,0.543 -0.027,0.493 0.002,0.328 -0.012,0.171 -0.002,0.081 h 0.012 l 1.968,0.051 -0.053,0.046 -0.221,-0.143 -0.323,-0.293 -0.043,-0.474 -0.875,0.079 0.043,0.474 -0.27,0.296 -0.212,0.293 -0.026,0.167 1.968,0.051 0.047,-0.121 0.048,-0.253 0.038,-0.322 0.003,-0.378 0.03,-0.547 -0.03,-0.6 v -0.676 l -0.03,-0.7 -0.029,-0.706 -0.032,-0.684 -0.032,-0.659 -0.066,-0.611 -0.065,-0.541 -0.063,-0.43 -0.041,-0.376 -0.062,-0.477 -0.385,-0.267 -1.117,-0.25 -0.598,0.508"
     id="path46" />
  <path
     class="write-flat-pen"
     fill="#000000"
     fill-opacity="0.427"
     stroke-width="2.4"
     __comx="216.895"
     __comy="2052.953"
     __timestamp="0x18287ad48c8"
     d="m 127.335,27.771 0.474,-0.582 0.131,-0.046 0.133,-0.031 0.251,-0.095 0.225,-0.05 0.315,-0.03 0.375,-0.011 0.296,-10e-4 0.114,0.05 0.097,0.079 0.04,0.07 0.065,0.168 0.027,0.218 0.017,0.343 -0.023,0.248 -0.077,0.246 -0.07,0.16 -0.127,0.131 -0.257,0.242 -0.198,0.171 -0.214,0.121 -0.271,0.144 -0.195,0.104 -0.223,0.065 -0.281,0.11 -0.078,0.033 -0.075,0.019 -0.033,0.028 v 0.112 l 0.776,1.033 -0.025,-0.038 0.176,-0.836 -1.619,-0.34 -0.176,0.836 -0.038,0.025 0.776,1.033 0.222,0.129 0.174,-0.01 h 0.241 l 0.373,-0.123 0.237,-0.091 0.345,-0.101 0.385,-0.209 0.3,-0.166 0.416,-0.249 0.379,-0.351 0.325,-0.337 0.383,-0.451 0.216,-0.57 0.148,-0.538 0.031,-0.584 -0.045,-0.555 -0.097,-0.557 -0.299,-0.621 -0.428,-0.489 -0.606,-0.33 -0.634,-0.146 -0.581,0.052 -0.438,0.044 -0.507,0.084 -0.473,0.168 -0.41,0.238 -0.323,0.254 -0.224,0.347 -0.441,0.702"
     id="path48" />
  <path
     class="write-flat-pen"
     fill="#000000"
     fill-opacity="0.427"
     stroke-width="2.4"
     __comx="221.275"
     __comy="2052.953"
     __timestamp="0x18287ad4a05"
     d="m 132.648,28.989 0.029,0.934 -0.034,0.322 0.032,0.429 0.038,0.415 0.038,0.441 0.018,0.411 -0.002,0.435 -0.024,0.376 -0.051,0.399 -0.043,0.301 -0.057,0.276 -0.04,0.204 -0.024,0.124 0.019,0.088 0.04,0.057 1.263,-0.157 -0.044,0.001 -0.579,-0.565 -1.095,1.121 0.579,0.565 10e-4,0.044 1.263,-0.157 0.129,-0.088 0.124,-0.147 0.128,-0.214 0.128,-0.357 0.112,-0.399 0.07,-0.415 0.063,-0.49 0.032,-0.505 -0.004,-0.562 -0.041,-0.53 -0.08,-0.509 -0.079,-0.429 -0.087,-0.39 -0.098,-0.29 -0.206,-0.93"
     id="path50" />
  <path
     class="write-flat-pen"
     fill="#000000"
     fill-opacity="0.427"
     stroke-width="2.4"
     __comx="221.28"
     __comy="2052.953"
     __timestamp="0x18287ad4ab1"
     d="m 132.461,27.257 0.735,0.512 0.25,-0.013 0.379,0.341 0.614,-0.682 -0.379,-0.341 -0.013,-0.25 -0.587,-0.677"
     id="path52" />
  <path
     class="write-flat-pen"
     fill="#000000"
     fill-opacity="0.427"
     stroke-width="2.4"
     __comx="225.795"
     __comy="2052.953"
     __timestamp="0x18287ad4bb6"
     d="m 135.146,27.987 0.345,1.056 0.248,0.437 0.276,0.463 0.378,0.472 0.454,0.461 0.445,0.447 0.409,0.428 0.432,0.468 0.333,0.346 0.239,0.33 0.266,0.299 0.086,0.073 0.081,0.033 0.058,-0.029 0.025,-0.321 0.362,-0.276 0.07,0.186 -0.486,0.098 0.175,0.869 0.486,-0.098 0.454,0.108 0.494,-0.437 0.009,-0.448 -0.004,-0.251 -0.099,-0.364 -0.183,-0.31 -0.25,-0.324 -0.279,-0.391 -0.417,-0.433 -0.44,-0.473 -0.461,-0.46 -0.486,-0.444 -0.422,-0.382 -0.321,-0.318 -0.32,-0.34 -0.217,-0.181 -0.346,-0.81"
     id="path54" />
  <path
     class="write-flat-pen"
     fill="#000000"
     fill-opacity="0.427"
     stroke-width="2.4"
     __comx="225.679"
     __comy="2052.953"
     __timestamp="0x18287ad4cb0"
     d="m 139.61,27.169 -0.808,0.712 -0.392,0.315 -0.373,0.43 -0.395,0.452 -0.483,0.579 -0.433,0.643 -0.454,0.63 -0.437,0.603 -0.364,0.524 -0.264,0.45 -0.213,0.424 -0.013,0.412 0.101,0.341 0.159,0.247 -0.027,0.584 1.057,0.05 0.027,-0.584 0.175,-0.093 0.215,-0.117 0.112,-0.083 0.12,-0.125 0.254,-0.376 0.329,-0.464 0.433,-0.598 0.476,-0.679 0.381,-0.613 0.392,-0.523 0.364,-0.495 0.279,-0.417 0.214,-0.337 0.675,-0.816"
     id="path56" />
  <path
     class="write-flat-pen"
     fill="#000000"
     fill-opacity="0.427"
     stroke-width="2.4"
     __comx="636.896"
     __comy="2052.953"
     __timestamp="0x18287ad5685"
     d="m 548.237,26.928 -0.057,0.945 -0.082,0.446 -0.051,0.606 0.005,0.719 0.041,0.758 0.016,0.766 0.021,0.812 0.025,0.714 v 0.635 l -0.029,0.571 0.004,0.424 -0.007,0.297 0.021,0.136 0.035,0.141 0.12,-0.622 1.466,0.058 -0.094,0.623 -0.017,-0.714 -1.333,0.033 0.017,0.714 -0.089,0.842 1.472,0.058 0.131,-0.75 0.08,-0.085 0.07,-0.236 0.048,-0.419 0.005,-0.449 0.029,-0.572 v -0.722 l -0.033,-0.748 -0.037,-0.809 -0.042,-0.803 -0.075,-0.761 -0.053,-0.647 -0.051,-0.568 -0.082,-0.446 -0.057,-0.945"
     id="path58" />
  <path
     class="write-flat-pen"
     fill="#000000"
     fill-opacity="0.427"
     stroke-width="2.4"
     __comx="638.388"
     __comy="2052.953"
     __timestamp="0x18287ad57c1"
     d="m 548.748,28.212 0.603,-0.615 0.256,-0.151 0.257,-0.098 0.265,-0.055 h 0.189 l 0.206,0.082 0.23,0.131 0.199,0.195 0.187,0.259 0.137,0.235 0.049,0.165 0.029,0.2 -0.004,0.042 0.025,-0.097 -0.049,0.069 -0.21,0.178 -0.396,0.331 -0.393,0.303 -0.437,0.342 -0.425,0.342 -0.297,0.295 -0.241,0.285 -0.149,0.318 -0.068,0.295 0.071,0.272 -0.121,0.652 1.166,0.217 0.121,-0.652 0.115,0.036 0.035,0.129 0.131,-0.02 0.208,-0.12 0.27,-0.214 0.385,-0.283 0.438,-0.341 0.419,-0.324 0.431,-0.361 0.43,-0.365 0.353,-0.541 0.167,-0.558 -0.066,-0.522 -0.091,-0.414 -0.185,-0.496 -0.327,-0.491 -0.396,-0.467 -0.566,-0.43 -0.583,-0.23 -0.669,-0.167 -0.683,0.11 -0.546,0.212 -0.501,0.333 -0.35,0.407 -0.581,0.729"
     id="path60" />
  <path
     class="write-flat-pen"
     fill="#000000"
     fill-opacity="0.427"
     stroke-width="2.4"
     __comx="643.22"
     __comy="2052.953"
     __timestamp="0x18287ad58fe"
     d="m 554.802,30.596 -0.339,1.188 -0.071,0.518 -0.044,0.544 -0.009,0.553 -0.031,0.464 -0.028,0.461 -0.024,0.374 -0.013,0.312 v 0.25 l 0.049,0.193 0.078,0.035 0.094,0.054 -0.131,0.789 1.421,0.236 0.131,-0.789 0.128,-0.147 0.08,-0.147 0.056,-0.086 0.052,-0.188 0.044,-0.355 0.032,-0.396 0.029,-0.477 0.026,-0.524 -0.008,-0.551 0.016,-0.464 0.002,-0.359 0.195,-1.077"
     id="path62" />
  <path
     class="write-flat-pen"
     fill="#000000"
     fill-opacity="0.427"
     stroke-width="2.4"
     __comx="643.043"
     __comy="2052.953"
     __timestamp="0x18287ad59ac"
     d="m 554.154,28.07 0.723,0.801 0.359,0.059 0.353,0.037 0.184,0.282 0.501,-0.326 -0.184,-0.282 0.052,-0.424 -0.064,-0.389 -0.581,-0.83"
     id="path64" />
  <path
     class="write-flat-pen"
     fill="#000000"
     fill-opacity="0.427"
     stroke-width="2.4"
     __comx="647.973"
     __comy="2052.953"
     __timestamp="0x18287ad5aa2"
     d="m 557.122,30.712 0.63,0.94 0.284,0.401 0.32,0.431 0.403,0.465 0.445,0.491 0.512,0.524 0.561,0.539 0.475,0.379 0.307,0.318 0.208,0.237 0.111,0.13 0.07,0.036 0.08,0.028 0.12,0.068 0.266,0.678 1.25,-0.346 -0.121,-0.718 0.068,-0.119 0.019,-0.192 -0.101,-0.349 -0.227,-0.371 -0.303,-0.375 -0.444,-0.46 -0.509,-0.403 -0.485,-0.455 -0.478,-0.472 -0.429,-0.452 -0.415,-0.429 -0.388,-0.365 -0.314,-0.258 -0.634,-0.82"
     id="path66" />
  <path
     class="write-flat-pen"
     fill="#000000"
     fill-opacity="0.427"
     stroke-width="2.4"
     __comx="648.156"
     __comy="2052.953"
     __timestamp="0x18287ad5b77"
     d="m 562.551,29.059 -0.931,0.373 -0.387,0.176 -0.415,0.339 -0.405,0.492 -0.374,0.524 -0.402,0.593 -0.452,0.61 -0.427,0.595 -0.449,0.548 -0.364,0.555 -0.357,0.577 -0.079,0.758 -0.108,0.687 -0.008,0.01 0.008,0.01 0.006,-0.01 0.647,-0.254 0.674,-0.18 0.571,-0.364 0.506,-0.488 0.538,-0.549 0.502,-0.66 0.478,-0.646 0.415,-0.615 0.328,-0.475 0.257,-0.363 0.145,-0.201 0.057,-0.14 0.737,-0.44"
     id="path68" />
  <path
     class="write-flat-pen"
     fill="#0000ff"
     fill-opacity="1"
     stroke-width="2.4"
     __comx="605.066"
     __comy="2052.953"
     __timestamp="0x18287ad672f"
     d="m 515.952,26.574 0.054,1.138 0.059,0.519 0.155,0.662 0.071,0.64 0.078,0.708 0.05,0.704 -0.028,0.745 v 0.701 l -0.027,0.625 -0.027,0.536 -0.021,0.446 -0.013,0.262 -0.005,0.218 0.027,0.131 1.555,0.827 0.173,-0.218 0.007,-0.53 -0.189,-0.584 0.108,-0.223 -0.409,-0.198 -0.108,0.223 -0.558,0.18 -0.238,-0.09 0.055,-0.132 1.555,0.827 0.034,-0.037 0.046,-0.164 0.041,-0.333 0.036,-0.485 0.03,-0.554 0.03,-0.68 V 31.73 l 0.029,-0.823 -0.067,-0.866 -0.096,-0.757 -0.104,-0.772 -0.197,-0.717 -0.124,-0.458 -0.406,-1.085"
     id="path70" />
  <path
     class="write-flat-pen"
     fill="#0000ff"
     fill-opacity="1"
     stroke-width="2.4"
     __comx="606.616"
     __comy="2052.953"
     __timestamp="0x18287ad685b"
     d="m 517.155,27.859 0.38,-0.858 0.152,-0.175 0.227,-0.165 0.338,-0.142 0.367,-0.057 0.295,0.039 0.249,0.128 0.222,0.216 0.212,0.336 0.121,0.355 0.05,0.378 -0.008,0.321 -0.059,0.268 -0.075,0.188 -0.147,0.207 -0.197,0.212 -0.174,0.143 -0.306,0.152 -0.32,0.19 -0.201,0.087 -0.229,0.08 -0.151,0.077 -0.148,0.065 -0.13,0.154 -0.756,0.419 0.639,1.436 0.817,-0.281 0.031,0.083 0.11,0.01 0.236,-0.068 0.271,-0.075 0.423,-0.174 0.376,-0.224 0.446,-0.222 0.459,-0.382 0.378,-0.415 0.371,-0.534 0.208,-0.591 0.11,-0.615 -0.01,-0.666 -0.126,-0.717 -0.287,-0.739 -0.49,-0.71 -0.651,-0.564 -0.857,-0.339 -0.865,-0.01 -0.794,0.208 -0.712,0.389 -0.533,0.537 -0.26,0.537 -0.328,1.01"
     id="path72" />
  <path
     class="write-flat-pen"
     fill="#0000ff"
     fill-opacity="1"
     stroke-width="2.4"
     __comx="610.762"
     __comy="2052.953"
     __timestamp="0x18287ad6945"
     d="m 522.35,29.43 -0.262,1.181 -0.101,0.415 -0.102,0.421 -0.065,0.478 -0.067,0.479 0.003,0.458 0.018,0.355 0.011,0.333 0.071,0.244 0.089,0.072 0.164,0.187 0.086,0.211 -0.228,0.344 0.598,0.395 0.228,-0.344 0.293,-0.103 0.326,-0.232 0.184,-0.317 0.075,-0.375 0.065,-0.335 0.019,-0.429 0.008,-0.32 0.049,-0.353 0.054,-0.414 0.071,-0.418 0.022,-0.456 0.151,-1.169"
     id="path74" />
  <path
     class="write-flat-pen"
     fill="#0000ff"
     fill-opacity="1"
     stroke-width="2.4"
     __comx="610.937"
     __comy="2052.953"
     __timestamp="0x18287ad69dd"
     d="m 522.335,27.024 0.153,0.931 0.256,0.236 0.331,0.155 0.117,0.318 0.552,-0.203 -0.117,-0.318 0.153,-0.327 0.098,-0.206 -0.098,-0.795"
     id="path76" />
  <path
     class="write-flat-pen"
     fill="#0000ff"
     fill-opacity="1"
     stroke-width="2.4"
     __comx="616.029"
     __comy="2052.953"
     __timestamp="0x18287ad6ac4"
     d="m 525.678,28.142 0.693,0.939 0.285,0.454 0.337,0.475 0.399,0.513 0.369,0.47 0.356,0.449 0.295,0.423 0.197,0.372 0.132,0.39 0.07,0.318 0.037,0.351 0.03,0.262 0.024,0.127 0.073,0.01 0.371,-0.311 0.321,0.143 -0.652,-0.129 -0.238,1.198 0.652,0.129 0.474,0.173 0.492,-0.464 0.174,-0.329 0.125,-0.364 0.028,-0.512 -0.025,-0.535 -0.104,-0.558 -0.219,-0.654 -0.326,-0.617 -0.403,-0.57 -0.399,-0.492 -0.385,-0.469 -0.417,-0.485 -0.363,-0.417 -0.372,-0.404 -0.79,-0.891"
     id="path78" />
  <path
     class="write-flat-pen"
     fill="#0000ff"
     fill-opacity="1"
     stroke-width="2.4"
     __comx="615.808"
     __comy="2052.953"
     __timestamp="0x18287ad6b86"
     d="m 529.28,27.876 -0.967,0.672 -0.482,0.381 -0.445,0.514 -0.43,0.547 -0.43,0.608 -0.407,0.642 -0.279,0.645 -0.156,0.576 -0.041,0.605 0.19,0.806 -0.006,0.01 0.011,0.01 0.006,-0.01 0.83,-0.242 0.482,-0.44 0.365,-0.466 0.302,-0.503 0.348,-0.507 0.384,-0.543 0.385,-0.502 0.321,-0.435 0.253,-0.326 0.802,-0.747"
     id="path80" />
  <path
     class="write-flat-pen"
     fill="#000000"
     fill-opacity="0.427"
     stroke-width="2.4"
     __comx="579.069"
     __comy="2061.124"
     __timestamp="0x18287ad7b6f"
     d="m 490.157,43.35 -0.079,0.796 -0.05,0.076 -0.021,0.092 -0.008,0.147 0.078,0.46 0.542,0.472 0.429,0.103 0.283,-0.014 0.407,-0.064 0.345,-0.298 0.183,-0.246 0.098,-0.216 0.074,-0.204 0.044,-0.25 -0.026,-0.353 -0.148,-0.37 -0.291,-0.306 -0.237,-0.136 0.415,0.305 -0.388,1.119 -0.442,-0.092 0.71,-0.02 -0.037,-1.319 -0.71,0.02 -0.651,-0.086 -0.408,1.18 0.637,0.42 -0.03,-0.01 -0.098,-0.102 -0.08,-0.201 -0.01,-0.139 0.02,-0.11 0.004,-0.01 0.014,-0.029 0.049,-0.064 0.184,-0.158 0.181,-0.028 h 0.065 l 0.241,0.058 0.251,0.219 0.05,0.306 -0.008,0.01 -0.021,-0.092 -0.05,-0.076 -0.079,-0.796"
     id="path82" />
  <path
     class="write-flat-pen"
     fill="#000000"
     fill-opacity="0.427"
     stroke-width="2.4"
     __comx="584.051"
     __comy="2060.434"
     __timestamp="0x18287ad7d20"
     d="m 496.138,42.492 -0.674,0.564 -0.132,0.108 -0.099,0.114 -0.128,0.168 -0.222,0.668 0.533,0.639 0.447,0.159 h 0.441 l 0.489,-0.159 0.27,-0.229 0.137,-0.144 0.217,-0.24 0.142,-0.381 -0.001,-0.322 -0.074,-0.399 -0.384,-0.452 -0.279,-0.162 -0.282,-0.095 -0.427,-0.05 -0.439,0.171 -0.295,0.23 -0.28,0.516 0.09,0.522 0.315,0.358 0.444,0.032 0.281,0.202 0.346,-0.483 -0.281,-0.202 0.067,-0.238 0.198,0.085 0.102,0.29 -0.056,0.22 -0.114,0.11 -0.184,0.082 -0.205,-0.02 -0.067,-0.02 -0.151,-0.087 -0.144,-0.172 -0.045,-0.249 10e-4,-0.179 0.098,-0.261 0.041,-0.037 -0.041,0.048 0.085,-0.07 0.117,-0.037 0.159,10e-4 0.327,0.117 0.426,0.511 -0.179,0.536 -0.022,0.017 0.027,-0.079 -0.028,-0.018 0.502,-0.631"
     id="path84" />
  <path
     class="write-flat-pen"
     fill="#000000"
     fill-opacity="0.427"
     stroke-width="2.4"
     __comx="588.944"
     __comy="2061.11"
     __timestamp="0x18287ad7e5d"
     d="m 499.468,44.12 0.518,0.759 0.259,0.255 0.401,0.169 0.285,0.06 0.285,0.05 0.239,-0.017 0.302,-0.036 0.363,-0.159 0.339,-0.282 0.302,-0.587 -0.065,-0.558 -0.093,-0.297 -0.158,-0.299 -0.192,-0.223 -0.169,-0.135 -0.236,-0.154 -0.241,0.01 0.287,1.544 0.01,-0.078 0.675,-0.524 -1.015,-1.309 -0.675,0.524 -0.078,-0.01 0.287,1.544 -0.089,0.056 -0.074,-0.043 -0.022,-0.018 -0.05,-0.061 -0.006,-0.03 -0.006,-0.051 -0.015,-0.194 0.131,-0.232 0.144,-0.107 0.118,-0.042 0.01,0.01 h 0.029 -0.052 l -0.118,-0.012 -0.007,0.018 0.062,0.093 -0.479,-0.552"
     id="path86" />
  <path
     class="write-flat-pen"
     fill="#000000"
     fill-opacity="0.427"
     stroke-width="2.4"
     __comx="665.437"
     __comy="2054.901"
     __timestamp="0x18287ad8a0e"
     d="m 576.843,27.082 0.05,1.19 0.008,0.57 0.04,0.651 0.009,0.737 0.012,0.766 -0.011,0.746 -0.033,0.662 -0.083,0.569 -0.081,0.521 -0.107,0.431 -0.094,0.419 -0.054,0.312 -0.038,0.163 -0.19,0.885 1.328,0.634 0.591,-0.752 -0.038,-0.471 0.279,-0.493 -0.915,-0.517 -0.279,0.493 -0.298,-0.01 0.355,-0.538 1.256,0.597 -0.138,0.66 0.063,-0.217 0.061,-0.353 0.078,-0.351 0.122,-0.5 0.093,-0.625 0.09,-0.681 0.024,-0.8 -0.011,-0.822 -0.046,-0.803 -0.05,-0.784 -0.076,-0.664 -0.054,-0.567 -0.164,-1.211"
     id="path88" />
  <path
     class="write-flat-pen"
     fill="#000000"
     fill-opacity="0.427"
     stroke-width="2.4"
     __comx="667.208"
     __comy="2054.901"
     __timestamp="0x18287ad8b62"
     d="m 578.239,27.559 0.684,-0.537 0.265,-0.086 0.303,-0.085 0.241,-0.032 0.233,0.035 0.146,0.076 0.069,0.095 0.023,0.069 0.025,0.165 0.003,0.248 -0.057,0.238 -0.115,0.332 -0.126,0.243 -0.228,0.252 -0.236,0.243 -0.235,0.157 -0.263,0.158 -0.266,0.111 -0.292,0.089 -0.305,0.092 -0.222,0.057 -0.263,0.09 -0.289,0.149 -0.688,0.686 0.641,0.664 0.383,0.587 1.106,-0.721 -0.383,-0.587 0.451,0.373 -0.562,0.578 -0.084,0.069 h 0.121 l 0.272,-0.046 0.391,-0.117 0.394,-0.121 0.487,-0.207 0.43,-0.261 0.452,-0.313 0.401,-0.435 0.407,-0.486 0.277,-0.595 0.174,-0.565 0.109,-0.596 -0.062,-0.648 -0.165,-0.619 -0.388,-0.544 -0.574,-0.415 -0.667,-0.177 -0.642,-0.01 -0.568,0.13 -0.522,0.242 -0.395,0.308 -0.739,0.636"
     id="path90" />
  <path
     class="write-flat-pen"
     fill="#000000"
     fill-opacity="0.427"
     stroke-width="2.4"
     __comx="670.34"
     __comy="2054.901"
     __timestamp="0x18287ad8c8e"
     d="m 582.187,30.547 -0.203,1.011 -0.121,0.401 -0.083,0.453 -0.095,0.434 -0.066,0.436 -0.063,0.416 -0.029,0.348 -0.045,0.253 -0.033,0.196 -0.047,0.188 -0.055,0.215 -0.021,0.203 -0.027,0.287 0.053,0.247 0.092,0.159 0.099,0.158 -0.094,0.415 0.686,0.155 0.094,-0.415 0.156,-0.097 0.149,-0.087 0.126,-0.043 0.145,-0.074 0.144,-0.141 0.166,-0.244 0.176,-0.394 0.08,-0.371 0.064,-0.362 0.031,-0.377 0.053,-0.363 0.051,-0.395 0.077,-0.452 0.036,-0.504 -10e-4,-0.423 0.041,-1.053"
     id="path92" />
  <path
     class="write-flat-pen"
     fill="#000000"
     fill-opacity="0.427"
     stroke-width="2.4"
     __comx="671.635"
     __comy="2054.901"
     __timestamp="0x18287ad8d45"
     d="m 583.097,27.603 0.004,0.957 0.29,0.31 0.384,0.285 0.016,0.094 0.127,-0.022 -0.016,-0.094 0.271,-0.364 0.244,-0.232 0.095,-0.864"
     id="path94" />
  <path
     class="write-flat-pen"
     fill="#000000"
     fill-opacity="0.427"
     stroke-width="2.4"
     __comx="676.197"
     __comy="2054.901"
     __timestamp="0x18287ad8e3f"
     d="m 585.939,29.562 0.531,1.037 0.23,0.482 0.277,0.546 0.264,0.56 0.317,0.641 0.325,0.617 0.322,0.583 0.3,0.543 0.243,0.39 0.122,0.248 0.07,0.192 0.068,0.143 0.066,0.04 0.093,-0.424 0.402,-0.162 -0.654,0.35 0.656,1.226 0.654,-0.35 0.485,-0.206 0.078,-0.665 0.007,-0.245 -0.042,-0.246 -0.101,-0.355 -0.223,-0.47 -0.273,-0.438 -0.279,-0.499 -0.317,-0.566 -0.314,-0.584 -0.324,-0.616 -0.318,-0.591 -0.367,-0.561 -0.307,-0.433 -0.628,-0.973"
     id="path96" />
  <path
     class="write-flat-pen"
     fill="#000000"
     fill-opacity="0.427"
     stroke-width="2.4"
     __comx="676.367"
     __comy="2054.901"
     __timestamp="0x18287ad8f18"
     d="m 590.717,29.683 -0.971,0.319 -0.486,0.273 -0.407,0.423 -0.417,0.479 -0.428,0.554 -0.426,0.557 -0.476,0.588 -0.408,0.576 -0.399,0.518 -0.265,0.562 -0.143,0.476 -0.069,0.543 0.232,0.754 -0.26,0.604 -0.009,0.01 0.008,0.01 0.002,-0.01 0.439,-0.5 0.757,-0.245 0.398,-0.348 0.318,-0.354 0.256,-0.373 0.352,-0.419 0.405,-0.573 0.454,-0.563 0.446,-0.595 0.389,-0.548 0.348,-0.474 0.208,-0.329 0.034,-0.147 0.691,-0.367"
     id="path98" />
  <path
     class="write-flat-pen"
     fill="#000000"
     fill-opacity="0.427"
     stroke-width="2.4"
     __comx="223.214"
     __comy="2063.317"
     __timestamp="0x18287c5aee0"
     d="m 134.639,44.813 0.047,0.943 0.007,0.362 -0.027,0.379 -0.024,0.374 -0.005,0.327 -0.019,0.302 -0.024,0.242 -0.013,0.244 -0.033,0.293 0.043,0.239 0.102,0.305 0.077,0.199 -0.07,0.201 0.323,0.112 0.07,-0.201 0.168,-0.062 0.324,-0.108 0.224,-0.255 0.152,-0.292 0.166,-0.337 0.067,-0.424 0.026,-0.409 -0.005,-0.378 -0.025,-0.418 -0.076,-0.466 -0.086,-0.368 -0.096,-0.906"
     id="path100" />
  <path
     class="write-flat-pen"
     fill="#000000"
     fill-opacity="0.427"
     stroke-width="2.4"
     __comx="227.868"
     __comy="2058.223"
     __timestamp="0x18287c5b0a2"
     d="m 138.759,40.004 -0.714,0.408 -0.273,0.245 -0.283,0.357 -0.232,0.512 -0.156,0.627 -0.111,0.732 -0.056,0.799 -0.028,0.869 0.104,0.915 0.184,0.874 0.305,0.821 0.418,0.698 0.541,0.543 0.596,0.358 0.653,0.194 0.722,-0.041 0.644,-0.26 0.539,-0.392 0.457,-0.546 0.378,-0.622 0.278,-0.738 0.218,-0.789 0.139,-0.799 0.088,-0.866 -0.044,-0.892 -0.149,-0.858 -0.25,-0.836 -0.291,-0.769 -0.311,-0.694 -0.378,-0.576 -0.474,-0.519 -0.618,-0.325 -0.718,-0.071 -0.72,0.184 -0.65,0.48 -0.312,0.812 -0.2,0.724 h -0.007 l 0.008,0.01 v -0.01 l 0.637,-0.321 0.666,-0.109 0.379,-0.064 0.214,0.021 0.119,0.061 0.07,0.05 0.173,0.189 0.224,0.342 0.246,0.518 0.266,0.653 0.215,0.67 0.129,0.648 0.049,0.655 -0.051,0.682 -0.093,0.665 -0.155,0.634 -0.188,0.518 -0.228,0.383 -0.245,0.293 -0.207,0.15 -0.194,0.071 h -0.161 l -0.178,-0.058 -0.236,-0.143 -0.247,-0.25 -0.231,-0.388 -0.206,-0.558 -0.142,-0.674 -0.082,-0.716 0.019,-0.721 0.037,-0.708 0.076,-0.61 0.081,-0.47 0.063,-0.304 0.028,-0.167 -0.008,-0.041 0.534,-0.333"
     id="path102" />
  <path
     class="write-flat-pen"
     fill="#000000"
     fill-opacity="0.427"
     stroke-width="2.4"
     __comx="636.103"
     __comy="2061.019"
     __timestamp="0x18287c5b799"
     d="m 546.296,45.928 0.766,-0.462 0.331,-0.206 0.392,-0.346 0.393,-0.485 0.384,-0.495 0.415,-0.568 0.399,-0.605 0.337,-0.603 0.245,-0.561 0.127,-0.433 0.11,-0.341 0.033,-0.213 0.009,-0.028 0.012,-0.016 -1.613,-0.265 -0.023,0.144 -0.017,0.379 -0.016,0.576 -0.015,0.713 -0.01,0.795 -0.008,0.833 0.095,0.76 0.071,0.678 0.122,0.619 0.079,0.437 0.023,0.431 0.075,0.427 0.046,0.363 0.071,0.378 0.121,0.253 0.114,0.166 0.173,0.268 0.271,0.145 0.192,0.018 0.368,0.358 0.643,-0.66 -0.368,-0.358 0.018,-0.152 0.124,-0.03 0.089,-0.01 0.023,-0.194 -0.009,-0.189 -0.02,-0.239 -0.047,-0.386 -0.063,-0.364 -0.024,-0.442 -0.106,-0.564 -0.11,-0.551 -0.069,-0.618 -0.091,-0.662 -0.008,-0.715 -0.01,-0.795 -0.015,-0.713 -0.016,-0.574 -0.016,-0.347 -0.013,-0.115 -1.613,-0.265 -0.019,0.09 -0.027,0.149 -0.014,0.128 -0.07,0.228 -0.104,0.353 -0.172,0.397 -0.266,0.484 -0.345,0.524 -0.376,0.521 -0.361,0.468 -0.312,0.4 -0.231,0.253 -0.169,0.19 -0.674,0.488"
     id="path104" />
  <path
     class="write-flat-pen"
     fill="#000000"
     fill-opacity="0.427"
     stroke-width="2.4"
     __comx="642.02"
     __comy="2064.697"
     __timestamp="0x18287c5b893"
     d="m 553.358,46.367 0.065,0.867 -0.042,0.237 -0.023,0.29 -0.008,0.316 -0.002,0.314 v 0.282 l -0.013,0.289 0.033,0.233 0.052,0.178 0.086,0.226 0.113,0.119 0.073,0.074 -10e-4,0.517 0.914,0.001 10e-4,-0.517 0.073,-0.072 0.114,-0.108 0.092,-0.146 0.091,-0.178 0.036,-0.258 0.031,-0.292 v -0.346 l -0.002,-0.314 -0.008,-0.317 -0.023,-0.303 -0.051,-0.334 -0.168,-0.941"
     id="path106" />
  <path
     class="write-flat-pen"
     fill="#000000"
     fill-opacity="0.427"
     stroke-width="2.4"
     __comx="647.811"
     __comy="2059.615"
     __timestamp="0x18287c5ba98"
     d="m 559.267,41.221 -1.068,-0.208 -0.573,0.368 -0.323,0.515 -0.197,0.642 -0.185,0.77 -0.134,0.936 -0.053,0.961 -0.001,0.974 0.106,0.965 0.252,0.881 0.357,0.749 0.51,0.642 0.612,0.391 0.622,0.219 0.703,0.064 0.693,-0.164 0.614,-0.306 0.578,-0.491 0.471,-0.606 0.403,-0.697 0.276,-0.817 0.184,-0.78 0.113,-0.872 -0.025,-0.88 -0.128,-0.85 -0.215,-0.875 -0.355,-0.795 -0.406,-0.69 -0.517,-0.647 -0.723,-0.425 -0.782,-0.196 -0.831,0.117 -0.763,0.4 -0.679,0.626 -0.329,0.967 -0.326,0.695 -0.007,10e-4 0.008,0.01 v -0.01 l 0.603,-0.434 0.88,-0.163 0.624,-0.211 0.449,-0.102 0.24,-0.01 0.191,0.056 0.203,0.119 0.225,0.272 0.29,0.481 0.248,0.543 0.157,0.631 0.104,0.656 0.021,0.625 -0.073,0.634 -0.141,0.6 -0.19,0.564 -0.249,0.433 -0.275,0.357 -0.264,0.221 -0.225,0.11 -0.192,0.041 -0.179,-0.023 -0.211,-0.075 -0.172,-0.11 -0.185,-0.235 -0.199,-0.421 -0.166,-0.583 -0.08,-0.708 -10e-4,-0.824 0.04,-0.837 0.099,-0.78 0.141,-0.657 0.096,-0.427 -0.003,-0.089 -0.292,0.136 0.437,-0.022"
     id="path108" />
  <path
     class="write-flat-pen"
     fill="#0000ff"
     fill-opacity="1"
     stroke-width="2.4"
     __comx="606.784"
     __comy="2059.837"
     __timestamp="0x18287c5c1aa"
     d="m 519.264,42.736 -0.712,-0.034 -0.139,-0.037 -0.166,-0.038 -0.181,-0.043 -0.163,-0.035 -0.125,-0.061 -0.078,-0.058 -0.092,-0.095 -0.114,-0.148 -0.07,-0.161 -0.053,-0.238 -0.031,-0.235 0.055,-0.206 0.116,-0.255 0.174,-0.235 0.225,-0.205 0.21,-0.137 0.171,-0.073 -0.002,-10e-4 -0.146,-0.046 0.049,0.058 0.144,0.26 0.141,0.516 0.116,0.664 0.034,0.729 -0.067,0.773 -0.176,0.828 -0.256,0.812 -0.37,0.841 -0.378,0.78 -0.372,0.666 -0.324,0.506 -0.25,0.357 -0.161,0.201 -0.035,0.058 h 0.056 l 1.253,0.868 -0.095,0.091 -0.044,0.013 0.214,-0.153 0.274,-0.165 0.258,-0.088 0.333,-0.077 0.298,-0.045 h 0.302 l 0.395,-0.032 0.355,-0.014 0.398,0.001 h 0.343 l 0.323,-0.01 0.221,-0.023 0.122,-0.045 0.079,-0.073 -0.004,-0.062 0.062,-0.053 0.565,0.138 0.244,-1.002 -0.565,-0.138 -0.067,-0.085 -0.122,-0.083 -0.191,-0.073 -0.122,-0.045 -0.221,-0.023 -0.323,-0.01 h -0.344 -0.441 l -0.435,0.029 -0.402,0.051 -0.389,0.04 -0.444,0.123 -0.412,0.134 -0.433,0.165 -0.433,0.261 -0.361,0.248 -0.341,0.311 -0.136,0.231 1.253,0.868 0.154,-0.074 0.177,-0.209 0.194,-0.239 0.303,-0.432 0.372,-0.58 0.418,-0.756 0.412,-0.851 0.42,-0.958 0.301,-0.987 0.196,-1.013 0.073,-0.984 -0.059,-0.944 -0.163,-0.843 -0.234,-0.785 -0.382,-0.628 -0.492,-0.442 -0.601,-0.189 -0.548,0.127 -0.422,0.177 -0.434,0.28 -0.423,0.382 -0.382,0.478 -0.254,0.541 -0.172,0.632 0.065,0.609 0.091,0.471 0.216,0.508 0.315,0.401 0.332,0.316 0.439,0.227 0.452,0.101 0.312,0.01 0.25,-0.01 0.226,-0.038 0.139,-0.037 0.712,-0.034"
     id="path110" />
  <path
     class="write-flat-pen"
     fill="#0000ff"
     fill-opacity="1"
     stroke-width="2.4"
     __comx="611.73"
     __comy="2064.5"
     __timestamp="0x18287c5c289"
     d="m 523.276,45.984 -0.039,0.922 -0.062,0.351 -0.042,0.424 -0.06,0.342 -0.051,0.389 -0.022,0.271 -0.038,0.279 0.006,0.222 0.04,0.225 0.063,0.109 0.081,0.083 0.061,0.083 -0.141,0.567 1.015,0.252 0.141,-0.567 0.099,-0.071 0.119,-0.106 0.103,-0.156 0.088,-0.238 0.051,-0.172 0.052,-0.307 0.024,-0.298 0.041,-0.361 0.031,-0.449 -0.04,-0.471 -0.017,-0.355 -0.039,-0.97"
     id="path112" />
  <path
     class="write-flat-pen"
     fill="#0000ff"
     fill-opacity="1"
     stroke-width="2.4"
     __comx="616.849"
     __comy="2058.261"
     __timestamp="0x18287c5c42a"
     d="m 528.288,39.213 -0.795,0.469 -0.362,0.298 -0.362,0.527 -0.204,0.683 -0.189,0.794 -0.111,0.967 -0.029,0.993 0.048,1.013 0.164,0.94 0.333,0.873 0.503,0.681 0.581,0.524 0.62,0.311 0.699,0.174 0.794,-0.121 0.62,-0.43 0.464,-0.589 0.356,-0.639 0.352,-0.753 0.221,-0.816 0.137,-0.854 0.003,-0.882 -0.142,-0.871 -0.286,-0.802 -0.377,-0.696 -0.521,-0.617 -0.652,-0.425 -0.778,-0.215 -0.806,0.03 -0.803,0.289 -0.737,0.47 -0.628,0.689 -0.485,0.802 -0.007,-10e-4 0.006,0.01 0.002,-0.01 0.909,-0.118 0.814,-0.147 0.658,-0.116 0.501,-0.045 0.31,0.032 0.245,0.08 0.18,0.118 0.222,0.261 0.227,0.39 0.178,0.494 0.09,0.551 0.003,0.582 -0.096,0.61 -0.152,0.564 -0.253,0.545 -0.251,0.451 -0.197,0.252 -0.033,0.023 h 0.007 l -0.133,-0.036 -0.211,-0.106 -0.254,-0.228 -0.239,-0.322 -0.178,-0.465 -0.114,-0.649 -0.045,-0.827 0.017,-0.848 0.075,-0.791 0.137,-0.673 0.082,-0.458 0.039,-0.208 0.005,-0.09 0.604,-0.423"
     id="path114" />
  <path
     class="write-flat-pen"
     fill="#000000"
     fill-opacity="0.427"
     stroke-width="2.4"
     __comx="673.219"
     __comy="2064.158"
     __timestamp="0x18287c5d28d"
     d="m 584.586,47.227 0.035,1.201 -0.029,0.593 -0.042,0.639 -0.042,0.669 v 0.625 l -0.02,0.566 0.005,0.561 0.065,0.452 0.087,0.35 0.121,0.302 0.152,0.179 -0.048,0.4 0.732,0.088 0.048,-0.4 0.193,-0.163 0.166,-0.314 0.132,-0.393 0.065,-0.463 0.051,-0.525 0.026,-0.604 v -0.629 l 0.005,-0.67 -0.042,-0.701 -0.076,-0.63 -0.087,-1.208"
     id="path116" />
  <path
     class="write-flat-pen"
     fill="#000000"
     fill-opacity="0.427"
     stroke-width="2.4"
     __comx="677.681"
     __comy="2064.158"
     __timestamp="0x18287c5d44f"
     d="m 588.1,41.848 -0.396,1.002 -0.193,0.607 -0.1,0.781 -0.065,0.963 0.043,0.988 0.101,0.964 0.212,0.848 0.287,0.722 0.379,0.57 0.475,0.459 0.629,0.261 0.7,-0.018 0.604,-0.268 0.483,-0.442 0.435,-0.584 0.289,-0.674 0.22,-0.72 0.149,-0.825 0.005,-0.838 -0.066,-0.837 -0.212,-0.838 -0.297,-0.803 -0.428,-0.723 -0.437,-0.601 -0.502,-0.491 -0.625,-0.338 -0.721,-0.032 -0.614,0.306 -0.311,0.572 0.063,0.591 -0.008,0.014 0.013,0.01 0.008,-0.014 0.485,-0.116 0.346,0.032 0.129,0.063 0.062,0.097 0.16,0.121 0.238,0.26 0.306,0.444 0.315,0.532 0.214,0.577 0.159,0.626 0.073,0.627 0.005,0.626 -0.084,0.598 -0.152,0.536 -0.178,0.414 -0.223,0.299 -0.18,0.144 -0.05,0.015 0.007,-0.028 -0.011,-0.032 -0.123,-0.123 -0.175,-0.263 -0.177,-0.447 -0.16,-0.616 -0.085,-0.792 -0.049,-0.852 0.028,-0.837 0.041,-0.646 0.048,-0.462 0.246,-0.976"
     id="path118" />
  <path
     class="write-flat-pen"
     fill="#000000"
     fill-opacity="0.427"
     stroke-width="2.4"
     __comx="666.984"
     __comy="2060.733"
     __timestamp="0x182884a4028"
     d="m 578.874,41.993 -1.204,0.301 -0.344,0.83 -0.167,0.813 -0.129,0.964 -0.117,0.972 -0.13,0.987 0.133,0.909 0.248,0.78 0.638,0.648 0.675,0.343 0.837,0.199 0.924,-0.215 0.804,-0.591 0.643,-0.841 0.362,-1 0.272,-1.027 0.008,-1.132 -0.204,-1.073 -0.468,-1.005 -0.845,-0.713 -1.169,-0.387 -1.122,0.174 -1.152,0.801 -0.871,1.277 -0.505,1.749 h -0.008 l 0.008,0.01 10e-4,-0.01 1.43,-1.014 0.965,-0.773 0.718,-0.315 h 0.333 l 0.423,0.158 0.254,0.217 0.192,0.414 0.126,0.659 -0.006,0.708 -0.189,0.713 -0.235,0.641 -0.305,0.385 -0.273,0.193 -0.104,0.021 -0.177,-0.042 -0.192,-0.098 -0.096,-0.097 -0.062,-0.193 -0.074,-0.491 0.095,-0.735 0.111,-0.977 0.108,-0.916 0.089,-0.683 -0.113,0.013 0.331,-0.253"
     id="path120" />
  <path
     class="write-flat-pen"
     fill="#000000"
     fill-opacity="0.427"
     stroke-width="2.4"
     __comx="142.901"
     __comy="2043.252"
     __timestamp="0x182884a8ce3"
     d="m 55.066,25.615 v 0.01 h 0.01 v -0.01"
     id="path122" />
  <path
     class="write-flat-pen"
     fill="#000000"
     fill-opacity="0.427"
     stroke-width="2.4"
     __comx="215.364"
     __comy="2059.069"
     __timestamp="0x182884a923a"
     d="m 126.858,43.355 0.783,-0.759 0.257,-0.472 0.301,-0.586 0.312,-0.617 0.195,-0.605 0.171,-0.514 0.123,-0.429 0.064,-0.303 0.061,-0.277 0.04,-0.39 -0.187,-0.381 -1.268,-0.148 -0.309,0.35 -0.205,0.711 -0.087,0.787 -0.126,0.809 -0.016,0.879 -0.01,0.82 -0.009,0.792 0.046,0.711 -0.001,0.714 0.05,0.715 v 0.717 l 0.053,0.702 0.06,0.558 0.108,0.429 0.043,0.214 0.012,0.134 0.036,0.155 0.013,0.094 1.567,0.354 0.08,-0.166 -0.203,-0.491 0.111,-0.627 -1.073,-0.19 -0.111,0.627 -0.303,0.072 0.058,-0.131 1.567,0.354 -0.02,-0.188 -0.03,-0.13 -0.01,-0.11 -0.07,-0.347 -0.089,-0.354 -0.046,-0.417 -0.052,-0.614 -0.006,-0.712 -0.057,-0.715 -0.008,-0.714 -0.061,-0.707 -0.009,-0.729 -0.01,-0.814 -0.005,-0.764 0.099,-0.739 0.057,-0.692 0.064,-0.265 0.075,-0.112 -1.268,-0.148 -0.004,-0.013 0.013,-0.131 -0.043,0.2 -0.053,0.256 -0.098,0.345 -0.163,0.491 -0.159,0.5 -0.257,0.512 -0.296,0.599 -0.136,0.331 -0.515,0.742"
     id="path124" />
  <path
     class="write-flat-pen"
     fill="#000000"
     fill-opacity="0.427"
     stroke-width="2.4"
     __comx="219.79"
     __comy="2058.367"
     __timestamp="0x182884a98b3"
     d="m 134.234,40.698 0.057,-0.59 0.013,-0.374 -0.302,-0.532 -0.564,-0.291 -0.246,-0.082 -0.281,-0.078 -0.43,-0.037 -0.208,-0.01 -0.415,0.043 -0.295,0.091 -0.197,0.06 -0.331,0.151 -0.197,0.072 -0.446,0.295 -0.175,0.462 -0.075,0.276 -0.063,0.224 -0.083,0.469 -0.057,0.27 -0.019,0.265 -0.039,0.263 -0.032,0.14 -0.235,0.787 1.033,0.325 0.456,-0.205 0.28,-0.148 0.153,-0.075 0.138,-0.045 0.07,-0.018 -0.1,-0.034 0.049,0.049 0.155,0.219 0.111,0.389 0.1,0.455 0.054,0.525 0.037,0.488 -0.054,0.365 -0.073,0.5 -0.058,0.337 -0.09,0.318 -0.116,0.278 -0.096,0.13 -0.043,0.063 0.154,-0.116 -0.06,0.01 h 0.017 l -0.148,-0.051 -0.235,-0.109 -0.14,-0.093 -0.175,-0.157 -0.12,-0.055 -0.147,0.036 -0.154,-0.041 -0.135,-0.515 -0.703,0.184 0.135,0.515 -0.084,0.227 -0.008,0.294 0.08,0.213 0.182,0.313 0.338,0.362 0.491,0.287 0.46,0.185 0.434,0.035 0.62,-0.121 0.399,-0.291 0.18,-0.306 0.168,-0.25 0.203,-0.553 0.115,-0.5 0.047,-0.445 0.039,-0.534 0.029,-0.52 -0.078,-0.636 -0.078,-0.61 -0.137,-0.568 -0.192,-0.649 -0.356,-0.504 -0.364,-0.366 -0.58,-0.194 -0.506,0.112 -0.285,0.087 -0.265,0.122 -0.271,0.136 0.069,-0.032 0.81,0.254 -0.15,0.504 0.054,-0.24 0.055,-0.37 0.015,-0.224 0.041,-0.199 0.074,-0.424 0.044,-0.16 0.059,-0.211 -0.011,0.032 -0.071,0.05 0.097,-0.036 0.296,-0.137 0.113,-0.036 0.163,-0.054 0.176,-0.02 0.082,10e-4 0.283,0.016 0.145,0.028 0.139,0.029 0.192,0.042 0.049,-0.044 h 0.077 l 0.057,0.506"
     id="path126" />
  <path
     class="write-chisel-pen"
     fill="#000000"
     fill-opacity="0.427"
     stroke-width="30"
     __comx="374.765"
     __comy="2144.412"
     __timestamp="0x1828830b8a4"
     d="m 60.508,141.905 h 7.5 v -30 l -0.036,-0.261 h -7.5 v 30 l 0.036,0.261 m 7.464,-30.261 h -7.5 v 30 l 445.427,0.294 h 7.5 v -30 L 67.972,111.644"
     id="path128" />
  <path
     class="write-stroke-pen"
     fill="none"
     stroke="#000000"
     stroke-width="2.4"
     stroke-linecap="round"
     stroke-linejoin="round"
     __comx="150"
     __comy="2134.6"
     __timestamp="0x18287aa6ee9"
     d="m 62.17,112.365 v 30"
     id="path130" />
  <path
     class="write-stroke-pen"
     fill="none"
     stroke="#000000"
     stroke-width="2.4"
     stroke-linecap="round"
     stroke-linejoin="round"
     __comx="300.933"
     __comy="2129.521"
     __timestamp="0x18287aa864a"
     d="m 63.103,112.287 h 30 30 30 30 30 60 60 30"
     id="path132" />
  <path
     class="write-stroke-pen"
     fill="none"
     stroke="#000000"
     stroke-width="2.4"
     stroke-linecap="round"
     stroke-linejoin="round"
     __comx="540.003"
     __comy="2129.443"
     __timestamp="0x18287aaa037"
     d="m 362.173,112.208 h 30 30 30 30 30 30"
     id="path134" />
  <path
     class="write-stroke-pen"
     fill="none"
     stroke="#000000"
     stroke-width="2.4"
     stroke-linecap="round"
     stroke-linejoin="round"
     __comx="630"
     __comy="2134.6"
     __timestamp="0x18287aaa453"
     d="m 542.17,112.365 v 30"
     id="path136" />
  <path
     class="write-stroke-pen"
     fill="none"
     stroke="#000000"
     stroke-width="2.4"
     stroke-linecap="round"
     stroke-linejoin="round"
     __comx="390"
     __comy="2159.6"
     __timestamp="0x18287aaafc4"
     d="m 62.17,142.365 h 30 30 30 30 30 30 30 30 30 30 30 30 30 30 30 30"
     id="path138" />
  <path
     class="write-stroke-pen"
     fill="none"
     stroke="#000000"
     stroke-width="2.4"
     stroke-linecap="round"
     stroke-linejoin="round"
     __comx="510"
     __comy="2159.6"
     __timestamp="0x18287aac9b9"
     d="m 422.17,142.365 v 0"
     id="path140" />
  <path
     class="write-stroke-pen"
     fill="none"
     stroke="#000000"
     stroke-width="2.4"
     stroke-linecap="round"
     stroke-linejoin="round"
     __comx="180"
     __comy="2145.938"
     __timestamp="0x18287ab6a5a"
     d="m 92.17,112.365 v 30"
     id="path142" />
  <path
     class="write-stroke-pen"
     fill="none"
     stroke="#000000"
     stroke-width="2.4"
     stroke-linecap="round"
     stroke-linejoin="round"
     __comx="210"
     __comy="2145.938"
     __timestamp="0x18287ab6c8d"
     d="m 122.17,112.365 v 30"
     id="path144" />
  <path
     class="write-stroke-pen"
     fill="none"
     stroke="#000000"
     stroke-width="2.4"
     stroke-linecap="round"
     stroke-linejoin="round"
     __comx="240"
     __comy="2145.938"
     __timestamp="0x18287ab6e78"
     d="m 152.17,112.365 v 30"
     id="path146" />
  <path
     class="write-stroke-pen"
     fill="none"
     stroke="#000000"
     stroke-width="2.4"
     stroke-linecap="round"
     stroke-linejoin="round"
     __comx="270"
     __comy="2145.938"
     __timestamp="0x18287ab703b"
     d="m 182.17,112.365 v 30"
     id="path148" />
  <path
     class="write-stroke-pen"
     fill="none"
     stroke="#000000"
     stroke-width="2.4"
     stroke-linecap="round"
     stroke-linejoin="round"
     __comx="300"
     __comy="2145.938"
     __timestamp="0x18287ab7230"
     d="m 212.17,142.365 v 0"
     id="path150" />
  <path
     class="write-stroke-pen"
     fill="none"
     stroke="#000000"
     stroke-width="2.4"
     stroke-linecap="round"
     stroke-linejoin="round"
     __comx="300"
     __comy="2145.938"
     __timestamp="0x18287ab7481"
     d="m 212.17,112.365 v 30"
     id="path152" />
  <path
     class="write-stroke-pen"
     fill="none"
     stroke="#000000"
     stroke-width="2.4"
     stroke-linecap="round"
     stroke-linejoin="round"
     __comx="330"
     __comy="2145.938"
     __timestamp="0x18287ab7625"
     d="m 242.17,112.365 v 30"
     id="path154" />
  <path
     class="write-stroke-pen"
     fill="none"
     stroke="#000000"
     stroke-width="2.4"
     stroke-linecap="round"
     stroke-linejoin="round"
     __comx="360"
     __comy="2145.938"
     __timestamp="0x18287ab788b"
     d="m 272.17,112.365 v 30"
     id="path156" />
  <path
     class="write-stroke-pen"
     fill="none"
     stroke="#000000"
     stroke-width="2.4"
     stroke-linecap="round"
     stroke-linejoin="round"
     __comx="390"
     __comy="2145.938"
     __timestamp="0x18287ab79f1"
     d="m 302.17,112.365 v 30"
     id="path158" />
  <path
     class="write-stroke-pen"
     fill="none"
     stroke="#000000"
     stroke-width="2.4"
     stroke-linecap="round"
     stroke-linejoin="round"
     __comx="420"
     __comy="2145.938"
     __timestamp="0x18287ab7b9f"
     d="m 332.17,112.365 v 30"
     id="path160" />
  <path
     class="write-stroke-pen"
     fill="none"
     stroke="#000000"
     stroke-width="2.4"
     stroke-linecap="round"
     stroke-linejoin="round"
     __comx="450"
     __comy="2145.938"
     __timestamp="0x18287ab7e4c"
     d="m 362.17,112.365 v 30"
     id="path162" />
  <path
     class="write-stroke-pen"
     fill="none"
     stroke="#000000"
     stroke-width="2.4"
     stroke-linecap="round"
     stroke-linejoin="round"
     __comx="480"
     __comy="2145.938"
     __timestamp="0x18287ab7fc7"
     d="m 392.17,112.365 v 30"
     id="path164" />
  <path
     class="write-stroke-pen"
     fill="none"
     stroke="#000000"
     stroke-width="2.4"
     stroke-linecap="round"
     stroke-linejoin="round"
     __comx="510"
     __comy="2145.938"
     __timestamp="0x18287ab816b"
     d="m 422.17,112.365 v 30"
     id="path166" />
  <path
     class="write-stroke-pen"
     fill="none"
     stroke="#000000"
     stroke-width="2.4"
     stroke-linecap="round"
     stroke-linejoin="round"
     __comx="540"
     __comy="2145.938"
     __timestamp="0x18287ab8337"
     d="m 452.17,112.365 v 30"
     id="path168" />
  <path
     class="write-stroke-pen"
     fill="none"
     stroke="#000000"
     stroke-width="2.4"
     stroke-linecap="round"
     stroke-linejoin="round"
     __comx="570"
     __comy="2145.938"
     __timestamp="0x18287ab85a7"
     d="m 482.17,112.365 v 30"
     id="path170" />
  <path
     class="write-stroke-pen"
     fill="none"
     stroke="#000000"
     stroke-width="2.4"
     stroke-linecap="round"
     stroke-linejoin="round"
     __comx="600"
     __comy="2145.938"
     __timestamp="0x18287ab872c"
     d="m 512.17,112.365 v 30"
     id="path172" />
  <path
     class="write-flat-pen"
     fill="#000000"
     stroke-width="2.4"
     __comx="96.036"
     __comy="2151.874"
     __timestamp="0x1828830d041"
     d="m 1.62,130.973 -0.127,-0.699 0.045,0.059 h 0.024 l 0.075,-0.132 0.172,-0.226 0.275,-0.248 0.233,-0.164 0.133,-0.069 0.097,-0.033 -0.027,0.01 -0.145,-0.019 -0.026,-0.013 0.162,0.208 0.115,0.388 0.151,0.666 0.119,0.768 0.089,0.844 0.064,0.864 0.067,0.867 0.031,0.711 -10e-4,0.695 -0.002,0.582 -0.034,0.477 -0.002,0.313 -0.025,0.183 -0.006,0.11 1.14,0.942 0.352,-0.103 0.378,-0.647 0.209,-0.543 0.275,-0.648 0.318,-0.674 0.278,-0.735 0.31,-0.675 0.336,-0.754 0.234,-0.668 0.337,-0.656 0.277,-0.569 0.231,-0.391 0.345,-0.375 0.235,-0.264 0.284,-0.212 0.204,-0.139 0.124,-0.056 0.132,-0.046 H 9.002 l -0.163,-0.042 -0.069,-0.05 0.066,0.192 0.111,0.471 0.087,0.625 0.058,0.776 0.028,0.798 0.03,0.85 0.031,0.832 -0.004,0.786 0.032,0.694 -0.037,0.629 -0.003,0.504 -0.029,0.363 -0.057,0.263 -0.032,0.17 -0.03,0.141 1.393,-0.466 0.173,0.197 -0.026,0.017 0.082,-0.524 0.088,-0.742 0.148,-0.749 0.199,-0.831 0.161,-0.845 0.298,-0.77 0.281,-0.77 0.303,-0.671 0.31,-0.56 0.288,-0.519 0.238,-0.434 0.191,-0.296 0.305,-0.285 0.255,-0.257 0.239,-0.171 0.135,-0.072 0.061,-0.013 -0.123,0.01 -0.054,-0.01 0.084,0.177 0.15,0.463 0.167,0.697 0.078,0.869 0.118,0.949 0.017,0.917 -0.017,0.916 0.026,0.863 -0.042,0.81 -0.038,0.795 -0.07,0.765 -0.104,0.647 -0.101,0.601 -0.138,0.498 -0.072,0.353 -0.054,0.224 -0.072,0.233 0.017,0.212 1.391,-0.602 0.336,0.255 -0.205,0.301 -0.363,-0.467 0.052,-0.23 -0.394,-0.089 -0.052,0.23 -0.564,0.424 -0.196,0.724 0.345,0.262 1.391,-0.602 0.043,-0.01 0.051,-0.125 0.083,-0.339 0.067,-0.324 0.146,-0.532 0.116,-0.703 0.112,-0.717 0.074,-0.869 0.034,-0.837 0.03,-0.888 -0.047,-0.901 -0.018,-0.912 -0.057,-1.044 -0.172,-1.014 -0.142,-0.965 -0.278,-0.891 -0.315,-0.677 -0.422,-0.546 -0.535,-0.279 -0.451,-0.014 -0.424,0.134 -0.335,0.181 -0.403,0.292 -0.314,0.317 -0.414,0.381 -0.309,0.479 -0.264,0.47 -0.289,0.519 -0.338,0.608 -0.349,0.765 -0.299,0.797 -0.354,0.863 -0.203,0.922 -0.236,0.805 -0.214,0.823 -0.133,0.779 -0.126,0.687 0.03,0.852 0.293,0.302 1.393,-0.466 0.034,-0.159 0.033,-0.171 0.074,-0.357 0.039,-0.538 -0.001,-0.522 0.034,-0.672 -0.04,-0.739 -0.005,-0.779 -0.042,-0.867 -0.043,-0.851 -0.045,-0.836 -0.089,-0.867 -0.137,-0.763 -0.207,-0.681 -0.292,-0.549 -0.429,-0.388 -0.45,-0.114 -0.318,0.026 -0.362,0.096 -0.348,0.144 -0.353,0.239 -0.434,0.321 -0.328,0.368 -0.449,0.48 -0.343,0.58 -0.3,0.598 -0.389,0.72 -0.273,0.7 -0.319,0.685 -0.342,0.697 -0.305,0.706 -0.336,0.635 -0.319,0.691 -0.182,0.395 0.03,-0.123 0.322,-0.096 1.14,0.942 0.002,-0.037 0.031,-0.228 0.001,-0.37 0.035,-0.481 -0.002,-0.649 -0.002,-0.74 -0.042,-0.785 -0.078,-0.897 -0.082,-0.9 -0.13,-0.923 -0.173,-0.871 -0.219,-0.789 -0.277,-0.738 -0.479,-0.545 -0.438,-0.347 -0.593,-0.09 -0.362,0.081 -0.305,0.105 -0.337,0.182 -0.399,0.287 -0.456,0.43 -0.344,0.477 -0.198,0.444 -0.066,0.424 0.07,0.293 0.283,0.779"
     id="path174" />
  <path
     class="write-flat-pen"
     fill="#000000"
     stroke-width="2.4"
     __comx="110.299"
     __comy="2151.874"
     __timestamp="0x1828830d275"
     d="m 23.57,129.518 -0.077,1.045 -0.12,0.547 -0.189,0.767 -0.174,0.799 -0.254,0.766 -0.295,0.765 -0.247,0.719 -0.308,0.669 -0.313,0.651 -0.323,0.583 -0.353,0.487 -0.323,0.397 -0.294,0.243 -0.24,0.169 -0.088,0.047 0.015,-0.001 0.274,-0.018 0.287,0.201 h -0.026 l -0.09,-0.308 -0.111,-0.602 -0.078,-0.657 -0.079,-0.71 -0.009,-0.746 -0.005,-0.716 -10e-4,-0.591 0.03,-0.528 0.062,-0.428 0.043,-0.212 0.093,-0.18 0.076,-0.107 0.008,-0.01 h 0.012 l -0.032,0.01 0.05,0.018 0.196,0.131 0.304,0.359 0.414,0.63 0.477,0.822 0.484,0.897 0.461,0.904 0.418,0.824 0.321,0.746 0.329,0.659 0.23,0.506 0.191,0.513 0.151,0.278 0.044,0.16 0.024,0.104 0.04,0.198 0.025,0.084 h 0.01 l 0.029,0.064 1.674,-0.405 -0.174,-0.068 -0.31,-0.708 -1.36,0.596 0.31,0.708 -0.068,0.174 1.674,-0.405 0.018,-0.119 -0.01,-0.168 -0.034,-0.154 -0.037,-0.188 -0.041,-0.171 -0.111,-0.395 -0.189,-0.346 -0.169,-0.453 -0.273,-0.593 -0.322,-0.643 -0.331,-0.752 -0.452,-0.874 -0.483,-0.926 -0.533,-0.934 -0.543,-0.882 -0.541,-0.752 -0.595,-0.627 -0.736,-0.38 -0.643,-0.067 -0.439,0.102 -0.478,0.247 -0.26,0.309 -0.179,0.255 -0.247,0.48 -0.093,0.475 -0.078,0.536 -0.041,0.644 -0.001,0.64 -0.005,0.717 -0.008,0.825 0.067,0.798 0.07,0.719 0.119,0.738 0.171,0.641 0.35,0.586 0.55,0.357 0.452,-0.037 0.328,-0.081 0.382,-0.204 0.389,-0.274 0.486,-0.402 0.471,-0.58 0.441,-0.621 0.402,-0.724 0.34,-0.719 0.344,-0.769 0.261,-0.782 0.285,-0.802 0.254,-0.934 0.117,-0.904 0.104,-0.823 0.023,-0.677 -0.026,-1.114"
     id="path176" />
  <path
     class="write-flat-pen"
     fill="#000000"
     stroke-width="2.4"
     __comx="117.778"
     __comy="2151.874"
     __timestamp="0x1828830d44b"
     d="m 32.241,130.92 -0.828,-0.17 -0.388,-0.127 -0.481,-0.07 -0.494,-0.043 -0.618,0.103 -0.607,0.252 -0.518,0.353 -0.427,0.459 -0.351,0.604 -0.141,0.762 0.142,0.814 0.324,0.808 0.534,0.771 0.661,0.675 0.664,0.567 0.699,0.537 0.594,0.479 0.513,0.441 0.309,0.364 0.187,0.287 0.054,0.168 -0.006,0.061 -0.043,0.086 -0.168,0.254 -0.285,0.254 -0.418,0.221 -0.538,0.152 -0.629,0.107 -0.536,0.001 -0.586,-0.074 -0.507,-0.142 -0.336,-0.143 -0.238,-0.194 -0.146,-0.089 -0.059,0.024 -0.083,-0.095 -0.019,-0.268 0.021,-0.512 0.132,-0.669 0.016,-0.019 -0.014,-0.012 -0.016,0.019 -0.673,0.262 -0.562,0.373 -0.294,0.461 -0.189,0.617 0.182,0.722 0.346,0.474 0.483,0.506 0.746,0.372 0.796,0.246 0.87,0.12 0.837,-10e-4 0.9,-0.157 0.841,-0.244 0.818,-0.441 0.661,-0.613 0.413,-0.692 0.217,-0.707 -0.094,-0.71 -0.238,-0.59 -0.388,-0.547 -0.482,-0.538 -0.647,-0.538 -0.638,-0.499 -0.682,-0.511 -0.569,-0.479 -0.502,-0.506 -0.337,-0.479 -0.182,-0.449 -0.059,-0.318 0.025,-0.149 0.097,-0.174 0.16,-0.182 0.208,-0.156 0.276,-0.132 0.268,-0.08 0.307,-0.041 0.343,-0.051 0.302,0.01 0.854,0.117"
     id="path178" />
  <path
     class="write-flat-pen"
     fill="#000000"
     stroke-width="2.4"
     __comx="122.139"
     __comy="2151.874"
     __timestamp="0x1828830d587"
     d="m 32.012,124.953 0.402,1.306 0.226,0.963 0.361,1.243 0.337,1.295 0.356,1.319 0.35,1.19 0.238,1.042 0.139,0.981 0.137,0.869 0.035,0.754 0.08,0.744 0.092,0.637 0.056,0.498 0.075,0.447 0.095,0.308 0.115,0.171 0.112,0.112 0.092,0.469 h 0.754 l 0.092,-0.469 0.112,-0.112 0.115,-0.171 0.095,-0.308 0.075,-0.448 0.054,-0.595 -0.052,-0.732 -0.064,-0.689 -0.038,-0.808 -0.153,-0.959 -0.151,-1.044 -0.27,-1.179 -0.376,-1.228 -0.371,-1.295 -0.389,-1.319 -0.439,-1.244 -0.364,-0.956 -0.562,-1.296"
     id="path180" />
  <path
     class="write-flat-pen"
     fill="#000000"
     stroke-width="2.4"
     __comx="126.57"
     __comy="2151.874"
     __timestamp="0x1828830d739"
     d="m 36.528,134.905 0.702,-0.869 0.478,-0.53 0.566,-0.543 0.678,-0.56 0.692,-0.63 0.621,-0.579 0.684,-0.518 0.671,-0.473 0.547,-0.364 0.364,-0.208 0.198,-0.116 -1.153,-1.013 0.01,-0.089 -0.263,0.213 -0.664,0.553 -0.904,0.732 -1.045,0.794 -1.096,0.806 -1.033,0.778 -0.847,0.643 -0.679,0.524 -0.494,0.657 -0.138,0.83 0.436,0.736 0.659,0.585 0.84,0.492 0.952,0.362 0.916,0.335 0.875,0.314 0.742,0.196 0.508,0.203 0.46,0.192 0.251,0.101 0.138,0.079 0.03,0.014 -0.028,-0.039 0.011,-0.112 0.06,-0.109 0.118,-0.039 0.217,0.152 0.035,0.553 0.928,-0.059 -0.035,-0.553 0.19,-0.261 0.072,-0.282 -0.048,-0.342 -0.166,-0.338 -0.246,-0.207 -0.147,-0.09 -0.269,-0.153 -0.365,-0.146 -0.467,-0.193 -0.64,-0.247 -0.778,-0.196 -0.793,-0.273 -0.9,-0.318 -0.796,-0.295 -0.552,-0.306 -0.307,-0.253 0.062,0.119 -0.052,0.304 0.069,-0.097 0.473,-0.383 0.821,-0.662 1,-0.79 1.082,-0.828 1.062,-0.841 0.917,-0.776 0.672,-0.583 0.535,-0.489 0.09,-0.274 -1.153,-1.013 -0.184,0.112 -0.401,0.233 -0.606,0.415 -0.706,0.505 -0.768,0.594 -0.686,0.662 -0.617,0.678 -0.63,0.618 -0.6,0.64 -0.493,0.615 -0.696,0.903"
     id="path182" />
  <path
     class="write-flat-pen"
     fill="#000000"
     stroke-width="2.4"
     __comx="98.095"
     __comy="2172.015"
     __timestamp="0x1828830f689"
     d="m 9.971,144.329 -0.733,0.867 -0.392,0.443 -0.427,0.699 -0.38,0.811 -0.381,1.057 -0.214,1.257 -0.126,1.362 0.03,1.49 0.23,1.475 0.343,1.413 0.42,1.309 0.462,1.146 0.489,0.979 0.457,0.925 0.515,0.805 0.496,0.689 0.412,0.538 0.364,0.428 0.352,0.257 0.313,0.059 0.298,0.409 0.715,-0.522 -0.298,-0.409 0.056,-0.292 -0.061,-0.365 -0.209,-0.537 -0.382,-0.632 -0.446,-0.681 -0.427,-0.696 -0.414,-0.839 -0.454,-0.915 -0.409,-1.009 -0.378,-1.174 -0.311,-1.267 -0.205,-1.27 -0.042,-1.256 0.092,-1.188 0.151,-1.032 0.275,-0.844 0.278,-0.7 0.25,-0.569 0.219,-0.375 0.673,-0.876"
     id="path184" />
  <path
     class="write-flat-pen"
     fill="#000000"
     stroke-width="2.4"
     __comx="105.344"
     __comy="2172.015"
     __timestamp="0x1828830f988"
     d="m 16.602,149.165 -0.929,0.435 -0.537,0.308 -0.479,0.489 -0.508,0.584 -0.392,0.872 -0.218,0.978 -0.126,1.075 -10e-4,1.252 0.158,1.224 0.325,1.244 0.54,1.16 0.678,0.953 0.827,0.775 0.922,0.543 0.866,0.289 0.779,0.152 0.761,-0.047 0.766,-0.261 0.596,-0.623 0.378,-0.762 0.289,-0.9 0.199,-1.036 0.122,-1.169 -0.038,-1.289 -0.233,-1.35 -0.428,-1.406 -0.579,-1.288 -0.619,-1.121 -0.695,-0.962 -0.787,-0.709 -0.836,-0.46 -0.93,-0.203 -0.903,0.04 -0.864,0.27 -0.651,0.447 -0.151,0.816 -0.03,0.025 0.026,0.032 0.03,-0.025 0.716,0.11 0.503,-0.069 0.59,-0.053 0.548,0.044 0.521,0.128 0.464,0.256 0.516,0.465 0.539,0.736 0.542,0.97 0.51,1.13 0.37,1.209 0.202,1.134 0.034,1.065 -0.097,0.99 -0.166,0.864 -0.227,0.681 -0.221,0.423 -0.147,0.147 -0.171,0.053 -0.315,0.011 -0.442,-0.109 -0.58,-0.233 -0.6,-0.372 -0.551,-0.532 -0.482,-0.68 -0.404,-0.866 -0.256,-0.979 -0.132,-0.998 v -1.038 l 0.093,-0.889 0.149,-0.728 0.2,-0.507 0.299,-0.404 0.275,-0.369 0.242,-0.234 0.803,-0.48"
     id="path186" />
  <path
     class="write-flat-pen"
     fill="#000000"
     stroke-width="2.4"
     __comx="111.935"
     __comy="2172.015"
     __timestamp="0x1828830fab4"
     d="m 20.36,151.693 0.81,1.029 0.438,0.592 0.512,0.703 0.602,0.721 0.578,0.673 0.67,0.709 0.622,0.627 0.575,0.582 0.445,0.462 0.328,0.367 0.173,0.193 0.13,0.125 0.088,0.055 0.094,0.03 0.086,0.02 0.18,0.619 1.063,-0.136 0.019,-0.644 0.065,-0.143 0.012,-0.266 -0.056,-0.296 -0.155,-0.369 -0.238,-0.358 -0.389,-0.47 -0.491,-0.511 -0.585,-0.593 -0.611,-0.613 -0.639,-0.666 -0.583,-0.632 -0.634,-0.654 -0.583,-0.61 -0.52,-0.536 -0.892,-0.961"
     id="path188" />
  <path
     class="write-flat-pen"
     fill="#000000"
     stroke-width="2.4"
     __comx="112.314"
     __comy="2172.015"
     __timestamp="0x1828830fb9d"
     d="m 26.241,151.348 -0.72,1.259 -0.471,0.711 -0.49,0.747 -0.497,0.749 -0.485,0.683 -0.497,0.639 -0.461,0.625 -0.388,0.544 -0.35,0.488 -0.296,0.45 -0.133,0.446 0.053,0.301 -0.236,0.403 0.69,0.403 0.236,-0.403 0.253,-0.041 0.285,-0.108 0.414,-0.255 0.518,-0.489 0.48,-0.562 0.482,-0.614 0.518,-0.666 0.53,-0.754 0.52,-0.82 0.455,-0.824 0.409,-0.81 0.639,-1.345"
     id="path190" />
  <path
     class="write-flat-pen"
     fill="#000000"
     stroke-width="2.4"
     __comx="118.979"
     __comy="2172.015"
     __timestamp="0x1828830fece"
     d="m 30.264,149.1 -0.757,0.532 -0.344,0.359 -0.292,0.635 -0.206,0.847 -0.173,1.024 -0.047,1.182 -0.007,1.209 0.118,1.129 0.25,0.994 0.4,0.89 0.499,0.657 0.439,0.434 0.418,0.418 0.521,0.272 0.525,0.148 0.712,-0.114 0.485,-0.417 0.399,-0.59 0.283,-0.692 0.167,-0.716 0.163,-0.806 0.043,-0.875 0.002,-0.967 -0.205,-0.979 -0.275,-0.935 -0.405,-0.956 -0.518,-0.862 -0.513,-0.746 -0.553,-0.645 -0.601,-0.465 -0.523,-0.246 -0.468,-0.114 -0.372,0.048 -0.322,0.106 -0.169,0.212 -0.441,0.262 0.434,0.732 0.441,-0.262 -0.003,0.114 -0.079,0.118 0.095,0.126 0.153,0.142 0.249,0.202 0.331,0.313 0.386,0.462 0.429,0.624 0.425,0.707 0.321,0.744 0.233,0.765 0.157,0.721 0.002,0.736 -0.032,0.697 -0.13,0.642 -0.132,0.534 -0.173,0.369 -0.17,0.225 0.091,-0.086 0.212,-0.037 0.06,0.012 -0.098,-0.056 -0.222,-0.221 -0.348,-0.343 -0.29,-0.381 -0.25,-0.544 -0.184,-0.702 -0.1,-0.895 -0.007,-1.079 0.027,-1.043 0.119,-0.881 0.101,-0.696 0.057,-0.331 -0.015,-0.086 0.537,-0.493"
     id="path192" />
  <path
     class="write-flat-pen"
     fill="#000000"
     stroke-width="2.4"
     __comx="125.984"
     __comy="2172.015"
     __timestamp="0x182883100a1"
     d="m 34.268,149.277 0.712,-0.699 0.298,-0.199 0.41,-0.088 0.633,-0.085 0.516,0.028 0.548,0.159 0.57,0.304 0.487,0.425 0.332,0.446 0.203,0.497 0.076,0.376 -0.063,0.333 -0.13,0.424 -0.174,0.298 -0.294,0.32 -0.249,0.237 -0.157,0.134 -0.098,1.427 0.353,0.298 0.694,-0.013 h 0.387 l 0.449,0.072 0.365,0.139 0.351,0.254 0.301,0.362 0.203,0.428 0.1,0.463 -0.021,0.413 -0.106,0.398 -0.207,0.348 -0.337,0.362 -0.399,0.311 -0.485,0.258 -0.512,0.206 -0.539,0.119 -0.533,0.109 -0.495,0.093 -0.152,0.072 0.289,0.223 -0.009,0.397 -0.287,-0.161 0.05,-0.405 -0.696,-0.086 -0.05,0.405 -0.362,0.443 0.125,0.704 0.679,0.369 0.614,0.01 0.587,-0.039 0.619,-0.086 0.764,-0.145 0.795,-0.319 0.748,-0.398 0.687,-0.541 0.605,-0.689 0.441,-0.831 0.179,-0.911 -0.026,-0.888 -0.267,-0.908 -0.454,-0.81 -0.65,-0.683 -0.75,-0.463 -0.725,-0.247 -0.747,-0.118 h -0.515 l 0.063,-0.022 0.229,0.174 -0.098,1.427 0.234,-0.165 0.382,-0.335 0.5,-0.536 0.397,-0.679 0.23,-0.755 0.145,-0.834 -0.215,-0.924 -0.38,-0.872 -0.611,-0.791 -0.821,-0.684 -0.959,-0.479 -0.982,-0.23 -0.932,0.031 -0.911,0.251 -0.689,0.323 -0.53,0.429 -0.774,0.778"
     id="path194" />
  <path
     class="write-flat-pen"
     fill="#000000"
     stroke-width="2.4"
     __comx="135.489"
     __comy="2172.015"
     __timestamp="0x182883101dd"
     d="m 42.656,144.379 1.353,-0.124 0.667,0.101 0.818,0.431 1.034,0.821 1.097,1.281 1.074,1.658 0.908,1.84 0.645,1.933 0.394,1.8 0.029,1.699 -0.228,1.605 -0.487,1.403 -0.663,1.346 -0.779,1.194 -0.897,1.048 -1.023,0.938 -1.069,0.849 -1.082,0.866 -1.099,0.947 h -0.007 l 0.003,0.01 0.004,-0.01 1.515,0.098 1.532,-0.376 1.4,-0.785 1.301,-1.023 1.136,-1.239 0.964,-1.421 0.789,-1.595 0.602,-1.734 0.281,-1.989 -0.044,-2.092 -0.477,-2.122 -0.735,-2.184 -1.052,-2.081 -1.25,-1.871 -1.372,-1.529 -1.436,-1.01 -1.367,-0.549 -1.176,-0.025 -1.51,0.233"
     id="path196" />
  <path
     class="write-flat-pen"
     fill="#000000"
     stroke-width="2.4"
     __comx="304.06"
     __comy="2026.243"
     __timestamp="0x182884cb256"
     d="m 219.861,7.856 -0.208,-0.737 -0.153,-0.358 -0.279,-0.345 -0.29,-0.18 -0.475,-0.15 -0.504,-0.098 -0.665,-0.031 -0.785,0.099 -0.816,0.223 -0.75,0.32 -0.703,0.31 -0.535,0.263 -0.345,0.201 -0.424,0.252 -0.33,0.913 0.397,0.701 0.544,0.55 0.779,0.535 0.817,0.377 0.738,0.47 0.652,0.439 0.467,0.336 0.326,0.356 0.191,0.331 0.061,0.174 0.041,0.21 0.008,0.21 -0.015,0.117 -0.104,0.196 -0.13,0.203 -0.095,0.074 -0.318,0.125 -0.187,0.078 -0.309,0.02 -0.378,0.037 -0.284,-0.026 -0.381,-0.041 -0.202,-0.053 -0.116,-0.045 -0.183,-0.082 -0.111,-0.062 -0.012,1.531 0.082,-0.487 0.537,-0.382 -0.689,-0.97 -0.537,0.382 -0.487,-0.082 -0.012,1.531 0.228,0.187 0.404,0.208 0.301,0.117 0.449,0.116 0.544,0.058 0.49,0.039 0.534,-0.06 0.607,-0.052 0.46,-0.209 0.576,-0.244 0.541,-0.478 0.311,-0.521 0.283,-0.568 0.062,-0.599 -0.025,-0.493 -0.096,-0.476 -0.163,-0.461 -0.38,-0.653 -0.591,-0.646 -0.646,-0.463 -0.694,-0.468 -0.864,-0.55 -0.79,-0.363 -0.508,-0.345 -0.249,-0.249 0.141,0.25 -0.181,0.502 -0.148,0.088 0.284,-0.167 0.445,-0.224 0.66,-0.302 0.625,-0.285 0.573,-0.176 0.512,-0.083 0.406,-0.001 0.321,0.034 0.234,0.03 -0.011,-0.037 h 0.135 l 0.102,-0.03 0.256,0.517"
     id="path198" />
  <path
     class="write-flat-pen"
     fill="#000000"
     stroke-width="2.4"
     __comx="313.765"
     __comy="2026.243"
     __timestamp="0x182884cb551"
     d="m 223.091,1.123 -0.145,1.342 -0.04,0.899 -0.081,1.104 -0.136,1.263 -0.129,1.256 -0.177,1.254 -0.179,1.215 -0.179,1.133 -0.12,1.084 -0.118,0.978 -0.056,0.714 -0.096,0.497 -0.05,0.299 -0.049,0.203 -0.025,0.251 1.841,0.035 -0.052,0.01 0.097,-0.281 0.208,-0.617 0.286,-0.64 0.37,-0.734 0.32,-0.666 0.374,-0.707 0.306,-0.517 0.36,-0.527 0.285,-0.355 0.342,-0.36 0.231,-0.182 0.368,-0.205 0.245,-0.167 0.178,-0.077 0.059,-0.019 -0.284,0.052 -0.273,-0.253 0.001,0.161 -0.05,0.463 -0.18,0.78 -0.186,0.783 -0.241,0.808 -0.203,0.835 -0.075,0.759 -0.061,0.572 -0.011,0.501 0.158,0.514 0.365,0.521 0.451,0.322 0.553,0.249 0.711,0.173 0.695,-0.135 0.595,-0.239 0.497,-0.386 0.402,-0.489 0.084,-0.651 -0.023,-0.433 0.11,-0.155 -0.14,-0.099 -0.11,0.155 -0.437,0.149 -0.429,0.245 -0.291,0.095 -0.312,0.086 -0.322,0.042 h -0.215 l -0.207,-0.069 -0.253,-0.115 -0.055,-0.039 -0.024,-0.034 0.009,0.035 -0.001,-0.137 0.047,-0.509 0.047,-0.654 0.138,-0.684 0.21,-0.829 0.154,-0.854 0.153,-0.913 0.013,-0.813 -0.225,-0.745 -0.552,-0.546 -0.588,0.102 -0.228,0.083 -0.344,0.153 -0.3,0.205 -0.409,0.228 -0.398,0.313 -0.449,0.469 -0.361,0.432 -0.431,0.604 -0.354,0.577 -0.425,0.736 -0.356,0.648 -0.429,0.711 -0.396,0.716 -0.267,0.64 -0.291,0.603 -0.028,0.415 1.841,0.035 0.011,-0.121 0.033,-0.142 0.055,-0.339 0.112,-0.576 0.057,-0.783 0.107,-0.951 0.107,-1.055 0.16,-1.106 0.161,-1.233 0.162,-1.3 0.098,-1.297 0.091,-1.301 0.031,-1.177 -0.034,-0.899 -0.01,-1.313"
     id="path200" />
  <path
     class="write-flat-pen"
     fill="#000000"
     stroke-width="2.4"
     __comx="318.981"
     __comy="2026.243"
     __timestamp="0x182884cb61f"
     d="m 230.46,1.227 -0.044,0.757 -0.016,0.214 -0.001,0.442 0.047,0.561 0.289,0.532 -0.032,0.517 -0.045,0.1 0.055,0.025 0.045,-0.1 0.388,-0.408 0.499,-0.482 0.165,-0.604 0.094,-0.509 -0.016,-0.289 -0.044,-0.757"
     id="path202" />
  <path
     class="write-flat-pen"
     fill="#000000"
     stroke-width="2.4"
     __comx="318.391"
     __comy="2026.243"
     __timestamp="0x182884cb83f"
     d="m 230.201,8.738 -0.195,1.315 -0.088,0.811 -0.069,0.732 -0.11,0.672 -0.114,0.694 -0.111,0.559 -0.065,0.518 -0.045,0.293 -0.034,0.17 -0.046,0.158 -0.003,0.236 0.131,0.185 0.119,0.76 1.143,0.086 0.232,-0.734 0.152,-0.103 0.037,-0.037 0.032,-0.109 0.059,-0.292 0.055,-0.365 0.056,-0.477 0.104,-0.525 0.113,-0.735 0.109,-0.749 0.045,-0.804 0.034,-0.796 0.056,-1.311"
     id="path204" />
  <path
     class="write-flat-pen"
     fill="#000000"
     stroke-width="2.4"
     __comx="324.03"
     __comy="2026.243"
     __timestamp="0x182884cba02"
     d="m 234.26,15.459 0.047,-0.892 0.036,-0.387 0.065,-0.437 0.084,-0.556 0.144,-0.689 0.087,-0.848 0.129,-0.891 0.184,-1.035 0.121,-1.116 0.225,-1.136 0.233,-1.134 0.163,-1.005 0.317,-0.861 0.215,-0.721 0.195,-0.429 0.254,-0.283 0.082,-0.115 0.131,-0.079 0.137,-0.068 0.145,-0.059 0.128,-0.016 h 0.058 l 0.069,0.026 0.148,0.105 0.181,0.159 0.243,0.395 0.26,0.325 0.468,0.339 0.011,0.2 0.221,-0.012 -0.011,-0.2 0.42,-0.558 -0.078,-0.582 -0.158,-0.644 -0.308,-0.529 -0.471,-0.455 -0.685,-0.288 -0.503,0.02 -0.419,0.051 -0.416,0.166 -0.263,0.131 -0.494,0.301 -0.23,0.324 -0.363,0.407 -0.351,0.773 -0.233,0.782 -0.354,0.967 -0.178,1.134 -0.22,1.109 -0.228,1.219 -0.109,1.139 -0.156,1.022 -0.097,0.967 -0.039,0.821 -0.08,0.677 -0.034,0.608 -0.03,0.511 0.036,0.457 0.047,0.892"
     id="path206" />
  <path
     class="write-flat-pen"
     fill="#000000"
     stroke-width="2.4"
     __comx="323.287"
     __comy="2026.243"
     __timestamp="0x182884cbac9"
     d="m 233.029,8.561 0.74,0.679 0.354,0.186 0.479,0.129 0.621,0.036 0.353,-0.036 0.547,-0.017 0.352,-0.093 0.491,-0.191 0.37,-0.368 0.38,-0.467 0.169,-0.038 -0.036,-0.158 -0.169,0.038 -0.546,-0.258 -0.416,-0.188 -0.449,-0.084 -0.277,-0.016 h -0.532 l -0.294,0.033 -0.334,-0.01 -0.21,-0.017 -0.019,0.045 -0.625,-0.406"
     id="path208" />
  <path
     class="write-flat-pen"
     fill="#000000"
     stroke-width="2.4"
     __comx="330.258"
     __comy="2026.243"
     __timestamp="0x182884cbd64"
     d="m 243.275,1.567 -0.355,1.1 -0.192,0.809 -0.41,1.246 -0.42,1.436 -0.402,1.34 -0.474,1.296 -0.299,1.262 -0.299,1.113 -0.125,0.909 -0.123,0.818 -0.007,0.669 0.074,0.63 0.274,0.529 0.363,0.399 0.51,0.357 0.597,0.257 0.627,0.1 0.673,-0.068 0.568,-0.182 0.415,-0.384 0.311,-0.586 -0.17,-0.656 -0.37,-0.449 -0.024,-0.152 -0.107,0.017 0.024,0.152 -0.238,0.386 -0.368,0.014 h -0.198 l -0.052,-0.062 -0.083,-0.02 -0.253,-0.015 -0.148,-0.045 -0.193,-0.094 -0.161,-0.113 -0.029,-0.032 0.02,0.04 -0.016,-0.131 0.003,-0.398 0.1,-0.694 0.102,-0.798 0.265,-1.021 0.269,-1.183 0.432,-1.254 0.392,-1.416 0.377,-1.429 0.389,-1.343 0.143,-1.056 -0.256,-1.247"
     id="path210" />
  <path
     class="write-flat-pen"
     fill="#000000"
     stroke-width="2.4"
     __comx="329.947"
     __comy="2026.243"
     __timestamp="0x182884cbe36"
     d="m 239.881,10.681 0.566,-0.466 0.072,0.02 0.513,-0.095 0.725,-0.16 0.595,-0.145 0.548,-0.109 0.602,-0.131 0.643,-0.256 0.637,-0.433 0.671,-0.307 h 0.071 l -0.003,-0.041 h -0.071 l -0.691,-0.211 -0.723,-0.42 -0.736,-0.056 -0.643,-0.02 -0.695,0.102 -0.643,0.157 -0.698,0.158 -0.56,0.135 -0.534,0.193 -0.82,0.839"
     id="path212" />
  <path
     class="write-flat-pen"
     fill="#000000"
     stroke-width="2.4"
     __comx="350.293"
     __comy="2026.243"
     __timestamp="0x182884cc11a"
     d="m 259.792,4.151 0.825,0.397 0.235,0.149 0.562,0.422 0.801,0.577 0.759,0.543 0.779,0.655 0.869,0.675 0.891,0.488 0.736,0.459 0.728,0.386 0.447,0.206 0.354,0.163 0.172,0.064 -0.16,-1.848 -0.15,0.047 -0.72,0.251 -1.163,0.545 -1.471,0.738 -1.493,0.874 -1.587,0.861 -1.428,0.818 -1.249,0.713 -0.967,0.561 -0.64,0.384 -0.33,0.172 -0.262,0.141 -0.195,1.77 0.455,0.31 0.843,-0.076 0.567,-0.166 0.727,-0.276 0.704,-0.535 0.738,-0.51 0.043,-0.014 -0.007,-0.021 -0.043,0.014 h -0.87 l -0.791,-0.23 -0.691,-0.072 -0.465,-0.077 -0.006,-0.072 0.204,0.093 -0.195,1.77 0.251,-0.134 0.377,-0.196 0.684,-0.41 0.946,-0.553 1.243,-0.714 1.406,-0.814 1.591,-0.875 1.459,-0.863 1.381,-0.698 1.046,-0.493 0.787,-0.293 0.272,-0.191 -0.16,-1.848 -0.094,-0.031 -0.276,-0.121 -0.391,-0.176 -0.614,-0.323 -0.728,-0.45 -0.803,-0.434 -0.716,-0.55 -0.818,-0.674 -0.83,-0.581 -0.819,-0.567 -0.789,-0.516 -0.499,-0.133 -0.894,-0.24"
     id="path214" />
  <path
     class="write-flat-pen"
     fill="#000000"
     stroke-width="2.4"
     __comx="363.585"
     __comy="2026.243"
     __timestamp="0x182884cc418"
     d="m 273.451,3.008 -0.756,-0.582 0.196,1.11 -0.101,0.342 -0.099,0.081 0.586,0.231 0.873,0.309 0.913,0.445 0.98,0.475 1.033,0.443 1.049,0.318 0.806,0.29 0.866,0.334 0.523,0.1 0.343,0.141 -0.699,-0.083 0.114,-1.175 -0.289,0.252 -0.923,0.683 -1.224,0.846 -1.314,0.831 -1.395,0.746 -1.366,0.763 -1.29,0.703 -1.049,0.545 -0.714,0.345 -0.387,0.198 -0.325,0.186 -0.556,0.662 0.128,0.908 0.407,0.415 0.456,0.221 0.752,0.045 0.823,-0.408 0.12,0.024 0.023,-0.12 -0.12,-0.024 -0.478,-0.663 -0.196,-0.363 0.049,-0.117 0.211,0.171 0.105,0.633 -0.285,0.34 -0.06,0.035 0.319,-0.164 0.719,-0.35 1.096,-0.573 1.318,-0.726 1.356,-0.768 1.442,-0.786 1.411,-0.906 1.284,-0.899 1.041,-0.784 0.925,-0.882 0.171,-1.656 -1.076,-0.128 -0.276,-0.113 -0.545,-0.103 -0.714,-0.275 -0.878,-0.315 -0.994,-0.299 -0.893,-0.374 -0.949,-0.444 -1.031,-0.475 -0.986,-0.319 -0.834,-0.26 -1.073,0.01 -0.264,0.539 0.196,1.11 0.876,0.377"
     id="path216" />
  <path
     class="write-flat-pen"
     fill="#000000"
     stroke-width="2.4"
     __comx="378.962"
     __comy="2020.26"
     __timestamp="0x182884d1e7d"
     d="m 292.084,0 -0.425,0.886 -0.231,0.494 -0.294,0.707 -0.394,0.884 -0.495,0.915 -0.486,0.805 -0.564,0.8 -0.511,0.806 -0.534,0.741 -0.35,0.666 -0.331,0.5 -0.244,0.477 -0.185,0.336 -0.274,0.387 -0.156,0.52 -0.106,0.825 0.809,0.578 0.754,0.158 0.692,0.021 h 0.782 l 0.87,-0.112 0.694,-0.164 0.743,-0.219 0.584,-0.207 0.568,-0.204 0.623,-0.225 0.443,-0.22 0.252,-0.136 0.23,-0.113 0.137,-0.097 -0.015,-0.023 1.088,-0.303 -0.474,-1.892 -1.103,0.246 -0.297,0.048 -0.325,0.182 -0.18,0.082 -0.268,0.14 -0.311,0.152 -0.511,0.184 -0.564,0.203 -0.526,0.187 -0.635,0.188 -0.532,0.127 -0.624,0.081 -0.618,-10e-4 -0.48,-0.013 -0.144,-0.029 0.565,0.403 -0.075,0.583 0.009,-0.033 0.143,-0.206 0.255,-0.465 0.205,-0.404 0.323,-0.496 0.326,-0.634 0.477,-0.679 0.509,-0.823 0.567,-0.834 0.529,-0.923 0.529,-1.037 0.414,-0.994 0.292,-0.79 0.123,-0.551 0.245,-0.925"
     id="path218" />
  <path
     class="write-flat-pen"
     fill="#000000"
     stroke-width="2.4"
     __comx="381.843"
     __comy="2023.159"
     __timestamp="0x182884d1f91"
     d="m 294.573,3.242 -0.335,1.393 -0.149,0.911 -0.173,1.009 -0.333,1.057 -0.286,0.886 -0.274,0.772 -0.293,0.731 -0.171,0.595 -0.199,0.504 -0.152,0.366 -0.055,0.126 -0.098,0.159 -0.2,0.436 -0.053,0.325 0.075,0.458 0.162,0.253 -0.064,0.662 1.022,0.099 0.064,-0.662 0.197,-0.116 0.228,-0.164 0.081,-0.025 0.17,-0.188 0.186,-0.251 0.142,-0.323 0.166,-0.401 0.24,-0.612 0.168,-0.595 0.265,-0.682 0.287,-0.848 0.275,-0.932 0.345,-1.198 0.171,-1.165 0.095,-0.904 0.15,-1.388"
     id="path220" />
  <path
     class="write-flat-pen"
     fill="#000000"
     fill-opacity="0.427"
     stroke-width="2.4"
     __comx="548.485"
     __comy="2051.475"
     __timestamp="0x182884d46a7"
     d="m 456.552,32.067 0.664,0.927 0.433,0.576 0.461,0.458 0.433,0.461 0.564,0.587 0.49,0.365 0.37,0.382 0.467,0.386 0.371,0.336 0.445,0.404 0.391,0.266 0.317,0.273 0.406,0.216 0.185,0.107 0.255,0.107 0.143,0.044 -0.076,-0.046 -0.329,-0.408 0.095,-0.452 -0.092,0.138 -0.28,0.271 -0.527,0.43 -0.515,0.511 -0.511,0.567 -0.464,0.616 -0.539,0.597 -0.402,0.644 -0.27,0.481 -0.327,0.48 -0.163,0.485 -0.04,0.096 -0.14,0.204 -0.078,0.184 -0.181,0.271 -0.051,0.285 0.989,1.299 0.073,-0.076 0.989,-0.018 -0.034,-1.876 -0.989,0.018 -0.076,-0.073 0.989,1.299 0.022,0.037 0.114,-0.172 0.073,-0.174 0.143,-0.21 0.15,-0.363 0.094,-0.284 0.214,-0.317 0.29,-0.518 0.278,-0.449 0.476,-0.531 0.462,-0.62 0.408,-0.458 0.4,-0.4 0.518,-0.423 0.507,-0.495 0.421,-0.65 0.187,-0.876 -0.507,-0.629 -0.455,-0.28 -0.303,-0.09 -0.039,-0.015 -0.104,-0.059 -0.239,-0.124 -0.234,-0.198 -0.372,-0.249 -0.348,-0.309 -0.417,-0.365 -0.432,-0.34 -0.423,-0.408 -0.502,-0.347 -0.472,-0.449 -0.486,-0.462 -0.442,-0.376 -0.417,-0.416 -0.755,-0.824"
     id="path222" />
  <path
     class="write-flat-pen"
     fill="#000000"
     fill-opacity="0.427"
     stroke-width="2.4"
     __comx="557.07"
     __comy="2050.955"
     __timestamp="0x182884d54a8"
     d="m 465.456,30.657 -0.29,1.066 0.192,0.631 0.36,0.497 0.36,0.511 0.54,0.578 0.494,0.56 0.519,0.588 0.578,0.587 0.436,0.446 0.47,0.48 0.489,0.449 0.464,0.263 0.383,0.228 0.38,0.161 0.257,0.077 0.17,0.052 0.099,0.027 0.119,0.072 -0.172,-0.073 -0.313,-0.725 0.124,-0.26 -0.247,0.323 -0.512,0.57 -0.584,0.682 -0.569,0.663 -0.596,0.698 -0.502,0.698 -0.529,0.576 -0.404,0.465 -0.292,0.363 -0.229,0.305 -0.106,0.142 -0.226,0.328 -0.077,0.147 -0.07,0.067 -0.232,0.323 -0.083,0.157 -0.106,0.167 -0.072,0.145 -0.147,0.239 0.013,0.296 -0.135,0.984 1.547,0.468 0.433,-0.894 0.095,0.026 0.054,-0.085 0.067,-0.133 0.094,-0.147 0.055,-0.104 0.033,-0.046 0.182,-0.176 0.175,-0.34 0.129,-0.187 0.08,-0.108 0.206,-0.275 0.245,-0.306 0.357,-0.412 0.595,-0.648 0.524,-0.729 0.538,-0.63 0.566,-0.665 0.569,-0.664 0.548,-0.616 0.429,-0.562 0.384,-0.806 -0.402,-0.93 -0.475,-0.203 -0.264,-0.155 -0.356,-0.089 -0.138,-0.039 -0.15,-0.041 -0.136,-0.054 -0.278,-0.163 -0.281,-0.155 -0.276,-0.248 -0.436,-0.437 -0.448,-0.447 -0.559,-0.545 -0.503,-0.535 -0.537,-0.569 -0.5,-0.489 -0.348,-0.429 -0.301,-0.288 -0.023,0.162 0.039,-0.565"
     id="path224" />
  <path
     class="write-flat-pen"
     fill="#000000"
     stroke-width="2.4"
     __comx="388.939"
     __comy="2027.453"
     __timestamp="0x182884dc51a"
     d="m 301.529,2.033 0.081,1.28 -0.078,0.692 -0.029,0.864 -0.12,0.966 -0.175,1.073 -0.287,1.196 -0.291,1.28 -0.282,1.252 -0.344,1.228 -0.23,1.079 -0.22,0.892 -0.166,0.649 -0.108,0.479 -0.086,0.317 -0.044,0.111 -0.065,0.119 -0.115,0.267 0.034,0.254 -0.075,0.891 1.393,0.323 0.326,-0.833 0.097,-0.018 h 0.01 l 0.103,-0.165 0.14,-0.35 0.124,-0.461 0.11,-0.492 0.161,-0.63 0.228,-0.93 0.222,-1.053 0.335,-1.221 0.286,-1.301 0.277,-1.276 0.28,-1.263 0.166,-1.185 0.103,-1.1 -0.023,-0.906 0.015,-0.783 -0.198,-1.408"
     id="path226" />
  <path
     class="write-flat-pen"
     fill="#000000"
     stroke-width="2.4"
     __comx="389.986"
     __comy="2027.453"
     __timestamp="0x182884dc67e"
     d="m 300.976,12.365 0.546,-0.528 0.268,-0.146 0.511,-0.19 0.295,-0.129 0.369,-0.012 h 0.422 l 0.348,0.016 0.187,0.041 0.038,0.057 0.021,0.069 0.005,0.168 -0.047,0.357 -0.17,0.4 -0.236,0.404 -0.265,0.342 -0.326,0.29 -0.213,0.177 -0.246,0.146 -0.367,0.184 -0.33,0.164 -0.51,0.166 -0.418,0.203 -0.463,0.191 -0.416,0.136 -0.399,0.318 -0.232,0.213 -0.239,0.355 -0.041,0.243 -0.279,0.67 0.955,0.588 0.473,-0.551 h 0.105 0.12 l 0.18,-0.073 0.199,-0.128 0.199,-0.06 0.584,-0.241 0.36,-0.175 0.531,-0.179 0.466,-0.249 0.435,-0.249 0.41,-0.284 0.311,-0.298 0.439,-0.433 0.398,-0.582 0.312,-0.62 0.248,-0.75 0.011,-0.82 -0.191,-0.635 -0.363,-0.477 -0.564,-0.355 -0.605,-0.039 -0.421,0.018 -0.465,0.011 -0.654,0.059 -0.476,0.259 -0.551,0.279 -0.403,0.309 -0.607,0.609"
     id="path228" />
  <path
     class="write-flat-pen"
     fill="#000000"
     stroke-width="2.4"
     __comx="394.344"
     __comy="2027.453"
     __timestamp="0x182884dc7a4"
     d="m 306.867,9.279 -0.071,0.872 -0.108,0.51 -0.081,0.632 -0.055,0.49 -0.232,0.562 -0.218,0.533 -0.217,0.489 -0.22,0.494 -0.203,0.423 -0.179,0.368 -0.08,0.199 -0.086,0.207 -0.062,0.175 -0.033,0.204 -0.325,0.592 0.809,0.604 0.475,-0.48 0.184,-0.087 0.144,-0.099 0.216,-0.186 0.216,-0.265 0.26,-0.436 0.239,-0.484 0.233,-0.525 0.227,-0.517 0.224,-0.563 0.312,-0.801 0.059,-0.739 0.036,-0.639 -0.01,-0.591 -0.071,-0.94"
     id="path230" />
  <path
     class="write-flat-pen"
     fill="#000000"
     stroke-width="2.4"
     __comx="396.637"
     __comy="2027.453"
     __timestamp="0x182884dc83a"
     d="m 309.411,5.595 0.007,-1.307 h -1.222 l 0.007,1.307"
     id="path232" />
  <path
     class="write-flat-pen"
     fill="#000000"
     stroke-width="2.4"
     __comx="400.033"
     __comy="2027.453"
     __timestamp="0x182884dc95b"
     d="m 312.864,1.772 -0.2,1.243 -0.116,0.831 -0.192,1.029 -0.232,1.024 -0.295,1.069 -0.232,1.058 -0.287,0.976 -0.178,0.944 -0.163,0.731 -0.16,0.676 -0.147,0.492 -0.144,0.401 -0.157,0.413 -0.058,0.266 -0.053,0.167 -0.013,0.205 0.081,0.41 -0.213,0.368 0.393,0.417 0.38,-0.192 0.597,-0.076 0.234,-0.278 0.212,-0.229 0.17,-0.416 0.169,-0.385 0.177,-0.486 0.177,-0.594 0.176,-0.742 0.171,-0.775 0.164,-0.884 0.276,-0.956 0.223,-1.085 0.271,-1.077 0.22,-1.122 0.148,-1.157 0.007,-0.892 0.034,-1.241"
     id="path234" />
  <path
     class="write-flat-pen"
     fill="#000000"
     stroke-width="2.4"
     __comx="400.241"
     __comy="2027.453"
     __timestamp="0x182884dca45"
     d="m 310.165,9.939 0.555,-0.375 0.181,0.013 0.467,-0.034 0.655,-0.047 0.724,-0.101 0.606,-0.097 0.444,-0.052 0.478,-0.113 0.192,-0.073 0.073,-0.06 0.263,-0.137 0.144,-0.154 0.365,-0.37 0.254,-0.001 -10e-4,-0.242 -0.254,10e-4 -0.372,-0.367 -0.161,-0.15 -0.318,-0.122 -0.209,-0.038 -0.31,0.021 -0.426,0.076 -0.406,0.048 -0.629,0.104 -0.659,0.099 -0.635,0.065 -0.591,0.097 -0.582,0.2 -0.758,0.669"
     id="path236" />
  <path
     class="write-flat-pen"
     fill="#000000"
     stroke-width="2.4"
     __comx="404.508"
     __comy="2027.453"
     __timestamp="0x182884dcb81"
     d="m 319.707,6.507 -1.223,-0.189 -0.546,-0.056 -0.702,0.06 -0.578,0.639 -0.185,0.748 -0.025,0.847 0.121,1.065 0.234,0.983 0.212,0.854 0.136,0.74 0.03,0.612 -0.018,0.38 -0.041,0.134 0.07,-0.215 0.093,-0.089 -0.293,0.1 -0.437,0.089 -0.642,0.057 -0.491,0.067 -0.522,0.1 -0.335,0.171 -0.189,0.246 -0.175,0.264 -0.55,0.118 0.173,0.807 0.55,-0.118 0.258,0.171 0.212,0.167 0.285,0.084 h 0.492 l 0.482,-0.029 0.753,-0.064 0.732,-0.155 0.65,-0.277 0.557,-0.403 0.222,-0.586 0.044,-0.521 -0.025,-0.581 -0.089,-0.791 -0.205,-0.883 -0.24,-0.876 -0.215,-0.861 -0.097,-0.834 0.014,-0.545 0.031,-0.156 -0.155,0.163 -0.062,-0.013 0.359,-0.038 1.157,0.093"
     id="path238" />
  <path
     class="write-stroke-pen"
     fill="none"
     stroke="#000000"
     stroke-opacity="0.427"
     stroke-width="2.4"
     stroke-linecap="round"
     stroke-linejoin="round"
     __comx="613.176"
     __comy="2093.574"
     __timestamp="0x182884e576f"
     d="m 524.693,57.728 1.305,111.664"
     id="path240" />
  <path
     class="write-stroke-pen"
     fill="none"
     stroke="#000000"
     stroke-opacity="0.427"
     stroke-width="2.4"
     stroke-linecap="round"
     stroke-linejoin="round"
     __comx="617.969"
     __comy="2181.726"
     __timestamp="0x182884e6b24"
     d="M 526.679,169.75 533.6,159.232"
     id="path242" />
  <path
     class="write-stroke-pen"
     fill="none"
     stroke="#000000"
     stroke-opacity="0.427"
     stroke-width="2.4"
     stroke-linecap="round"
     stroke-linejoin="round"
     __comx="609.375"
     __comy="2182.186"
     __timestamp="0x182884e6fe4"
     d="m 525.885,169.597 -8.68,-9.293"
     id="path244" />
  <path
     class="write-stroke-pen"
     fill="none"
     stroke="#000000"
     stroke-width="2.4"
     stroke-linecap="round"
     stroke-linejoin="round"
     __comx="630"
     __comy="2224.6"
     __timestamp="0x18287aaa453"
     d="m 542.17,202.365 v 30"
     id="path246" />
  <path
     class="write-stroke-pen"
     fill="none"
     stroke="#000000"
     stroke-width="2.4"
     stroke-linecap="round"
     stroke-linejoin="round"
     __comx="600"
     __comy="2235.938"
     __timestamp="0x18287ab872c"
     d="m 512.17,202.365 v 30"
     id="path248" />
  <path
     class="write-flat-pen"
     fill="#0000ff"
     fill-opacity="1"
     stroke-width="2.4"
     __comx="605.066"
     __comy="2232.953"
     __timestamp="0x18287ad672f"
     d="m 515.952,206.574 0.054,1.138 0.059,0.519 0.155,0.662 0.071,0.64 0.078,0.708 0.05,0.704 -0.028,0.745 v 0.701 l -0.027,0.625 -0.027,0.536 -0.021,0.446 -0.013,0.262 -0.005,0.218 0.027,0.131 1.555,0.827 0.173,-0.218 0.007,-0.53 -0.189,-0.584 0.108,-0.223 -0.409,-0.198 -0.108,0.223 -0.558,0.18 -0.238,-0.09 0.055,-0.132 1.555,0.827 0.034,-0.037 0.046,-0.164 0.041,-0.333 0.036,-0.485 0.03,-0.554 0.03,-0.68 v -0.708 l 0.029,-0.823 -0.067,-0.866 -0.096,-0.757 -0.104,-0.772 -0.197,-0.717 -0.124,-0.458 -0.406,-1.085"
     id="path250" />
  <path
     class="write-flat-pen"
     fill="#0000ff"
     fill-opacity="1"
     stroke-width="2.4"
     __comx="606.616"
     __comy="2232.953"
     __timestamp="0x18287ad685b"
     d="m 517.155,207.859 0.38,-0.858 0.152,-0.175 0.227,-0.165 0.338,-0.142 0.367,-0.057 0.295,0.039 0.249,0.128 0.222,0.216 0.212,0.336 0.121,0.355 0.05,0.378 -0.008,0.321 -0.059,0.268 -0.075,0.188 -0.147,0.207 -0.197,0.212 -0.174,0.143 -0.306,0.152 -0.32,0.19 -0.201,0.087 -0.229,0.08 -0.151,0.077 -0.148,0.065 -0.13,0.154 -0.756,0.419 0.639,1.436 0.817,-0.281 0.031,0.083 0.11,0.01 0.236,-0.068 0.271,-0.075 0.423,-0.174 0.376,-0.224 0.446,-0.222 0.459,-0.382 0.378,-0.415 0.371,-0.534 0.208,-0.591 0.11,-0.615 -0.01,-0.666 -0.126,-0.717 -0.287,-0.739 -0.49,-0.71 -0.651,-0.564 -0.857,-0.339 -0.865,-0.01 -0.794,0.208 -0.712,0.389 -0.533,0.537 -0.26,0.537 -0.328,1.01"
     id="path252" />
  <path
     class="write-flat-pen"
     fill="#0000ff"
     fill-opacity="1"
     stroke-width="2.4"
     __comx="610.762"
     __comy="2232.953"
     __timestamp="0x18287ad6945"
     d="m 522.35,209.43 -0.262,1.181 -0.101,0.415 -0.102,0.421 -0.065,0.478 -0.067,0.479 0.003,0.458 0.018,0.355 0.011,0.333 0.071,0.244 0.089,0.072 0.164,0.187 0.086,0.211 -0.228,0.344 0.598,0.395 0.228,-0.344 0.293,-0.103 0.326,-0.232 0.184,-0.317 0.075,-0.375 0.065,-0.335 0.019,-0.429 0.008,-0.32 0.049,-0.353 0.054,-0.414 0.071,-0.418 0.022,-0.456 0.151,-1.169"
     id="path254" />
  <path
     class="write-flat-pen"
     fill="#0000ff"
     fill-opacity="1"
     stroke-width="2.4"
     __comx="610.937"
     __comy="2232.953"
     __timestamp="0x18287ad69dd"
     d="m 522.335,207.024 0.153,0.931 0.256,0.236 0.331,0.155 0.117,0.318 0.552,-0.203 -0.117,-0.318 0.153,-0.327 0.098,-0.206 -0.098,-0.795"
     id="path256" />
  <path
     class="write-flat-pen"
     fill="#0000ff"
     fill-opacity="1"
     stroke-width="2.4"
     __comx="616.029"
     __comy="2232.953"
     __timestamp="0x18287ad6ac4"
     d="m 525.678,208.142 0.693,0.939 0.285,0.454 0.337,0.475 0.399,0.513 0.369,0.47 0.356,0.449 0.295,0.423 0.197,0.372 0.132,0.39 0.07,0.318 0.037,0.351 0.03,0.262 0.024,0.127 0.073,0.01 0.371,-0.311 0.321,0.143 -0.652,-0.129 -0.238,1.198 0.652,0.129 0.474,0.173 0.492,-0.464 0.174,-0.329 0.125,-0.364 0.028,-0.512 -0.025,-0.535 -0.104,-0.558 -0.219,-0.654 -0.326,-0.617 -0.403,-0.57 -0.399,-0.492 -0.385,-0.469 -0.417,-0.485 -0.363,-0.417 -0.372,-0.404 -0.79,-0.891"
     id="path258" />
  <path
     class="write-flat-pen"
     fill="#0000ff"
     fill-opacity="1"
     stroke-width="2.4"
     __comx="615.808"
     __comy="2232.953"
     __timestamp="0x18287ad6b86"
     d="m 529.28,207.876 -0.967,0.672 -0.482,0.381 -0.445,0.514 -0.43,0.547 -0.43,0.608 -0.407,0.642 -0.279,0.645 -0.156,0.576 -0.041,0.605 0.19,0.806 -0.006,0.01 0.011,0.01 0.006,-0.01 0.83,-0.242 0.482,-0.44 0.365,-0.466 0.302,-0.503 0.348,-0.507 0.384,-0.543 0.385,-0.502 0.321,-0.435 0.253,-0.326 0.802,-0.747"
     id="path260" />
  <path
     class="write-flat-pen"
     fill="#0000ff"
     fill-opacity="1"
     stroke-width="2.4"
     __comx="606.784"
     __comy="2239.837"
     __timestamp="0x18287c5c1aa"
     d="m 519.264,222.736 -0.712,-0.034 -0.139,-0.037 -0.166,-0.038 -0.181,-0.043 -0.163,-0.035 -0.125,-0.061 -0.078,-0.058 -0.092,-0.095 -0.114,-0.148 -0.07,-0.161 -0.053,-0.238 -0.031,-0.235 0.055,-0.206 0.116,-0.255 0.174,-0.235 0.225,-0.205 0.21,-0.137 0.171,-0.073 -0.002,-0.001 -0.146,-0.046 0.049,0.058 0.144,0.26 0.141,0.516 0.116,0.664 0.034,0.729 -0.067,0.773 -0.176,0.828 -0.256,0.812 -0.37,0.841 -0.378,0.78 -0.372,0.666 -0.324,0.506 -0.25,0.357 -0.161,0.201 -0.035,0.058 h 0.056 l 1.253,0.868 -0.095,0.091 -0.044,0.013 0.214,-0.153 0.274,-0.165 0.258,-0.088 0.333,-0.077 0.298,-0.045 h 0.302 l 0.395,-0.032 0.355,-0.014 0.398,10e-4 h 0.343 l 0.323,-0.01 0.221,-0.023 0.122,-0.045 0.079,-0.073 -0.004,-0.062 0.062,-0.053 0.565,0.138 0.244,-1.002 -0.565,-0.138 -0.067,-0.085 -0.122,-0.083 -0.191,-0.073 -0.122,-0.045 -0.221,-0.023 -0.323,-0.01 h -0.344 -0.441 l -0.435,0.029 -0.402,0.051 -0.389,0.04 -0.444,0.123 -0.412,0.134 -0.433,0.165 -0.433,0.261 -0.361,0.248 -0.341,0.311 -0.136,0.231 1.253,0.868 0.154,-0.074 0.177,-0.209 0.194,-0.239 0.303,-0.432 0.372,-0.58 0.418,-0.756 0.412,-0.851 0.42,-0.958 0.301,-0.987 0.196,-1.013 0.073,-0.984 -0.059,-0.944 -0.163,-0.843 -0.234,-0.785 -0.382,-0.628 -0.492,-0.442 -0.601,-0.189 -0.548,0.127 -0.422,0.177 -0.434,0.28 -0.423,0.382 -0.382,0.478 -0.254,0.541 -0.172,0.632 0.065,0.609 0.091,0.471 0.216,0.508 0.315,0.401 0.332,0.316 0.439,0.227 0.452,0.101 0.312,0.01 0.25,-0.01 0.226,-0.038 0.139,-0.037 0.712,-0.034"
     id="path262" />
  <path
     class="write-flat-pen"
     fill="#0000ff"
     fill-opacity="1"
     stroke-width="2.4"
     __comx="611.73"
     __comy="2244.5"
     __timestamp="0x18287c5c289"
     d="m 523.276,225.984 -0.039,0.922 -0.062,0.351 -0.042,0.424 -0.06,0.342 -0.051,0.389 -0.022,0.271 -0.038,0.279 0.006,0.222 0.04,0.225 0.063,0.109 0.081,0.083 0.061,0.083 -0.141,0.567 1.015,0.252 0.141,-0.567 0.099,-0.071 0.119,-0.106 0.103,-0.156 0.088,-0.238 0.051,-0.172 0.052,-0.307 0.024,-0.298 0.041,-0.361 0.031,-0.449 -0.04,-0.471 -0.017,-0.355 -0.039,-0.97"
     id="path264" />
  <path
     class="write-flat-pen"
     fill="#0000ff"
     fill-opacity="1"
     stroke-width="2.4"
     __comx="616.849"
     __comy="2238.261"
     __timestamp="0x18287c5c42a"
     d="m 528.288,219.213 -0.795,0.469 -0.362,0.298 -0.362,0.527 -0.204,0.683 -0.189,0.794 -0.111,0.967 -0.029,0.993 0.048,1.013 0.164,0.94 0.333,0.873 0.503,0.681 0.581,0.524 0.62,0.311 0.699,0.174 0.794,-0.121 0.62,-0.43 0.464,-0.589 0.356,-0.639 0.352,-0.753 0.221,-0.816 0.137,-0.854 0.003,-0.882 -0.142,-0.871 -0.286,-0.802 -0.377,-0.696 -0.521,-0.617 -0.652,-0.425 -0.778,-0.215 -0.806,0.03 -0.803,0.289 -0.737,0.47 -0.628,0.689 -0.485,0.802 -0.007,-0.001 0.006,0.01 0.002,-0.01 0.909,-0.118 0.814,-0.147 0.658,-0.116 0.501,-0.045 0.31,0.032 0.245,0.08 0.18,0.118 0.222,0.261 0.227,0.39 0.178,0.494 0.09,0.551 0.003,0.582 -0.096,0.61 -0.152,0.564 -0.253,0.545 -0.251,0.451 -0.197,0.252 -0.033,0.023 h 0.007 l -0.133,-0.036 -0.211,-0.106 -0.254,-0.228 -0.239,-0.322 -0.178,-0.465 -0.114,-0.649 -0.045,-0.827 0.017,-0.848 0.075,-0.791 0.137,-0.673 0.082,-0.458 0.039,-0.208 0.005,-0.09 0.604,-0.423"
     id="path266" />
  <path
     class="write-flat-pen"
     fill="#000000"
     fill-opacity="0.427"
     stroke-width="2.4"
     __comx="142.901"
     __comy="2223.252"
     __timestamp="0x182884a8ce3"
     d="m 55.066,205.615 v 0.01 h 0.01 v -0.01"
     id="path268" />
  <path
     class="write-stroke-pen"
     fill="none"
     stroke="#000000"
     stroke-width="2.4"
     stroke-linecap="round"
     stroke-linejoin="round"
     __comx="615"
     __comy="2219.6"
     __timestamp="0x182884eb733"
     d="m 512.17,202.365 h 30"
     id="path270" />
  <path
     class="write-stroke-pen"
     fill="none"
     stroke="#000000"
     stroke-width="2.4"
     stroke-linecap="round"
     stroke-linejoin="round"
     __comx="615"
     __comy="2249.6"
     __timestamp="0x182884eba4e"
     d="m 512.17,232.365 h 30"
     id="path272" />
  <path
     class="write-stroke-pen"
     fill="none"
     stroke="#000000"
     stroke-opacity="0.427"
     stroke-width="2.4"
     stroke-linecap="round"
     stroke-linejoin="round"
     __comx="645"
     __comy="2054.6"
     __timestamp="0x18288efc341"
     d="m 542.17,52.365 30,-30"
     id="path274" />
  <path
     class="write-stroke-pen"
     fill="none"
     stroke="#000000"
     stroke-opacity="0.427"
     stroke-width="2.4"
     stroke-linecap="round"
     stroke-linejoin="round"
     __comx="675"
     __comy="2054.6"
     __timestamp="0x18288efc5f3"
     d="m 572.17,52.365 30,-30"
     id="path276" />
  <path
     class="write-stroke-pen"
     fill="none"
     stroke="#000000"
     stroke-opacity="0.427"
     stroke-width="2.4"
     stroke-linecap="round"
     stroke-linejoin="round"
     __comx="150"
     __comy="2069.6"
     __timestamp="0x18288efdbe0"
     d="m 62.17,52.365 v 0"
     id="path278" />
  <path
     class="write-stroke-pen"
     fill="none"
     stroke="#000000"
     stroke-opacity="0.427"
     stroke-width="2.4"
     stroke-linecap="round"
     stroke-linejoin="round"
     __comx="165"
     __comy="2054.6"
     __timestamp="0x18288efdeae"
     d="m 62.17,52.365 30,-30"
     id="path280" />
  <path
     class="write-stroke-pen"
     fill="none"
     stroke="#000000"
     stroke-opacity="0.427"
     stroke-width="2.4"
     stroke-linecap="round"
     stroke-linejoin="round"
     __comx="195"
     __comy="2054.6"
     __timestamp="0x18288efe0a6"
     d="m 92.17,52.365 30,-30"
     id="path282" />
</svg>
