<?xml version="1.0" encoding="UTF-8" standalone="no"?>
<svg
   version="1.1"
   id="svg246"
   sodipodi:docname="duplicate_ab_00.svg"
   width="661.349"
   height="111.152"
   inkscape:version="1.2 (1:1.2.1+202207142221+cd75a1ee6d)"
   xmlns:inkscape="http://www.inkscape.org/namespaces/inkscape"
   xmlns:sodipodi="http://sodipodi.sourceforge.net/DTD/sodipodi-0.dtd"
   xmlns="http://www.w3.org/2000/svg"
   xmlns:svg="http://www.w3.org/2000/svg">
  <defs
     id="defs250" />
  <sodipodi:namedview
     id="namedview248"
     pagecolor="#ffffff"
     bordercolor="#666666"
     borderopacity="1.0"
     inkscape:showpageshadow="2"
     inkscape:pageopacity="0.0"
     inkscape:pagecheckerboard="0"
     inkscape:deskcolor="#d1d1d1"
     showgrid="false"
     inkscape:zoom="4.3666667"
     inkscape:cx="109.69466"
     inkscape:cy="-1554.0458"
     inkscape:window-width="1920"
     inkscape:window-height="1011"
     inkscape:window-x="0"
     inkscape:window-y="0"
     inkscape:window-maximized="1"
     inkscape:current-layer="svg246" />
  <path
     class="write-stroke-pen"
     fill="none"
     stroke="#000000"
     stroke-width="2.4"
     stroke-linecap="round"
     stroke-linejoin="round"
     __comx="150"
     __comy="1684.6"
     __timestamp="0x18287aa6ee9"
     d="m 112.429,51.033 v 30"
     id="path2" />
  <path
     class="write-stroke-pen"
     fill="none"
     stroke="#000000"
     stroke-width="2.4"
     stroke-linecap="round"
     stroke-linejoin="round"
     __comx="300"
     __comy="1679.6"
     __timestamp="0x18287aa864a"
     d="m 112.429,51.033 h 30 30 30 30 30 60 60 30"
     id="path4" />
  <path
     class="write-stroke-pen"
     fill="none"
     stroke="#000000"
     stroke-width="2.4"
     stroke-linecap="round"
     stroke-linejoin="round"
     __comx="540"
     __comy="1679.6"
     __timestamp="0x18287aaa037"
     d="m 412.429,51.033 h 30 30 30 30 30 30"
     id="path6" />
  <path
     class="write-stroke-pen"
     fill="none"
     stroke="#000000"
     stroke-width="2.4"
     stroke-linecap="round"
     stroke-linejoin="round"
     __comx="630"
     __comy="1684.6"
     __timestamp="0x18287aaa453"
     d="m 592.429,51.033 v 30"
     id="path8" />
  <path
     class="write-stroke-pen"
     fill="none"
     stroke="#000000"
     stroke-width="2.4"
     stroke-linecap="round"
     stroke-linejoin="round"
     __comx="390"
     __comy="1709.6"
     __timestamp="0x18287aaafc4"
     d="m 112.429,81.033 h 30 30 30 30 30 30 30 30 30 30 30 30 30 30 30 30"
     id="path10" />
  <path
     class="write-stroke-pen"
     fill="none"
     stroke="#000000"
     stroke-width="2.4"
     stroke-linecap="round"
     stroke-linejoin="round"
     __comx="510"
     __comy="1709.6"
     __timestamp="0x18287aac9b9"
     d="m 472.429,81.033 v 0"
     id="path12" />
  <path
     class="write-flat-pen"
     fill="#000000"
     stroke-width="2.4"
     __comx="43.627"
     __comy="1701.003"
     __timestamp="0x18287ab1766"
     d="m 2.05,70.029 0.113,-0.788 0.083,-0.136 0.223,-0.33 0.415,-0.475 0.42,-0.417 0.279,-0.243 0.322,-0.241 0.169,-0.142 0.197,-0.172 -0.042,0.043 -0.482,0.01 -0.173,-0.165 0.127,0.375 0.198,0.774 0.05,1.04 0.05,1.204 -0.003,1.204 -10e-4,1.066 v 1.03 l 0.119,0.826 0.122,0.727 0.193,0.605 0.198,0.435 0.271,0.442 0.469,0.345 0.317,0.145 0.31,0.061 0.583,0.037 0.704,-0.321 0.575,-0.661 0.488,-0.8 0.372,-0.847 0.364,-0.945 0.243,-0.921 0.236,-0.958 0.181,-1.023 0.12,-0.962 0.059,-0.883 0.055,-0.692 0.054,-0.639 0.048,-0.4 0.045,-0.3 0.035,-0.175 0.026,-0.099 -1.241,0.518 -0.348,-0.186 -0.029,-0.117 0.044,0.679 0.047,0.986 0.042,1.159 -0.011,1.152 -0.009,1.325 0.112,1.219 0.11,1.129 0.116,1.055 0.169,0.927 0.112,0.801 0.111,0.661 0.109,0.638 0.054,0.464 0.059,0.473 0.047,0.245 0.031,0.229 0.08,0.253 0.163,0.137 0.198,0.737 1.183,-0.079 0.098,-0.757 0.137,-0.243 -0.002,-0.25 0.005,-0.24 -0.048,-0.31 -0.051,-0.422 -0.059,-0.509 -0.117,-0.687 -0.108,-0.633 -0.114,-0.814 -0.167,-0.9 -0.11,-0.978 L 10.678,73.211 10.565,72.088 10.556,70.853 10.544,69.656 10.471,68.444 10.398,67.425 10.32,66.712 10.221,65.906 9.76,65.659 8.519,66.177 8.466,66.346 8.408,66.635 8.352,67.003 8.298,67.459 8.241,68.133 8.185,68.84 8.128,69.684 8.02,70.552 7.856,71.474 7.636,72.361 7.421,73.169 7.095,73.974 6.77,74.668 6.411,75.234 6.182,75.482 6.247,75.449 6.24,75.439 6.254,75.44 6.302,75.461 6.273,75.437 6.249,75.396 6.144,75.16 6.023,74.779 5.924,74.203 5.827,73.529 V 72.63 L 5.826,71.564 5.822,70.317 5.758,69.063 5.681,67.829 5.391,66.794 5.081,66.02 4.478,65.4 3.466,65.413 3.061,65.847 2.938,65.958 2.815,66.067 2.482,66.333 2.128,66.667 1.649,67.17 1.131,67.783 0.789,68.34 0.601,68.847 0.543,69.887"
     id="path14" />
  <path
     class="write-flat-pen"
     fill="#000000"
     stroke-width="2.4"
     __comx="51.441"
     __comy="1701.003"
     __timestamp="0x18287ab186a"
     d="m 12.869,69.392 -0.033,1.521 -0.05,0.964 0.015,1.057 0.045,0.917 0.054,0.923 0.057,0.842 0.112,0.823 0.059,0.644 0.031,0.619 0.059,0.425 0.099,0.294 0.075,0.233 -0.121,0.645 1.033,0.288 0.23,-0.615 0.238,-0.353 0.098,-0.493 0.058,-0.43 0.024,-0.693 -0.056,-0.763 -0.11,-0.812 -0.055,-0.775 -0.059,-0.915 -0.067,-0.909 -0.096,-1 -0.05,-0.918 -0.033,-1.521"
     id="path16" />
  <path
     class="write-flat-pen"
     fill="#000000"
     stroke-width="2.4"
     __comx="50.603"
     __comy="1701.003"
     __timestamp="0x18287ab1916"
     d="m 12.367,62.106 0.303,1.396 0.569,1.008 0.003,0.029 h 0.019 l -0.003,-0.029 0.339,-1.091 0.101,-1.408"
     id="path18" />
  <path
     class="write-flat-pen"
     fill="#000000"
     stroke-width="2.4"
     __comx="58.552"
     __comy="1701.003"
     __timestamp="0x18287ab1afb"
     d="m 17.021,69.034 -0.067,1.293 -0.059,0.739 -0.045,1.075 0.041,1.017 0.109,1.047 0.106,1.074 0.107,1.052 0.055,0.946 0.053,0.834 10e-4,0.669 v 0.538 0.32 l 0.002,0.228 h 1.841 l -0.059,-0.237 0.103,-0.679 0.257,-1.059 0.368,-1.206 0.436,-1.288 0.379,-1.272 0.439,-1.162 0.394,-1.114 0.355,-0.869 0.546,-0.766 0.413,-0.455 0.409,-0.285 0.056,-0.019 h -0.356 l -0.095,-0.049 0.109,0.401 0.143,0.856 0.09,1.069 0.038,1.182 -0.011,1.308 -0.007,1.327 v 1.197 l -0.054,1.039 -0.052,1.013 -0.037,0.845 -0.016,0.62 0.02,0.388 0.041,0.201 1.028,-0.568 0.364,0.184 -0.328,0.14 -0.047,-0.47 -0.768,0.077 0.047,0.47 -0.26,0.817 0.44,0.213 1.028,-0.568 0.126,-0.233 0.122,-0.467 0.092,-0.664 0.075,-0.87 0.061,-1.024 0.057,-1.093 v -1.248 l -0.007,-1.328 -0.012,-1.353 -0.077,-1.276 -0.144,-1.2 -0.234,-1.061 -0.306,-0.752 -0.54,-0.637 -0.862,-0.07 -0.555,0.356 -0.571,0.421 -0.574,0.636 -0.696,0.975 -0.433,1.06 -0.399,1.128 -0.466,1.183 -0.416,1.28 -0.472,1.268 -0.429,1.258 -0.319,1.133 -0.221,0.879 -0.059,0.415 h 1.841 l 0.002,-0.228 v -0.32 -0.541 l -0.002,-0.729 -0.06,-0.886 -0.059,-0.983 -0.12,-1.093 -0.122,-1.076 -0.116,-1.002 -0.07,-0.918 -0.045,-1.024 -0.059,-0.739 -0.067,-1.293"
     id="path20" />
  <path
     class="write-flat-pen"
     fill="#000000"
     stroke-width="2.4"
     __comx="66.737"
     __comy="1701.003"
     __timestamp="0x18287ab1c16"
     d="m 27.433,59.14 0.257,1.185 0.119,0.903 0.145,1.423 0.204,1.761 0.097,2.059 0.098,2.196 0.104,2.133 0.052,1.995 0.113,1.909 0.113,1.671 0.056,1.619 0.056,1.461 0.01,1.334 -0.027,1.195 -0.014,0.975 -0.014,0.766 0.034,0.444 0.119,0.424 0.047,0.22 -0.236,0.257 0.328,0.3 0.236,-0.257 0.295,-0.05 0.529,-0.361 0.347,-0.618 0.207,-0.95 0.098,-1.049 0.085,-1.248 0.009,-1.42 -0.057,-1.497 -0.057,-1.648 -0.114,-1.697 -0.114,-1.869 -0.062,-1.987 -0.123,-2.156 -0.129,-2.196 -0.131,-2.13 -0.251,-1.82 -0.204,-1.478 -0.261,-1.044 -0.494,-1.212"
     id="path22" />
  <path
     class="write-flat-pen"
     fill="#000000"
     stroke-width="2.4"
     __comx="66.37"
     __comy="1701.003"
     __timestamp="0x18287ab1cfa"
     d="m 26.132,70.45 1.429,0.191 0.654,0.106 0.63,0.056 0.5,-0.02 0.49,-0.011 0.465,-0.148 0.468,-0.224 0.229,-0.299 0.468,-0.076 -0.112,-0.691 -0.468,0.076 -0.28,-0.216 -0.457,-0.124 -0.304,-0.081 -0.396,-0.098 -0.499,-0.031 -0.487,-0.052 -0.63,-0.098 -1.468,-0.163"
     id="path24" />
  <path
     class="write-flat-pen"
     fill="#000000"
     stroke-width="2.4"
     __comx="75.027"
     __comy="1701.003"
     __timestamp="0x18287ab1f78"
     d="m 34.994,62.814 0.84,-1.012 0.535,-0.491 0.611,-0.55 0.621,-0.349 0.373,-0.185 0.244,-0.06 -0.121,0.011 -0.21,-0.104 0.031,0.081 0.05,0.436 0.05,0.822 -0.089,0.716 -0.287,0.784 -0.29,0.651 -0.28,0.428 -0.2,0.314 -0.365,0.521 0.347,0.929 0.615,0.41 0.555,0.268 0.579,0.241 0.495,0.353 0.442,0.431 0.401,0.634 0.288,0.869 0.248,1.171 0.087,1.274 -0.015,1.2 -0.219,1.167 -0.355,1.053 -0.491,0.864 -0.595,0.792 -0.487,0.474 -0.535,0.363 -0.466,0.233 -0.45,0.141 -0.439,0.011 -0.453,-0.111 -0.541,-0.317 -0.52,-0.442 -0.403,-0.41 -0.342,-0.364 -0.21,-0.233 -0.225,-0.269 -0.488,-0.642 0.029,-0.124 -0.134,-0.032 -0.029,0.124 -0.783,0.607 -0.071,0.841 0.254,0.751 0.45,0.643 0.487,0.581 0.731,0.67 0.961,0.591 1.032,0.276 1.039,-0.015 0.908,-0.283 0.752,-0.376 0.812,-0.558 0.735,-0.732 0.763,-1.046 0.637,-1.173 0.436,-1.396 0.233,-1.489 -0.016,-1.453 -0.142,-1.486 -0.326,-1.397 -0.407,-1.181 -0.648,-1.013 -0.705,-0.687 -0.789,-0.562 -0.724,-0.303 -0.373,-0.186 0.035,0.01 0.237,0.618 -0.194,0.278 0.219,-0.343 0.362,-0.554 0.379,-0.862 0.385,-1.064 0.128,-1.124 -0.075,-1.072 -0.138,-0.923 -0.544,-0.818 -0.695,-0.379 -0.612,0.04 -0.613,0.159 -0.589,0.299 -0.838,0.472 -0.774,0.698 -0.64,0.601 -0.885,1.152"
     id="path26" />
  <path
     class="write-flat-pen"
     fill="#000000"
     stroke-width="2.4"
     __comx="85.52"
     __comy="1699.152"
     __timestamp="0x18287ab3a29"
     d="m 48.816,63.225 -0.851,0.128 -0.296,0.03 -0.331,0.052 -0.193,0.05 -0.194,0.031 -0.336,0.043 -0.108,0.012 -0.128,-0.015 -0.05,-0.01 0.056,0.032 -0.075,-0.096 -0.121,-0.329 -0.048,-0.412 0.103,-0.487 0.253,-0.593 0.372,-0.495 0.512,-0.43 0.562,-0.279 0.539,-0.167 0.412,-0.071 0.219,0.031 0.189,0.167 0.312,0.566 0.24,1.047 0.145,1.394 -0.116,1.539 -0.332,1.668 -0.539,1.654 -0.8,1.61 -0.97,1.495 -1.089,1.419 -1.051,1.193 -0.954,1.061 -0.853,0.921 -0.637,0.73 -0.454,0.565 -0.216,0.288 -0.076,0.098 1.523,1.28 -0.059,0.011 0.282,-0.263 0.654,-0.453 0.744,-0.48 0.776,-0.375 0.64,-0.263 0.471,-0.104 0.472,-0.025 0.505,0.049 0.574,0.176 0.64,0.202 0.711,0.27 0.801,0.191 0.619,0.063 0.61,0.056 h 0.479 0.255 l 0.211,-0.014 0.474,-0.184 0.243,-0.358 0.062,-0.335 0.505,-0.402 -0.611,-0.768 -0.505,0.402 -0.289,-0.057 -0.036,-0.176 0.023,-0.123 -0.074,-0.014 -0.244,-0.01 -0.389,-0.01 -0.52,-0.047 -0.478,-0.047 -0.551,-0.125 -0.656,-0.236 -0.722,-0.205 -0.799,-0.213 -0.871,-0.036 -0.765,0.093 -0.738,0.203 -0.811,0.343 -0.924,0.447 -0.862,0.555 -0.749,0.509 -0.581,0.45 -0.162,0.159 1.523,1.28 0.187,-0.161 0.303,-0.364 0.429,-0.524 0.593,-0.678 0.843,-0.911 0.972,-1.08 1.103,-1.255 1.18,-1.542 1.072,-1.671 0.902,-1.862 0.595,-1.92 0.348,-1.908 0.109,-1.834 -0.199,-1.681 -0.349,-1.43 -0.648,-1.087 -0.87,-0.703 -1.027,-0.138 -0.812,0.141 -0.796,0.245 -0.896,0.443 -0.845,0.708 -0.636,0.841 -0.42,0.965 -0.207,0.963 0.101,0.937 0.301,0.827 0.471,0.592 0.563,0.342 0.519,0.068 0.447,0.014 0.312,-0.076 0.368,-0.084 0.371,-0.114 0.249,-0.134 0.248,-0.156 0.146,-0.129 0.731,-0.185"
     id="path28" />
  <path
     class="write-flat-pen"
     fill="#000000"
     stroke-width="2.4"
     __comx="97.97"
     __comy="1699.152"
     __timestamp="0x18287ab3bdb"
     d="m 55.95,78.622 1.724,0.127 0.997,0.061 1.053,0.058 h 0.956 l 0.909,-0.048 0.692,-10e-4 h 0.595 l 0.518,-0.051 0.304,-0.051 0.4,-0.088 0.628,-0.407 0.121,-0.685 -0.133,-0.286 -0.211,-0.29 0.115,-0.595 -0.901,-0.174 -0.115,0.595 -0.31,0.225 -0.184,0.072 -0.039,-0.269 0.262,-0.193 h -0.015 l -0.197,0.029 -0.348,0.034 H 62.279 61.528 L 60.622,76.736 59.778,76.737 58.78,76.692 57.791,76.647 56.07,76.57"
     id="path30" />
  <path
     class="write-flat-pen"
     fill="#000000"
     stroke-width="2.4"
     __comx="105.897"
     __comy="1699.152"
     __timestamp="0x18287ab3d7b"
     d="m 65.248,56.072 -0.177,1.443 0.021,1.081 0.089,1.388 0.03,1.751 -0.021,1.858 -0.066,1.961 -0.121,1.922 -0.121,1.851 -0.062,1.695 -0.063,1.47 0.192,1.343 0.348,1.198 0.589,0.876 0.634,0.645 0.667,0.48 0.652,0.278 0.648,0.203 0.771,0.094 0.606,-0.124 0.66,-0.223 0.536,-0.386 0.42,-0.49 0.389,-0.628 0.024,-0.728 -0.282,-0.623 0.077,-0.206 -0.255,-0.095 -0.077,0.206 -0.618,0.279 -0.364,0.272 -0.314,0.191 -0.299,0.213 -0.153,0.07 -0.27,0.067 -0.153,0.023 -0.236,-0.033 -0.36,-0.114 -0.334,-0.144 -0.323,-0.231 -0.364,-0.37 -0.29,-0.43 -0.212,-0.728 -0.145,-0.995 0.051,-1.279 0.051,-1.673 0.106,-1.825 0.106,-1.958 0.047,-2.023 -0.021,-1.921 -0.084,-1.832 -0.139,-1.404 -0.083,-0.956 -0.046,-1.362"
     id="path32" />
  <path
     class="write-flat-pen"
     fill="#000000"
     stroke-width="2.4"
     __comx="104.2"
     __comy="1699.152"
     __timestamp="0x18287ab3e65"
     d="m 62.684,69.002 1.334,-0.195 0.573,-0.037 0.741,-0.096 0.973,-0.055 0.907,-0.103 0.82,-0.06 0.793,-0.087 0.667,-0.13 0.64,-0.254 0.391,-0.422 h 0.415 l -0.005,-0.66 h -0.415 l -0.447,-0.416 -0.72,-0.152 -0.668,-0.031 -0.784,0.015 -0.871,0.044 -0.902,0.098 -0.998,0.057 -0.791,0.112 -0.619,0.088 -1.398,0.312"
     id="path34" />
  <path
     class="write-stroke-pen"
     fill="none"
     stroke="#000000"
     stroke-width="2.4"
     stroke-linecap="round"
     stroke-linejoin="round"
     __comx="180"
     __comy="1695.938"
     __timestamp="0x18287ab6a5a"
     d="m 142.429,51.033 v 30"
     id="path36" />
  <path
     class="write-stroke-pen"
     fill="none"
     stroke="#000000"
     stroke-width="2.4"
     stroke-linecap="round"
     stroke-linejoin="round"
     __comx="210"
     __comy="1695.938"
     __timestamp="0x18287ab6c8d"
     d="m 172.429,51.033 v 30"
     id="path38" />
  <path
     class="write-stroke-pen"
     fill="none"
     stroke="#000000"
     stroke-width="2.4"
     stroke-linecap="round"
     stroke-linejoin="round"
     __comx="240"
     __comy="1695.938"
     __timestamp="0x18287ab6e78"
     d="m 202.429,51.033 v 30"
     id="path40" />
  <path
     class="write-stroke-pen"
     fill="none"
     stroke="#000000"
     stroke-width="2.4"
     stroke-linecap="round"
     stroke-linejoin="round"
     __comx="270"
     __comy="1695.938"
     __timestamp="0x18287ab703b"
     d="m 232.429,51.033 v 30"
     id="path42" />
  <path
     class="write-stroke-pen"
     fill="none"
     stroke="#000000"
     stroke-width="2.4"
     stroke-linecap="round"
     stroke-linejoin="round"
     __comx="300"
     __comy="1695.938"
     __timestamp="0x18287ab7230"
     d="m 262.429,81.033 v 0"
     id="path44" />
  <path
     class="write-stroke-pen"
     fill="none"
     stroke="#000000"
     stroke-width="2.4"
     stroke-linecap="round"
     stroke-linejoin="round"
     __comx="300"
     __comy="1695.938"
     __timestamp="0x18287ab7481"
     d="m 262.429,51.033 v 30"
     id="path46" />
  <path
     class="write-stroke-pen"
     fill="none"
     stroke="#000000"
     stroke-width="2.4"
     stroke-linecap="round"
     stroke-linejoin="round"
     __comx="330"
     __comy="1695.938"
     __timestamp="0x18287ab7625"
     d="m 292.429,51.033 v 30"
     id="path48" />
  <path
     class="write-stroke-pen"
     fill="none"
     stroke="#000000"
     stroke-width="2.4"
     stroke-linecap="round"
     stroke-linejoin="round"
     __comx="360"
     __comy="1695.938"
     __timestamp="0x18287ab788b"
     d="m 322.429,51.033 v 30"
     id="path50" />
  <path
     class="write-stroke-pen"
     fill="none"
     stroke="#000000"
     stroke-width="2.4"
     stroke-linecap="round"
     stroke-linejoin="round"
     __comx="390"
     __comy="1695.938"
     __timestamp="0x18287ab79f1"
     d="m 352.429,51.033 v 30"
     id="path52" />
  <path
     class="write-stroke-pen"
     fill="none"
     stroke="#000000"
     stroke-width="2.4"
     stroke-linecap="round"
     stroke-linejoin="round"
     __comx="420"
     __comy="1695.938"
     __timestamp="0x18287ab7b9f"
     d="m 382.429,51.033 v 30"
     id="path54" />
  <path
     class="write-stroke-pen"
     fill="none"
     stroke="#000000"
     stroke-width="2.4"
     stroke-linecap="round"
     stroke-linejoin="round"
     __comx="450"
     __comy="1695.938"
     __timestamp="0x18287ab7e4c"
     d="m 412.429,51.033 v 30"
     id="path56" />
  <path
     class="write-stroke-pen"
     fill="none"
     stroke="#000000"
     stroke-width="2.4"
     stroke-linecap="round"
     stroke-linejoin="round"
     __comx="480"
     __comy="1695.938"
     __timestamp="0x18287ab7fc7"
     d="m 442.429,51.033 v 30"
     id="path58" />
  <path
     class="write-stroke-pen"
     fill="none"
     stroke="#000000"
     stroke-width="2.4"
     stroke-linecap="round"
     stroke-linejoin="round"
     __comx="510"
     __comy="1695.938"
     __timestamp="0x18287ab816b"
     d="m 472.429,51.033 v 30"
     id="path60" />
  <path
     class="write-stroke-pen"
     fill="none"
     stroke="#000000"
     stroke-width="2.4"
     stroke-linecap="round"
     stroke-linejoin="round"
     __comx="540"
     __comy="1695.938"
     __timestamp="0x18287ab8337"
     d="m 502.429,51.033 v 30"
     id="path62" />
  <path
     class="write-stroke-pen"
     fill="none"
     stroke="#000000"
     stroke-width="2.4"
     stroke-linecap="round"
     stroke-linejoin="round"
     __comx="570"
     __comy="1695.938"
     __timestamp="0x18287ab85a7"
     d="m 532.429,51.033 v 30"
     id="path64" />
  <path
     class="write-stroke-pen"
     fill="none"
     stroke="#000000"
     stroke-width="2.4"
     stroke-linecap="round"
     stroke-linejoin="round"
     __comx="600"
     __comy="1695.938"
     __timestamp="0x18287ab872c"
     d="m 562.429,51.033 v 30"
     id="path66" />
  <path
     class="write-flat-pen"
     fill="#000000"
     stroke-width="2.4"
     __comx="42.41"
     __comy="1731.505"
     __timestamp="0x18287abadda"
     d="M 9.679,96.697 8.877,96.347 8.552,96.175 8.256,96.087 7.73,96.044 7.231,96.034 H 6.701 L 6.188,96.033 5.811,96.032 H 5.35 4.984 l -0.52,0.051 -0.533,0.134 -0.377,0.221 -0.384,0.185 -0.288,0.214 -0.286,0.287 -0.288,0.269 -0.138,0.33 -0.199,0.598 0.47,0.899 0.586,0.439 0.622,0.225 0.605,0.266 0.651,0.203 0.498,0.277 0.53,0.384 0.368,0.366 0.454,0.538 0.325,0.535 0.231,0.576 0.14,0.629 0.044,0.626 -0.048,0.589 -0.093,0.49 -0.108,0.318 -0.107,0.155 -0.312,0.228 -0.4,0.308 -0.343,0.177 -0.454,0.129 -0.505,0.122 -0.565,0.01 H 3.889 l -0.6,-0.08 -0.526,-0.153 -0.308,-0.149 -0.231,-0.195 -0.141,-0.173 -0.062,-0.081 -0.044,-0.113 -0.045,-0.132 -0.023,-0.022 -0.018,-0.055 0.008,-0.16 0.143,-0.288 0.215,-0.444 0.237,-0.539 0.134,-0.084 -0.073,-0.116 -0.134,0.084 -0.57,-0.033 -0.56,-0.016 -0.627,0.3 -0.407,0.488 -0.257,0.601 0.025,0.594 0.076,0.35 0.136,0.461 0.265,0.388 0.298,0.376 0.569,0.482 0.684,0.33 0.831,0.241 0.879,0.113 h 0.818 l 0.805,-0.021 0.758,-0.194 0.676,-0.204 0.665,-0.354 0.518,-0.411 0.566,-0.434 0.417,-0.663 0.209,-0.68 0.12,-0.712 0.052,-0.829 -0.08,-0.901 L 9.074,102.48 8.727,101.633 8.25,100.851 7.653,100.143 7.127,99.62 6.392,99.087 5.631,98.665 4.899,98.438 4.334,98.189 3.918,98.037 3.895,98.013 3.99,98.179 3.92,98.391 3.877,98.494 3.896,98.477 4.108,98.265 4.143,98.239 4.436,98.098 4.648,97.973 4.787,97.938 5.077,97.909 H 5.35 5.811 l 0.376,-0.001 0.512,-0.001 0.519,-10e-4 h 0.443 l 0.317,0.01 0.111,0.012 0.363,0.025 0.903,0.068"
     id="path68" />
  <path
     class="write-flat-pen"
     fill="#000000"
     stroke-width="2.4"
     __comx="50.403"
     __comy="1731.505"
     __timestamp="0x18287abaf49"
     d="m 12.601,90.133 -0.066,1.513 -0.1,1.182 -0.08,1.545 -0.078,1.755 -0.015,1.855 -0.01,1.787 -0.008,1.769 -0.06,1.633 -0.002,1.422 -0.055,1.246 -0.056,1.056 -0.053,0.858 -0.095,0.644 -0.076,0.553 -0.044,0.182 -0.028,0.104 0.313,-0.302 0.29,0.312 -0.705,-0.187 -0.323,1.218 0.705,0.187 0.728,0.428 0.507,-0.569 0.233,-0.266 0.25,-0.574 0.147,-0.76 0.121,-0.75 0.059,-0.961 0.056,-1.073 0.058,-1.3 -0.001,-1.432 0.053,-1.633 -0.008,-1.805 -0.01,-1.787 -0.015,-1.823 0.036,-1.72 0.035,-1.535 0.01,-1.241 -0.144,-1.571"
     id="path70" />
  <path
     class="write-flat-pen"
     fill="#000000"
     stroke-width="2.4"
     __comx="50.896"
     __comy="1731.505"
     __timestamp="0x18287abb032"
     d="m 10.037,101.338 1.266,0.012 0.611,0.013 0.701,-0.046 h 0.519 l 0.664,-0.015 0.626,-0.094 0.589,-0.113 0.621,-0.167 0.493,-0.478 0.441,-0.135 h 0.119 v -0.057 h -0.119 l -0.441,-0.135 -0.493,-0.478 -0.627,-0.167 -0.658,-0.105 h -0.624 l -0.598,-0.015 h -0.585 l -0.702,0.05 -0.585,0.021 -1.295,0.12"
     id="path72" />
  <path
     class="write-flat-pen"
     fill="#000000"
     stroke-width="2.4"
     __comx="56.352"
     __comy="1731.505"
     __timestamp="0x18287abb1d3"
     d="m 21.948,102.028 -0.442,1.286 -0.357,0.653 -0.416,0.619 -0.378,0.503 -0.459,0.416 -0.515,0.373 -0.493,0.353 -0.543,0.251 -0.581,0.179 -0.548,0.126 -0.404,0.01 -0.395,-0.026 -0.271,-0.09 -0.201,-0.142 -0.163,-0.277 -0.131,-0.446 -0.012,-0.449 0.194,-0.599 0.34,-0.586 0.551,-0.546 0.557,-0.421 0.591,-0.29 0.538,-0.165 0.479,-0.072 0.33,0.058 0.34,0.195 0.547,0.461 0.568,0.699 0.488,0.86 0.374,0.862 0.131,0.757 0.002,0.861 0.054,0.752 0.005,0.615 0.015,0.425 0.027,0.273 0.037,0.122 0.956,0.923 0.058,-0.062 0.918,-0.032 -0.06,-1.728 -0.918,0.032 -0.062,-0.058 0.956,0.923 0.037,-0.122 0.027,-0.273 0.015,-0.429 v -0.686 l -0.054,-0.752 -0.005,-0.967 -0.214,-1.167 -0.536,-1.178 -0.655,-1.082 -0.818,-0.946 -0.869,-0.675 -0.808,-0.383 -0.903,-0.114 -0.872,0.144 -0.797,0.247 -0.872,0.432 -0.789,0.596 -0.805,0.797 -0.558,0.956 -0.353,1.069 0.014,0.985 0.24,0.886 0.455,0.824 0.732,0.541 0.752,0.28 0.736,0.063 0.691,-0.01 0.808,-0.186 0.769,-0.238 0.819,-0.383 0.64,-0.464 0.602,-0.442 0.664,-0.615 0.516,-0.712 0.485,-0.818 0.33,-0.93 0.337,-1.429"
     id="path74" />
  <path
     class="write-flat-pen"
     fill="#000000"
     stroke-width="2.4"
     __comx="64.503"
     __comy="1731.505"
     __timestamp="0x18287abb2dd"
     d="m 25.776,91.102 -0.131,1.496 -0.044,1.113 0.088,1.567 0.042,1.681 0.103,1.906 0.102,1.774 0.053,1.62 0.057,1.484 0.057,1.279 0.056,1.095 0.007,0.789 -0.033,0.709 -0.024,0.565 0.007,0.257 0.035,0.115 0.07,0.117 0.088,0.233 -0.45,0.545 0.859,0.709 0.45,-0.545 0.363,-0.101 0.256,-0.268 0.203,-0.348 0.107,-0.491 0.084,-0.622 0.075,-0.802 0.006,-0.916 -0.057,-1.141 -0.056,-1.266 -0.057,-1.474 -0.061,-1.646 -0.124,-1.799 -0.124,-1.874 -0.072,-1.692 -0.138,-1.529 -0.041,-1.018 -0.06,-1.479"
     id="path76" />
  <path
     class="write-flat-pen"
     fill="#000000"
     stroke-width="2.4"
     __comx="64.103"
     __comy="1731.505"
     __timestamp="0x18287abb3b6"
     d="m 23.285,102.278 1.359,0.01 0.539,0.01 0.685,0.044 0.557,0.086 0.557,0.086 0.675,0.069 0.634,-0.035 0.507,-0.127 0.48,-0.253 0.286,-0.364 0.287,-0.039 -0.048,-0.348 -0.287,0.039 -0.352,-0.277 -0.422,-0.169 -0.359,-0.138 -0.483,-0.143 -0.588,-0.139 -0.56,-0.113 -0.668,-0.106 -0.844,-0.052 -0.637,0.015 -1.386,0.11"
     id="path78" />
  <path
     class="write-flat-pen"
     fill="#000000"
     stroke-width="2.4"
     __comx="72.322"
     __comy="1731.505"
     __timestamp="0x18287abb556"
     d="m 31.178,99.377 -0.162,1.124 -0.184,0.733 -0.153,1.015 -0.137,1.24 -0.012,1.275 -0.008,1.223 0.119,1.249 0.236,0.922 0.204,0.854 0.452,0.713 0.335,0.377 0.365,0.347 0.766,0.181 0.793,-0.215 0.677,-0.527 0.671,-0.788 0.526,-0.946 0.47,-1.024 0.486,-1.114 0.302,-1.246 0.339,-1.224 0.29,-1.149 0.173,-0.819 0.114,-0.539 0.059,-0.265 -1.913,-0.099 -0.022,0.152 -0.014,0.63 -0.006,0.888 -0.004,1.086 v 1.075 l 0.115,1.056 0.06,0.911 0.178,0.811 0.116,0.6 0.092,0.592 0.253,0.52 0.304,0.391 0.401,0.237 0.621,0.053 0.352,-0.279 0.548,-0.085 -0.128,-0.829 -0.548,0.085 -0.088,-0.212 0.093,-0.145 0.149,0.014 0.013,-0.094 -0.029,-0.161 -0.021,-0.379 -0.11,-0.701 -0.151,-0.706 -0.053,-0.803 -0.108,-0.988 v -0.963 l -0.004,-1.087 -0.006,-0.895 -0.024,-0.712 -0.053,-0.222 -1.913,-0.099 -0.039,0.255 -0.101,0.522 -0.16,0.775 -0.275,1.09 -0.342,1.231 -0.272,1.108 -0.424,0.932 -0.448,0.93 -0.408,0.702 -0.424,0.475 -0.209,0.149 0.079,-0.026 0.259,0.059 0.09,0.084 -0.173,-0.197 -0.185,-0.292 -0.13,-0.545 -0.207,-0.789 -0.105,-0.994 -0.008,-1.122 -0.01,-1.179 0.093,-1.129 0.083,-0.976 0.042,-0.799 -0.012,-1.206"
     id="path80" />
  <path
     class="write-flat-pen"
     fill="#000000"
     stroke-width="2.4"
     __comx="81.57"
     __comy="1731.505"
     __timestamp="0x18287abb718"
     d="m 46.827,99.561 -0.229,-0.784 -0.017,-0.323 -0.226,-0.406 -0.303,-0.306 -0.445,-0.229 -0.465,-0.086 -0.651,-0.038 -0.852,0.263 -0.693,0.444 -0.779,0.623 -0.65,0.826 -0.445,0.849 -0.245,1.035 0.062,1.105 0.357,1.064 0.625,1.015 0.778,0.825 0.768,0.693 0.755,0.678 0.62,0.513 0.4,0.476 0.283,0.463 0.167,0.309 0.064,0.181 -0.06,-0.163 0.048,-0.252 0.022,-0.038 -0.393,0.177 -0.705,0.188 -0.757,0.182 -0.639,0.051 -0.62,0.058 -0.512,0.067 -0.335,0.074 -0.192,0.069 -0.049,0.141 -0.141,0.137 -0.738,-0.291 -0.469,1.193 0.738,0.291 0.192,0.268 0.361,0.198 0.455,0.051 0.414,-0.019 0.471,-0.03 0.598,-0.042 0.809,-0.059 0.956,-0.231 0.915,-0.249 0.897,-0.426 0.626,-0.634 0.237,-0.911 -0.172,-0.512 -0.159,-0.366 -0.261,-0.452 -0.389,-0.625 -0.618,-0.73 -0.728,-0.602 -0.72,-0.649 -0.706,-0.637 -0.578,-0.613 -0.391,-0.638 -0.194,-0.582 -0.03,-0.534 0.117,-0.497 0.237,-0.455 0.388,-0.496 0.514,-0.419 0.372,-0.25 0.251,-0.091 0.195,-0.01 h 0.101 l -0.032,-0.045 -0.024,-0.065 0.029,-0.056 0.098,0.047 0.35,0.782"
     id="path82" />
  <path
     class="write-flat-pen"
     fill="#000000"
     stroke-width="2.4"
     __comx="97.414"
     __comy="1721.824"
     __timestamp="0x18287abc6fb"
     d="m 61.713,88.845 -1.03,-0.131 -0.377,-0.044 -0.492,0.026 -0.611,0.094 -0.635,0.151 -0.496,0.136 -0.412,0.09 -0.421,0.092 -0.307,0.049 -0.212,0.043 -0.287,0.053 -0.423,0.089 -0.582,0.411 -0.226,0.772 -0.047,0.788 -0.013,0.949 0.05,1.133 0.106,1.299 0.105,1.426 0.108,1.55 0.168,1.551 0.166,1.532 0.164,1.517 0.108,1.342 0.054,1.257 0.054,1.095 v 0.881 0.751 l -0.001,0.475 v 0.325 0.171 l 0.001,0.657 0.564,0.513 0.349,0.204 0.562,0.243 0.635,0.151 0.54,0.111 0.634,0.116 0.687,0.063 0.698,0.053 0.719,0.054 h 0.703 l 0.504,-0.05 0.341,-0.014 0.31,-0.063 0.335,-0.102 0.502,-0.548 0.1,-0.555 -0.036,-0.442 0.177,-0.235 -0.266,-0.201 -0.177,0.235 -0.392,0.029 -0.372,-0.097 -0.298,-0.076 0.029,-0.03 H 62.98 62.708 l -0.481,0.038 h -0.529 l -0.644,-0.048 -0.681,-0.052 -0.577,-0.053 -0.519,-0.095 -0.486,-0.099 -0.423,-0.1 -0.277,-0.118 -0.047,-0.027 0.293,0.266 10e-4,0.278 v -0.171 -0.325 l -10e-4,-0.475 v -0.752 l -0.001,-0.934 -0.059,-1.141 -0.059,-1.291 -0.119,-1.41 -0.177,-1.546 -0.174,-1.531 -0.172,-1.512 -0.119,-1.517 -0.122,-1.44 -0.121,-1.27 -0.062,-1.041 -0.007,-0.856 0.008,-0.526 -0.041,0.103 -0.309,0.217 h 0.01 l 0.281,-0.054 0.192,-0.04 0.326,-0.055 0.482,-0.113 0.469,-0.116 0.512,-0.162 0.531,-0.151 0.464,-0.103 0.326,-0.055 0.29,-0.044 1.03,-0.131"
     id="path84" />
  <path
     class="write-flat-pen"
     fill="#000000"
     stroke-width="2.4"
     __comx="107.565"
     __comy="1723.409"
     __timestamp="0x18287abc9d8"
     d="m 67.775,92.017 0.846,-0.213 0.168,0.015 0.449,0.01 0.697,0.011 0.617,0.011 0.558,0.01 0.433,0.01 h 0.249 l -0.137,0.01 -0.476,-0.258 -0.065,-0.16 0.059,0.573 0.11,0.892 0.106,1.117 0.104,1.3 0.051,1.506 0.052,1.735 0.051,1.769 -0.003,1.666 -0.002,1.53 -10e-4,1.324 -0.002,1.063 v 0.897 l 0.057,0.751 0.057,0.623 0.048,0.4 0.004,0.154 0.002,0.168 -0.002,-0.345 0.486,-0.477 L 72.5,108.06 72.196,108.047 71.624,108 70.88,107.944 h -0.66 l -0.818,10e-4 -0.752,0.179 -0.653,0.182 -0.552,0.2 -0.593,0.312 -0.373,0.446 -0.076,0.402 -0.481,0.475 0.77,0.781 0.481,-0.475 0.255,0.075 0.27,0.083 0.433,-0.086 0.438,-0.092 0.595,-0.122 0.49,-0.102 h 0.558 0.575 l 0.657,0.05 0.613,0.051 0.655,0.025 0.706,-0.164 0.65,-0.639 -0.004,-0.617 -0.002,-0.195 -0.008,-0.276 -0.056,-0.468 -0.053,-0.574 -0.05,-0.648 v -0.812 l -0.002,-1.063 -0.001,-1.324 -0.002,-1.53 -0.003,-1.702 -0.063,-1.805 -0.061,-1.741 -0.064,-1.564 -0.125,-1.369 -0.126,-1.163 -0.125,-0.913 -0.1,-0.735 -0.254,-0.808 -0.753,-0.419 -0.422,0.01 h -0.249 l -0.433,0.01 -0.558,0.01 -0.62,0.012 -0.724,0.015 -0.606,0.037 -0.4,0.11 -0.935,0.321"
     id="path86" />
  <path
     class="write-stroke-pen"
     fill="none"
     stroke="#000000"
     stroke-opacity="0.427"
     stroke-width="2.4"
     stroke-linecap="round"
     stroke-linejoin="round"
     __comx="645"
     __comy="1695"
     __timestamp="0x18287abe1ee"
     d="m 592.429,51.033 h 30"
     id="path88" />
  <path
     class="write-stroke-pen"
     fill="none"
     stroke="#000000"
     stroke-opacity="0.427"
     stroke-width="2.4"
     stroke-linecap="round"
     stroke-linejoin="round"
     __comx="645"
     __comy="1695"
     __timestamp="0x18287abe423"
     d="m 592.429,81.033 h 30"
     id="path90" />
  <path
     class="write-stroke-pen"
     fill="none"
     stroke="#000000"
     stroke-opacity="0.427"
     stroke-width="2.4"
     stroke-linecap="round"
     stroke-linejoin="round"
     __comx="660"
     __comy="1695"
     __timestamp="0x18287abe693"
     d="m 622.429,51.033 v 30"
     id="path92" />
  <path
     class="write-stroke-pen"
     fill="none"
     stroke="#000000"
     stroke-opacity="0.427"
     stroke-width="2.4"
     stroke-linecap="round"
     stroke-linejoin="round"
     __comx="675"
     __comy="1695"
     __timestamp="0x18287abe89d"
     d="m 622.429,51.033 h 30"
     id="path94" />
  <path
     class="write-stroke-pen"
     fill="none"
     stroke="#000000"
     stroke-opacity="0.427"
     stroke-width="2.4"
     stroke-linecap="round"
     stroke-linejoin="round"
     __comx="675"
     __comy="1695"
     __timestamp="0x18287abea60"
     d="m 622.429,81.033 h 30"
     id="path96" />
  <path
     class="write-stroke-pen"
     fill="none"
     stroke="#ff0000"
     stroke-width="2.4"
     stroke-linecap="round"
     stroke-linejoin="round"
     __comx="149.96"
     __comy="1662.489"
     __timestamp="0x18287ac563d"
     d="M 112.587,32.177 112.19,42.644"
     id="path98" />
  <path
     class="write-stroke-pen"
     fill="none"
     stroke="#ff0000"
     stroke-width="2.4"
     stroke-linecap="round"
     stroke-linejoin="round"
     __comx="260.926"
     __comy="1666.259"
     __timestamp="0x18287ac6088"
     d="M 113.268,37.692 H 333.442"
     id="path100" />
  <path
     class="write-stroke-pen"
     fill="none"
     stroke="#ff0000"
     stroke-width="2.4"
     stroke-linecap="round"
     stroke-linejoin="round"
     __comx="525.578"
     __comy="1664.957"
     __timestamp="0x18287ac6a49"
     d="M 383.876,36.722 592.137,36.058"
     id="path102" />
  <path
     class="write-stroke-pen"
     fill="none"
     stroke="#ff0000"
     stroke-width="2.4"
     stroke-linecap="round"
     stroke-linejoin="round"
     __comx="629.907"
     __comy="1660.813"
     __timestamp="0x18287ac71c0"
     d="m 592.137,30.595 0.397,9.905"
     id="path104" />
  <path
     class="write-flat-pen"
     fill="#ff0000"
     stroke-width="2.4"
     __comx="380.836"
     __comy="1665.527"
     __timestamp="0x18287ac86f8"
     d="m 341.232,30.447 0.746,-0.524 0.404,-0.115 0.732,-0.239 0.774,-0.174 0.865,-0.083 0.739,-0.08 0.547,0.01 0.389,0.014 -0.01,0.011 -0.027,-0.01 -0.057,-0.055 -0.017,-0.167 -0.069,0.142 -0.225,0.318 -0.454,0.421 -0.637,0.447 -0.734,0.381 -0.744,0.382 -0.562,0.213 -0.607,0.155 -0.352,0.132 -0.186,0.044 0.118,1.899 0.3,-0.023 0.656,-0.071 0.821,-0.111 0.771,-0.052 0.595,-0.04 0.221,0.055 0.21,0.183 0.264,0.417 0.214,0.676 0.092,0.901 0.038,0.966 -0.184,0.749 -0.327,0.734 -0.436,0.573 -0.616,0.502 -0.651,0.442 -0.526,0.27 -0.579,0.161 -0.473,0.078 h -0.452 l -0.297,-0.049 -0.303,-0.167 -0.279,-0.205 -0.371,-0.351 -0.178,-0.216 -0.098,-0.159 -10e-4,0.145 -0.288,0.366 -0.096,-0.371 0.445,-0.304 -0.484,-0.71 -0.445,0.304 -0.692,0.035 -0.427,0.69 0.209,0.621 0.133,0.375 0.379,0.553 0.581,0.582 0.5,0.375 0.737,0.405 0.824,0.132 0.79,-0.013 0.741,-0.129 0.888,-0.263 0.811,-0.44 0.814,-0.578 0.851,-0.731 0.687,-0.959 0.46,-1.106 0.259,-1.179 -0.079,-1.29 -0.148,-1.154 -0.387,-1.084 -0.574,-0.811 -0.726,-0.586 -0.877,-0.215 -0.868,0.061 -0.819,0.054 -0.827,0.093 -0.461,0.01 -0.137,-0.065 0.118,1.899 0.313,-0.068 0.379,-0.139 0.616,-0.155 0.767,-0.292 0.844,-0.435 0.851,-0.443 0.853,-0.6 0.7,-0.659 0.447,-0.653 0.302,-0.731 -0.052,-0.863 -0.426,-0.53 -0.37,-0.319 -0.637,-0.224 -0.724,0.015 -0.658,0.017 -0.831,0.121 -0.956,0.13 -0.946,0.247 -0.815,0.301 -0.64,0.277 -0.86,0.794"
     id="path106" />
  <path
     class="write-flat-pen"
     fill="#ff0000"
     stroke-width="2.4"
     __comx="389.78"
     __comy="1665.527"
     __timestamp="0x18287ac8a7c"
     d="m 352.957,31.937 -0.384,-0.622 -0.147,-0.205 -0.126,-0.147 -0.093,-0.153 -0.033,-0.076 -0.008,-0.108 -0.005,-0.216 0.06,-0.183 0.159,-0.254 0.24,-0.232 0.412,-0.238 0.55,-0.191 0.474,-0.171 0.467,-0.054 0.202,-0.026 0.053,0.015 -0.023,-0.014 0.059,0.277 0.072,0.629 -0.193,0.777 -0.391,1.15 -0.538,1.228 -0.773,1.276 -0.776,1.335 -0.865,1.163 -0.89,1.101 -0.801,0.961 -0.794,0.717 -0.562,0.507 -0.408,0.282 -0.167,0.149 0.136,1.551 0.476,0.227 0.775,-0.336 0.671,-0.286 0.819,-0.37 0.675,-0.281 0.662,-0.187 0.6,-0.135 0.506,-0.045 0.336,-0.03 0.273,0.01 0.129,0.01 -0.028,0.013 -0.228,-0.118 -0.034,-0.034 0.274,0.317 0.729,0.17 0.527,-0.579 0.488,-0.155 -0.246,-0.774 -0.488,0.155 -0.222,-0.342 0.345,0.018 0.053,0.031 -0.207,-0.247 -0.509,-0.278 -0.468,0.015 -0.149,0.013 -0.371,0.027 -0.397,0.062 -0.59,0.066 -0.745,0.172 -0.803,0.227 -0.789,0.329 -0.814,0.361 -0.634,0.243 0.028,-0.052 0.318,0.135 0.136,1.551 0.1,-0.078 0.435,-0.296 0.658,-0.591 0.897,-0.809 0.898,-1.078 0.924,-1.144 0.949,-1.287 0.813,-1.423 0.816,-1.382 0.598,-1.434 0.407,-1.325 0.241,-1.193 -0.185,-1.068 -0.275,-0.843 -0.63,-0.55 -0.749,-0.213 -0.533,0.067 -0.65,0.075 -0.647,0.231 -0.694,0.239 -0.732,0.423 -0.535,0.519 -0.378,0.603 -0.214,0.664 0.026,0.619 0.109,0.592 0.326,0.423 0.308,0.318 0.323,0.168 h 0.121 l 0.503,0.349"
     id="path108" />
  <path
     class="write-flat-pen"
     fill="#ff0000"
     stroke-width="2.4"
     __comx="400.906"
     __comy="1665.527"
     __timestamp="0x18287ac8c2d"
     d="m 363.979,28.805 -0.282,0.923 -0.113,0.712 -0.107,0.929 -0.144,1.121 -0.143,1.287 -0.137,1.361 -0.182,1.304 -0.172,1.301 -0.221,1.181 -0.218,0.98 -0.202,0.777 -0.247,0.607 -0.129,0.399 -0.09,0.242 0.066,-0.035 0.68,-0.236 0.356,0.575 -0.327,-0.032 -0.151,-0.609 0.022,-0.095 -0.055,-0.013 -0.022,0.095 -0.433,0.589 -0.244,0.602 0.49,0.731 0.909,-0.353 0.262,-0.395 0.205,-0.325 0.191,-0.454 0.299,-0.691 0.246,-0.94 0.232,-1.046 0.231,-1.265 0.168,-1.354 0.158,-1.349 0.091,-1.401 0.086,-1.277 0.083,-1.151 0.008,-0.988 -0.066,-0.609 0.11,-0.83"
     id="path110" />
  <path
     class="write-flat-pen"
     fill="#ff0000"
     stroke-width="2.4"
     __comx="402.677"
     __comy="1665.527"
     __timestamp="0x18287ac8d27"
     d="m 364.04,37.125 0.662,-0.301 0.435,-0.117 0.303,-0.115 0.412,-0.013 0.317,0.012 0.033,0.05 0.122,0.169 0.069,0.238 0.077,0.596 0.074,0.662 -0.054,0.555 -0.187,0.567 -0.17,0.398 -0.21,0.28 -0.221,0.199 -0.326,0.173 -0.357,0.127 -0.309,0.105 -0.404,0.021 -0.364,0.049 -0.341,0.03 h -0.226 l -0.188,0.054 0.09,0.108 -0.028,0.15 -0.605,-0.515 -0.838,0.983 0.605,0.515 0.174,0.322 0.404,0.166 0.223,0.072 0.284,0.071 0.579,0.01 0.391,-0.038 0.62,-0.028 0.593,-0.203 0.514,-0.188 0.682,-0.374 0.543,-0.524 0.438,-0.641 0.263,-0.693 0.247,-0.863 0.042,-0.975 -0.158,-0.883 -0.198,-0.867 -0.444,-0.752 -0.762,-0.497 -0.613,-0.086 -0.573,0.12 -0.632,0.165 -0.383,0.269 -0.376,0.221 -0.659,0.412"
     id="path112" />
  <path
     class="write-flat-pen"
     fill="#ff0000"
     stroke-width="2.4"
     __comx="408.624"
     __comy="1664.207"
     __timestamp="0x18287ac95c0"
     d="m 371.015,35.658 -0.375,0.811 -0.208,0.555 -0.045,0.569 -0.121,0.705 -0.066,0.642 -0.104,0.554 -0.102,0.498 -0.083,0.275 -0.111,0.354 -0.034,0.118 -0.078,0.181 0.245,-0.678 1.244,0.528 -0.09,0.398 -0.361,-0.265 -0.024,-0.46 -0.692,0.037 0.024,0.46 -0.324,0.427 -0.006,0.749 1.441,0.594 0.378,-1.062 0.104,-0.226 0.067,-0.231 0.108,-0.346 0.112,-0.376 0.12,-0.61 0.112,-0.66 0.051,-0.674 0.095,-0.775 -0.024,-0.574 -0.085,-0.28 0.234,-0.656"
     id="path114" />
  <path
     class="write-flat-pen"
     fill="#ff0000"
     stroke-width="2.4"
     __comx="410.044"
     __comy="1664.207"
     __timestamp="0x18287ac9660"
     d="m 372.175,31.634 v 0.688 h 0.596 v -0.688"
     id="path116" />
  <path
     class="write-flat-pen"
     fill="#ff0000"
     stroke-width="2.4"
     __comx="413.833"
     __comy="1664.207"
     __timestamp="0x18287ac976f"
     d="m 376.793,28.591 -0.079,1.392 -0.082,0.861 -0.134,1.104 -0.179,1.206 -0.337,1.254 -0.404,1.372 -0.343,1.273 -0.34,1.166 -0.272,0.98 -0.267,0.725 -0.139,0.417 -0.118,0.245 -0.055,0.156 1.926,0.435 -0.016,0.141 -0.198,-0.169 0.285,-0.795 -1.412,-0.506 -0.285,0.795 -0.363,0.29 -0.017,0.162 1.926,0.435 0.045,-0.078 0.169,-0.311 0.181,-0.536 0.286,-0.775 0.292,-1.05 0.338,-1.178 0.337,-1.276 0.39,-1.387 0.343,-1.405 0.162,-1.358 0.094,-1.177 0.028,-0.957 -0.079,-1.448"
     id="path118" />
  <path
     class="write-flat-pen"
     fill="#ff0000"
     stroke-width="2.4"
     __comx="414.22"
     __comy="1664.207"
     __timestamp="0x18287ac9828"
     d="m 373.445,36.081 1.505,-0.354 0.832,-0.151 0.961,-0.154 0.915,-0.171 0.857,-0.122 0.724,-0.183 0.506,-0.396 0.414,-0.311 h 0.157 l -0.002,-0.137 h -0.157 l -0.449,-0.301 -0.582,-0.3 -0.719,-0.084 -0.949,-0.016 -1.014,0.135 -0.986,0.157 -0.922,0.174 -1.553,0.443"
     id="path120" />
  <path
     class="write-flat-pen"
     fill="#0000ff"
     stroke-width="2.4"
     __comx="164.777"
     __comy="1636.145"
     __timestamp="0x18287ad1963"
     d="m 113.172,19.51 -0.433,-0.352 -0.002,-0.089 -0.006,-0.044 -0.035,-0.147 -0.009,-0.104 -0.005,-0.16 0.003,-0.144 0.023,-0.041 0.204,-0.336 0.181,-0.255 0.27,-0.308 0.246,-0.319 0.181,-0.243 0.251,-0.211 0.248,-0.184 0.248,-0.18 0.234,-0.136 0.239,-0.127 0.244,-0.096 0.154,-0.063 0.337,-0.066 0.21,-0.038 0.349,-0.013 h 0.385 0.326 0.406 l 0.331,0.01 0.363,0.011 0.278,0.042 0.324,0.054 0.293,0.052 0.276,0.081 0.22,0.078 0.318,0.138 0.28,0.127 0.471,0.103 0.352,0.106 0.501,0.089 0.472,0.021 0.256,0.041 0.537,0.022 0.452,0.01 0.38,-0.041 0.536,-0.054 0.443,-0.11 0.449,-0.178 0.423,-0.232 0.228,-0.143 0.4,-0.24 0.235,-0.19 0.352,-0.226 0.372,-0.311 0.247,-0.258 0.194,-0.181 0.151,-0.137 0.133,-0.12 -0.282,0.214 -0.502,-0.257 -0.05,-0.059 0.062,0.094 0.148,0.287 0.202,0.242 0.147,0.178 0.229,0.32 0.28,0.244 0.155,0.139 0.322,0.289 0.257,0.135 0.212,0.102 0.374,0.212 0.208,0.102 0.226,0.126 0.4,0.122 0.269,0.069 0.45,0.083 0.353,0.021 0.375,0.01 h 0.397 l 0.472,-0.046 0.422,-0.05 0.381,-0.054 0.459,-0.106 0.389,-0.098 0.519,-0.107 0.401,-0.089 0.568,-0.061 0.547,-0.103 0.48,-0.095 0.397,-0.05 0.519,-0.054 0.342,-0.043 0.267,-0.01 h 0.392 0.128 l 0.066,0.01 0.092,0.03 0.038,0.018 0.188,0.133 0.282,0.133 0.007,0.01 0.184,0.216 0.156,0.128 0.067,0.104 0.174,0.264 0.166,0.252 0.225,0.353 0.132,0.233 0.214,0.48 0.192,0.25 0.048,0.113 0.222,0.37 0.303,0.223 -0.371,-0.337 0.349,-0.447 -0.284,0.759 1.352,0.506 0.284,-0.759 0.469,-0.766 -0.689,-0.547 0.052,0.037 0.044,0.074 -0.095,-0.22 -0.202,-0.26 -0.161,-0.358 -0.207,-0.357 -0.261,-0.404 -0.175,-0.261 -0.167,-0.253 -0.227,-0.352 -0.257,-0.209 -0.223,-0.262 -0.344,-0.246 -0.288,-0.134 -0.183,-0.129 -0.298,-0.142 -0.373,-0.123 -0.371,-0.052 -0.267,0.001 h -0.417 l -0.381,0.01 -0.414,0.051 -0.519,0.054 -0.486,0.061 -0.539,0.107 -0.463,0.087 -0.599,0.064 -0.493,0.11 -0.544,0.114 -0.41,0.103 -0.361,0.084 -0.279,0.04 -0.378,0.047 -0.351,0.034 -0.289,-10e-4 h -0.325 l -0.197,-0.01 -0.269,-0.047 -0.165,-0.04 -0.166,-0.048 -0.092,-0.049 -0.2,-0.096 -0.379,-0.214 -0.24,-0.114 -0.017,-0.01 -0.151,-0.134 -0.17,-0.149 -0.123,-0.103 -0.141,-0.194 -0.199,-0.234 -0.08,-0.09 -0.122,-0.217 -0.137,-0.18 -0.185,-0.252 -0.903,-0.491 -0.73,0.551 -0.196,0.178 -0.162,0.149 -0.237,0.223 -0.212,0.223 -0.212,0.178 -0.339,0.222 -0.215,0.176 -0.31,0.193 -0.195,0.127 -0.278,0.157 -0.241,0.101 -0.211,0.06 -0.413,0.053 -0.278,0.034 -0.328,10e-4 -0.421,-0.01 -0.256,-0.032 -0.458,-0.01 -0.305,-0.041 -0.323,-0.081 -0.357,-0.066 -0.136,-0.056 -0.393,-0.159 -0.332,-0.105 -0.415,-0.099 -0.386,-0.048 -0.353,-0.041 -0.387,-0.034 -0.45,0.011 -0.331,0.01 h -0.407 l -0.333,0.01 -0.417,0.01 -0.478,0.024 -0.323,0.061 -0.5,0.106 -0.279,0.127 -0.302,0.13 -0.322,0.183 -0.309,0.183 -0.312,0.227 -0.29,0.217 -0.408,0.346 -0.273,0.366 -0.211,0.275 -0.288,0.329 -0.255,0.362 -0.259,0.44 -0.193,0.406 0.016,0.51 0.017,0.236 0.04,0.276 0.123,0.356 0.113,0.201 0.274,0.331 0.723,0.391"
     id="path122" />
  <path
     class="write-flat-pen"
     fill="#0000ff"
     stroke-width="2.4"
     __comx="153.929"
     __comy="1636.145"
     __timestamp="0x18287ad1e98"
     d="m 115.448,3.083 -0.407,-0.603 0.023,0.026 0.002,-0.059 0.006,-0.017 0.034,-0.051 0.117,-0.101 0.338,-0.197 0.294,-0.175 0.325,-0.137 0.377,-0.133 0.31,-0.054 0.137,-0.024 -0.031,-0.011 h -0.009 l 0.064,0.211 0.08,0.567 -0.092,0.644 -0.258,0.866 -0.416,0.921 -0.526,0.849 -0.556,0.8 -0.456,0.683 -0.493,0.449 -0.426,0.429 -0.346,0.281 -0.403,0.232 -0.099,0.121 h 0.06 l -0.353,1.249 0.24,0.245 0.524,-0.044 0.494,-0.069 0.459,-0.106 0.309,-0.086 0.466,-0.06 0.34,-0.075 0.267,-0.027 0.216,0.014 0.01,0.026 0.047,0.06 0.166,0.141 0.158,0.203 0.241,0.327 0.184,0.193 0.268,0.254 0.365,0.276 0.563,0.162 0.635,0.012 0.592,-0.25 0.438,-0.378 0.04,-0.598 0.209,-0.232 -0.305,-0.274 -0.209,0.232 -0.455,-0.048 -0.249,-0.013 -0.229,-0.013 -0.177,-0.043 -0.105,-0.038 -0.063,-0.046 -0.184,-0.168 -0.098,-0.092 -0.225,-0.279 -0.351,-0.376 -0.426,-0.255 -0.476,-0.22 -0.413,0.034 -0.321,0.042 -0.397,0.092 -0.314,0.099 -0.472,0.077 -0.353,0.101 -0.342,0.07 h -0.295 l 0.235,-0.071 0.204,0.201 -0.353,1.249 0.31,-0.082 0.222,-0.199 0.337,-0.173 0.536,-0.429 0.463,-0.466 0.612,-0.561 0.56,-0.84 0.572,-0.827 0.603,-0.988 0.491,-1.134 0.307,-1.104 0.109,-1.016 -0.194,-0.937 -0.278,-0.694 -0.51,-0.438 -0.602,-0.205 -0.516,0.077 -0.451,0.074 -0.547,0.193 -0.465,0.198 -0.377,0.225 -0.464,0.271 -0.401,0.361 -0.322,0.543 -0.046,0.507 0.041,0.317 0.108,0.362 0.656,0.789"
     id="path124" />
  <path
     class="write-flat-pen"
     fill="#0000ff"
     stroke-width="2.4"
     __comx="161.074"
     __comy="1636.145"
     __timestamp="0x18287ad2086"
     d="m 122.833,0.786 0.016,0.998 -0.046,0.664 -0.029,0.888 -0.025,0.924 -0.021,0.919 -0.012,0.893 -0.06,0.918 -0.002,0.859 -0.053,0.713 -0.056,0.561 V 9.6 l -0.018,0.258 0.022,0.289 0.041,0.141 0.038,0.886 1.452,0.032 0.076,-0.884 0.047,-0.119 0.044,-0.177 0.063,-0.284 0.011,-0.52 0.05,-0.509 0.055,-0.799 0.001,-0.869 0.05,-0.92 -0.012,-0.945 -0.021,-0.919 -0.025,-0.924 -0.031,-0.899 -0.066,-0.745 -0.213,-1.048"
     id="path126" />
  <path
     class="write-flat-pen"
     fill="#0000ff"
     stroke-width="2.4"
     __comx="163.572"
     __comy="1636.145"
     __timestamp="0x18287ad21eb"
     d="m 124.17,6.917 0.756,-0.311 0.305,-0.094 0.455,-0.081 0.31,-0.033 h 0.319 l 0.303,0.102 0.233,0.128 0.157,0.168 0.189,0.286 0.062,0.199 0.093,0.413 0.014,0.15 -0.033,0.215 -0.03,0.108 0.01,-0.041 -0.125,0.096 -0.24,0.15 -0.352,0.167 -0.503,0.146 -0.459,0.124 -0.482,0.013 -0.561,0.047 -0.383,0.01 -0.334,0.048 -0.229,0.032 0.674,1.376 -0.004,-0.043 0.537,-0.645 -1.244,-1.035 -0.537,0.645 h -0.043 l 0.674,1.376 0.304,0.014 0.316,-0.03 h 0.352 l 0.574,-0.048 0.643,-0.018 0.678,-0.186 0.657,-0.198 0.582,-0.287 0.438,-0.301 0.397,-0.381 0.255,-0.467 0.061,-0.486 0.017,-0.503 -0.1,-0.405 -0.162,-0.527 -0.19,-0.455 -0.421,-0.529 -0.435,-0.389 -0.561,-0.247 -0.625,-0.153 -0.601,0.027 -0.445,0.078 -0.614,0.179 -0.384,0.218 -0.73,0.381"
     id="path128" />
  <path
     class="write-flat-pen"
     fill="#0000ff"
     stroke-width="2.4"
     __comx="167.867"
     __comy="1636.145"
     __timestamp="0x18287ad22d4"
     d="m 129.25,6.036 0.129,1.122 0.038,0.469 0.047,0.401 0.058,0.483 0.041,0.244 0.01,0.229 -0.008,0.264 0.028,0.186 0.029,0.171 0.006,0.12 0.027,0.199 -0.133,0.619 0.832,0.369 0.369,-0.515 0.146,-0.07 0.16,-0.172 0.201,-0.473 0.048,-0.295 0.064,-0.333 -0.02,-0.486 -0.055,-0.316 -0.06,-0.453 -0.063,-0.402 -0.086,-0.48 -0.229,-1.13"
     id="path130" />
  <path
     class="write-flat-pen"
     fill="#0000ff"
     stroke-width="2.4"
     __comx="167.819"
     __comy="1636.145"
     __timestamp="0x18287ad237f"
     d="m 130.04,2.02 -0.194,0.698 0.609,0.169 0.194,-0.698"
     id="path132" />
  <path
     class="write-flat-pen"
     fill="#0000ff"
     stroke-width="2.4"
     __comx="171.968"
     __comy="1636.145"
     __timestamp="0x18287ad2464"
     d="m 133.292,0.401 -0.082,1.26 -0.064,0.796 -0.036,0.824 -0.021,0.956 0.171,0.962 0.166,0.834 0.177,0.758 0.205,0.611 0.055,0.448 0.078,0.452 0.096,0.297 0.077,0.108 0.102,0.016 0.159,0.249 -0.261,0.478 0.706,0.386 0.261,-0.478 0.408,-0.206 0.159,-0.365 0.056,-0.351 -0.006,-0.374 -0.03,-0.429 -0.073,-0.632 -0.239,-0.71 -0.157,-0.652 -0.172,-0.791 -0.159,-0.778 -0.021,-0.789 -0.036,-0.824 -0.064,-0.796 -0.082,-1.26"
     id="path134" />
  <path
     class="write-flat-pen"
     fill="#0000ff"
     stroke-width="2.4"
     __comx="174.376"
     __comy="1636.145"
     __timestamp="0x18287ad253c"
     d="m 132.184,6.978 h 1.703 l 1.044,-0.101 1.349,-0.208 1.258,-0.206 1.128,-0.21 0.926,-0.189 0.771,-0.216 0.479,-0.293 0.245,-0.304 0.407,-0.011 -0.017,-0.601 -0.407,0.011 -0.349,-0.288 -0.6,-0.102 -0.79,-0.014 -0.985,0.115 -1.134,0.196 -1.235,0.202 -1.291,0.203 -0.932,0.102 -1.636,0.129"
     id="path136" />
  <path
     class="write-flat-pen"
     fill="#000000"
     fill-opacity="0.427"
     stroke-width="2.4"
     __comx="155.497"
     __comy="1692.953"
     __timestamp="0x18287ad46f6"
     d="m 117.444,56.784 0.689,-0.376 -1.117,-0.25 -0.191,0.064 -0.031,0.028 0.019,0.445 0.052,0.471 0.052,0.515 0.051,0.545 0.027,0.599 0.027,0.678 0.029,0.706 0.028,0.658 v 0.684 l 0.027,0.543 -0.027,0.493 0.002,0.328 -0.012,0.171 -0.002,0.081 h 0.012 l 1.968,0.051 -0.053,0.046 -0.221,-0.143 -0.323,-0.293 -0.043,-0.474 -0.875,0.079 0.043,0.474 -0.27,0.296 -0.212,0.293 -0.026,0.167 1.968,0.051 0.047,-0.121 0.048,-0.253 0.038,-0.322 0.003,-0.378 0.03,-0.547 -0.03,-0.6 v -0.676 l -0.03,-0.7 -0.029,-0.706 -0.032,-0.684 -0.032,-0.659 -0.066,-0.611 -0.065,-0.541 -0.063,-0.43 -0.041,-0.376 -0.062,-0.477 -0.385,-0.267 -1.117,-0.25 -0.598,0.508"
     id="path138" />
  <path
     class="write-flat-pen"
     fill="#000000"
     fill-opacity="0.427"
     stroke-width="2.4"
     __comx="156.895"
     __comy="1692.953"
     __timestamp="0x18287ad48c8"
     d="m 117.594,56.439 0.474,-0.582 0.131,-0.046 0.133,-0.031 0.251,-0.095 0.225,-0.05 0.315,-0.03 0.375,-0.011 0.296,-10e-4 0.114,0.05 0.097,0.079 0.04,0.07 0.065,0.168 0.027,0.218 0.017,0.343 -0.023,0.248 -0.077,0.246 -0.07,0.16 -0.127,0.131 -0.257,0.242 -0.198,0.171 -0.214,0.121 -0.271,0.144 -0.195,0.104 -0.223,0.065 -0.281,0.11 -0.078,0.033 -0.075,0.019 -0.033,0.028 v 0.112 l 0.776,1.033 -0.025,-0.038 0.176,-0.836 -1.619,-0.34 -0.176,0.836 -0.038,0.025 0.776,1.033 0.222,0.129 0.174,-0.01 h 0.241 l 0.373,-0.123 0.237,-0.091 0.345,-0.101 0.385,-0.209 0.3,-0.166 0.416,-0.249 0.379,-0.351 0.325,-0.337 0.383,-0.451 0.216,-0.57 0.148,-0.538 0.031,-0.584 -0.045,-0.555 -0.097,-0.557 -0.299,-0.621 -0.428,-0.489 -0.606,-0.33 -0.634,-0.146 -0.581,0.052 -0.438,0.044 -0.507,0.084 -0.473,0.168 -0.41,0.238 -0.323,0.254 -0.224,0.347 -0.441,0.702"
     id="path140" />
  <path
     class="write-flat-pen"
     fill="#000000"
     fill-opacity="0.427"
     stroke-width="2.4"
     __comx="161.275"
     __comy="1692.953"
     __timestamp="0x18287ad4a05"
     d="m 122.907,57.657 0.029,0.934 -0.034,0.322 0.032,0.429 0.038,0.415 0.038,0.441 0.018,0.411 -0.002,0.435 -0.024,0.376 -0.051,0.399 -0.043,0.301 -0.057,0.276 -0.04,0.204 -0.024,0.124 0.019,0.088 0.04,0.057 1.263,-0.157 -0.044,10e-4 -0.579,-0.565 -1.095,1.121 0.579,0.565 0.001,0.044 1.263,-0.157 0.129,-0.088 0.124,-0.147 0.128,-0.214 0.128,-0.357 0.112,-0.399 0.07,-0.415 0.063,-0.49 0.032,-0.505 -0.004,-0.562 -0.041,-0.53 -0.08,-0.509 -0.079,-0.429 -0.087,-0.39 -0.098,-0.29 -0.206,-0.93"
     id="path142" />
  <path
     class="write-flat-pen"
     fill="#000000"
     fill-opacity="0.427"
     stroke-width="2.4"
     __comx="161.28"
     __comy="1692.953"
     __timestamp="0x18287ad4ab1"
     d="m 122.72,55.925 0.735,0.512 0.25,-0.013 0.379,0.341 0.614,-0.682 -0.379,-0.341 -0.013,-0.25 -0.587,-0.677"
     id="path144" />
  <path
     class="write-flat-pen"
     fill="#000000"
     fill-opacity="0.427"
     stroke-width="2.4"
     __comx="165.795"
     __comy="1692.953"
     __timestamp="0x18287ad4bb6"
     d="m 125.405,56.655 0.345,1.056 0.248,0.437 0.276,0.463 0.378,0.472 0.454,0.461 0.445,0.447 0.409,0.428 0.432,0.468 0.333,0.346 0.239,0.33 0.266,0.299 0.086,0.073 0.081,0.033 0.058,-0.029 0.025,-0.321 0.362,-0.276 0.07,0.186 -0.486,0.098 0.175,0.869 0.486,-0.098 0.454,0.108 0.494,-0.437 0.009,-0.448 -0.004,-0.251 -0.099,-0.364 -0.183,-0.31 -0.25,-0.324 -0.279,-0.391 -0.417,-0.433 -0.44,-0.473 -0.461,-0.46 -0.486,-0.444 -0.422,-0.382 -0.321,-0.318 -0.32,-0.34 -0.217,-0.181 -0.346,-0.81"
     id="path146" />
  <path
     class="write-flat-pen"
     fill="#000000"
     fill-opacity="0.427"
     stroke-width="2.4"
     __comx="165.679"
     __comy="1692.953"
     __timestamp="0x18287ad4cb0"
     d="m 129.869,55.837 -0.808,0.712 -0.392,0.315 -0.373,0.43 -0.395,0.452 -0.483,0.579 -0.433,0.643 -0.454,0.63 -0.437,0.603 -0.364,0.524 -0.264,0.45 -0.213,0.424 -0.013,0.412 0.101,0.341 0.159,0.247 -0.027,0.584 1.057,0.05 0.027,-0.584 0.175,-0.093 0.215,-0.117 0.112,-0.083 0.12,-0.125 0.254,-0.376 0.329,-0.464 0.433,-0.598 0.476,-0.679 0.381,-0.613 0.392,-0.523 0.364,-0.495 0.279,-0.417 0.214,-0.337 0.675,-0.816"
     id="path148" />
  <path
     class="write-flat-pen"
     fill="#000000"
     fill-opacity="0.427"
     stroke-width="2.4"
     __comx="157.541"
     __comy="1692.953"
     __timestamp="0x18287ad4fe1"
     d="m 120.306,68.165 -0.877,-0.043 -0.41,0.069 -0.36,0.186 -0.356,0.327 -0.301,0.498 -0.215,0.526 -0.194,0.68 -0.109,0.749 -0.103,0.831 -0.038,0.88 0.066,0.861 0.175,0.797 0.272,0.703 0.422,0.61 0.494,0.449 0.574,0.244 0.623,0.107 0.655,-0.144 0.548,-0.309 0.518,-0.466 0.337,-0.571 0.247,-0.557 0.181,-0.593 0.109,-0.641 0.036,-0.626 -0.033,-0.696 -0.135,-0.713 -0.193,-0.679 -0.259,-0.715 -0.324,-0.652 -0.326,-0.568 -0.371,-0.512 -0.429,-0.392 -0.513,-0.245 -0.591,-0.12 -0.639,0.201 -0.449,0.481 -0.098,0.637 0.284,0.567 -0.057,0.236 0.433,0.104 0.057,-0.236 0.474,-0.226 0.228,0.01 -0.02,0.142 -0.182,0.083 -0.089,-0.01 0.051,0.024 0.072,0.065 0.203,0.266 0.252,0.421 0.256,0.497 0.206,0.543 0.155,0.525 0.096,0.493 0.024,0.459 -0.024,0.419 -0.07,0.409 -0.113,0.348 -0.165,0.335 -0.139,0.211 -0.137,0.109 -0.106,0.046 0.014,-0.01 -0.006,-0.01 -0.047,-0.024 -0.069,-0.064 -0.152,-0.223 -0.13,-0.336 -0.114,-0.507 -0.05,-0.602 0.02,-0.689 0.072,-0.741 0.067,-0.616 0.104,-0.487 0.087,-0.32 0.08,-0.203 0.03,-0.099 -0.041,-0.051 -0.104,-0.044 0.618,-0.043"
     id="path150" />
  <path
     class="write-flat-pen"
     fill="#000000"
     fill-opacity="0.427"
     stroke-width="2.4"
     __comx="162.093"
     __comy="1692.953"
     __timestamp="0x18287ad514f"
     d="m 123.881,73.947 0.012,0.913 -0.052,0.177 -0.062,0.341 -0.078,0.359 -0.105,0.379 -0.107,0.362 -0.099,0.321 -0.057,0.248 0.02,0.099 0.005,0.19 0.055,0.219 -0.145,0.783 1.415,0.262 0.145,-0.783 0.089,0.035 0.098,10e-4 0.121,-0.178 0.11,-0.252 0.128,-0.348 0.123,-0.418 0.126,-0.46 0.096,-0.485 0.053,-0.477 -0.012,-0.432 -0.236,-1.064"
     id="path152" />
  <path
     class="write-flat-pen"
     fill="#000000"
     fill-opacity="0.427"
     stroke-width="2.4"
     __comx="167.752"
     __comy="1692.953"
     __timestamp="0x18287ad5397"
     d="m 128.86,67.475 -0.497,0.975 -0.263,0.507 -0.201,0.684 -0.115,0.785 -0.077,0.815 -0.01,0.876 0.094,0.834 0.174,0.782 0.305,0.724 0.424,0.593 0.387,0.384 0.478,0.353 0.459,0.165 0.409,0.091 0.583,-0.039 0.548,-0.273 0.419,-0.441 0.332,-0.514 0.265,-0.64 0.171,-0.673 0.127,-0.708 0.108,-0.753 -0.015,-0.754 -0.086,-0.719 -0.208,-0.746 -0.353,-0.68 -0.445,-0.623 -0.591,-0.507 -0.587,-0.399 -0.658,-0.281 -0.827,-0.187 -0.78,0.159 -0.632,0.373 -0.374,0.695 -0.036,0.79 -0.011,0.012 0.012,0.011 0.011,-0.012 0.721,-0.045 0.505,0.017 0.299,0.012 0.201,0.01 0.279,0.078 0.326,0.139 0.339,0.228 0.337,0.28 0.25,0.318 0.226,0.367 0.138,0.404 0.087,0.482 0.042,0.499 -0.067,0.554 -0.107,0.604 -0.123,0.482 -0.153,0.365 -0.152,0.228 -0.08,0.078 0.073,-0.042 0.057,-0.012 -0.029,-0.015 -0.096,-0.046 -0.154,-0.12 -0.177,-0.179 -0.21,-0.293 -0.157,-0.371 -0.116,-0.522 -0.079,-0.628 -0.01,-0.693 0.04,-0.703 0.062,-0.633 0.096,-0.479 0.103,-0.417 0.372,-0.996"
     id="path154" />
  <path
     class="write-flat-pen"
     fill="#000000"
     fill-opacity="0.427"
     stroke-width="2.4"
     __comx="186.896"
     __comy="1692.953"
     __timestamp="0x18287ad5685"
     d="m 148.496,55.596 -0.057,0.945 -0.082,0.446 -0.051,0.606 0.005,0.719 0.041,0.758 0.016,0.766 0.021,0.812 0.025,0.714 v 0.635 l -0.029,0.571 0.004,0.424 -0.007,0.297 0.021,0.136 0.035,0.141 0.12,-0.622 1.466,0.058 -0.094,0.623 -0.017,-0.714 -1.333,0.033 0.017,0.714 -0.089,0.842 1.472,0.058 0.131,-0.75 0.08,-0.085 0.07,-0.236 0.048,-0.419 0.005,-0.449 0.029,-0.572 v -0.722 l -0.033,-0.748 -0.037,-0.809 -0.042,-0.803 -0.075,-0.761 -0.053,-0.647 -0.051,-0.568 -0.082,-0.446 -0.057,-0.945"
     id="path156" />
  <path
     class="write-flat-pen"
     fill="#000000"
     fill-opacity="0.427"
     stroke-width="2.4"
     __comx="188.388"
     __comy="1692.953"
     __timestamp="0x18287ad57c1"
     d="m 149.007,56.88 0.603,-0.615 0.256,-0.151 0.257,-0.098 0.265,-0.055 h 0.189 l 0.206,0.082 0.23,0.131 0.199,0.195 0.187,0.259 0.137,0.235 0.049,0.165 0.029,0.2 -0.004,0.042 0.025,-0.097 -0.049,0.069 -0.21,0.178 -0.396,0.331 -0.393,0.303 -0.437,0.342 -0.425,0.342 -0.297,0.295 -0.241,0.285 -0.149,0.318 -0.068,0.295 0.071,0.272 -0.121,0.652 1.166,0.217 0.121,-0.652 0.115,0.036 0.035,0.129 0.131,-0.02 0.208,-0.12 0.27,-0.214 0.385,-0.283 0.438,-0.341 0.419,-0.324 0.431,-0.361 0.43,-0.365 0.353,-0.541 0.167,-0.558 -0.066,-0.522 -0.091,-0.414 -0.185,-0.496 -0.327,-0.491 -0.396,-0.467 -0.566,-0.43 -0.583,-0.23 -0.669,-0.167 -0.683,0.11 -0.546,0.212 -0.501,0.333 -0.35,0.407 -0.581,0.729"
     id="path158" />
  <path
     class="write-flat-pen"
     fill="#000000"
     fill-opacity="0.427"
     stroke-width="2.4"
     __comx="193.22"
     __comy="1692.953"
     __timestamp="0x18287ad58fe"
     d="m 155.061,59.264 -0.339,1.188 -0.071,0.518 -0.044,0.544 -0.009,0.553 -0.031,0.464 -0.028,0.461 -0.024,0.374 -0.013,0.312 v 0.25 l 0.049,0.193 0.078,0.035 0.094,0.054 -0.131,0.789 1.421,0.236 0.131,-0.789 0.128,-0.147 0.08,-0.147 0.056,-0.086 0.052,-0.188 0.044,-0.355 0.032,-0.396 0.029,-0.477 0.026,-0.524 -0.008,-0.551 0.016,-0.464 0.002,-0.359 0.195,-1.077"
     id="path160" />
  <path
     class="write-flat-pen"
     fill="#000000"
     fill-opacity="0.427"
     stroke-width="2.4"
     __comx="193.043"
     __comy="1692.953"
     __timestamp="0x18287ad59ac"
     d="m 154.413,56.738 0.723,0.801 0.359,0.059 0.353,0.037 0.184,0.282 0.501,-0.326 -0.184,-0.282 0.052,-0.424 -0.064,-0.389 -0.581,-0.83"
     id="path162" />
  <path
     class="write-flat-pen"
     fill="#000000"
     fill-opacity="0.427"
     stroke-width="2.4"
     __comx="197.973"
     __comy="1692.953"
     __timestamp="0x18287ad5aa2"
     d="m 157.381,59.38 0.63,0.94 0.284,0.401 0.32,0.431 0.403,0.465 0.445,0.491 0.512,0.524 0.561,0.539 0.475,0.379 0.307,0.318 0.208,0.237 0.111,0.13 0.07,0.036 0.08,0.028 0.12,0.068 0.266,0.678 1.25,-0.346 -0.121,-0.718 0.068,-0.119 0.019,-0.192 -0.101,-0.349 -0.227,-0.371 -0.303,-0.375 -0.444,-0.46 -0.509,-0.403 -0.485,-0.455 -0.478,-0.472 -0.429,-0.452 -0.415,-0.429 -0.388,-0.365 -0.314,-0.258 -0.634,-0.82"
     id="path164" />
  <path
     class="write-flat-pen"
     fill="#000000"
     fill-opacity="0.427"
     stroke-width="2.4"
     __comx="198.156"
     __comy="1692.953"
     __timestamp="0x18287ad5b77"
     d="m 162.81,57.727 -0.931,0.373 -0.387,0.176 -0.415,0.339 -0.405,0.492 -0.374,0.524 -0.402,0.593 -0.452,0.61 -0.427,0.595 -0.449,0.548 -0.364,0.555 -0.357,0.577 -0.079,0.758 -0.108,0.687 -0.008,0.01 0.008,0.01 0.006,-0.01 0.647,-0.254 0.674,-0.18 0.571,-0.364 0.506,-0.488 0.538,-0.549 0.502,-0.66 0.478,-0.646 0.415,-0.615 0.328,-0.475 0.257,-0.363 0.145,-0.201 0.057,-0.14 0.737,-0.44"
     id="path166" />
  <path
     class="write-flat-pen"
     fill="#000000"
     fill-opacity="0.427"
     stroke-width="2.4"
     __comx="188.118"
     __comy="1692.953"
     __timestamp="0x18287ad60ad"
     d="m 150.048,69.09 -0.825,0.577 -0.234,0.309 -0.202,0.434 -0.191,0.578 -0.143,0.659 -0.136,0.733 -0.069,0.767 -0.037,0.761 0.105,0.761 0.14,0.605 0.262,0.675 0.424,0.477 0.436,0.356 0.551,0.214 0.618,0.063 0.674,-0.162 0.466,-0.387 0.42,-0.456 0.278,-0.603 0.143,-0.501 0.151,-0.574 0.006,-0.728 -0.102,-0.669 -0.162,-0.674 -0.227,-0.734 -0.319,-0.748 -0.303,-0.624 -0.272,-0.545 -0.339,-0.442 -0.38,-0.33 -0.757,-0.217 -0.591,0.396 -0.218,0.454 0.08,0.538 -0.167,0.3 0.546,0.304 0.167,-0.3 0.404,-0.042 0.152,0.105 -0.232,0.211 -0.383,-0.087 -0.069,-0.042 0.111,0.17 0.188,0.386 0.277,0.576 0.262,0.614 0.18,0.577 0.129,0.534 0.07,0.433 -0.001,0.325 -0.083,0.318 -0.095,0.334 -0.086,0.182 -0.122,0.127 -0.015,0.01 0.097,-0.027 -0.019,-0.01 -0.013,-0.01 -0.071,-0.059 -0.081,-0.091 -0.082,-0.211 -0.089,-0.378 -0.068,-0.492 0.021,-0.544 0.048,-0.645 0.098,-0.63 0.094,-0.552 0.112,-0.446 0.066,-0.301 -0.093,0.037 0.462,-0.477"
     id="path168" />
  <path
     class="write-flat-pen"
     fill="#000000"
     fill-opacity="0.427"
     stroke-width="2.4"
     __comx="193.029"
     __comy="1692.953"
     __timestamp="0x18287ad61c2"
     d="m 155.038,74.654 -0.066,1.054 -0.089,0.338 -0.046,0.293 -0.043,0.231 -0.085,0.257 -0.07,0.201 -0.082,0.176 -0.108,0.272 0.015,0.202 0.07,0.18 0.012,0.12 -0.346,0.456 0.794,0.603 0.346,-0.456 0.112,-0.011 0.276,-0.081 0.188,-0.139 0.169,-0.131 0.253,-0.347 0.159,-0.421 0.14,-0.428 0.069,-0.45 0.011,-0.382 -0.035,-0.42 -0.066,-1.116"
     id="path170" />
  <path
     class="write-flat-pen"
     fill="#000000"
     fill-opacity="0.427"
     stroke-width="2.4"
     __comx="197.364"
     __comy="1692.953"
     __timestamp="0x18287ad6377"
     d="m 158.867,74.908 0.307,-0.836 0.171,-0.236 0.229,-0.356 0.308,-0.492 0.325,-0.582 0.325,-0.661 0.307,-0.687 0.217,-0.686 0.142,-0.623 0.102,-0.517 0.068,-0.407 0.03,-0.188 0.02,-0.073 -2.042,-0.288 -0.034,0.182 -0.04,0.527 -0.005,0.704 -0.031,0.84 -0.003,0.942 0.059,0.925 0.057,0.907 0.119,0.813 0.086,0.7 0.086,0.619 0.058,0.523 0.058,0.383 0.032,0.255 0.044,0.223 0.019,0.046 0.041,0.208 0.268,0.224 0.553,0.757 1.464,-0.895 -0.422,-0.838 0.151,0.033 0.023,0.073 -0.017,-0.083 -0.003,-0.051 -0.023,-0.231 -0.054,-0.381 -0.057,-0.514 -0.088,-0.632 -0.088,-0.709 -0.113,-0.754 -0.059,-0.818 -0.058,-0.853 -0.003,-0.836 0.027,-0.838 -0.003,-0.675 0.021,-0.441 -0.005,-0.163 -2.042,-0.288 -0.024,0.147 -0.023,0.239 -0.046,0.36 -0.071,0.469 -0.09,0.524 -0.131,0.513 -0.216,0.567 -0.258,0.597 -0.258,0.519 -0.281,0.518 -0.191,0.458 -0.13,0.394 -0.292,0.945"
     id="path172" />
  <path
     class="write-flat-pen"
     fill="#000000"
     fill-opacity="0.427"
     stroke-width="2.4"
     __comx="215.066"
     __comy="1692.953"
     __timestamp="0x18287ad672f"
     d="m 176.211,55.242 0.054,1.138 0.059,0.519 0.155,0.662 0.071,0.64 0.078,0.708 0.05,0.704 -0.028,0.745 v 0.701 l -0.027,0.625 -0.027,0.536 -0.021,0.446 -0.013,0.262 -0.005,0.218 0.027,0.131 1.555,0.827 0.173,-0.218 0.007,-0.53 -0.189,-0.584 0.108,-0.223 -0.409,-0.198 -0.108,0.223 -0.558,0.18 -0.238,-0.09 0.055,-0.132 1.555,0.827 0.034,-0.037 0.046,-0.164 0.041,-0.333 0.036,-0.485 0.03,-0.554 0.03,-0.68 v -0.708 l 0.029,-0.823 -0.067,-0.866 -0.096,-0.757 -0.104,-0.772 -0.197,-0.717 -0.124,-0.458 -0.406,-1.085"
     id="path174" />
  <path
     class="write-flat-pen"
     fill="#000000"
     fill-opacity="0.427"
     stroke-width="2.4"
     __comx="216.616"
     __comy="1692.953"
     __timestamp="0x18287ad685b"
     d="m 177.414,56.527 0.38,-0.858 0.152,-0.175 0.227,-0.165 0.338,-0.142 0.367,-0.057 0.295,0.039 0.249,0.128 0.222,0.216 0.212,0.336 0.121,0.355 0.05,0.378 -0.008,0.321 -0.059,0.268 -0.075,0.188 -0.147,0.207 -0.197,0.212 -0.174,0.143 -0.306,0.152 -0.32,0.19 -0.201,0.087 -0.229,0.08 -0.151,0.077 -0.148,0.065 -0.13,0.154 -0.756,0.419 0.639,1.436 0.817,-0.281 0.031,0.083 0.11,0.01 0.236,-0.068 0.271,-0.075 0.423,-0.174 0.376,-0.224 0.446,-0.222 0.459,-0.382 0.378,-0.415 0.371,-0.534 0.208,-0.591 0.11,-0.615 -0.01,-0.666 -0.126,-0.717 -0.287,-0.739 -0.49,-0.71 -0.651,-0.564 -0.857,-0.339 -0.865,-0.01 -0.794,0.208 -0.712,0.389 -0.533,0.537 -0.26,0.537 -0.328,1.01"
     id="path176" />
  <path
     class="write-flat-pen"
     fill="#000000"
     fill-opacity="0.427"
     stroke-width="2.4"
     __comx="220.762"
     __comy="1692.953"
     __timestamp="0x18287ad6945"
     d="m 182.609,58.098 -0.262,1.181 -0.101,0.415 -0.102,0.421 -0.065,0.478 -0.067,0.479 0.003,0.458 0.018,0.355 0.011,0.333 0.071,0.244 0.089,0.072 0.164,0.187 0.086,0.211 -0.228,0.344 0.598,0.395 0.228,-0.344 0.293,-0.103 0.326,-0.232 0.184,-0.317 0.075,-0.375 0.065,-0.335 0.019,-0.429 0.008,-0.32 0.049,-0.353 0.054,-0.414 0.071,-0.418 0.022,-0.456 0.151,-1.169"
     id="path178" />
  <path
     class="write-flat-pen"
     fill="#000000"
     fill-opacity="0.427"
     stroke-width="2.4"
     __comx="220.937"
     __comy="1692.953"
     __timestamp="0x18287ad69dd"
     d="m 182.594,55.692 0.153,0.931 0.256,0.236 0.331,0.155 0.117,0.318 0.552,-0.203 -0.117,-0.318 0.153,-0.327 0.098,-0.206 -0.098,-0.795"
     id="path180" />
  <path
     class="write-flat-pen"
     fill="#000000"
     fill-opacity="0.427"
     stroke-width="2.4"
     __comx="226.029"
     __comy="1692.953"
     __timestamp="0x18287ad6ac4"
     d="m 185.937,56.81 0.693,0.939 0.285,0.454 0.337,0.475 0.399,0.513 0.369,0.47 0.356,0.449 0.295,0.423 0.197,0.372 0.132,0.39 0.07,0.318 0.037,0.351 0.03,0.262 0.024,0.127 0.073,0.01 0.371,-0.311 0.321,0.143 -0.652,-0.129 -0.238,1.198 0.652,0.129 0.474,0.173 0.492,-0.464 0.174,-0.329 0.125,-0.364 0.028,-0.512 -0.025,-0.535 -0.104,-0.558 -0.219,-0.654 -0.326,-0.617 -0.403,-0.57 -0.399,-0.492 -0.385,-0.469 -0.417,-0.485 -0.363,-0.417 -0.372,-0.404 -0.79,-0.891"
     id="path182" />
  <path
     class="write-flat-pen"
     fill="#000000"
     fill-opacity="0.427"
     stroke-width="2.4"
     __comx="225.808"
     __comy="1692.953"
     __timestamp="0x18287ad6b86"
     d="m 189.539,56.544 -0.967,0.672 -0.482,0.381 -0.445,0.514 -0.43,0.547 -0.43,0.608 -0.407,0.642 -0.279,0.645 -0.156,0.576 -0.041,0.605 0.19,0.806 -0.006,0.01 0.011,0.01 0.006,-0.01 0.83,-0.242 0.482,-0.44 0.365,-0.466 0.302,-0.503 0.348,-0.507 0.384,-0.543 0.385,-0.502 0.321,-0.435 0.253,-0.326 0.802,-0.747"
     id="path184" />
  <path
     class="write-flat-pen"
     fill="#000000"
     fill-opacity="0.427"
     stroke-width="2.4"
     __comx="218.761"
     __comy="1692.953"
     __timestamp="0x18287ad6e27"
     d="m 180.216,67.862 -0.783,0.955 -0.293,0.628 -0.222,0.815 -0.14,0.908 -0.106,1.007 -0.005,1.018 0.062,0.992 0.203,0.949 0.315,0.85 0.403,0.69 0.471,0.565 0.558,0.416 0.704,0.231 0.835,-0.173 0.567,-0.527 0.382,-0.632 0.304,-0.744 0.141,-0.811 0.101,-0.884 -0.028,-0.896 -0.061,-0.942 -0.201,-0.994 -0.328,-0.916 -0.378,-0.821 -0.38,-0.71 -0.476,-0.554 -0.565,-0.409 -0.832,-0.064 -0.537,0.615 0.107,0.71 0.272,0.591 -0.003,0.02 h 0.017 l 0.003,-0.02 0.401,-0.422 0.386,-0.031 -0.167,0.314 h -0.417 l -0.007,0.046 0.214,0.276 0.257,0.488 0.319,0.695 0.253,0.705 0.148,0.732 0.055,0.784 0.029,0.725 -0.074,0.688 -0.094,0.551 -0.168,0.414 -0.164,0.271 0.022,-0.025 0.201,-0.045 0.091,0.021 -0.124,-0.101 -0.22,-0.267 -0.233,-0.404 -0.206,-0.56 -0.145,-0.671 -0.054,-0.785 -0.005,-0.864 0.068,-0.876 0.093,-0.768 0.134,-0.613 0.084,-0.342 0.526,-0.862"
     id="path186" />
  <path
     class="write-flat-pen"
     fill="#000000"
     fill-opacity="0.427"
     stroke-width="2.4"
     __comx="222.963"
     __comy="1692.953"
     __timestamp="0x18287ad6f31"
     d="m 184.795,73.848 -0.064,1.097 -0.08,0.409 -0.023,0.421 -0.03,0.348 -0.055,0.379 -0.028,0.317 -0.028,0.204 -0.02,0.138 -0.004,0.111 0.025,0.132 -0.023,0.27 0.022,0.216 0.011,0.133 -0.344,0.332 0.565,0.585 0.344,-0.332 0.159,-0.01 0.237,-0.023 0.321,-0.106 0.295,-0.234 0.217,-0.358 0.142,-0.374 0.083,-0.417 0.031,-0.349 0.057,-0.401 0.026,-0.489 -0.02,-0.422 -0.024,-0.416 -0.064,-1.159"
     id="path188" />
  <path
     class="write-flat-pen"
     fill="#000000"
     fill-opacity="0.427"
     stroke-width="2.4"
     __comx="228.987"
     __comy="1692.953"
     __timestamp="0x18287ad70e3"
     d="m 188.354,69.915 0.69,-0.981 0.25,-0.25 0.276,-0.14 0.238,-0.098 h 0.103 l 0.176,0.068 0.173,0.13 0.119,0.187 0.124,0.396 0.057,0.477 -0.045,0.555 -0.16,0.587 -0.26,0.59 -0.362,0.58 -0.455,0.546 -0.439,0.534 -0.393,0.393 -0.365,0.35 -0.251,0.279 -0.765,0.86 1.062,1.097 0.79,0.118 h 0.671 l 0.715,-0.029 0.762,-0.056 0.772,-0.083 0.741,-0.084 0.654,-0.064 0.624,-0.068 0.445,-0.06 0.243,-0.058 -0.003,-0.128 0.059,-0.179 0.154,-0.037 0.348,0.442 0.787,-0.619 -0.348,-0.442 -0.024,-0.264 -0.22,-0.396 -0.494,-0.265 -0.556,-0.056 -0.53,-0.01 -0.653,0.036 -0.679,0.041 -0.769,0.073 -0.739,0.073 -0.693,0.048 -0.63,0.023 h -0.468 l 0.086,0.013 0.842,0.87 -0.569,0.64 0.198,-0.223 0.323,-0.321 0.474,-0.492 0.489,-0.615 0.532,-0.656 0.51,-0.832 0.378,-0.874 0.246,-0.93 0.07,-0.964 -0.119,-0.883 -0.288,-0.863 -0.525,-0.75 -0.762,-0.494 -0.816,-0.239 -0.879,0.065 -0.69,0.374 -0.591,0.44 -0.403,0.611 -0.647,1.087"
     id="path190" />
  <path
     class="write-flat-pen"
     fill="#000000"
     fill-opacity="0.427"
     stroke-width="2.4"
     __comx="249.069"
     __comy="1701.124"
     __timestamp="0x18287ad7b6f"
     d="m 210.416,72.018 -0.079,0.796 -0.05,0.076 -0.021,0.092 -0.008,0.147 0.078,0.46 0.542,0.472 0.429,0.103 0.283,-0.014 0.407,-0.064 0.345,-0.298 0.183,-0.246 0.098,-0.216 0.074,-0.204 0.044,-0.25 -0.026,-0.353 -0.148,-0.37 -0.291,-0.306 -0.237,-0.136 0.415,0.305 -0.388,1.119 -0.442,-0.092 0.71,-0.02 -0.037,-1.319 -0.71,0.02 -0.651,-0.086 -0.408,1.18 0.637,0.42 -0.03,-0.01 -0.098,-0.102 -0.08,-0.201 -0.01,-0.139 0.02,-0.11 0.004,-0.01 0.014,-0.029 0.049,-0.064 0.184,-0.158 0.181,-0.028 h 0.065 l 0.241,0.058 0.251,0.219 0.05,0.306 -0.008,0.01 -0.021,-0.092 -0.05,-0.076 -0.079,-0.796"
     id="path192" />
  <path
     class="write-flat-pen"
     fill="#000000"
     fill-opacity="0.427"
     stroke-width="2.4"
     __comx="254.051"
     __comy="1700.434"
     __timestamp="0x18287ad7d20"
     d="m 216.397,71.16 -0.674,0.564 -0.132,0.108 -0.099,0.114 -0.128,0.168 -0.222,0.668 0.533,0.639 0.447,0.159 h 0.441 l 0.489,-0.159 0.27,-0.229 0.137,-0.144 0.217,-0.24 0.142,-0.381 -0.001,-0.322 -0.074,-0.399 -0.384,-0.452 -0.279,-0.162 -0.282,-0.095 -0.427,-0.05 -0.439,0.171 -0.295,0.23 -0.28,0.516 0.09,0.522 0.315,0.358 0.444,0.032 0.281,0.202 0.346,-0.483 -0.281,-0.202 0.067,-0.238 0.198,0.085 0.102,0.29 -0.056,0.22 -0.114,0.11 -0.184,0.082 -0.205,-0.02 -0.067,-0.02 -0.151,-0.087 -0.144,-0.172 -0.045,-0.249 0.001,-0.179 0.098,-0.261 0.041,-0.037 -0.041,0.048 0.085,-0.07 0.117,-0.037 0.159,0.001 0.327,0.117 0.426,0.511 -0.179,0.536 -0.022,0.017 0.027,-0.079 -0.028,-0.018 0.502,-0.631"
     id="path194" />
  <path
     class="write-flat-pen"
     fill="#000000"
     fill-opacity="0.427"
     stroke-width="2.4"
     __comx="258.944"
     __comy="1701.11"
     __timestamp="0x18287ad7e5d"
     d="m 219.727,72.788 0.518,0.759 0.259,0.255 0.401,0.169 0.285,0.06 0.285,0.05 0.239,-0.017 0.302,-0.036 0.363,-0.159 0.339,-0.282 0.302,-0.587 -0.065,-0.558 -0.093,-0.297 -0.158,-0.299 -0.192,-0.223 -0.169,-0.135 -0.236,-0.154 -0.241,0.01 0.287,1.544 0.01,-0.078 0.675,-0.524 -1.015,-1.309 -0.675,0.524 -0.078,-0.01 0.287,1.544 -0.089,0.056 -0.074,-0.043 -0.022,-0.018 -0.05,-0.061 -0.006,-0.03 -0.006,-0.051 -0.015,-0.194 0.131,-0.232 0.144,-0.107 0.118,-0.042 0.01,0.01 h 0.029 -0.052 l -0.118,-0.012 -0.007,0.018 0.062,0.093 -0.479,-0.552"
     id="path196" />
  <path
     class="write-flat-pen"
     fill="#000000"
     fill-opacity="0.427"
     stroke-width="2.4"
     __comx="605.437"
     __comy="1694.901"
     __timestamp="0x18287ad8a0e"
     d="m 567.102,55.75 0.05,1.19 0.008,0.57 0.04,0.651 0.009,0.737 0.012,0.766 -0.011,0.746 -0.033,0.662 -0.083,0.569 -0.081,0.521 -0.107,0.431 -0.094,0.419 -0.054,0.312 -0.038,0.163 -0.19,0.885 1.328,0.634 0.591,-0.752 -0.038,-0.471 0.279,-0.493 -0.915,-0.517 -0.279,0.493 -0.298,-0.01 0.355,-0.538 1.256,0.597 -0.138,0.66 0.063,-0.217 0.061,-0.353 0.078,-0.351 0.122,-0.5 0.093,-0.625 0.09,-0.681 0.024,-0.8 -0.011,-0.822 -0.046,-0.803 -0.05,-0.784 -0.076,-0.664 -0.054,-0.567 -0.164,-1.211"
     id="path198" />
  <path
     class="write-flat-pen"
     fill="#000000"
     fill-opacity="0.427"
     stroke-width="2.4"
     __comx="607.208"
     __comy="1694.901"
     __timestamp="0x18287ad8b62"
     d="m 568.498,56.227 0.684,-0.537 0.265,-0.086 0.303,-0.085 0.241,-0.032 0.233,0.035 0.146,0.076 0.069,0.095 0.023,0.069 0.025,0.165 0.003,0.248 -0.057,0.238 -0.115,0.332 -0.126,0.243 -0.228,0.252 -0.236,0.243 -0.235,0.157 -0.263,0.158 -0.266,0.111 -0.292,0.089 -0.305,0.092 -0.222,0.057 -0.263,0.09 -0.289,0.149 -0.688,0.686 0.641,0.664 0.383,0.587 1.106,-0.721 -0.383,-0.587 0.451,0.373 -0.562,0.578 -0.084,0.069 h 0.121 l 0.272,-0.046 0.391,-0.117 0.394,-0.121 0.487,-0.207 0.43,-0.261 0.452,-0.313 0.401,-0.435 0.407,-0.486 0.277,-0.595 0.174,-0.565 0.109,-0.596 -0.062,-0.648 -0.165,-0.619 -0.388,-0.544 -0.574,-0.415 -0.667,-0.177 -0.642,-0.01 -0.568,0.13 -0.522,0.242 -0.395,0.308 -0.739,0.636"
     id="path200" />
  <path
     class="write-flat-pen"
     fill="#000000"
     fill-opacity="0.427"
     stroke-width="2.4"
     __comx="610.34"
     __comy="1694.901"
     __timestamp="0x18287ad8c8e"
     d="m 572.446,59.215 -0.203,1.011 -0.121,0.401 -0.083,0.453 -0.095,0.434 -0.066,0.436 -0.063,0.416 -0.029,0.348 -0.045,0.253 -0.033,0.196 -0.047,0.188 -0.055,0.215 -0.021,0.203 -0.027,0.287 0.053,0.247 0.092,0.159 0.099,0.158 -0.094,0.415 0.686,0.155 0.094,-0.415 0.156,-0.097 0.149,-0.087 0.126,-0.043 0.145,-0.074 0.144,-0.141 0.166,-0.244 0.176,-0.394 0.08,-0.371 0.064,-0.362 0.031,-0.377 0.053,-0.363 0.051,-0.395 0.077,-0.452 0.036,-0.504 -10e-4,-0.423 0.041,-1.053"
     id="path202" />
  <path
     class="write-flat-pen"
     fill="#000000"
     fill-opacity="0.427"
     stroke-width="2.4"
     __comx="611.635"
     __comy="1694.901"
     __timestamp="0x18287ad8d45"
     d="m 573.356,56.271 0.004,0.957 0.29,0.31 0.384,0.285 0.016,0.094 0.127,-0.022 -0.016,-0.094 0.271,-0.364 0.244,-0.232 0.095,-0.864"
     id="path204" />
  <path
     class="write-flat-pen"
     fill="#000000"
     fill-opacity="0.427"
     stroke-width="2.4"
     __comx="616.197"
     __comy="1694.901"
     __timestamp="0x18287ad8e3f"
     d="m 576.198,58.23 0.531,1.037 0.23,0.482 0.277,0.546 0.264,0.56 0.317,0.641 0.325,0.617 0.322,0.583 0.3,0.543 0.243,0.39 0.122,0.248 0.07,0.192 0.068,0.143 0.066,0.04 0.093,-0.424 0.402,-0.162 -0.654,0.35 0.656,1.226 0.654,-0.35 0.485,-0.206 0.078,-0.665 0.007,-0.245 -0.042,-0.246 -0.101,-0.355 -0.223,-0.47 -0.273,-0.438 -0.279,-0.499 -0.317,-0.566 -0.314,-0.584 -0.324,-0.616 -0.318,-0.591 -0.367,-0.561 -0.307,-0.433 -0.628,-0.973"
     id="path206" />
  <path
     class="write-flat-pen"
     fill="#000000"
     fill-opacity="0.427"
     stroke-width="2.4"
     __comx="616.367"
     __comy="1694.901"
     __timestamp="0x18287ad8f18"
     d="m 580.976,58.351 -0.971,0.319 -0.486,0.273 -0.407,0.423 -0.417,0.479 -0.428,0.554 -0.426,0.557 -0.476,0.588 -0.408,0.576 -0.399,0.518 -0.265,0.562 -0.143,0.476 -0.069,0.543 0.232,0.754 -0.26,0.604 -0.009,0.01 0.008,0.01 0.002,-0.01 0.439,-0.5 0.757,-0.245 0.398,-0.348 0.318,-0.354 0.256,-0.373 0.352,-0.419 0.405,-0.573 0.454,-0.563 0.446,-0.595 0.389,-0.548 0.348,-0.474 0.208,-0.329 0.034,-0.147 0.691,-0.367"
     id="path208" />
  <path
     class="write-flat-pen"
     fill="#000000"
     fill-opacity="0.427"
     stroke-width="2.4"
     __comx="606.299"
     __comy="1694.901"
     __timestamp="0x18287ad91e5"
     d="m 568.165,69.551 -0.996,0.611 -0.328,0.515 -0.266,0.625 -0.252,0.813 -0.141,0.85 -0.134,0.863 -0.038,0.87 0.065,0.838 0.186,0.811 0.336,0.688 0.456,0.528 0.491,0.406 0.514,0.22 0.578,0.149 0.681,-0.093 0.537,-0.275 0.478,-0.383 0.477,-0.54 0.34,-0.713 0.185,-0.721 0.108,-0.725 10e-4,-0.77 -0.067,-0.79 -0.166,-0.75 -0.195,-0.673 -0.243,-0.625 -0.26,-0.454 -0.203,-0.365 -0.293,-0.287 -0.456,-0.366 -0.717,0.133 -0.334,0.532 0.06,0.514 -0.173,0.325 0.583,0.311 0.173,-0.325 0.337,-0.01 -0.003,0.271 -0.577,0.121 -0.256,-0.179 0.027,0.07 0.074,0.181 0.198,0.375 0.16,0.417 0.152,0.527 0.123,0.557 0.049,0.571 v 0.54 l -0.068,0.479 -0.11,0.432 -0.134,0.283 -0.175,0.197 -0.183,0.142 -0.051,0.02 0.044,-0.011 -0.053,-0.014 -0.105,-0.044 -0.135,-0.112 -0.175,-0.203 -0.122,-0.245 -0.103,-0.441 -0.05,-0.571 0.02,-0.645 0.099,-0.758 0.092,-0.72 0.16,-0.609 0.161,-0.454 0.01,-0.12 0.543,-0.561"
     id="path210" />
  <path
     class="write-flat-pen"
     fill="#000000"
     fill-opacity="0.427"
     stroke-width="2.4"
     __comx="610.368"
     __comy="1694.901"
     __timestamp="0x18287ad92df"
     d="m 572.087,75.193 -0.074,1.002 -0.059,0.302 -0.032,0.39 0.017,0.315 v 0.34 l 0.023,0.299 -0.018,0.224 -0.013,0.203 0.01,0.061 0.011,0.133 0.067,0.112 0.055,0.073 -0.398,0.651 1.171,0.715 0.398,-0.651 0.144,-0.072 0.172,-0.127 0.167,-0.228 0.109,-0.334 0.043,-0.364 0.031,-0.397 -0.031,-0.382 -0.004,-0.346 -0.036,-0.307 -0.032,-0.309 -0.059,-0.302 -0.074,-1.002"
     id="path212" />
  <path
     class="write-flat-pen"
     fill="#000000"
     fill-opacity="0.427"
     stroke-width="2.4"
     __comx="614.734"
     __comy="1694.901"
     __timestamp="0x18287ad946e"
     d="m 576.777,75.069 0.326,-1.061 0.151,-0.414 0.186,-0.438 0.225,-0.634 0.181,-0.665 0.212,-0.663 0.142,-0.565 0.176,-0.427 0.096,-0.34 h 0.007 l -0.002,0.015 -1.811,-0.467 -0.019,0.186 -0.045,0.415 -0.037,0.704 -0.037,0.817 -0.037,0.874 0.028,0.868 0.059,0.803 0.091,0.737 0.085,0.614 0.057,0.565 0.06,0.488 0.068,0.432 0.063,0.237 0.043,0.132 0.04,0.14 0.11,0.208 0.173,0.156 0.154,0.111 0.139,0.674 1.207,-0.248 -0.139,-0.674 0.102,-0.14 0.119,-0.155 0.067,-0.098 0.031,-0.141 -0.019,-0.323 -0.043,-0.252 -0.046,-0.339 -0.054,-0.441 -0.059,-0.581 -0.089,-0.637 -0.083,-0.673 -0.057,-0.712 -0.03,-0.752 0.021,-0.8 0.022,-0.809 0.023,-0.679 0.01,-0.488 -0.032,-0.273 -1.811,-0.467 -0.082,0.15 -0.085,0.259 -0.075,0.315 -0.166,0.449 -0.148,0.633 -0.195,0.645 -0.168,0.644 -0.185,0.577 -0.162,0.567 -0.035,0.512 -0.223,1.038"
     id="path214" />
  <path
     class="write-flat-pen"
     fill="#000000"
     fill-opacity="0.427"
     stroke-width="2.4"
     __comx="620.379"
     __comy="1694.901"
     __timestamp="0x18287ad95ff"
     d="m 583.317,68.894 -0.99,0.549 -0.396,0.387 -0.344,0.583 -0.308,0.694 -0.325,0.835 -0.292,0.952 -0.227,0.968 -0.129,0.97 -0.066,0.949 0.07,0.867 0.192,0.793 0.359,0.73 0.481,0.482 0.559,0.37 0.719,0.172 0.639,-0.092 0.632,-0.252 0.576,-0.425 0.429,-0.548 0.259,-0.567 0.171,-0.564 0.053,-0.648 -0.087,-0.593 -0.222,-0.575 -0.482,-0.522 -0.574,-0.288 -0.532,-0.118 -0.635,-0.063 -0.696,0.257 -0.381,0.522 -0.103,0.728 -0.045,0.037 0.058,0.071 0.045,-0.037 0.666,0.097 0.319,0.116 0.117,0.113 0.182,0.098 0.228,0.103 0.059,0.044 -0.034,-0.036 -0.005,-0.013 0.019,0.129 -0.014,0.189 -0.065,0.215 -0.097,0.213 -0.099,0.125 -0.131,0.093 -0.146,0.055 0.01,-0.01 h 0.034 l -0.07,-0.05 -0.082,-0.085 -0.1,-0.204 -0.097,-0.405 -0.045,-0.542 0.05,-0.724 0.104,-0.807 0.18,-0.809 0.231,-0.827 0.258,-0.738 0.223,-0.574 0.158,-0.343 0.003,-0.09 0.669,-0.528"
     id="path216" />
  <path
     class="write-flat-pen"
     fill="#000000"
     fill-opacity="0.427"
     stroke-width="2.4"
     __comx="636.165"
     __comy="1689.923"
     __timestamp="0x18287adc6b1"
     d="m 597.302,54.787 0.093,1.097 0.028,0.344 0.067,0.481 0.044,0.555 0.073,0.697 0.049,0.757 0.05,0.842 0.025,0.88 -0.002,0.865 0.028,0.784 -10e-4,0.686 -0.029,0.598 v 0.473 l -0.04,0.299 -0.041,0.215 -0.007,0.101 0.011,0.02 1.981,0.028 -0.191,-0.057 -0.334,-0.21 -0.061,-0.576 -1.091,0.115 0.061,0.576 -0.269,0.407 -0.104,0.271 1.981,0.028 0.049,-0.108 0.045,-0.171 0.064,-0.269 0.072,-0.523 v -0.565 l 0.029,-0.598 -10e-4,-0.776 -0.03,-0.783 -0.002,-0.86 -0.033,-0.951 -0.066,-0.885 -0.067,-0.814 -0.102,-0.723 -0.075,-0.604 -0.115,-0.554 -0.093,-0.321 -0.259,-1.052"
     id="path218" />
  <path
     class="write-flat-pen"
     fill="#000000"
     fill-opacity="0.427"
     stroke-width="2.4"
     __comx="637.743"
     __comy="1689.923"
     __timestamp="0x18287adc80f"
     d="m 597.978,57.109 0.956,-0.281 0.424,-0.078 0.436,-0.066 0.398,-0.054 0.31,0.059 0.194,0.077 0.077,0.08 0.065,0.132 0.063,0.218 0.013,0.318 -0.03,0.351 -0.088,0.319 -0.129,0.308 -0.165,0.269 -0.202,0.255 -0.169,0.181 -0.218,0.16 -0.215,0.141 -0.193,0.082 -0.217,0.074 -0.242,0.059 -0.173,0.072 -0.151,0.09 -0.087,0.099 -0.78,0.271 0.361,1.452 0.816,-0.126 0.058,0.063 0.177,0.034 0.205,-0.022 0.325,-0.051 0.417,-0.138 0.434,-0.183 0.42,-0.277 0.417,-0.318 0.346,-0.39 0.315,-0.423 0.294,-0.515 0.216,-0.581 0.14,-0.621 0.026,-0.643 -0.053,-0.678 -0.236,-0.672 -0.408,-0.592 -0.621,-0.432 -0.669,-0.178 -0.735,-0.04 -0.655,0.157 -0.497,0.147 -0.481,0.197 -0.952,0.391"
     id="path220" />
  <path
     class="write-flat-pen"
     fill="#000000"
     fill-opacity="0.427"
     stroke-width="2.4"
     __comx="642.362"
     __comy="1689.923"
     __timestamp="0x18287adc94c"
     d="m 604.041,60.287 -0.136,1.262 -0.073,0.563 -0.018,0.549 -0.005,0.55 0.025,0.524 v 0.473 l 0.028,0.415 0.001,0.289 -0.015,0.331 0.024,0.16 0.03,0.104 0.067,0.045 0.082,0.021 0.163,-0.083 0.169,0.02 -0.605,0.19 0.338,1.079 0.605,-0.19 0.301,-0.022 0.262,-0.232 0.162,-0.12 0.164,-0.244 0.129,-0.366 0.027,-0.277 0.039,-0.341 -10e-4,-0.431 -0.028,-0.413 -10e-4,-0.461 -0.032,-0.522 -0.005,-0.496 -0.016,-0.497 -0.013,-0.506 0.034,-1.259"
     id="path222" />
  <path
     class="write-flat-pen"
     fill="#000000"
     fill-opacity="0.427"
     stroke-width="2.4"
     __comx="642.134"
     __comy="1689.923"
     __timestamp="0x18287adc9f1"
     d="m 603.521,59.166 0.7,0.386 0.184,-0.067 0.33,-0.023 0.335,0.299 0.535,-0.599 -0.335,-0.299 -0.023,-0.338 -0.075,-0.289 -0.788,-0.508"
     id="path224" />
  <path
     class="write-flat-pen"
     fill="#000000"
     fill-opacity="0.427"
     stroke-width="2.4"
     __comx="646.97"
     __comy="1699.341"
     __timestamp="0x18287add10b"
     d="m 606.107,59.247 0.443,1.036 0.212,0.39 0.377,0.547 0.468,0.552 0.511,0.556 0.576,0.584 0.55,0.498 0.548,0.466 0.452,0.356 0.247,0.222 0.126,0.132 0.069,0.088 0.018,-0.019 -0.12,-0.534 0.409,-0.232 -0.614,0.596 1.119,1.151 0.614,-0.596 0.58,-0.398 -0.198,-0.774 -0.077,-0.188 -0.155,-0.295 -0.329,-0.375 -0.377,-0.339 -0.473,-0.373 -0.497,-0.422 -0.493,-0.442 -0.529,-0.515 -0.478,-0.492 -0.406,-0.447 -0.342,-0.428 -0.207,-0.221 -0.551,-0.858"
     id="path226" />
  <path
     class="write-flat-pen"
     fill="#000000"
     fill-opacity="0.427"
     stroke-width="2.4"
     __comx="647.27"
     __comy="1699.341"
     __timestamp="0x18287add1f4"
     d="m 611.007,57.776 -0.894,1.145 -0.468,0.581 -0.503,0.662 -0.495,0.647 -0.46,0.621 -0.4,0.517 -0.35,0.495 -0.279,0.429 -0.208,0.502 0.085,0.592 0.009,0.538 -0.019,0.024 0.022,0.017 0.019,-0.024 0.532,-0.145 0.544,-0.076 0.426,-0.225 0.413,-0.402 0.404,-0.496 0.41,-0.525 0.469,-0.633 0.493,-0.66 0.486,-0.7 0.41,-0.631 0.8,-1.22"
     id="path228" />
  <path
     class="write-flat-pen"
     fill="#000000"
     fill-opacity="0.427"
     stroke-width="2.4"
     __comx="635.811"
     __comy="1699.341"
     __timestamp="0x18287add514"
     d="m 596.702,69.942 -0.436,1.005 -0.155,0.476 -0.089,0.634 -0.073,0.669 -0.072,0.722 -0.004,0.817 0.061,0.701 0.071,0.701 0.277,0.757 0.452,0.505 0.477,0.327 0.771,0.149 0.651,-0.223 0.491,-0.376 0.42,-0.45 0.344,-0.578 0.285,-0.606 0.176,-0.594 0.136,-0.598 0.076,-0.54 0.049,-0.559 -0.03,-0.653 -0.226,-0.609 -0.257,-0.603 -0.391,-0.518 -0.351,-0.46 -0.43,-0.456 -0.472,-0.306 -0.454,-0.193 -0.808,-0.013 -0.455,0.62 -10e-4,0.567 0.319,0.554 -0.024,0.139 0.237,0.042 0.024,-0.139 0.462,-0.255 0.262,0.05 -0.138,0.321 -0.362,0.015 -0.025,0.01 0.149,0.109 0.203,0.219 0.288,0.377 0.245,0.322 0.15,0.343 0.115,0.286 0.024,0.232 -0.011,0.381 -0.041,0.394 -0.099,0.449 -0.116,0.395 -0.183,0.39 -0.192,0.318 -0.175,0.181 -0.121,0.089 0.137,-0.05 0.133,0.017 0.042,0.023 -0.051,-0.06 -0.065,-0.178 -0.045,-0.444 -0.055,-0.603 -0.004,-0.649 0.045,-0.638 0.044,-0.647 0.037,-0.494 0.037,-0.294 0.258,-0.98"
     id="path230" />
  <path
     class="write-flat-pen"
     fill="#000000"
     fill-opacity="0.427"
     stroke-width="2.4"
     __comx="640.568"
     __comy="1699.341"
     __timestamp="0x18287add61f"
     d="m 602.753,74.151 -0.159,1.201 -0.074,0.406 -0.071,0.39 -0.088,0.449 -0.089,0.497 -0.072,0.391 -0.122,0.356 -0.099,0.323 -0.056,0.194 -0.059,0.248 0.131,-0.03 0.159,-0.03 -0.662,0.483 0.884,1.211 0.662,-0.483 0.271,-0.112 0.232,-0.251 0.166,-0.214 0.162,-0.306 0.131,-0.398 0.163,-0.476 0.101,-0.547 0.086,-0.499 0.086,-0.497 0.044,-0.505 -0.013,-0.459 0.035,-1.201"
     id="path232" />
  <path
     class="write-flat-pen"
     fill="#000000"
     fill-opacity="0.427"
     stroke-width="2.4"
     __comx="644.29"
     __comy="1699.341"
     __timestamp="0x18287add7a8"
     d="m 606.658,74.691 0.015,-0.874 0.053,-0.126 0.116,-0.27 0.201,-0.412 0.215,-0.52 0.258,-0.605 0.182,-0.644 0.102,-0.505 0.138,-0.533 0.052,-0.426 0.014,-0.19 0.022,-0.074 -1.926,0.037 -0.013,0.095 -0.007,0.359 0.021,0.581 -0.009,0.685 -0.007,0.706 -0.005,0.749 0.056,0.731 0.03,0.638 0.086,0.555 0.027,0.422 0.031,0.396 0.034,0.346 0.039,0.242 0.034,0.215 0.086,0.26 0.099,0.104 0.305,0.833 1.559,-0.423 -0.158,-0.873 0.063,-0.028 0.045,-0.031 0.029,-0.174 -0.017,-0.317 -0.022,-0.32 -0.026,-0.374 -0.032,-0.509 -0.086,-0.539 -0.028,-0.559 -0.06,-0.68 -0.005,-0.663 -0.007,-0.706 -0.01,-0.735 -0.036,-0.591 -0.017,-0.495 -0.079,-0.255 -1.926,0.037 -0.019,0.208 0.01,0.246 -0.006,0.222 -0.093,0.461 -0.072,0.482 -0.11,0.451 -0.208,0.498 -0.196,0.481 -0.209,0.44 -0.174,0.506 -0.048,0.443 0.015,1.024"
     id="path234" />
  <path
     class="write-flat-pen"
     fill="#000000"
     fill-opacity="0.427"
     stroke-width="2.4"
     __comx="650.357"
     __comy="1699.341"
     __timestamp="0x18287add93f"
     d="m 609.925,70.202 1.257,-0.086 0.512,-0.012 0.551,-0.044 0.535,-0.017 0.499,0.01 0.389,0.03 0.19,0.033 0.03,0.019 -0.089,-0.044 -0.148,-0.191 h -0.008 l 0.013,0.201 -0.008,0.487 -0.035,0.551 -0.139,0.687 -0.145,0.774 -0.193,0.738 -0.223,0.828 -0.095,0.77 -0.092,0.636 -0.03,0.558 -0.023,0.411 0.014,0.377 0.043,0.149 0.024,0.01 h 2.102 l -0.039,-0.248 -0.227,-0.27 -0.272,-0.873 -1.644,0.512 0.272,0.873 -0.146,-0.01 -0.047,-0.136 h 2.102 l 0.014,-0.115 0.006,-0.067 0.017,-0.11 0.033,-0.353 0.029,-0.48 0.082,-0.561 0.079,-0.639 0.183,-0.688 0.213,-0.83 0.146,-0.848 0.151,-0.834 0.022,-0.765 -0.014,-0.65 -0.063,-0.503 -0.168,-0.532 -0.344,-0.463 -0.421,-0.233 -0.405,-0.165 -0.55,-0.067 -0.53,-0.021 -0.602,0.01 -0.629,0.036 -0.56,0.06 -0.513,0.045 -1.29,0.161"
     id="path236" />
  <path
     class="write-flat-pen"
     fill="#000000"
     fill-opacity="0.427"
     stroke-width="2.4"
     __comx="651.528"
     __comy="1699.341"
     __timestamp="0x18287adda07"
     d="m 610.685,74.058 1.126,0.051 0.373,0.047 0.479,0.015 0.611,0.01 0.581,-0.026 h 0.664 l 0.626,-0.076 0.589,-0.1 0.521,-0.177 0.38,-0.338 0.185,-0.382 0.409,-0.147 -0.272,-0.758 -0.409,0.147 -0.375,-0.181 -0.368,-0.084 -0.337,-0.024 h -0.512 l -0.532,0.027 h -0.618 l -0.581,0.026 -0.565,0.01 -0.479,0.015 -0.373,0.047 -1.126,0.051"
     id="path238" />
  <path
     class="write-flat-pen"
     fill="#000000"
     fill-opacity="0.427"
     stroke-width="2.4"
     __comx="676.242"
     __comy="1699.294"
     __timestamp="0x18287ae46e1"
     d="m 639.226,70.616 -1.54,-0.848 -0.895,0.864 -0.147,0.66 0.048,0.524 0.212,0.493 0.381,0.4 0.547,0.298 0.441,0.144 0.65,0.07 0.842,-0.244 0.46,-0.386 0.366,-0.458 0.321,-0.669 -0.002,-0.602 -0.213,-0.653 -0.813,-0.73 -0.604,-0.195 -0.559,-0.046 -0.493,-0.012 -0.544,0.13 -0.439,0.168 -0.814,0.626 0.427,1.196 0.981,-0.229 0.466,0.095 0.145,-0.711 -0.466,-0.095 0.157,-0.397 0.366,0.946 -0.363,0.326 0.113,-0.038 0.178,-0.041 h 0.183 l 0.278,0.022 h -0.007 l 0.12,0.097 -0.042,-0.139 10e-4,-0.154 -0.031,0.067 -0.106,0.133 h 0.004 l -0.079,0.02 -0.06,-0.01 -0.076,-0.03 -0.127,-0.072 0.069,0.073 0.044,0.106 10e-4,0.068 -0.046,0.148 -0.483,0.417 0.403,0.137"
     id="path240" />
  <path
     class="write-flat-pen"
     fill="#000000"
     fill-opacity="0.427"
     stroke-width="2.4"
     __comx="685.492"
     __comy="1699.321"
     __timestamp="0x18287ae4a8e"
     d="m 648.428,71.173 -0.761,-0.164 -0.382,-0.1 -0.702,0.248 -0.442,0.818 0.346,0.722 0.555,0.437 0.46,0.18 0.631,0.081 0.542,-0.148 0.423,-0.317 0.309,-0.454 0.258,-0.494 0.086,-0.6 0.083,-0.491 0.032,-0.499 -0.046,-0.445 -0.101,-0.431 -0.365,-0.46 -0.496,-0.32 -0.813,-0.07 -0.545,0.213 -0.559,0.276 -0.595,0.631 -0.184,0.533 -0.087,0.244 -0.063,0.444 0.069,0.729 0.905,1.13 1.549,-0.933 -0.673,-1.269 -0.48,-0.239 -1.036,1.636 0.235,0.12 0.529,-0.153 0.303,-0.188 0.555,0.127 0.178,-0.78 -0.555,-0.127 -0.187,-0.3 0.002,-0.277 0.153,0.055 -1.036,1.636 -0.075,-0.04 -0.471,-0.895 1.456,-0.877 0.512,0.636 0.015,0.071 0.007,-0.032 0.027,-0.073 0.052,-0.15 0.069,-0.073 0.171,-0.086 0.05,-0.021 -0.109,-0.014 -0.162,-0.109 -0.082,-0.115 -0.012,-0.088 0.036,0.168 0.001,0.237 -0.054,0.411 -0.035,0.307 -0.061,0.124 -0.08,0.122 0.088,-0.064 0.128,-0.032 h -0.062 -0.02 l -0.044,-0.02 0.197,0.424 -0.26,0.455 -0.221,0.031 -0.015,-0.084 0.74,-0.014"
     id="path242" />
  <path
     class="write-flat-pen"
     fill="#000000"
     fill-opacity="0.427"
     stroke-width="2.4"
     __comx="697.26"
     __comy="1697.84"
     __timestamp="0x18287ae5fa3"
     d="m 661.189,68.363 -0.806,-0.027 -0.425,-0.048 -0.461,0.06 -0.258,0.043 -0.337,0.129 -0.474,0.299 -0.317,0.623 -0.081,0.434 0.041,0.402 0.203,0.486 0.358,0.305 0.328,0.171 0.495,0.144 0.331,0.043 0.355,-0.027 0.419,-0.014 0.58,-0.409 0.182,-0.786 -0.352,-0.76 -0.583,-0.257 -0.368,-0.07 -0.383,0.024 -0.811,0.979 0.073,0.499 0.569,0.4 0.243,0.107 0.944,0.419 0.695,-1.565 -0.944,-0.42 -0.081,-0.037 0.204,0.137 0.045,0.256 -0.811,0.979 0.177,-0.017 -0.019,-0.013 -0.164,-0.089 -0.14,-0.347 0.095,-0.38 0.315,-0.221 0.023,0.001 -0.221,0.018 -0.043,-0.01 -0.225,-0.069 -0.03,-0.017 0.067,0.056 0.032,0.078 0.003,0.051 -0.005,-0.01 0.011,-0.074 -0.005,-0.025 0.095,-0.065 0.117,-0.06 0.267,-0.117 0.271,-0.048 0.806,-0.027"
     id="path244" />
</svg>
